<svg width="334" height="162" viewBox="0 0 334 162" fill="none" xmlns="http://www.w3.org/2000/svg">
<rect y="0.430908" width="333.293" height="161.569" fill="white"/>
<path d="M333.5 159.846H201.77L193.351 125.378L163.49 57.5895L190.039 0.215332H333.5V159.846Z" fill="#8ACDFF"/>
<path d="M138.341 82.7234L155.937 0H227.357L138.341 82.7234Z" fill="#0C5CBF"/>
<path d="M165.046 58.1648L230.877 125.593L137.927 83.1542L165.046 58.1648Z" fill="#48BAFB"/>
<path d="M196.305 138.519L153.867 90.6941L188.646 105.774L196.305 138.519Z" fill="#0C5CBF"/>
<path d="M230.877 125.593L201.481 158.769L188.646 105.774L230.877 125.593Z" fill="#BCDAF4"/>
<path d="M268.804 132.303L210.693 97.5823V101.519L268.804 136.628V132.303Z" fill="#1E2134"/>
<path d="M268.804 136.627V132.303L326.853 97.324V101.583L268.804 136.627Z" fill="#1E2134"/>
<path d="M268.308 61.8283L326.977 97.4531L268.804 132.368L210.632 97.5822L268.308 61.8283Z" fill="#26498C"/>
<rect width="5.18012" height="2.08577" transform="matrix(0.688612 -0.719078 0.696598 0.723759 254.783 60.7087)" fill="#98B392"/>
<rect width="4.9243" height="1.71058" rx="0.855292" transform="matrix(0.688612 -0.719078 0.696598 0.723759 255.003 60.7314)" fill="#D3D6CF"/>
<ellipse rx="0.660604" ry="0.766777" transform="matrix(0.708911 -0.698 0.676261 0.743779 257.328 59.5142)" fill="#98B392"/>
<ellipse rx="0.229233" ry="0.227307" transform="matrix(0.708911 -0.698 0.676261 0.743779 258.407 58.4397)" fill="#98B392"/>
<rect width="5.15026" height="2.09795" transform="matrix(0.844061 -0.520656 0.499031 0.876081 254.923 60.5374)" fill="#98B392"/>
<rect width="4.89592" height="1.72057" rx="0.860286" transform="matrix(0.844061 -0.520656 0.499031 0.876081 255.131 60.6165)" fill="#D3D6CF"/>
<ellipse rx="0.657049" ry="0.770936" transform="matrix(0.858185 -0.495049 0.474476 0.890719 257.673 60.0404)" fill="#98B392"/>
<ellipse rx="0.227522" ry="0.228477" transform="matrix(0.858185 -0.495049 0.474476 0.890719 258.974 59.2794)" fill="#98B392"/>
<rect width="5.11647" height="2.11161" transform="matrix(0.96255 -0.230407 0.217969 0.986087 255.237 60.4229)" fill="#98B392"/>
<rect width="4.86379" height="1.73178" rx="0.86589" transform="matrix(0.96255 -0.230407 0.217969 0.986087 255.412 60.5647)" fill="#D3D6CF"/>
<ellipse rx="0.653059" ry="0.775588" transform="matrix(0.968086 -0.201254 0.190569 0.992693 258.002 60.8204)" fill="#98B392"/>
<ellipse rx="0.226031" ry="0.229959" transform="matrix(0.968086 -0.201254 0.190569 0.992693 259.464 60.507)" fill="#98B392"/>
<rect width="5.10475" height="2.1164" transform="matrix(0.989613 -0.0270338 0.0254581 1.0092 255.22 60.3333)" fill="#98B392"/>
<rect width="4.85266" height="1.7357" rx="0.867852" transform="matrix(0.989613 -0.0270338 0.0254581 1.0092 255.365 60.5081)" fill="#D3D6CF"/>
<ellipse rx="0.651732" ry="0.777155" transform="matrix(0.989219 0.0027509 -0.0025943 1.01026 257.855 61.2938)" fill="#98B392"/>
<ellipse rx="0.225991" ry="0.230623" transform="matrix(0.989219 0.0027509 -0.0025943 1.01026 259.348 61.289)" fill="#98B392"/>
<rect width="5.09644" height="2.11969" transform="matrix(0.971236 0.207889 -0.195149 0.987311 255.167 60.5933)" fill="#98B392"/>
<rect width="4.84476" height="1.73841" rx="0.869204" transform="matrix(0.971236 0.207889 -0.195149 0.987311 255.27 60.7976)" fill="#D3D6CF"/>
<ellipse rx="0.650742" ry="0.778288" transform="matrix(0.964236 0.236824 -0.22268 0.981821 257.523 62.1514)" fill="#98B392"/>
<ellipse rx="0.226076" ry="0.231058" transform="matrix(0.964236 0.236824 -0.22268 0.981821 258.979 62.4994)" fill="#98B392"/>
<path d="M300.185 99.9155C298.961 101.143 298.564 101.185 297.7 101.606L262.34 14.2878L263.774 13.2933C264.381 13.0196 264.655 13.0796 265.112 13.2933L297.7 32.8852C299.388 33.9575 300.097 34.6408 300.185 36.2666V99.9155Z" fill="#B6C9D2"/>
<path d="M289.959 30.3991V29.9019L294.355 32.4876V33.0843L289.959 30.3991Z" fill="#C2DDEB"/>
<path d="M294.929 32.0896L294.355 32.4874L289.959 29.9017L290.437 29.5039L294.929 32.0896Z" fill="#8391A9"/>
<path d="M294.355 33.0841V32.4874L294.929 32.0896V32.6863L294.355 33.0841Z" fill="#8CA0C3"/>
<path d="M295.693 34.2776L263.009 14.6856C261.345 13.7594 260.802 14.2889 260.811 17.8681V77.34C260.902 79.4978 261.018 80.5787 261.862 81.2186L295.502 101.507C297.137 102.422 297.718 102.379 297.796 100.711V38.7529C297.935 36.6935 297.797 35.6086 295.693 34.2776Z" fill="black"/>
<path d="M261.576 73.6603V18.7632L296.554 39.8469V94.9429L261.576 73.6603Z" fill="url(#paint0_linear)"/>
<ellipse rx="1.7376" ry="2.48315" transform="matrix(0.860341 -0.509718 0.479963 0.877289 276.877 86.4705)" fill="#C4C4C4"/>
<path d="M254.981 60.3694C254.443 60.6707 254.113 61.0174 253.739 61.5628L254.695 62.7562C255.302 62.6982 256.141 62.2205 256.797 61.0656C256.869 60.8035 256.804 60.7619 256.606 60.7672C256.64 60.5585 256.573 60.5462 256.415 60.5683C256.469 60.385 256.443 60.3285 256.224 60.3694C256.23 60.1003 256.173 60.0282 255.937 60.0711C255.609 60.23 255.444 60.3927 255.172 60.7672C255.351 60.3708 255.403 60.1889 254.981 60.3694Z" fill="#FCB184"/>
<path d="M238.352 41.5733C238.257 43.6617 238.924 46.3851 239.404 47.6398C242.995 49.6191 244.429 48.2929 245.329 41.7721C248.737 38.9858 249.228 37.9416 245.902 37.993C241.733 38.3067 238.448 39.4848 238.352 41.5733Z" fill="#4B5064"/>
<path d="M239.404 47.6397C239.223 48.1577 239.153 48.4939 239.117 49.2309L243.035 50.0265C243.1 49.2036 243.343 48.8071 243.895 48.1369C244.724 48.1033 245.085 47.9982 245.52 47.6397C246.104 44.7737 245.858 43.6083 245.233 41.6726C244.826 42.3496 244.667 42.9724 244.66 45.054H244.087C243.616 41.9522 242.425 43.6741 243.035 47.1424C241.885 47.7911 241.028 47.7944 239.404 47.6397Z" fill="#FCB184"/>
<path d="M242.407 105.427C242.001 104.455 241.91 103.975 242.342 103.4C245.55 103.087 247.787 104.241 247.544 104.801C247.3 105.362 242.344 105.819 242.407 105.427Z" fill="#AFC3FE"/>
<path d="M234.769 103.531C234.31 102.785 234.491 102.203 234.769 101.665C237.352 100.948 239.333 101.584 239.207 102.082C239.081 102.58 237.545 103.212 234.769 103.531Z" fill="#AFC3FE"/>
<path d="M230.229 62.1598C230.229 63.4527 232.521 64.7809 234.721 64.7455L235.39 52.7119C233.054 56.6187 230.229 60.8669 230.229 62.1598Z" fill="#F99748"/>
<path d="M234.912 66.8338C234.49 68.1368 234.266 68.8986 234.052 70.7124C237.496 73.0214 240.19 73.2881 246.667 71.5081C247.069 70.0529 247.124 69.0658 246.954 67.0327C246.535 67.6646 246.132 67.7188 245.138 67.3311C240.28 59.3948 242.702 53.639 245.52 53.1096C245.153 52.2461 244.774 51.8677 243.895 51.3194C244.014 50.9695 244.012 50.7741 243.895 50.4244C241.691 49.5894 240.621 49.4453 238.735 49.231C236.893 50.3306 236.151 51.0053 235.39 52.3139C233.571 59.5354 234.658 61.8265 234.912 66.8338Z" fill="#AFC3FE"/>
<path d="M247.145 63.3529C247.792 56.7719 247.301 54.8013 245.52 53.1094C240.727 54.3551 241.478 61.6637 245.042 67.3309C246.39 68.5287 250.404 66.5455 255.077 63.0545L253.739 61.0655C251.578 62.141 250.232 62.6848 247.145 63.3529Z" fill="#F99748"/>
<path d="M246.189 71.4087C241.539 72.8715 238.892 72.7581 234.721 71.1104V72.5027C239.288 73.804 241.843 73.727 246.093 72.5027L246.189 71.4087Z" fill="#26498C"/>
<path d="M241.697 90.4038C240.99 86.3649 240.551 83.9746 239.786 79.7625L237.683 101.443C236.677 101.854 236.041 101.887 234.721 101.443C234.357 86.7505 233.788 75.1402 234.721 72.4031C239.396 73.8715 241.849 73.6404 246.093 72.4031C246.385 84.402 246.413 91.1968 245.425 103.83C244.303 104.213 243.612 104.237 242.175 103.83L241.697 90.4038Z" fill="#F99746"/>
<rect x="240.359" y="74.8894" width="3.44046" height="0.596708" fill="#26498C"/>
<path d="M21.527 41.1675C21.527 40.7524 21.3806 40.4351 21.0876 40.2153C20.7946 39.9907 20.2673 39.7563 19.5056 39.5122C18.7438 39.2632 18.1408 39.019 17.6965 38.7798C16.4855 38.1255 15.8801 37.2441 15.8801 36.1357C15.8801 35.5596 16.0412 35.0469 16.3635 34.5977C16.6906 34.1436 17.1569 33.7896 17.7624 33.5356C18.3727 33.2817 19.0563 33.1548 19.8132 33.1548C20.5749 33.1548 21.2536 33.2939 21.8493 33.5723C22.445 33.8457 22.9064 34.2339 23.2336 34.7368C23.5656 35.2397 23.7316 35.811 23.7316 36.4507H21.5344C21.5344 35.9624 21.3806 35.584 21.0729 35.3154C20.7653 35.042 20.3332 34.9053 19.7766 34.9053C19.2394 34.9053 18.822 35.02 18.5241 35.2495C18.2263 35.4741 18.0773 35.772 18.0773 36.1431C18.0773 36.4897 18.2507 36.7803 18.5974 37.0146C18.9489 37.249 19.4641 37.4688 20.1428 37.6738C21.3928 38.0498 22.3034 38.5161 22.8747 39.0728C23.446 39.6294 23.7316 40.3228 23.7316 41.1528C23.7316 42.0757 23.3825 42.8008 22.6843 43.3281C21.986 43.8506 21.0461 44.1118 19.8644 44.1118C19.0441 44.1118 18.2971 43.9629 17.6232 43.665C16.9494 43.3623 16.4343 42.9497 16.0778 42.4272C15.7263 41.9048 15.5505 41.2993 15.5505 40.6108H17.7551C17.7551 41.7876 18.4582 42.376 19.8644 42.376C20.3869 42.376 20.7946 42.271 21.0876 42.061C21.3806 41.8462 21.527 41.5483 21.527 41.1675ZM27.5622 43.9653H25.3649V33.3013H27.5622V43.9653ZM32.4768 33.3013L35.216 41.0356L37.9406 33.3013H40.8264V43.9653H38.6218V41.0503L38.8415 36.0186L35.9631 43.9653H34.4543L31.5832 36.0259L31.8029 41.0503V43.9653H29.6057V33.3013H32.4768ZM44.9426 40.208V43.9653H42.7453V33.3013H46.9055C47.7062 33.3013 48.4094 33.4478 49.0148 33.7407C49.6252 34.0337 50.0939 34.4512 50.4211 34.9932C50.7482 35.5303 50.9118 36.1431 50.9118 36.8315C50.9118 37.8765 50.5529 38.7017 49.8352 39.3071C49.1223 39.9077 48.1335 40.208 46.8688 40.208H44.9426ZM44.9426 38.4282H46.9055C47.4865 38.4282 47.9284 38.2915 48.2311 38.0181C48.5388 37.7446 48.6926 37.354 48.6926 36.8462C48.6926 36.3237 48.5388 35.9014 48.2311 35.5791C47.9235 35.2568 47.4987 35.0908 46.9567 35.0811H44.9426V38.4282ZM58.8439 39.3438H54.6252V42.2002H59.5764V43.9653H52.4279V33.3013H59.5617V35.0811H54.6252V37.6226H58.8439V39.3438ZM63.0627 42.2002H67.7282V43.9653H60.8654V33.3013H63.0627V42.2002ZM75.5139 35.0811H72.2473V43.9653H70.05V35.0811H66.8273V33.3013H75.5139V35.0811ZM81.9152 41.7681H78.0627L77.3303 43.9653H74.9938L78.9636 33.3013H80.9997L84.9914 43.9653H82.655L81.9152 41.7681ZM78.656 39.9883H81.322L79.9816 35.9966L78.656 39.9883ZM85.9875 43.9653V33.3013H89.7228C91.0168 33.3013 91.9982 33.5503 92.6672 34.0483C93.3361 34.5415 93.6706 35.2666 93.6706 36.2236C93.6706 36.7461 93.5363 37.2075 93.2678 37.6079C92.9992 38.0034 92.6257 38.2939 92.1472 38.4795C92.694 38.6162 93.1237 38.8921 93.4362 39.3071C93.7536 39.7222 93.9123 40.23 93.9123 40.8306C93.9123 41.856 93.5852 42.6323 92.9309 43.1597C92.2766 43.687 91.3439 43.9556 90.133 43.9653H85.9875ZM88.1848 39.3218V42.2002H90.0671C90.5847 42.2002 90.9875 42.0781 91.2756 41.834C91.5686 41.585 91.715 41.2432 91.715 40.8086C91.715 39.832 91.2097 39.3364 90.1989 39.3218H88.1848ZM88.1848 37.769H89.8107C90.9191 37.7495 91.4733 37.3076 91.4733 36.4434C91.4733 35.96 91.3317 35.6133 91.0485 35.4033C90.7702 35.1885 90.3283 35.0811 89.7228 35.0811H88.1848V37.769Z" fill="#0C5CBF"/>
<path d="M270.36 130.022C270.004 129.271 270.024 128.982 270.36 128.649L286.271 120.001C286.233 120.61 286.28 120.898 286.598 121.222L270.36 130.022Z" fill="#B4B3B8"/>
<path d="M270.414 128.7V128.394L287.306 119.238L287.251 119.543L270.414 128.7Z" fill="#5F9FC2"/>
<path d="M270.36 130.073C270.24 129.536 270.248 129.146 270.36 128.649L258.318 122.188V123.46L270.36 130.073Z" fill="#FDFDFD"/>
<path d="M287.306 119.238L270.414 128.445L257.773 121.527L274.556 112.37L287.306 119.238Z" fill="#06C6F7"/>
<path d="M270.414 128.445L257.773 121.527V124.02L270.305 131.04V130.633L257.936 123.867V121.985L270.414 128.7V128.445Z" fill="#A0D9F9"/>
<path d="M257.936 121.985L258.317 122.188V123.46L270.305 130.023L286.543 121.171L287.36 121.476L270.305 130.633L257.936 123.867V121.985Z" fill="#07BAE8"/>
<path d="M270.305 131.04V130.633L287.36 121.476L287.415 121.883L270.305 131.04Z" fill="#578FAE"/>
<path d="M17.6965 67.1624H22.7502V68.3123H16.2829V57.6482H17.6965V67.1624ZM23.7829 64.2766C23.7829 63.5002 23.9343 62.802 24.237 62.1819C24.5446 61.5618 24.9694 61.0833 25.5114 60.7463C26.0583 60.4094 26.6809 60.241 27.3791 60.241C28.4582 60.241 29.3298 60.6145 29.9938 61.3616C30.6628 62.1086 30.9973 63.1023 30.9973 64.3425V64.4377C30.9973 65.2092 30.8483 65.9026 30.5505 66.5178C30.2575 67.1282 29.8352 67.6042 29.2834 67.946C28.7365 68.2878 28.1066 68.4587 27.3937 68.4587C26.3195 68.4587 25.4479 68.0852 24.779 67.3381C24.1149 66.5911 23.7829 65.6023 23.7829 64.3718V64.2766ZM25.1452 64.4377C25.1452 65.3167 25.3478 66.0222 25.7531 66.5544C26.1633 67.0867 26.7102 67.3528 27.3937 67.3528C28.0822 67.3528 28.6291 67.0842 29.0344 66.5471C29.4396 66.0051 29.6423 65.2483 29.6423 64.2766C29.6423 63.4075 29.4348 62.7043 29.0197 62.1672C28.6096 61.6252 28.0627 61.3542 27.3791 61.3542C26.7102 61.3542 26.1706 61.6204 25.7604 62.1526C25.3503 62.6848 25.1452 63.4465 25.1452 64.4377ZM36.527 61.6033C36.322 61.5691 36.0998 61.552 35.8605 61.552C34.9719 61.552 34.3688 61.9304 34.0515 62.6873V68.3123H32.6965V60.3875H34.0148L34.0368 61.303C34.4811 60.595 35.111 60.241 35.9265 60.241C36.1901 60.241 36.3903 60.2751 36.527 60.3435V61.6033ZM40.9216 68.4587C39.8474 68.4587 38.9733 68.1072 38.2995 67.4041C37.6257 66.696 37.2888 65.7512 37.2888 64.5696V64.3206C37.2888 63.5344 37.4377 62.8337 37.7355 62.2185C38.0383 61.5984 38.4582 61.115 38.9953 60.7683C39.5373 60.4167 40.1232 60.241 40.7531 60.241C41.7834 60.241 42.5842 60.5803 43.1555 61.259C43.7268 61.9377 44.0124 62.9094 44.0124 64.1741V64.738H38.6437C38.6633 65.5193 38.8903 66.1516 39.3249 66.635C39.7644 67.1135 40.321 67.3528 40.9948 67.3528C41.4733 67.3528 41.8786 67.2551 42.2106 67.0598C42.5427 66.8645 42.8332 66.6057 43.0822 66.2834L43.9099 66.928C43.2458 67.9485 42.2497 68.4587 40.9216 68.4587ZM40.7531 61.3542C40.2062 61.3542 39.7473 61.5544 39.3762 61.9548C39.0051 62.3503 38.7756 62.907 38.6877 63.6248H42.6574V63.5222C42.6184 62.8337 42.4328 62.3015 42.1008 61.9255C41.7687 61.5447 41.3195 61.3542 40.7531 61.3542ZM46.8615 60.3875L46.8981 61.2664C47.4792 60.5828 48.2629 60.241 49.2492 60.241C50.3576 60.241 51.112 60.6658 51.5124 61.5154C51.7761 61.1345 52.1179 60.8269 52.5378 60.5925C52.9626 60.3582 53.4631 60.241 54.0393 60.241C55.7775 60.241 56.6613 61.1614 56.6906 63.0022V68.3123H55.3356V63.0828C55.3356 62.5164 55.2062 62.094 54.9475 61.8157C54.6887 61.5325 54.2541 61.3909 53.6437 61.3909C53.1408 61.3909 52.7233 61.5422 52.3913 61.845C52.0593 62.1428 51.8664 62.5457 51.8127 63.0535V68.3123H50.4504V63.1194C50.4504 61.967 49.8864 61.3909 48.7585 61.3909C47.8698 61.3909 47.2619 61.7693 46.9348 62.5261V68.3123H45.5798V60.3875H46.8615ZM68.7672 68.3123H67.361V57.6482H68.7672V68.3123ZM77.8273 64.4377C77.8273 65.6438 77.5514 66.6155 76.9997 67.3528C76.4479 68.0901 75.7008 68.4587 74.7585 68.4587C73.7965 68.4587 73.0397 68.1536 72.4879 67.5432V71.3591H71.133V60.3875H72.3708L72.4367 61.2664C72.9884 60.5828 73.755 60.241 74.7365 60.241C75.6886 60.241 76.4406 60.5999 76.9923 61.3176C77.549 62.0354 77.8273 63.0339 77.8273 64.3132V64.4377ZM76.4723 64.2839C76.4723 63.3904 76.2819 62.6848 75.901 62.1672C75.5202 61.6497 74.9977 61.3909 74.3337 61.3909C73.5133 61.3909 72.8981 61.7546 72.4879 62.4822V66.2688C72.8932 66.9915 73.5133 67.3528 74.3483 67.3528C74.9977 67.3528 75.5129 67.0964 75.8937 66.5837C76.2795 66.0662 76.4723 65.2996 76.4723 64.2839ZM84.1701 66.2102C84.1701 65.844 84.0309 65.5608 83.7526 65.3606C83.4792 65.1555 82.9982 64.9797 82.3097 64.8333C81.6261 64.6868 81.0817 64.511 80.6764 64.3059C80.276 64.1008 79.9782 63.8567 79.7829 63.5735C79.5924 63.2903 79.4972 62.9534 79.4972 62.5627C79.4972 61.9133 79.7707 61.364 80.3175 60.9148C80.8693 60.4656 81.5724 60.241 82.4269 60.241C83.3254 60.241 84.0529 60.4729 84.6095 60.9368C85.1711 61.4006 85.4518 61.9939 85.4518 62.7166H84.0895C84.0895 62.3455 83.9308 62.0256 83.6134 61.7571C83.3009 61.4885 82.9054 61.3542 82.4269 61.3542C81.9338 61.3542 81.548 61.4617 81.2697 61.6765C80.9914 61.8914 80.8522 62.1721 80.8522 62.5188C80.8522 62.8459 80.9816 63.0925 81.2404 63.2585C81.4992 63.4246 81.9655 63.5833 82.6393 63.7346C83.318 63.886 83.8673 64.0667 84.2873 64.2766C84.7072 64.4866 85.0172 64.7405 85.2174 65.0383C85.4225 65.3313 85.5251 65.6902 85.5251 66.115C85.5251 66.823 85.2419 67.3918 84.6754 67.8215C84.109 68.2463 83.3742 68.4587 82.4709 68.4587C81.8361 68.4587 81.2746 68.3464 80.7863 68.1218C80.298 67.8972 79.9147 67.5847 79.6364 67.1843C79.3629 66.7791 79.2262 66.342 79.2262 65.8733H80.5812C80.6056 66.3274 80.7863 66.6887 81.1232 66.9573C81.465 67.2209 81.9142 67.3528 82.4709 67.3528C82.9836 67.3528 83.3937 67.2502 83.7013 67.0452C84.0138 66.8352 84.1701 66.5569 84.1701 66.2102ZM92.1828 67.5286C91.6554 68.1487 90.8815 68.4587 89.861 68.4587C89.0163 68.4587 88.3717 68.2146 87.9274 67.7263C87.488 67.2332 87.2658 66.5056 87.2609 65.5437V60.3875H88.6159V65.5071C88.6159 66.7083 89.1042 67.3088 90.0807 67.3088C91.1159 67.3088 91.8044 66.9231 92.1462 66.1516V60.3875H93.5011V68.3123H92.2121L92.1828 67.5286ZM96.841 60.3875L96.8776 61.2664C97.4587 60.5828 98.2423 60.241 99.2287 60.241C100.337 60.241 101.091 60.6658 101.492 61.5154C101.756 61.1345 102.097 60.8269 102.517 60.5925C102.942 60.3582 103.443 60.241 104.019 60.241C105.757 60.241 106.641 61.1614 106.67 63.0022V68.3123H105.315V63.0828C105.315 62.5164 105.186 62.094 104.927 61.8157C104.668 61.5325 104.234 61.3909 103.623 61.3909C103.12 61.3909 102.703 61.5422 102.371 61.845C102.039 62.1428 101.846 62.5457 101.792 63.0535V68.3123H100.43V63.1194C100.43 61.967 99.8659 61.3909 98.738 61.3909C97.8493 61.3909 97.2414 61.7693 96.9142 62.5261V68.3123H95.5592V60.3875H96.841ZM118.498 68.3123H117.143V60.3875H118.498V68.3123ZM117.033 58.2854C117.033 58.0657 117.099 57.8801 117.231 57.7288C117.367 57.5774 117.568 57.5017 117.831 57.5017C118.095 57.5017 118.295 57.5774 118.432 57.7288C118.568 57.8801 118.637 58.0657 118.637 58.2854C118.637 58.5051 118.568 58.6882 118.432 58.8347C118.295 58.9812 118.095 59.0544 117.831 59.0544C117.568 59.0544 117.367 58.9812 117.231 58.8347C117.099 58.6882 117.033 58.5051 117.033 58.2854ZM125.287 66.2102C125.287 65.844 125.148 65.5608 124.87 65.3606C124.596 65.1555 124.115 64.9797 123.427 64.8333C122.743 64.6868 122.199 64.511 121.794 64.3059C121.393 64.1008 121.095 63.8567 120.9 63.5735C120.71 63.2903 120.614 62.9534 120.614 62.5627C120.614 61.9133 120.888 61.364 121.435 60.9148C121.986 60.4656 122.69 60.241 123.544 60.241C124.443 60.241 125.17 60.4729 125.727 60.9368C126.288 61.4006 126.569 61.9939 126.569 62.7166H125.207C125.207 62.3455 125.048 62.0256 124.731 61.7571C124.418 61.4885 124.023 61.3542 123.544 61.3542C123.051 61.3542 122.665 61.4617 122.387 61.6765C122.109 61.8914 121.969 62.1721 121.969 62.5188C121.969 62.8459 122.099 63.0925 122.358 63.2585C122.616 63.4246 123.083 63.5833 123.756 63.7346C124.435 63.886 124.984 64.0667 125.404 64.2766C125.824 64.4866 126.134 64.7405 126.335 65.0383C126.54 65.3313 126.642 65.6902 126.642 66.115C126.642 66.823 126.359 67.3918 125.793 67.8215C125.226 68.2463 124.491 68.4587 123.588 68.4587C122.953 68.4587 122.392 68.3464 121.903 68.1218C121.415 67.8972 121.032 67.5847 120.754 67.1843C120.48 66.7791 120.343 66.342 120.343 65.8733H121.698C121.723 66.3274 121.903 66.6887 122.24 66.9573C122.582 67.2209 123.031 67.3528 123.588 67.3528C124.101 67.3528 124.511 67.2502 124.818 67.0452C125.131 66.8352 125.287 66.5569 125.287 66.2102ZM20.6848 84.2102C20.6848 83.844 20.5456 83.5608 20.2673 83.3606C19.9938 83.1555 19.5129 82.9797 18.8244 82.8333C18.1408 82.6868 17.5964 82.511 17.1911 82.3059C16.7907 82.1008 16.4929 81.8567 16.2976 81.5735C16.1071 81.2903 16.0119 80.9534 16.0119 80.5627C16.0119 79.9133 16.2853 79.364 16.8322 78.9148C17.384 78.4656 18.0871 78.241 18.9416 78.241C19.84 78.241 20.5676 78.4729 21.1242 78.9368C21.6857 79.4006 21.9665 79.9939 21.9665 80.7166H20.6042C20.6042 80.3455 20.4455 80.0256 20.1281 79.7571C19.8156 79.4885 19.4201 79.3542 18.9416 79.3542C18.4484 79.3542 18.0627 79.4617 17.7844 79.6765C17.5061 79.8914 17.3669 80.1721 17.3669 80.5188C17.3669 80.8459 17.4963 81.0925 17.7551 81.2585C18.0139 81.4246 18.4802 81.5833 19.154 81.7346C19.8327 81.886 20.382 82.0667 20.8019 82.2766C21.2219 82.4866 21.5319 82.7405 21.7321 83.0383C21.9372 83.3313 22.0397 83.6902 22.0397 84.115C22.0397 84.823 21.7565 85.3918 21.1901 85.8215C20.6237 86.2463 19.8889 86.4587 18.9855 86.4587C18.3508 86.4587 17.7893 86.3464 17.301 86.1218C16.8127 85.8972 16.4294 85.5847 16.1511 85.1843C15.8776 84.7791 15.7409 84.342 15.7409 83.8733H17.0959C17.1203 84.3274 17.301 84.6887 17.6379 84.9573C17.9797 85.2209 18.4289 85.3528 18.9855 85.3528C19.4982 85.3528 19.9084 85.2502 20.216 85.0452C20.5285 84.8352 20.6848 84.5569 20.6848 84.2102ZM25.277 86.3123H23.9221V78.3875H25.277V86.3123ZM23.8122 76.2854C23.8122 76.0657 23.8781 75.8801 24.01 75.7288C24.1467 75.5774 24.3469 75.5017 24.6105 75.5017C24.8742 75.5017 25.0744 75.5774 25.2111 75.7288C25.3478 75.8801 25.4162 76.0657 25.4162 76.2854C25.4162 76.5051 25.3478 76.6882 25.2111 76.8347C25.0744 76.9812 24.8742 77.0544 24.6105 77.0544C24.3469 77.0544 24.1467 76.9812 24.01 76.8347C23.8781 76.6882 23.8122 76.5051 23.8122 76.2854ZM28.7268 78.3875L28.7634 79.2664C29.3444 78.5828 30.1281 78.241 31.1144 78.241C32.2228 78.241 32.9772 78.6658 33.3776 79.5154C33.6413 79.1345 33.9831 78.8269 34.403 78.5925C34.8278 78.3582 35.3283 78.241 35.9045 78.241C37.6428 78.241 38.5266 79.1614 38.5559 81.0022V86.3123H37.2009V81.0828C37.2009 80.5164 37.0715 80.094 36.8127 79.8157C36.5539 79.5325 36.1193 79.3909 35.509 79.3909C35.0061 79.3909 34.5886 79.5422 34.2565 79.845C33.9245 80.1428 33.7316 80.5457 33.6779 81.0535V86.3123H32.3156V81.1194C32.3156 79.967 31.7517 79.3909 30.6237 79.3909C29.7351 79.3909 29.1271 79.7693 28.8 80.5261V86.3123H27.445V78.3875H28.7268ZM47.301 82.4377C47.301 83.6438 47.0251 84.6155 46.4733 85.3528C45.9216 86.0901 45.1745 86.4587 44.2321 86.4587C43.2702 86.4587 42.5134 86.1536 41.9616 85.5432V89.3591H40.6066V78.3875H41.8444L41.9103 79.2664C42.4621 78.5828 43.2287 78.241 44.2102 78.241C45.1623 78.241 45.9143 78.5999 46.466 79.3176C47.0227 80.0354 47.301 81.0339 47.301 82.3132V82.4377ZM45.946 82.2839C45.946 81.3904 45.7556 80.6848 45.3747 80.1672C44.9938 79.6497 44.4714 79.3909 43.8073 79.3909C42.987 79.3909 42.3718 79.7546 41.9616 80.4822V84.2688C42.3669 84.9915 42.987 85.3528 43.822 85.3528C44.4714 85.3528 44.9865 85.0964 45.3674 84.5837C45.7531 84.0662 45.946 83.2996 45.946 82.2839ZM50.5017 86.3123H49.1467V75.0623H50.5017V86.3123ZM55.2697 84.3274L57.1154 78.3875H58.5656L55.3796 87.5354C54.8864 88.8538 54.1027 89.5129 53.0285 89.5129L52.7722 89.491L52.2668 89.3958V88.2971L52.633 88.3264C53.092 88.3264 53.4484 88.2336 53.7023 88.0481C53.9611 87.8625 54.1735 87.5232 54.3395 87.03L54.6398 86.2244L51.8127 78.3875H53.2922L55.2697 84.3274ZM77.9215 82.2839C77.9215 81.0681 78.2096 80.0916 78.7858 79.3542C79.3619 78.6121 80.1163 78.241 81.049 78.241C81.9767 78.241 82.7115 78.5583 83.2535 79.1931V75.0623H84.6085V86.3123H83.3634L83.2975 85.4626C82.7555 86.1267 82.0011 86.4587 81.0343 86.4587C80.1163 86.4587 79.3668 86.0828 78.7858 85.3308C78.2096 84.5789 77.9215 83.5974 77.9215 82.3865V82.2839ZM79.2765 82.4377C79.2765 83.3362 79.462 84.0393 79.8331 84.5471C80.2042 85.0549 80.7169 85.3088 81.3712 85.3088C82.2306 85.3088 82.858 84.9231 83.2535 84.1516V80.5115C82.8483 79.7644 82.2257 79.3909 81.3859 79.3909C80.7218 79.3909 80.2042 79.6472 79.8331 80.1599C79.462 80.6726 79.2765 81.4319 79.2765 82.4377ZM91.6105 85.5286C91.0831 86.1487 90.3092 86.4587 89.2887 86.4587C88.444 86.4587 87.7994 86.2146 87.3551 85.7263C86.9156 85.2332 86.6935 84.5056 86.6886 83.5437V78.3875H88.0436V83.5071C88.0436 84.7083 88.5319 85.3088 89.5084 85.3088C90.5436 85.3088 91.2321 84.9231 91.5739 84.1516V78.3875H92.9288V86.3123H91.6398L91.6105 85.5286ZM96.2687 78.3875L96.3053 79.2664C96.8864 78.5828 97.67 78.241 98.6564 78.241C99.7648 78.241 100.519 78.6658 100.92 79.5154C101.183 79.1345 101.525 78.8269 101.945 78.5925C102.37 78.3582 102.87 78.241 103.446 78.241C105.185 78.241 106.068 79.1614 106.098 81.0022V86.3123H104.743V81.0828C104.743 80.5164 104.613 80.094 104.355 79.8157C104.096 79.5325 103.661 79.3909 103.051 79.3909C102.548 79.3909 102.13 79.5422 101.798 79.845C101.466 80.1428 101.274 80.5457 101.22 81.0535V86.3123H99.8575V81.1194C99.8575 79.967 99.2936 79.3909 98.1656 79.3909C97.277 79.3909 96.6691 79.7693 96.3419 80.5261V86.3123H94.9869V78.3875H96.2687ZM109.423 78.3875L109.46 79.2664C110.041 78.5828 110.824 78.241 111.811 78.241C112.919 78.241 113.673 78.6658 114.074 79.5154C114.338 79.1345 114.679 78.8269 115.099 78.5925C115.524 78.3582 116.025 78.241 116.601 78.241C118.339 78.241 119.223 79.1614 119.252 81.0022V86.3123H117.897V81.0828C117.897 80.5164 117.768 80.094 117.509 79.8157C117.25 79.5325 116.816 79.3909 116.205 79.3909C115.702 79.3909 115.285 79.5422 114.953 79.845C114.621 80.1428 114.428 80.5457 114.374 81.0535V86.3123H113.012V81.1194C113.012 79.967 112.448 79.3909 111.32 79.3909C110.431 79.3909 109.823 79.7693 109.496 80.5261V86.3123H108.141V78.3875H109.423ZM123.896 84.3274L125.741 78.3875H127.192L124.005 87.5354C123.512 88.8538 122.729 89.5129 121.654 89.5129L121.398 89.491L120.893 89.3958V88.2971L121.259 88.3264C121.718 88.3264 122.074 88.2336 122.328 88.0481C122.587 87.8625 122.799 87.5232 122.965 87.03L123.266 86.2244L120.439 78.3875H121.918L123.896 84.3274ZM17.9089 94.4685V96.3875H19.3884V97.4348H17.9089V102.349C17.9089 102.667 17.9748 102.906 18.1066 103.067C18.2385 103.223 18.4631 103.302 18.7805 103.302C18.9367 103.302 19.1516 103.272 19.425 103.214V104.312C19.0686 104.41 18.7219 104.459 18.385 104.459C17.7795 104.459 17.3229 104.276 17.0153 103.909C16.7077 103.543 16.5539 103.023 16.5539 102.349V97.4348H15.111V96.3875H16.5539V94.4685H17.9089ZM24.2663 104.459C23.1921 104.459 22.3181 104.107 21.6442 103.404C20.9704 102.696 20.6335 101.751 20.6335 100.57V100.321C20.6335 99.5344 20.7824 98.8337 21.0803 98.2185C21.383 97.5984 21.8029 97.115 22.34 96.7683C22.882 96.4167 23.468 96.241 24.0978 96.241C25.1281 96.241 25.9289 96.5803 26.5002 97.259C27.0715 97.9377 27.3571 98.9094 27.3571 100.174V100.738H21.9885C22.008 101.519 22.2351 102.152 22.6696 102.635C23.1091 103.114 23.6657 103.353 24.3395 103.353C24.8181 103.353 25.2233 103.255 25.5554 103.06C25.8874 102.865 26.1779 102.606 26.4269 102.283L27.2546 102.928C26.5905 103.948 25.5944 104.459 24.2663 104.459ZM24.0978 97.3542C23.551 97.3542 23.092 97.5544 22.7209 97.9548C22.3498 98.3503 22.1203 98.907 22.0324 99.6248H26.0021V99.5222C25.9631 98.8337 25.7775 98.3015 25.4455 97.9255C25.1135 97.5447 24.6643 97.3542 24.0978 97.3542ZM31.5905 99.2805L33.3483 96.3875H34.9304L32.3376 100.306L35.0109 104.312H33.4436L31.6125 101.346L29.7814 104.312H28.2067L30.8801 100.306L28.2873 96.3875H29.8547L31.5905 99.2805ZM38.2116 94.4685V96.3875H39.6911V97.4348H38.2116V102.349C38.2116 102.667 38.2775 102.906 38.4094 103.067C38.5412 103.223 38.7658 103.302 39.0832 103.302C39.2394 103.302 39.4543 103.272 39.7277 103.214V104.312C39.3713 104.41 39.0246 104.459 38.6877 104.459C38.0822 104.459 37.6257 104.276 37.3181 103.909C37.0104 103.543 36.8566 103.023 36.8566 102.349V97.4348H35.4138V96.3875H36.8566V94.4685H38.2116ZM67.0387 100.277C67.0387 99.5002 67.1901 98.802 67.4928 98.1819C67.8004 97.5618 68.2253 97.0833 68.7672 96.7463C69.3141 96.4094 69.9367 96.241 70.6349 96.241C71.714 96.241 72.5856 96.6145 73.2497 97.3616C73.9186 98.1086 74.2531 99.1023 74.2531 100.343V100.438C74.2531 101.209 74.1042 101.903 73.8063 102.518C73.5133 103.128 73.091 103.604 72.5392 103.946C71.9923 104.288 71.3625 104.459 70.6496 104.459C69.5754 104.459 68.7038 104.085 68.0348 103.338C67.3708 102.591 67.0387 101.602 67.0387 100.372V100.277ZM68.401 100.438C68.401 101.317 68.6037 102.022 69.0089 102.554C69.4191 103.087 69.966 103.353 70.6496 103.353C71.338 103.353 71.8849 103.084 72.2902 102.547C72.6955 102.005 72.8981 101.248 72.8981 100.277C72.8981 99.4075 72.6906 98.7043 72.2755 98.1672C71.8654 97.6252 71.3185 97.3542 70.6349 97.3542C69.966 97.3542 69.4264 97.6204 69.0163 98.1526C68.6061 98.6848 68.401 99.4465 68.401 100.438ZM76.6188 104.312V97.4348H75.3664V96.3875H76.6188V95.5745C76.6188 94.7249 76.8459 94.0681 77.3 93.6042C77.7541 93.1404 78.3962 92.9084 79.2262 92.9084C79.5387 92.9084 79.8488 92.95 80.1564 93.033L80.0832 94.1316C79.8537 94.0876 79.6095 94.0657 79.3507 94.0657C78.9113 94.0657 78.5719 94.1951 78.3327 94.4539C78.0934 94.7078 77.9738 95.074 77.9738 95.5525V96.3875H79.6657V97.4348H77.9738V104.312H76.6188ZM109.123 94.4685V96.3875H110.602V97.4348H109.123V102.349C109.123 102.667 109.189 102.906 109.32 103.067C109.452 103.223 109.677 103.302 109.994 103.302C110.151 103.302 110.365 103.272 110.639 103.214V104.312C110.282 104.41 109.936 104.459 109.599 104.459C108.993 104.459 108.537 104.276 108.229 103.909C107.922 103.543 107.768 103.023 107.768 102.349V97.4348H106.325V96.3875H107.768V94.4685H109.123ZM113.547 97.3469C114.147 96.6096 114.928 96.241 115.89 96.241C117.565 96.241 118.41 97.1858 118.424 99.0754V104.312H117.069V99.0681C117.065 98.4968 116.933 98.0745 116.674 97.801C116.42 97.5276 116.022 97.3909 115.48 97.3909C115.041 97.3909 114.655 97.5081 114.323 97.7424C113.991 97.9768 113.732 98.2844 113.547 98.6653V104.312H112.192V93.0623H113.547V97.3469ZM123.742 104.459C122.668 104.459 121.794 104.107 121.12 103.404C120.446 102.696 120.109 101.751 120.109 100.57V100.321C120.109 99.5344 120.258 98.8337 120.556 98.2185C120.859 97.5984 121.278 97.115 121.816 96.7683C122.358 96.4167 122.943 96.241 123.573 96.241C124.604 96.241 125.404 96.5803 125.976 97.259C126.547 97.9377 126.833 98.9094 126.833 100.174V100.738H121.464C121.484 101.519 121.711 102.152 122.145 102.635C122.585 103.114 123.141 103.353 123.815 103.353C124.294 103.353 124.699 103.255 125.031 103.06C125.363 102.865 125.653 102.606 125.902 102.283L126.73 102.928C126.066 103.948 125.07 104.459 123.742 104.459ZM123.573 97.3542C123.026 97.3542 122.568 97.5544 122.196 97.9548C121.825 98.3503 121.596 98.907 121.508 99.6248H125.478V99.5222C125.439 98.8337 125.253 98.3015 124.921 97.9255C124.589 97.5447 124.14 97.3542 123.573 97.3542ZM22.7648 118.438C22.7648 119.644 22.489 120.615 21.9372 121.353C21.3854 122.09 20.6384 122.459 19.696 122.459C18.7341 122.459 17.9772 122.154 17.4255 121.543V125.359H16.0705V114.387H17.3083L17.3742 115.266C17.926 114.583 18.6926 114.241 19.674 114.241C20.6262 114.241 21.3781 114.6 21.9299 115.318C22.4865 116.035 22.7648 117.034 22.7648 118.313V118.438ZM21.4099 118.284C21.4099 117.39 21.2194 116.685 20.8386 116.167C20.4577 115.65 19.9352 115.391 19.2712 115.391C18.4509 115.391 17.8356 115.755 17.4255 116.482V120.269C17.8308 120.991 18.4509 121.353 19.2858 121.353C19.9352 121.353 20.4504 121.096 20.8312 120.584C21.217 120.066 21.4099 119.3 21.4099 118.284ZM28.3239 115.603C28.1188 115.569 27.8967 115.552 27.6574 115.552C26.7687 115.552 26.1657 115.93 25.8483 116.687V122.312H24.4934V114.387H25.8117L25.8337 115.303C26.278 114.595 26.9079 114.241 27.7233 114.241C27.987 114.241 28.1872 114.275 28.3239 114.344V115.603ZM31.0485 122.312H29.6936V114.387H31.0485V122.312ZM29.5837 112.285C29.5837 112.066 29.6496 111.88 29.7814 111.729C29.9182 111.577 30.1184 111.502 30.382 111.502C30.6457 111.502 30.8459 111.577 30.9826 111.729C31.1193 111.88 31.1877 112.066 31.1877 112.285C31.1877 112.505 31.1193 112.688 30.9826 112.835C30.8459 112.981 30.6457 113.054 30.382 113.054C30.1184 113.054 29.9182 112.981 29.7814 112.835C29.6496 112.688 29.5837 112.505 29.5837 112.285ZM34.5056 114.387L34.5495 115.384C35.155 114.622 35.946 114.241 36.9226 114.241C38.5974 114.241 39.4421 115.186 39.4567 117.075V122.312H38.1018V117.068C38.0969 116.497 37.965 116.074 37.7062 115.801C37.4523 115.528 37.0544 115.391 36.5124 115.391C36.0729 115.391 35.6872 115.508 35.3552 115.742C35.0231 115.977 34.7644 116.284 34.5788 116.665V122.312H33.2238V114.387H34.5056ZM43.3386 112.469V114.387H44.8181V115.435H43.3386V120.349C43.3386 120.667 43.4045 120.906 43.5363 121.067C43.6682 121.223 43.8928 121.302 44.2102 121.302C44.3664 121.302 44.5812 121.272 44.8547 121.214V122.312C44.4982 122.41 44.1516 122.459 43.8146 122.459C43.2092 122.459 42.7526 122.276 42.445 121.909C42.1374 121.543 41.9836 121.023 41.9836 120.349V115.435H40.5407V114.387H41.9836V112.469H43.3386ZM47.8796 122.312H46.5246V114.387H47.8796V122.312ZM46.4147 112.285C46.4147 112.066 46.4807 111.88 46.6125 111.729C46.7492 111.577 46.9494 111.502 47.2131 111.502C47.4768 111.502 47.6769 111.577 47.8137 111.729C47.9504 111.88 48.0187 112.066 48.0187 112.285C48.0187 112.505 47.9504 112.688 47.8137 112.835C47.6769 112.981 47.4768 113.054 47.2131 113.054C46.9494 113.054 46.7492 112.981 46.6125 112.835C46.4807 112.688 46.4147 112.505 46.4147 112.285ZM51.3366 114.387L51.3806 115.384C51.986 114.622 52.777 114.241 53.7536 114.241C55.4284 114.241 56.2731 115.186 56.2878 117.075V122.312H54.9328V117.068C54.9279 116.497 54.7961 116.074 54.5373 115.801C54.2834 115.528 53.8854 115.391 53.3435 115.391C52.904 115.391 52.5183 115.508 52.1862 115.742C51.8542 115.977 51.5954 116.284 51.4099 116.665V122.312H50.0549V114.387H51.3366ZM58.009 118.284C58.009 117.049 58.2946 116.067 58.8659 115.34C59.4372 114.607 60.194 114.241 61.1364 114.241C62.1032 114.241 62.8576 114.583 63.3996 115.266L63.4655 114.387H64.7033V122.122C64.7033 123.147 64.3981 123.955 63.7878 124.546C63.1823 125.137 62.3669 125.432 61.3415 125.432C60.7702 125.432 60.2111 125.31 59.6643 125.066C59.1174 124.822 58.6999 124.488 58.4118 124.063L59.1149 123.25C59.696 123.968 60.4064 124.326 61.2463 124.326C61.9055 124.326 62.4182 124.141 62.7844 123.77C63.1555 123.399 63.341 122.876 63.341 122.202V121.521C62.799 122.146 62.0593 122.459 61.1218 122.459C60.194 122.459 59.4421 122.085 58.8659 121.338C58.2946 120.591 58.009 119.573 58.009 118.284ZM59.3713 118.438C59.3713 119.331 59.5544 120.034 59.9206 120.547C60.2868 121.055 60.7995 121.309 61.4587 121.309C62.3132 121.309 62.9406 120.921 63.341 120.144V116.526C62.926 115.769 62.3034 115.391 61.4733 115.391C60.8142 115.391 60.299 115.647 59.9279 116.16C59.5568 116.673 59.3713 117.432 59.3713 118.438Z" fill="#696969"/>
<defs>
<linearGradient id="paint0_linear" x1="279.065" y1="18.7632" x2="279.065" y2="94.9429" gradientUnits="userSpaceOnUse">
<stop stop-color="white"/>
<stop offset="1" stop-color="#087CDB"/>
</linearGradient>
</defs>
</svg>
