<svg width="341" height="170" viewBox="0 0 341 170" fill="none" xmlns="http://www.w3.org/2000/svg">
<g filter="url(#filter0_d)">
<rect x="4" width="332.882" height="162" fill="white"/>
</g>
<path d="M336.879 121.266C304.153 135.859 284.52 140.973 250.101 146.489C283.537 151.373 304.31 152.199 336.879 150.295V121.266Z" fill="url(#paint0_linear)"/>
<path d="M336.882 121.596C228.583 174.638 89.6939 147.13 4 92.1064V49.6301C101.558 124.441 175.53 137.435 336.882 121.596Z" fill="#65A6E2"/>
<path d="M4 162V40.4043C16.6929 62.2341 169.417 160.277 336.882 150.319V162H4Z" fill="url(#paint1_linear)" fill-opacity="0.8"/>
<path d="M336.879 118.925C245.854 138.306 190.605 131.185 102.112 103.942C203.256 144.682 249.279 168.555 336.879 121.734V118.925Z" fill="#65A6E2"/>
<path d="M233.131 83.1631C246.767 136.029 320.28 132.803 331.077 83.1631H233.131Z" fill="#0C5CBF"/>
<ellipse cx="282.168" cy="83.0441" rx="49.0368" ry="5.83757" fill="#44B4FE"/>
<path d="M256.305 109.069C255.966 109.008 255.803 108.962 255.802 108.763L256.731 108.024L257.467 107.61L257.815 107.286L258.763 107.105L260.041 106.313L261.956 104.439L263.195 103.233L265.575 99.9902L266.214 99.5578L267.085 98.2249L267.433 97.9547L267.995 97.9547L268.382 97.4503L269.117 96.5316L269.369 96.0272L270.22 95.5228L270.414 95.1085L270.607 94.6582L270.607 94.424L271.091 94.1899L271.304 93.7215L271.884 93.091L272.91 92.2984L273.723 91.3437L274.516 89.5964L275.213 89.8666L275.213 89.5964L275.813 90.1008L276.181 90.371L276.471 90.5872L277.226 90.5872L277.787 90.8934L278.445 90.8934L279.316 90.5872L279.722 90.5872L280.284 90.5872L281.116 90.8934L281.116 91.2176L281.851 91.5599L282.954 91.8481L283.786 91.2176L284.232 91.5599L284.812 91.2176L286.418 91.8481L286.418 92.5146L286.418 93.3792L287.56 93.7575L290.463 94.406L290.85 94.406L291.857 94.9104L292.476 94.9104L293.056 96.1353L293.598 96.5136L294.295 96.5136L293.598 97.4323C293.418 97.4863 293.056 97.6448 293.056 97.8466C293.056 98.0988 292.766 98.1168 292.766 98.459C292.766 98.7328 292.482 98.9574 292.34 99.0355L291.857 99.6119L292.34 100.152L292.476 100.873L293.056 101.629L292.34 103.395L292.34 104.223C292.34 104.468 292.018 105.022 291.857 105.268L291.857 107.592L292.34 108.096L292.476 109.069L292.766 109.069L293.385 109.249L293.385 109.663L293.056 110.006L293.056 110.294L292.766 110.474L292.34 110.906L292.34 111.411L293.598 111.627L293.695 111.501L293.85 111.501L296.443 112.509L296.908 113.464L297.527 113.824L297.643 114.383L298.146 115.518L299.617 116.635L299.54 117.103L299.172 117.553L298.94 117.733L298.34 117.859L297.314 117.914L296.753 117.859L296.288 117.625L295.127 118.382L294.469 118.958L294.295 118.904L294.121 119.066L294.121 119.228L293.85 119.391L293.598 119.391L293.056 119.571L292.476 119.805L292.205 119.967L291.953 119.967L291.702 120.165L291.431 120.093L291.199 120.165L291.14 120.093L290.792 120.093L290.521 119.967L289.999 120.309L289.844 120.471L289.592 120.471C289.573 120.225 289.53 119.722 289.515 119.679C289.499 119.636 289.405 119.589 289.36 119.571L289.302 119.481L287.522 119.571L286.689 118.994L285.044 119.409C285.012 119.469 284.948 119.607 284.948 119.679C284.948 119.751 284.754 119.709 284.657 119.679L284.348 120.129L284.212 120.183L283.825 120.183L283.496 120.057L283.361 120.237L283.245 120.237L282.974 120.309L282.703 120.237L282.277 120.399C282.174 120.423 281.956 120.471 281.909 120.471C281.863 120.471 281.748 120.423 281.696 120.399L281.309 120.471L281.077 120.399C280.98 120.345 280.771 120.237 280.709 120.237C280.647 120.237 280.529 120.345 280.477 120.399L280.051 120.471L279.8 120.634L279.297 120.634L279.045 120.85L278.6 120.94L278.31 120.94L278.193 120.94L277.942 120.94L277.671 121.048L277.477 120.85L277.284 120.85L276.858 120.634C276.716 120.64 276.432 120.648 276.432 120.634C276.432 120.619 276.381 120.483 276.355 120.417L276.123 120.417L275.774 120.309L275.6 120.363L275.407 120.237L275.31 119.949L275.02 120.021C274.897 119.937 274.64 119.758 274.594 119.715C274.547 119.672 274.291 119.601 274.168 119.571L273.781 119.643L273.51 119.571L273.394 119.643L272.949 119.715C272.833 119.661 272.581 119.549 272.504 119.535C272.407 119.517 272.446 119.589 272.407 119.643C272.376 119.686 272.162 119.541 272.059 119.463L272.059 118.76L272.272 118.688L272.504 118.76L273.2 118.904L273.626 119.03L273.955 119.174L275.174 118.904L275.407 119.102L276.355 119.174L276.432 119.03L276.974 118.976L277.148 118.526L276.974 118.436L277.206 118.058L277.206 117.95L276.974 117.841L276.858 117.553L276.548 117.409C276.548 117.385 276.545 117.33 276.529 117.301C276.514 117.272 276.29 117.097 276.181 117.013L275.91 116.941L275.6 116.689L275.31 116.689L275.02 116.544L274.865 116.544L274.787 117.139L274.362 117.139L274.168 117.049L273.471 116.923L273.084 116.851L272.678 116.887C272.562 116.863 272.326 116.811 272.31 116.797C272.295 116.782 272.278 117.127 272.272 117.301L272.194 117.445L271.633 117.481L270.82 117.337L270.491 117.013L270.336 116.905C270.246 116.917 270.061 116.941 270.046 116.941C270.03 116.941 269.704 116.809 269.543 116.743L268.904 116.346L268.691 116.346L268.556 116.274L268.343 116.274C268.327 116.274 268.298 116.238 268.285 116.22L268.033 116.22L267.84 116.13L267.491 115.914L267.298 115.914L267.22 115.824L267.259 115.644C267.111 115.62 266.806 115.568 266.775 115.554C266.744 115.539 266.582 115.452 266.504 115.41L265.324 115.338L264.743 115.085L264.24 115.013L263.621 114.653L263.447 114.689L262.673 114.347L262.169 114.365L262.015 114.077L261.744 114.023L261.608 114.113L261.24 114.041C261.137 114.029 260.919 114.005 260.873 114.005C260.826 114.005 260.763 114.065 260.737 114.095L260.969 114.347L260.873 114.401L260.563 114.257L260.563 114.545C260.492 114.557 260.346 114.581 260.331 114.581C260.315 114.581 260.286 114.653 260.273 114.689L260.06 114.743L259.828 114.689L259.595 114.581L259.595 114.095L259.402 114.005C259.371 113.99 259.234 114.095 259.17 114.149L259.034 114.149L259.034 113.951L258.937 113.734L258.667 113.644L258.667 113.536L258.55 113.356L258.667 113.32L258.512 113.068L258.357 113.122L258.067 112.996L258.512 112.762L258.763 112.6L258.705 112.455L258.763 112.383L258.821 111.897L258.667 111.663L258.667 111.447L258.512 111.357L258.473 110.942L258.221 110.762L258.009 110.762C257.92 110.687 257.877 110.651 257.815 110.6C257.791 110.343 257.71 110.217 257.467 110.024C257.455 109.947 257.411 109.9 257.254 109.807C257.247 109.645 257.181 109.588 256.905 109.573C256.617 109.476 256.482 109.373 256.305 109.069Z" fill="#65A6E2"/>
<path d="M244.976 97.1017L242.811 94.8382L243.957 94.1234H244.467L243.957 93.766L245.868 92.932V91.979L247.523 91.2642L248.67 91.979L249.943 93.766L249.179 94.8382V96.5061C248.839 96.3869 248.16 96.2201 248.16 96.5061V97.1017L247.523 96.5061H246.377L244.976 97.1017Z" fill="#65A6E2"/>
<path d="M313.755 106.394H318.85C324.132 100.801 326.158 96.9785 329.166 89.7156C323.419 98.0766 320.455 102.297 320.251 100.676H317.703L316.812 99.4846L314.646 98.4124V99.4846H313.755L310.698 98.4124V97.221C310.698 97.221 310.316 95.434 309.934 97.221C309.552 99.008 309.17 97.221 309.17 97.221V98.4124V99.4846V100.676L307.896 99.4846H302.292C302.473 100.271 305.985 99.7228 305.221 100.676C304.457 101.629 305.985 101.272 306.941 103.178L307.896 104.012L309.17 105.322H310.698H311.844L313.755 106.394Z" fill="#65A6E2"/>
<path d="M273.761 82.4483C271.066 81.674 269.216 81.6416 264.081 83.7588C262.76 83.9278 261.829 84.1212 264.973 81.9718C266.04 80.9036 265.799 80.742 264.973 80.6613C261.911 80.0884 261.247 79.8579 265.864 79.9465C267.688 80.0974 267.819 79.9239 267.138 79.3508C265.357 78.0729 265.385 77.8389 267.775 78.5169L270.45 79.3508C270.259 77.3076 269.604 76.8827 268.157 76.4916C263.59 74.6408 263.66 72.9846 265.864 73.9898C265.947 73.7688 273.581 77.961 272.233 76.4916C270.885 75.0223 271.863 74.2483 272.487 75.1812C273.066 76.14 274.54 77.6785 274.907 77.5638C275.985 77.2277 274.78 75.6577 274.907 74.9429C275.035 74.2281 278.697 75.7937 280.639 78.5169C282.179 79.3097 282.823 79.1668 283.823 78.5169C286.661 75.7473 289.656 73.3999 289.682 75.1812C288.929 77.5042 289.095 78.181 290.446 77.0873C290.871 75.901 291.278 75.5108 292.23 75.1812C292.636 75.1258 292.845 75.1475 292.739 76.4916C294.361 75.8677 294.995 75.5996 295.923 75.1812C299.632 72.755 301.586 75.6242 296.433 76.2534C293.859 76.8046 293.258 78.3946 293.758 79.1126C294.258 79.8305 295.777 79.7567 296.687 79.1126C298.262 77.6851 297.961 78.636 297.324 79.47C296.687 80.3039 297.353 80.5371 298.089 80.1848C300.528 79.045 304.966 80.7805 302.292 80.7805C299.617 80.7805 299.617 81.4953 301.018 83.7588C302.419 86.0224 295.195 81.262 291.083 82.4483C283.747 84.7368 279.893 84.9791 273.761 82.4483Z" fill="#00D4FF"/>
<rect width="11.4632" height="9.769" transform="matrix(-1 0 0 1 311.517 17.7227)" fill="#26498C"/>
<path d="M289.355 15.5783L314.574 14.9827C314.681 16.3809 315.045 17.2427 313.427 18.1993L289.355 17.0079C288.421 16.7488 288.161 15.9685 289.355 15.5783Z" fill="#0682E0"/>
<path d="M276.491 64.3042C276.962 61.7537 278.346 59.5629 281.585 55.1309C284.116 58.8243 285.87 61.5199 286.298 64.3042C287.229 71.1135 276.155 71.2818 276.491 64.3042Z" fill="#00BDFF"/>
<path d="M287.699 43.5748H294.832V31.8997H280.948C277.72 32.6582 276.323 33.6913 275.089 37.3798V53.7012H287.699V43.5748Z" fill="#26498C"/>
<rect width="16.3031" height="1.90615" rx="0.953073" transform="matrix(-1 0 0 1 289.609 53.7012)" fill="#0682E0"/>
<rect width="5.09473" height="18.1084" transform="matrix(-1 0 0 1 337.5 26.3003)" fill="#0682E0"/>
<rect width="5.09473" height="24.7799" transform="matrix(-1 0 0 1 332.66 22.7263)" fill="#0682E0"/>
<rect width="11.2084" height="11.6751" transform="matrix(-1 0 0 1 327.565 32.0188)" fill="#26498C"/>
<rect width="22.6716" height="21.9207" rx="5" transform="matrix(-1 0 0 1 317.121 27.0151)" fill="#0682E0"/>
<path d="M67.5468 22.4392C67.5468 22.0242 67.4004 21.7068 67.1074 21.4871C66.8144 21.2625 66.2871 21.0281 65.5254 20.7839C64.7636 20.5349 64.1606 20.2908 63.7163 20.0515C62.5053 19.3972 61.8999 18.5159 61.8999 17.4075C61.8999 16.8313 62.061 16.3186 62.3833 15.8694C62.7104 15.4153 63.1767 15.0613 63.7822 14.8074C64.3925 14.5535 65.0761 14.4265 65.833 14.4265C66.5947 14.4265 67.2734 14.5657 67.8691 14.844C68.4648 15.1174 68.9262 15.5056 69.2534 16.0085C69.5854 16.5115 69.7514 17.0828 69.7514 17.7224H67.5542C67.5542 17.2341 67.4004 16.8557 67.0927 16.5872C66.7851 16.3137 66.353 16.177 65.7964 16.177C65.2592 16.177 64.8418 16.2917 64.5439 16.5212C64.2461 16.7458 64.0971 17.0437 64.0971 17.4148C64.0971 17.7615 64.2705 18.052 64.6172 18.2864C64.9687 18.5208 65.4839 18.7405 66.1626 18.9456C67.4126 19.3215 68.3232 19.7878 68.8945 20.3445C69.4658 20.9011 69.7514 21.5945 69.7514 22.4246C69.7514 23.3474 69.4023 24.0725 68.7041 24.5999C68.0058 25.1223 67.0659 25.3835 65.8842 25.3835C65.0639 25.3835 64.3169 25.2346 63.643 24.9368C62.9692 24.634 62.4541 24.2214 62.0976 23.699C61.7461 23.1765 61.5703 22.571 61.5703 21.8826H63.7749C63.7749 23.0593 64.478 23.6477 65.8842 23.6477C66.4067 23.6477 66.8144 23.5427 67.1074 23.3328C67.4004 23.1179 67.5468 22.8201 67.5468 22.4392ZM73.582 25.2371H71.3847V14.573H73.582V25.2371ZM78.4966 14.573L81.2358 22.3074L83.9604 14.573H86.8462V25.2371H84.6416V22.322L84.8613 17.2903L81.9829 25.2371H80.4741L77.603 17.2976L77.8227 22.322V25.2371H75.6255V14.573H78.4966ZM90.9624 21.4797V25.2371H88.7651V14.573H92.9253C93.726 14.573 94.4292 14.7195 95.0346 15.0125C95.645 15.3054 96.1137 15.7229 96.4409 16.2649C96.768 16.802 96.9316 17.4148 96.9316 18.1033C96.9316 19.1482 96.5727 19.9734 95.8549 20.5789C95.1421 21.1794 94.1533 21.4797 92.8886 21.4797H90.9624ZM90.9624 19.7H92.9253C93.5063 19.7 93.9482 19.5632 94.2509 19.2898C94.5586 19.0164 94.7124 18.6257 94.7124 18.1179C94.7124 17.5955 94.5586 17.1731 94.2509 16.8508C93.9433 16.5286 93.5185 16.3625 92.9765 16.3528H90.9624V19.7ZM104.864 20.6155H100.645V23.4719H105.596V25.2371H98.4477V14.573H105.582V16.3528H100.645V18.8943H104.864V20.6155ZM109.082 23.4719H113.748V25.2371H106.885V14.573H109.082V23.4719ZM121.534 16.3528H118.267V25.2371H116.07V16.3528H112.847V14.573H121.534V16.3528ZM127.935 23.0398H124.082L123.35 25.2371H121.014L124.983 14.573H127.02L131.011 25.2371H128.675L127.935 23.0398ZM124.676 21.26H127.342L126.001 17.2683L124.676 21.26ZM132.007 25.2371V14.573H135.743C137.037 14.573 138.018 14.822 138.687 15.3201C139.356 15.8132 139.69 16.5383 139.69 17.4954C139.69 18.0178 139.556 18.4792 139.288 18.8796C139.019 19.2751 138.645 19.5657 138.167 19.7512C138.714 19.8879 139.144 20.1638 139.456 20.5789C139.773 20.9939 139.932 21.5017 139.932 22.1023C139.932 23.1277 139.605 23.9041 138.951 24.4314C138.296 24.9587 137.364 25.2273 136.153 25.2371H132.007ZM134.205 20.5935V23.4719H136.087C136.604 23.4719 137.007 23.3499 137.295 23.1057C137.588 22.8567 137.735 22.5149 137.735 22.0803C137.735 21.1038 137.229 20.6082 136.219 20.5935H134.205ZM134.205 19.0408H135.831C136.939 19.0212 137.493 18.5793 137.493 17.7151C137.493 17.2317 137.352 16.885 137.068 16.675C136.79 16.4602 136.348 16.3528 135.743 16.3528H134.205V19.0408Z" fill="#0C5CBF"/>
<path d="M65.7186 46.561H70.7723V47.7109H64.305V37.0469H65.7186V46.561ZM71.805 43.6753C71.805 42.8989 71.9564 42.2007 72.2591 41.5806C72.5667 40.9604 72.9915 40.4819 73.5335 40.145C74.0804 39.8081 74.7029 39.6396 75.4012 39.6396C76.4803 39.6396 77.3519 40.0132 78.0159 40.7603C78.6849 41.5073 79.0193 42.501 79.0193 43.7412V43.8364C79.0193 44.6079 78.8704 45.3013 78.5726 45.9165C78.2796 46.5269 77.8572 47.0029 77.3055 47.3447C76.7586 47.6865 76.1287 47.8574 75.4158 47.8574C74.3416 47.8574 73.47 47.4839 72.8011 46.7368C72.137 45.9897 71.805 45.001 71.805 43.7705V43.6753ZM73.1673 43.8364C73.1673 44.7153 73.3699 45.4209 73.7752 45.9531C74.1854 46.4854 74.7322 46.7515 75.4158 46.7515C76.1043 46.7515 76.6512 46.4829 77.0564 45.9458C77.4617 45.4038 77.6644 44.647 77.6644 43.6753C77.6644 42.8062 77.4568 42.103 77.0418 41.5659C76.6316 41.0239 76.0848 40.7529 75.4012 40.7529C74.7322 40.7529 74.1927 41.019 73.7825 41.5513C73.3724 42.0835 73.1673 42.8452 73.1673 43.8364ZM84.5491 41.002C84.344 40.9678 84.1219 40.9507 83.8826 40.9507C82.9939 40.9507 82.3909 41.3291 82.0735 42.0859V47.7109H80.7186V39.7861H82.0369L82.0589 40.7017C82.5032 39.9937 83.1331 39.6396 83.9485 39.6396C84.2122 39.6396 84.4124 39.6738 84.5491 39.7422V41.002ZM88.9437 47.8574C87.8694 47.8574 86.9954 47.5059 86.3216 46.8027C85.6478 46.0947 85.3108 45.1499 85.3108 43.9683V43.7192C85.3108 42.9331 85.4598 42.2324 85.7576 41.6172C86.0604 40.9971 86.4803 40.5137 87.0174 40.167C87.5594 39.8154 88.1453 39.6396 88.7752 39.6396C89.8055 39.6396 90.6063 39.979 91.1775 40.6577C91.7488 41.3364 92.0345 42.3081 92.0345 43.5728V44.1367H86.6658C86.6854 44.918 86.9124 45.5503 87.347 46.0337C87.7864 46.5122 88.3431 46.7515 89.0169 46.7515C89.4954 46.7515 89.9007 46.6538 90.2327 46.4585C90.5648 46.2632 90.8553 46.0044 91.1043 45.6821L91.9319 46.3267C91.2679 47.3472 90.2718 47.8574 88.9437 47.8574ZM88.7752 40.7529C88.2283 40.7529 87.7693 40.9531 87.3982 41.3535C87.0272 41.749 86.7977 42.3057 86.7098 43.0234H90.6795V42.9209C90.6404 42.2324 90.4549 41.7002 90.1229 41.3242C89.7908 40.9434 89.3416 40.7529 88.7752 40.7529ZM94.8836 39.7861L94.9202 40.665C95.5013 39.9814 96.285 39.6396 97.2713 39.6396C98.3797 39.6396 99.1341 40.0645 99.5345 40.9141C99.7981 40.5332 100.14 40.2256 100.56 39.9912C100.985 39.7568 101.485 39.6396 102.061 39.6396C103.8 39.6396 104.683 40.5601 104.713 42.4009V47.7109H103.358V42.4814C103.358 41.915 103.228 41.4927 102.97 41.2144C102.711 40.9312 102.276 40.7896 101.666 40.7896C101.163 40.7896 100.745 40.9409 100.413 41.2437C100.081 41.5415 99.8885 41.9443 99.8348 42.4521V47.7109H98.4725V42.5181C98.4725 41.3657 97.9085 40.7896 96.7806 40.7896C95.8919 40.7896 95.284 41.168 94.9568 41.9248V47.7109H93.6019V39.7861H94.8836ZM135.206 47.7109H133.799V37.0469H135.206V47.7109ZM144.266 43.8364C144.266 45.0425 143.99 46.0142 143.438 46.7515C142.886 47.4888 142.139 47.8574 141.197 47.8574C140.235 47.8574 139.478 47.5522 138.926 46.9419V50.7578H137.571V39.7861H138.809L138.875 40.665C139.427 39.9814 140.194 39.6396 141.175 39.6396C142.127 39.6396 142.879 39.9985 143.431 40.7163C143.987 41.4341 144.266 42.4326 144.266 43.7119V43.8364ZM142.911 43.6826C142.911 42.7891 142.72 42.0835 142.34 41.5659C141.959 41.0483 141.436 40.7896 140.772 40.7896C139.952 40.7896 139.337 41.1533 138.926 41.8809V45.6675C139.332 46.3901 139.952 46.7515 140.787 46.7515C141.436 46.7515 141.951 46.4951 142.332 45.9824C142.718 45.4648 142.911 44.6982 142.911 43.6826ZM150.609 45.6089C150.609 45.2427 150.469 44.9595 150.191 44.7593C149.918 44.5542 149.437 44.3784 148.748 44.2319C148.065 44.0854 147.52 43.9097 147.115 43.7046C146.715 43.4995 146.417 43.2554 146.221 42.9722C146.031 42.689 145.936 42.3521 145.936 41.9614C145.936 41.312 146.209 40.7627 146.756 40.3135C147.308 39.8643 148.011 39.6396 148.865 39.6396C149.764 39.6396 150.491 39.8716 151.048 40.3354C151.61 40.7993 151.89 41.3926 151.89 42.1152H150.528C150.528 41.7441 150.369 41.4243 150.052 41.1558C149.739 40.8872 149.344 40.7529 148.865 40.7529C148.372 40.7529 147.987 40.8604 147.708 41.0752C147.43 41.29 147.291 41.5708 147.291 41.9175C147.291 42.2446 147.42 42.4912 147.679 42.6572C147.938 42.8232 148.404 42.9819 149.078 43.1333C149.757 43.2847 150.306 43.4653 150.726 43.6753C151.146 43.8853 151.456 44.1392 151.656 44.437C151.861 44.73 151.964 45.0889 151.964 45.5137C151.964 46.2217 151.68 46.7905 151.114 47.2202C150.548 47.645 149.813 47.8574 148.909 47.8574C148.275 47.8574 147.713 47.7451 147.225 47.5205C146.737 47.2959 146.353 46.9834 146.075 46.583C145.801 46.1777 145.665 45.7407 145.665 45.272H147.02C147.044 45.7261 147.225 46.0874 147.562 46.356C147.903 46.6196 148.353 46.7515 148.909 46.7515C149.422 46.7515 149.832 46.6489 150.14 46.4438C150.452 46.2339 150.609 45.9556 150.609 45.6089ZM158.621 46.9272C158.094 47.5474 157.32 47.8574 156.299 47.8574C155.455 47.8574 154.81 47.6133 154.366 47.125C153.926 46.6318 153.704 45.9043 153.699 44.9424V39.7861H155.054V44.9058C155.054 46.1069 155.543 46.7075 156.519 46.7075C157.554 46.7075 158.243 46.3218 158.585 45.5503V39.7861H159.94V47.7109H158.651L158.621 46.9272ZM163.279 39.7861L163.316 40.665C163.897 39.9814 164.681 39.6396 165.667 39.6396C166.776 39.6396 167.53 40.0645 167.93 40.9141C168.194 40.5332 168.536 40.2256 168.956 39.9912C169.381 39.7568 169.881 39.6396 170.457 39.6396C172.195 39.6396 173.079 40.5601 173.109 42.4009V47.7109H171.754V42.4814C171.754 41.915 171.624 41.4927 171.365 41.2144C171.107 40.9312 170.672 40.7896 170.062 40.7896C169.559 40.7896 169.141 40.9409 168.809 41.2437C168.477 41.5415 168.284 41.9443 168.231 42.4521V47.7109H166.868V42.5181C166.868 41.3657 166.304 40.7896 165.176 40.7896C164.288 40.7896 163.68 41.168 163.353 41.9248V47.7109H161.998V39.7861H163.279ZM203.353 47.7109H201.998V39.7861H203.353V47.7109ZM201.888 37.6841C201.888 37.4644 201.954 37.2788 202.086 37.1274C202.222 36.9761 202.422 36.9004 202.686 36.9004C202.95 36.9004 203.15 36.9761 203.287 37.1274C203.423 37.2788 203.492 37.4644 203.492 37.6841C203.492 37.9038 203.423 38.0869 203.287 38.2334C203.15 38.3799 202.95 38.4531 202.686 38.4531C202.422 38.4531 202.222 38.3799 202.086 38.2334C201.954 38.0869 201.888 37.9038 201.888 37.6841ZM210.142 45.6089C210.142 45.2427 210.003 44.9595 209.725 44.7593C209.451 44.5542 208.97 44.3784 208.282 44.2319C207.598 44.0854 207.054 43.9097 206.648 43.7046C206.248 43.4995 205.95 43.2554 205.755 42.9722C205.565 42.689 205.469 42.3521 205.469 41.9614C205.469 41.312 205.743 40.7627 206.29 40.3135C206.841 39.8643 207.544 39.6396 208.399 39.6396C209.297 39.6396 210.025 39.8716 210.582 40.3354C211.143 40.7993 211.424 41.3926 211.424 42.1152H210.062C210.062 41.7441 209.903 41.4243 209.586 41.1558C209.273 40.8872 208.877 40.7529 208.399 40.7529C207.906 40.7529 207.52 40.8604 207.242 41.0752C206.963 41.29 206.824 41.5708 206.824 41.9175C206.824 42.2446 206.954 42.4912 207.212 42.6572C207.471 42.8232 207.938 42.9819 208.611 43.1333C209.29 43.2847 209.839 43.4653 210.259 43.6753C210.679 43.8853 210.989 44.1392 211.19 44.437C211.395 44.73 211.497 45.0889 211.497 45.5137C211.497 46.2217 211.214 46.7905 210.648 47.2202C210.081 47.645 209.346 47.8574 208.443 47.8574C207.808 47.8574 207.247 47.7451 206.758 47.5205C206.27 47.2959 205.887 46.9834 205.608 46.583C205.335 46.1777 205.198 45.7407 205.198 45.272H206.553C206.578 45.7261 206.758 46.0874 207.095 46.356C207.437 46.6196 207.886 46.7515 208.443 46.7515C208.956 46.7515 209.366 46.6489 209.673 46.4438C209.986 46.2339 210.142 45.9556 210.142 45.6089ZM68.7068 63.6089C68.7068 63.2427 68.5677 62.9595 68.2894 62.7593C68.0159 62.5542 67.535 62.3784 66.8465 62.2319C66.1629 62.0854 65.6185 61.9097 65.2132 61.7046C64.8128 61.4995 64.5149 61.2554 64.3196 60.9722C64.1292 60.689 64.034 60.3521 64.034 59.9614C64.034 59.312 64.3074 58.7627 64.8543 58.3135C65.4061 57.8643 66.1092 57.6396 66.9637 57.6396C67.8621 57.6396 68.5897 57.8716 69.1463 58.3354C69.7078 58.7993 69.9886 59.3926 69.9886 60.1152H68.6263C68.6263 59.7441 68.4676 59.4243 68.1502 59.1558C67.8377 58.8872 67.4422 58.7529 66.9637 58.7529C66.4705 58.7529 66.0848 58.8604 65.8064 59.0752C65.5281 59.29 65.389 59.5708 65.389 59.9175C65.389 60.2446 65.5184 60.4912 65.7772 60.6572C66.0359 60.8232 66.5023 60.9819 67.1761 61.1333C67.8548 61.2847 68.4041 61.4653 68.824 61.6753C69.2439 61.8853 69.554 62.1392 69.7542 62.437C69.9593 62.73 70.0618 63.0889 70.0618 63.5137C70.0618 64.2217 69.7786 64.7905 69.2122 65.2202C68.6458 65.645 67.9109 65.8574 67.0076 65.8574C66.3729 65.8574 65.8113 65.7451 65.3231 65.5205C64.8348 65.2959 64.4515 64.9834 64.1731 64.583C63.8997 64.1777 63.763 63.7407 63.763 63.272H65.118C65.1424 63.7261 65.3231 64.0874 65.66 64.356C66.0018 64.6196 66.451 64.7515 67.0076 64.7515C67.5203 64.7515 67.9305 64.6489 68.2381 64.4438C68.5506 64.2339 68.7068 63.9556 68.7068 63.6089ZM73.2991 65.7109H71.9441V57.7861H73.2991V65.7109ZM71.8343 55.6841C71.8343 55.4644 71.9002 55.2788 72.032 55.1274C72.1688 54.9761 72.3689 54.9004 72.6326 54.9004C72.8963 54.9004 73.0965 54.9761 73.2332 55.1274C73.3699 55.2788 73.4383 55.4644 73.4383 55.6841C73.4383 55.9038 73.3699 56.0869 73.2332 56.2334C73.0965 56.3799 72.8963 56.4531 72.6326 56.4531C72.3689 56.4531 72.1688 56.3799 72.032 56.2334C71.9002 56.0869 71.8343 55.9038 71.8343 55.6841ZM76.7488 57.7861L76.7855 58.665C77.3665 57.9814 78.1502 57.6396 79.1365 57.6396C80.2449 57.6396 80.9993 58.0645 81.3997 58.9141C81.6634 58.5332 82.0052 58.2256 82.4251 57.9912C82.8499 57.7568 83.3504 57.6396 83.9266 57.6396C85.6648 57.6396 86.5486 58.5601 86.5779 60.4009V65.7109H85.223V60.4814C85.223 59.915 85.0936 59.4927 84.8348 59.2144C84.576 58.9312 84.1414 58.7896 83.5311 58.7896C83.0281 58.7896 82.6106 58.9409 82.2786 59.2437C81.9466 59.5415 81.7537 59.9443 81.7 60.4521V65.7109H80.3377V60.5181C80.3377 59.3657 79.7737 58.7896 78.6458 58.7896C77.7571 58.7896 77.1492 59.168 76.8221 59.9248V65.7109H75.4671V57.7861H76.7488ZM95.3231 61.8364C95.3231 63.0425 95.0472 64.0142 94.4954 64.7515C93.9437 65.4888 93.1966 65.8574 92.2542 65.8574C91.2923 65.8574 90.5355 65.5522 89.9837 64.9419V68.7578H88.6287V57.7861H89.8665L89.9324 58.665C90.4842 57.9814 91.2508 57.6396 92.2322 57.6396C93.1844 57.6396 93.9363 57.9985 94.4881 58.7163C95.0447 59.4341 95.3231 60.4326 95.3231 61.7119V61.8364ZM93.9681 61.6826C93.9681 60.7891 93.7776 60.0835 93.3968 59.5659C93.0159 59.0483 92.4935 58.7896 91.8294 58.7896C91.0091 58.7896 90.3939 59.1533 89.9837 59.8809V63.6675C90.389 64.3901 91.0091 64.7515 91.844 64.7515C92.4935 64.7515 93.0086 64.4951 93.3895 63.9824C93.7752 63.4648 93.9681 62.6982 93.9681 61.6826ZM98.5237 65.7109H97.1688V54.4609H98.5237V65.7109ZM103.292 63.7261L105.138 57.7861H106.588L103.402 66.9341C102.909 68.2524 102.125 68.9116 101.051 68.9116L100.794 68.8896L100.289 68.7944V67.6958L100.655 67.7251C101.114 67.7251 101.471 67.6323 101.724 67.4468C101.983 67.2612 102.196 66.9219 102.362 66.4287L102.662 65.623L99.8348 57.7861H101.314L103.292 63.7261ZM112.915 61.6826C112.915 60.4668 113.203 59.4902 113.779 58.7529C114.355 58.0107 115.11 57.6396 116.042 57.6396C116.97 57.6396 117.705 57.957 118.247 58.5918V54.4609H119.602V65.7109H118.357L118.291 64.8613C117.749 65.5254 116.995 65.8574 116.028 65.8574C115.11 65.8574 114.36 65.4814 113.779 64.7295C113.203 63.9775 112.915 62.9961 112.915 61.7852V61.6826ZM114.27 61.8364C114.27 62.7349 114.455 63.438 114.827 63.9458C115.198 64.4536 115.71 64.7075 116.365 64.7075C117.224 64.7075 117.851 64.3218 118.247 63.5503V59.9102C117.842 59.1631 117.219 58.7896 116.379 58.7896C115.715 58.7896 115.198 59.0459 114.827 59.5586C114.455 60.0713 114.27 60.8306 114.27 61.8364ZM126.604 64.9272C126.077 65.5474 125.303 65.8574 124.282 65.8574C123.437 65.8574 122.793 65.6133 122.349 65.125C121.909 64.6318 121.687 63.9043 121.682 62.9424V57.7861H123.037V62.9058C123.037 64.1069 123.525 64.7075 124.502 64.7075C125.537 64.7075 126.225 64.3218 126.567 63.5503V57.7861H127.922V65.7109H126.633L126.604 64.9272ZM131.262 57.7861L131.299 58.665C131.88 57.9814 132.663 57.6396 133.65 57.6396C134.758 57.6396 135.513 58.0645 135.913 58.9141C136.177 58.5332 136.518 58.2256 136.938 57.9912C137.363 57.7568 137.864 57.6396 138.44 57.6396C140.178 57.6396 141.062 58.5601 141.091 60.4009V65.7109H139.736V60.4814C139.736 59.915 139.607 59.4927 139.348 59.2144C139.089 58.9312 138.655 58.7896 138.044 58.7896C137.541 58.7896 137.124 58.9409 136.792 59.2437C136.46 59.5415 136.267 59.9443 136.213 60.4521V65.7109H134.851V60.5181C134.851 59.3657 134.287 58.7896 133.159 58.7896C132.27 58.7896 131.662 59.168 131.335 59.9248V65.7109H129.98V57.7861H131.262ZM144.416 57.7861L144.453 58.665C145.034 57.9814 145.818 57.6396 146.804 57.6396C147.912 57.6396 148.667 58.0645 149.067 58.9141C149.331 58.5332 149.673 58.2256 150.093 57.9912C150.517 57.7568 151.018 57.6396 151.594 57.6396C153.332 57.6396 154.216 58.5601 154.245 60.4009V65.7109H152.891V60.4814C152.891 59.915 152.761 59.4927 152.502 59.2144C152.244 58.9312 151.809 58.7896 151.199 58.7896C150.696 58.7896 150.278 58.9409 149.946 59.2437C149.614 59.5415 149.421 59.9443 149.368 60.4521V65.7109H148.005V60.5181C148.005 59.3657 147.441 58.7896 146.313 58.7896C145.425 58.7896 144.817 59.168 144.49 59.9248V65.7109H143.135V57.7861H144.416ZM158.889 63.7261L160.735 57.7861H162.185L158.999 66.9341C158.506 68.2524 157.722 68.9116 156.648 68.9116L156.391 68.8896L155.886 68.7944V67.6958L156.252 67.7251C156.711 67.7251 157.068 67.6323 157.322 67.4468C157.58 67.2612 157.793 66.9219 157.959 66.4287L158.259 65.623L155.432 57.7861H156.912L158.889 63.7261ZM170.68 55.8672V57.7861H172.16V58.8335H170.68V63.748C170.68 64.0654 170.746 64.3047 170.878 64.4658C171.01 64.6221 171.234 64.7002 171.552 64.7002C171.708 64.7002 171.923 64.6709 172.196 64.6123V65.7109C171.84 65.8086 171.493 65.8574 171.156 65.8574C170.551 65.8574 170.094 65.6743 169.787 65.3081C169.479 64.9419 169.325 64.4219 169.325 63.748V58.8335H167.882V57.7861H169.325V55.8672H170.68ZM177.038 65.8574C175.963 65.8574 175.089 65.5059 174.415 64.8027C173.742 64.0947 173.405 63.1499 173.405 61.9683V61.7192C173.405 60.9331 173.554 60.2324 173.852 59.6172C174.154 58.9971 174.574 58.5137 175.111 58.167C175.653 57.8154 176.239 57.6396 176.869 57.6396C177.899 57.6396 178.7 57.979 179.271 58.6577C179.843 59.3364 180.128 60.3081 180.128 61.5728V62.1367H174.76C174.779 62.918 175.006 63.5503 175.441 64.0337C175.88 64.5122 176.437 64.7515 177.111 64.7515C177.589 64.7515 177.995 64.6538 178.327 64.4585C178.659 64.2632 178.949 64.0044 179.198 63.6821L180.026 64.3267C179.362 65.3472 178.366 65.8574 177.038 65.8574ZM176.869 58.7529C176.322 58.7529 175.863 58.9531 175.492 59.3535C175.121 59.749 174.892 60.3057 174.804 61.0234H178.773V60.9209C178.734 60.2324 178.549 59.7002 178.217 59.3242C177.885 58.9434 177.436 58.7529 176.869 58.7529ZM184.362 60.6792L186.12 57.7861H187.702L185.109 61.7046L187.782 65.7109H186.215L184.384 62.7446L182.553 65.7109H180.978L183.651 61.7046L181.059 57.7861H182.626L184.362 60.6792ZM190.983 55.8672V57.7861H192.462V58.8335H190.983V63.748C190.983 64.0654 191.049 64.3047 191.181 64.4658C191.312 64.6221 191.537 64.7002 191.854 64.7002C192.011 64.7002 192.226 64.6709 192.499 64.6123V65.7109C192.143 65.8086 191.796 65.8574 191.459 65.8574C190.853 65.8574 190.397 65.6743 190.089 65.3081C189.782 64.9419 189.628 64.4219 189.628 63.748V58.8335H188.185V57.7861H189.628V55.8672H190.983ZM199.134 61.6753C199.134 60.8989 199.285 60.2007 199.588 59.5806C199.896 58.9604 200.32 58.4819 200.862 58.145C201.409 57.8081 202.032 57.6396 202.73 57.6396C203.809 57.6396 204.681 58.0132 205.345 58.7603C206.014 59.5073 206.348 60.501 206.348 61.7412V61.8364C206.348 62.6079 206.199 63.3013 205.901 63.9165C205.608 64.5269 205.186 65.0029 204.634 65.3447C204.087 65.6865 203.458 65.8574 202.745 65.8574C201.67 65.8574 200.799 65.4839 200.13 64.7368C199.466 63.9897 199.134 63.001 199.134 61.7705V61.6753ZM200.496 61.8364C200.496 62.7153 200.699 63.4209 201.104 63.9531C201.514 64.4854 202.061 64.7515 202.745 64.7515C203.433 64.7515 203.98 64.4829 204.385 63.9458C204.791 63.4038 204.993 62.647 204.993 61.6753C204.993 60.8062 204.786 60.103 204.371 59.5659C203.961 59.0239 203.414 58.7529 202.73 58.7529C202.061 58.7529 201.522 59.019 201.111 59.5513C200.701 60.0835 200.496 60.8452 200.496 61.8364ZM208.714 65.7109V58.8335H207.461V57.7861H208.714V56.9731C208.714 56.1235 208.941 55.4668 209.395 55.0029C209.849 54.5391 210.491 54.3071 211.321 54.3071C211.634 54.3071 211.944 54.3486 212.252 54.4316L212.178 55.5303C211.949 55.4863 211.705 55.4644 211.446 55.4644C211.006 55.4644 210.667 55.5938 210.428 55.8525C210.189 56.1064 210.069 56.4727 210.069 56.9512V57.7861H211.761V58.8335H210.069V65.7109H208.714ZM65.931 73.8672V75.7861H67.4105V76.8335H65.931V81.748C65.931 82.0654 65.9969 82.3047 66.1287 82.4658C66.2606 82.6221 66.4852 82.7002 66.8025 82.7002C66.9588 82.7002 67.1736 82.6709 67.4471 82.6123V83.7109C67.0906 83.8086 66.7439 83.8574 66.407 83.8574C65.8016 83.8574 65.345 83.6743 65.0374 83.3081C64.7298 82.9419 64.576 82.4219 64.576 81.748V76.8335H63.1331V75.7861H64.576V73.8672H65.931ZM70.3548 76.7456C70.9554 76.0083 71.7366 75.6396 72.6985 75.6396C74.3733 75.6396 75.2181 76.5845 75.2327 78.4741V83.7109H73.8777V78.4668C73.8729 77.8955 73.741 77.4731 73.4822 77.1997C73.2283 76.9263 72.8304 76.7896 72.2884 76.7896C71.8489 76.7896 71.4632 76.9067 71.1312 77.1411C70.7991 77.3755 70.5403 77.6831 70.3548 78.064V83.7109H68.9998V72.4609H70.3548V76.7456ZM80.5501 83.8574C79.4759 83.8574 78.6019 83.5059 77.928 82.8027C77.2542 82.0947 76.9173 81.1499 76.9173 79.9683V79.7192C76.9173 78.9331 77.0662 78.2324 77.3641 77.6172C77.6668 76.9971 78.0867 76.5137 78.6238 76.167C79.1658 75.8154 79.7518 75.6396 80.3816 75.6396C81.4119 75.6396 82.2127 75.979 82.784 76.6577C83.3553 77.3364 83.6409 78.3081 83.6409 79.5728V80.1367H78.2723C78.2918 80.918 78.5189 81.5503 78.9534 82.0337C79.3929 82.5122 79.9495 82.7515 80.6233 82.7515C81.1019 82.7515 81.5071 82.6538 81.8392 82.4585C82.1712 82.2632 82.4617 82.0044 82.7107 81.6821L83.5384 82.3267C82.8743 83.3472 81.8782 83.8574 80.5501 83.8574ZM80.3816 76.7529C79.8348 76.7529 79.3758 76.9531 79.0047 77.3535C78.6336 77.749 78.4041 78.3057 78.3162 79.0234H82.2859V78.9209C82.2469 78.2324 82.0613 77.7002 81.7293 77.3242C81.3973 76.9434 80.9481 76.7529 80.3816 76.7529ZM95.6307 79.8364C95.6307 81.0425 95.3548 82.0142 94.803 82.7515C94.2513 83.4888 93.5042 83.8574 92.5618 83.8574C91.5999 83.8574 90.8431 83.5522 90.2913 82.9419V86.7578H88.9363V75.7861H90.1741L90.24 76.665C90.7918 75.9814 91.5584 75.6396 92.5398 75.6396C93.492 75.6396 94.2439 75.9985 94.7957 76.7163C95.3523 77.4341 95.6307 78.4326 95.6307 79.7119V79.8364ZM94.2757 79.6826C94.2757 78.7891 94.0853 78.0835 93.7044 77.5659C93.3235 77.0483 92.8011 76.7896 92.137 76.7896C91.3167 76.7896 90.7015 77.1533 90.2913 77.8809V81.6675C90.6966 82.3901 91.3167 82.7515 92.1517 82.7515C92.8011 82.7515 93.3162 82.4951 93.6971 81.9824C94.0828 81.4648 94.2757 80.6982 94.2757 79.6826ZM101.19 77.002C100.985 76.9678 100.763 76.9507 100.523 76.9507C99.6346 76.9507 99.0315 77.3291 98.7142 78.0859V83.7109H97.3592V75.7861H98.6775L98.6995 76.7017C99.1439 75.9937 99.7737 75.6396 100.589 75.6396C100.853 75.6396 101.053 75.6738 101.19 75.7422V77.002ZM103.914 83.7109H102.559V75.7861H103.914V83.7109ZM102.45 73.6841C102.45 73.4644 102.515 73.2788 102.647 73.1274C102.784 72.9761 102.984 72.9004 103.248 72.9004C103.512 72.9004 103.712 72.9761 103.848 73.1274C103.985 73.2788 104.054 73.4644 104.054 73.6841C104.054 73.9038 103.985 74.0869 103.848 74.2334C103.712 74.3799 103.512 74.4531 103.248 74.4531C102.984 74.4531 102.784 74.3799 102.647 74.2334C102.515 74.0869 102.45 73.9038 102.45 73.6841ZM107.371 75.7861L107.415 76.7822C108.021 76.0205 108.812 75.6396 109.788 75.6396C111.463 75.6396 112.308 76.5845 112.323 78.4741V83.7109H110.968V78.4668C110.963 77.8955 110.831 77.4731 110.572 77.1997C110.318 76.9263 109.92 76.7896 109.378 76.7896C108.939 76.7896 108.553 76.9067 108.221 77.1411C107.889 77.3755 107.63 77.6831 107.445 78.064V83.7109H106.09V75.7861H107.371ZM116.204 73.8672V75.7861H117.684V76.8335H116.204V81.748C116.204 82.0654 116.27 82.3047 116.402 82.4658C116.534 82.6221 116.759 82.7002 117.076 82.7002C117.232 82.7002 117.447 82.6709 117.721 82.6123V83.7109C117.364 83.8086 117.017 83.8574 116.68 83.8574C116.075 83.8574 115.618 83.6743 115.311 83.3081C115.003 82.9419 114.849 82.4219 114.849 81.748V76.8335H113.407V75.7861H114.849V73.8672H116.204ZM120.745 83.7109H119.39V75.7861H120.745V83.7109ZM119.281 73.6841C119.281 73.4644 119.346 73.2788 119.478 73.1274C119.615 72.9761 119.815 72.9004 120.079 72.9004C120.343 72.9004 120.543 72.9761 120.679 73.1274C120.816 73.2788 120.885 73.4644 120.885 73.6841C120.885 73.9038 120.816 74.0869 120.679 74.2334C120.543 74.3799 120.343 74.4531 120.079 74.4531C119.815 74.4531 119.615 74.3799 119.478 74.2334C119.346 74.0869 119.281 73.9038 119.281 73.6841ZM124.202 75.7861L124.246 76.7822C124.852 76.0205 125.643 75.6396 126.619 75.6396C128.294 75.6396 129.139 76.5845 129.154 78.4741V83.7109H127.799V78.4668C127.794 77.8955 127.662 77.4731 127.403 77.1997C127.149 76.9263 126.751 76.7896 126.209 76.7896C125.77 76.7896 125.384 76.9067 125.052 77.1411C124.72 77.3755 124.461 77.6831 124.276 78.064V83.7109H122.921V75.7861H124.202ZM130.875 79.6826C130.875 78.4473 131.16 77.4658 131.732 76.7383C132.303 76.0059 133.06 75.6396 134.002 75.6396C134.969 75.6396 135.723 75.9814 136.265 76.665L136.331 75.7861H137.569V83.5205C137.569 84.5459 137.264 85.354 136.654 85.9448C136.048 86.5356 135.233 86.8311 134.207 86.8311C133.636 86.8311 133.077 86.709 132.53 86.4648C131.983 86.2207 131.566 85.8862 131.278 85.4614L131.981 84.6484C132.562 85.3662 133.272 85.7251 134.112 85.7251C134.771 85.7251 135.284 85.5396 135.65 85.1685C136.021 84.7974 136.207 84.2749 136.207 83.6011V82.9199C135.665 83.5449 134.925 83.8574 133.988 83.8574C133.06 83.8574 132.308 83.4839 131.732 82.7368C131.16 81.9897 130.875 80.9717 130.875 79.6826ZM132.237 79.8364C132.237 80.73 132.42 81.4331 132.786 81.9458C133.153 82.4536 133.665 82.7075 134.325 82.7075C135.179 82.7075 135.806 82.3193 136.207 81.543V77.9248C135.792 77.168 135.169 76.7896 134.339 76.7896C133.68 76.7896 133.165 77.0459 132.794 77.5586C132.423 78.0713 132.237 78.8306 132.237 79.8364Z" fill="#696969"/>
<defs>
<filter id="filter0_d" x="0" y="0" width="340.882" height="170" filterUnits="userSpaceOnUse" color-interpolation-filters="sRGB">
<feFlood flood-opacity="0" result="BackgroundImageFix"/>
<feColorMatrix in="SourceAlpha" type="matrix" values="0 0 0 0 0 0 0 0 0 0 0 0 0 0 0 0 0 0 127 0"/>
<feOffset dy="4"/>
<feGaussianBlur stdDeviation="2"/>
<feColorMatrix type="matrix" values="0 0 0 0 0 0 0 0 0 0 0 0 0 0 0 0 0 0 0.25 0"/>
<feBlend mode="normal" in2="BackgroundImageFix" result="effect1_dropShadow"/>
<feBlend mode="normal" in="SourceGraphic" in2="effect1_dropShadow" result="shape"/>
</filter>
<linearGradient id="paint0_linear" x1="293.094" y1="120.83" x2="293.094" y2="151.259" gradientUnits="userSpaceOnUse">
<stop stop-color="#0878D7"/>
<stop offset="1" stop-color="#65A6E2"/>
</linearGradient>
<linearGradient id="paint1_linear" x1="170.441" y1="40.0213" x2="170.441" y2="162.574" gradientUnits="userSpaceOnUse">
<stop offset="0.078125" stop-color="#65A6E2"/>
<stop offset="1" stop-color="#0879D9"/>
</linearGradient>
</defs>
</svg>
