<svg width="334" height="165" viewBox="0 0 334 165" fill="none" xmlns="http://www.w3.org/2000/svg">
<rect x="1" width="332" height="162" fill="white"/>
<path d="M174 41C112.08 13.3878 83.4422 6.73464 33 0L333.5 0.5V110L288.5 127C321.956 33.834 215.304 -1.37075 174 41Z" fill="url(#paint0_linear)"/>
<path d="M156 70C102.957 46.7705 69.0933 37.531 0 35.5001V17.0001C59.0993 14.745 99.1333 24.9732 164.5 55C159.039 60.4492 157.558 64.398 156 70Z" fill="url(#paint1_linear)"/>
<g filter="url(#filter0_dddd)">
<circle cx="222.5" cy="96.5" r="60.5" fill="#BDD7F1"/>
</g>
<path d="M210 104L183.5 112.5L207.5 98.5L168 94.5L207.5 91.5L177.5 77L209 86.5L185 55.5L212.5 81.5L207.5 43.5L219 77L225 39L228 78.5L241.5 47.5L234 80L266 55.5L238.5 85.5L268.5 77L240 91.5L280 96L241.5 98.5L266 112.5L238.5 104C246.667 114.5 263.2 135.7 264 136.5C264.8 137.3 242.667 118.833 231.5 109.5L238.5 143.5L222.5 112.5L207.5 143.5L214.5 109.5L183.5 134.5L210 104Z" fill="#C5DEF7"/>
<path d="M213.5 137.5H210.5L209.5 136.5L212.5 132L213.5 137.5Z" fill="#F5F3F3"/>
<path d="M232 137.5H235L236 136.5L233 132L232 137.5Z" fill="#F5F3F3"/>
<path d="M209.5 155.5L209 144.5H237L236.5 155.5C225.005 157.88 219.168 157.696 209.5 155.5Z" fill="#029BF6"/>
<path d="M236.717 98.8928C230.655 103.333 226.68 102.978 221 98.5C217.974 98.1943 216.536 98.7343 213 101C211.333 85.5264 228 77.5001 235 94.5001C235.23 95.0593 235.446 95.5833 235.648 96.0739L238.5 97.5001C237.909 97.9878 237.338 98.4352 236.785 98.8429C239.389 105.199 237.965 101.854 236.717 98.8928Z" fill="#029BF6"/>
<path d="M231 97.5C229.404 90.1779 226.799 87.7537 218.5 87C218.828 86.5264 219.142 86.3052 220 86C227.116 86.3744 229.989 88.7435 233 97L231 97.5Z" fill="#0C5CBF"/>
<path d="M218.5 111.5L216.5 106C211.96 103.722 214.149 100.657 218 102.5L221 98.5C225.336 101.78 227.94 102.509 233 101C233.726 107.499 231.557 111.342 226.5 113.5C223.128 113.95 221.36 113.541 218.5 111.5Z" fill="#F2B491"/>
<path d="M218.5 111.5L218 115C221.258 122.847 224.341 122.714 226.5 115V113.5C223.696 113.911 221.554 113.52 218.5 111.5Z" fill="#F2B491"/>
<path d="M213.5 116.5L211 117.5L213 137.22L209 137.5V144L237 144.5V137.5H232.5L235.5 118L232.5 116.5L227.5 137H219L213.5 116.5Z" fill="#029BF6"/>
<path d="M214 152H216.5C214.486 155.057 212.5 156 213 153.778C207.648 154.79 204.101 154.537 205 152.5L214 152Z" fill="#26498C"/>
<path d="M202 152.5C198.112 149.916 198.593 144.831 200 137L209 139.5L206.5 144L214 145L226 150.5C218.416 152.464 213.254 153.641 202 152.5Z" fill="#F2B491"/>
<path d="M230 144.5H227.5C229.514 141.443 231.5 140.5 231 142.722C235 142 238.097 142.23 239 144L230 144.5Z" fill="#26498C"/>
<path d="M239.5 144C236.777 143.683 236.802 142.073 237 140L245 137.5C247.068 145.896 246.406 149.356 243 152.5C230.793 152.758 224.403 150.795 213.5 145C216.502 144.201 218.245 144.073 221.5 144.5L239.5 144Z" fill="#F2B491"/>
<path d="M226.5 150.5C221.056 149.428 217.692 148.108 214 145C214 145 214 146 218 148.5C222 151 226.5 150.5 226.5 150.5Z" fill="#DB9A75"/>
<path d="M219 137.5L213.5 116.5L218 115C222.107 123.314 223.81 121.643 226.5 115L232.5 116.5L227.5 137.5H219Z" fill="white"/>
<path d="M233 133.5L235.5 118C239.396 119.078 241.513 123.346 244 133.5L234.5 136L233 133.5Z" fill="white"/>
<path d="M210.5 135.5L212.5 132.5L211 117.5C206.433 117.735 203.942 121.869 201 133L210.5 135.5Z" fill="white"/>
<path d="M235 140.5L234 136L244.5 133L245.5 137.5L235 140.5Z" fill="white"/>
<path d="M199.5 137L200.5 132.5L211 135.5L210 140L199.5 137Z" fill="white"/>
<path d="M218 102.5L221.5 98C218.77 97.7796 216.919 98.3126 213 101L214 103C214.985 101.719 216.292 101.729 218 102.5Z" fill="#372501"/>
<path d="M226.5 113.5C223.244 112.884 221.412 112.555 218.5 111V112.5C221.563 113.557 223.32 113.708 226.5 113.5Z" fill="#DB9A75"/>
<path d="M235.5 96C230.399 98.65 226.727 98.1296 220.5 98C225.137 103.005 231.604 103.594 239 97.5L235.5 96Z" fill="#1570C3"/>
<circle cx="186.5" cy="80.5" r="15.5" fill="white"/>
<circle cx="260.5" cy="82.5" r="15.5" fill="white"/>
<circle cx="223.5" cy="58.5" r="15.5" fill="white"/>
<path d="M203.798 42.0796C203.713 42.0651 203.63 42.0568 203.55 42.0553C203.634 42.0639 203.717 42.072 203.798 42.0796C205.318 42.3373 207.693 44.5552 207.201 45.705C208.369 43.856 209.401 43.6313 211.404 43.5787C209.465 43.0827 208.468 42.687 208.343 39.8148C207.287 42.0913 206.098 42.2948 203.798 42.0796Z" fill="#FAE981"/>
<path d="M232.217 82.5741C232.141 82.5758 232.069 82.5822 232 82.5936C232.074 82.5872 232.146 82.5808 232.217 82.5741C233.566 82.5437 235.976 83.9812 235.744 85C236.44 83.302 237.289 82.9544 239 82.5936C237.252 82.4954 236.33 82.3299 235.744 80C235.216 82.03 234.229 82.3852 232.217 82.5741Z" fill="#FAE981"/>
<path d="M197.217 68.5741C197.141 68.5758 197.069 68.5822 197 68.5936C197.074 68.5872 197.146 68.5808 197.217 68.5741C198.566 68.5437 200.976 69.9812 200.744 71C201.44 69.302 202.289 68.9544 204 68.5936C202.252 68.4954 201.33 68.3299 200.744 66C200.216 68.03 199.229 68.3852 197.217 68.5741Z" fill="#FAE981"/>
<path d="M243.311 63.6037C243.202 63.6061 243.098 63.6151 243 63.631C243.105 63.6221 243.209 63.6131 243.311 63.6037C245.237 63.5611 248.68 65.5737 248.349 67C249.342 64.6228 250.555 64.1361 253 63.631C250.503 63.4936 249.186 63.2619 248.349 60C247.595 62.842 246.184 63.3392 243.311 63.6037Z" fill="#FAE981"/>
<path d="M181.65 83.4858C183.815 81.3679 188.212 77.0761 188.487 76.8517C186.662 71.6931 191.12 68.8643 194.697 70.3808L191.941 72.909C191.943 73.8438 191.972 74.3616 192.425 75.1916C193.406 75.7006 193.875 75.7645 194.633 75.6737L197.613 73.4328C198.831 76.2694 196.23 81.5069 190.728 79.3264L184.289 85.9653C185.747 91.3812 181.871 93.8279 177.682 92.3745L180.438 89.8464C180.43 88.858 180.365 88.3155 180.013 87.3936C179.319 86.9264 178.803 86.8447 177.748 86.89L174.764 89.4932C174.911 85.6089 175.821 82.1872 181.65 83.4858Z" fill="#C4C4C4"/>
<rect x="229.663" y="57.8635" width="5.36266" height="9.38465" fill="#CCCCCE"/>
<rect x="213" y="48.0479" width="3.78259" height="6.94272" fill="#DBDBDB"/>
<rect x="235.983" y="66.8171" width="3.78259" height="6.94272" transform="rotate(89.7388 235.983 66.8171)" fill="#DBDBDB"/>
<rect x="225.948" y="48.9346" width="5.36266" height="9.38465" transform="rotate(90.7364 225.948 48.9346)" fill="#C4C4C4"/>
<rect x="217.98" y="58.2944" width="6.55968" height="2.77709" fill="#E9E7E7"/>
<rect x="218.65" y="61.0715" width="5.26689" height="7.66094" fill="#CCCCCE"/>
<rect x="217.98" y="68.7324" width="6.55968" height="2.77709" fill="#E9E7E7"/>
<rect x="223.725" y="48.8618" width="2.10676" height="5.45842" fill="#CCCCCE"/>
<path d="M225.832 55.0145V48C232.073 49.2332 234.472 51.1251 235.648 57.8874H228.825C228.178 56.1753 227.575 55.4882 225.832 55.0145Z" fill="#DBDBDB"/>
<path d="M264.125 92.568C269.863 86.9312 269.497 82.5236 261.221 72C252.156 82.0391 250.294 87.1291 257.106 93.052C258.558 94.3146 262.189 94.4701 264.125 92.568Z" fill="#00BDFF"/>
<path d="M258.864 86.0915C258.864 87.1586 257.999 88.0236 256.932 88.0236C255.865 88.0236 255 87.1586 255 86.0915C255 85.0244 255.865 83 256.932 83C257.999 83 258.864 85.0244 258.864 86.0915Z" fill="#E4EEFF"/>
<path d="M18.4819 67.2021C18.4819 66.7871 18.3354 66.4697 18.0425 66.25C17.7495 66.0254 17.2222 65.791 16.4604 65.5469C15.6987 65.2979 15.0957 65.0537 14.6514 64.8145C13.4404 64.1602 12.835 63.2788 12.835 62.1704C12.835 61.5942 12.9961 61.0815 13.3184 60.6323C13.6455 60.1782 14.1118 59.8242 14.7173 59.5703C15.3276 59.3164 16.0112 59.1895 16.7681 59.1895C17.5298 59.1895 18.2085 59.3286 18.8042 59.6069C19.3999 59.8804 19.8613 60.2686 20.1885 60.7715C20.5205 61.2744 20.6865 61.8457 20.6865 62.4854H18.4893C18.4893 61.9971 18.3354 61.6187 18.0278 61.3501C17.7202 61.0767 17.2881 60.9399 16.7314 60.9399C16.1943 60.9399 15.7769 61.0547 15.479 61.2842C15.1812 61.5088 15.0322 61.8066 15.0322 62.1777C15.0322 62.5244 15.2056 62.8149 15.5522 63.0493C15.9038 63.2837 16.4189 63.5034 17.0977 63.7085C18.3477 64.0845 19.2583 64.5508 19.8296 65.1074C20.4009 65.6641 20.6865 66.3574 20.6865 67.1875C20.6865 68.1104 20.3374 68.8354 19.6392 69.3628C18.9409 69.8853 18.001 70.1465 16.8193 70.1465C15.999 70.1465 15.252 69.9976 14.5781 69.6997C13.9043 69.397 13.3892 68.9844 13.0327 68.4619C12.6812 67.9395 12.5054 67.334 12.5054 66.6455H14.71C14.71 67.8223 15.4131 68.4106 16.8193 68.4106C17.3418 68.4106 17.7495 68.3057 18.0425 68.0957C18.3354 67.8809 18.4819 67.583 18.4819 67.2021ZM24.5171 70H22.3198V59.3359H24.5171V70ZM29.4316 59.3359L32.1709 67.0703L34.8955 59.3359H37.7812V70H35.5767V67.085L35.7964 62.0532L32.918 70H31.4092L28.5381 62.0605L28.7578 67.085V70H26.5605V59.3359H29.4316ZM41.8975 66.2427V70H39.7002V59.3359H43.8604C44.6611 59.3359 45.3643 59.4824 45.9697 59.7754C46.5801 60.0684 47.0488 60.4858 47.376 61.0278C47.7031 61.5649 47.8667 62.1777 47.8667 62.8662C47.8667 63.9111 47.5078 64.7363 46.79 65.3418C46.0771 65.9424 45.0884 66.2427 43.8237 66.2427H41.8975ZM41.8975 64.4629H43.8604C44.4414 64.4629 44.8833 64.3262 45.186 64.0527C45.4937 63.7793 45.6475 63.3887 45.6475 62.8809C45.6475 62.3584 45.4937 61.936 45.186 61.6138C44.8784 61.2915 44.4536 61.1255 43.9116 61.1157H41.8975V64.4629ZM55.7988 65.3784H51.5801V68.2349H56.5312V70H49.3828V59.3359H56.5166V61.1157H51.5801V63.6572H55.7988V65.3784ZM60.0176 68.2349H64.6831V70H57.8203V59.3359H60.0176V68.2349ZM72.4688 61.1157H69.2021V70H67.0049V61.1157H63.7822V59.3359H72.4688V61.1157ZM78.8701 67.8027H75.0176L74.2852 70H71.9487L75.9185 59.3359H77.9546L81.9463 70H79.6099L78.8701 67.8027ZM75.6108 66.0229H78.2769L76.9365 62.0312L75.6108 66.0229ZM82.9424 70V59.3359H86.6777C87.9717 59.3359 88.9531 59.585 89.6221 60.083C90.291 60.5762 90.6255 61.3013 90.6255 62.2583C90.6255 62.7808 90.4912 63.2422 90.2227 63.6426C89.9541 64.0381 89.5806 64.3286 89.1021 64.5142C89.6489 64.6509 90.0786 64.9268 90.3911 65.3418C90.7085 65.7568 90.8672 66.2646 90.8672 66.8652C90.8672 67.8906 90.54 68.667 89.8857 69.1943C89.2314 69.7217 88.2988 69.9902 87.0879 70H82.9424ZM85.1396 65.3564V68.2349H87.022C87.5396 68.2349 87.9424 68.1128 88.2305 67.8687C88.5234 67.6196 88.6699 67.2778 88.6699 66.8433C88.6699 65.8667 88.1646 65.3711 87.1538 65.3564H85.1396ZM85.1396 63.8037H86.7656C87.874 63.7842 88.4282 63.3423 88.4282 62.478C88.4282 61.9946 88.2866 61.6479 88.0034 61.438C87.7251 61.2231 87.2832 61.1157 86.6777 61.1157H85.1396V63.8037Z" fill="#0C5CBF"/>
<path d="M14.6514 90.8501H19.7051V92H13.2378V81.3359H14.6514V90.8501ZM20.7378 87.9644C20.7378 87.188 20.8892 86.4897 21.1919 85.8696C21.4995 85.2495 21.9243 84.771 22.4663 84.4341C23.0132 84.0972 23.6357 83.9287 24.334 83.9287C25.4131 83.9287 26.2847 84.3022 26.9487 85.0493C27.6177 85.7964 27.9521 86.79 27.9521 88.0303V88.1255C27.9521 88.897 27.8032 89.5903 27.5054 90.2056C27.2124 90.8159 26.79 91.292 26.2383 91.6338C25.6914 91.9756 25.0615 92.1465 24.3486 92.1465C23.2744 92.1465 22.4028 91.7729 21.7339 91.0259C21.0698 90.2788 20.7378 89.29 20.7378 88.0596V87.9644ZM22.1001 88.1255C22.1001 89.0044 22.3027 89.71 22.708 90.2422C23.1182 90.7744 23.665 91.0405 24.3486 91.0405C25.0371 91.0405 25.584 90.772 25.9893 90.2349C26.3945 89.6929 26.5972 88.936 26.5972 87.9644C26.5972 87.0952 26.3896 86.3921 25.9746 85.855C25.5645 85.313 25.0176 85.042 24.334 85.042C23.665 85.042 23.1255 85.3081 22.7153 85.8403C22.3052 86.3726 22.1001 87.1343 22.1001 88.1255ZM33.4819 85.291C33.2769 85.2568 33.0547 85.2397 32.8154 85.2397C31.9268 85.2397 31.3237 85.6182 31.0063 86.375V92H29.6514V84.0752H30.9697L30.9917 84.9907C31.436 84.2827 32.0659 83.9287 32.8813 83.9287C33.145 83.9287 33.3452 83.9629 33.4819 84.0312V85.291ZM37.8765 92.1465C36.8022 92.1465 35.9282 91.7949 35.2544 91.0918C34.5806 90.3838 34.2437 89.439 34.2437 88.2573V88.0083C34.2437 87.2222 34.3926 86.5215 34.6904 85.9062C34.9932 85.2861 35.4131 84.8027 35.9502 84.4561C36.4922 84.1045 37.0781 83.9287 37.708 83.9287C38.7383 83.9287 39.5391 84.2681 40.1104 84.9468C40.6816 85.6255 40.9673 86.5972 40.9673 87.8618V88.4258H35.5986C35.6182 89.207 35.8452 89.8394 36.2798 90.3228C36.7192 90.8013 37.2759 91.0405 37.9497 91.0405C38.4282 91.0405 38.8335 90.9429 39.1655 90.7476C39.4976 90.5522 39.7881 90.2935 40.0371 89.9712L40.8647 90.6157C40.2007 91.6362 39.2046 92.1465 37.8765 92.1465ZM37.708 85.042C37.1611 85.042 36.7021 85.2422 36.3311 85.6426C35.96 86.0381 35.7305 86.5947 35.6426 87.3125H39.6123V87.21C39.5732 86.5215 39.3877 85.9893 39.0557 85.6133C38.7236 85.2324 38.2744 85.042 37.708 85.042ZM43.8164 84.0752L43.853 84.9541C44.4341 84.2705 45.2178 83.9287 46.2041 83.9287C47.3125 83.9287 48.0669 84.3535 48.4673 85.2031C48.731 84.8223 49.0728 84.5146 49.4927 84.2803C49.9175 84.0459 50.418 83.9287 50.9941 83.9287C52.7324 83.9287 53.6162 84.8491 53.6455 86.6899V92H52.2905V86.7705C52.2905 86.2041 52.1611 85.7817 51.9023 85.5034C51.6436 85.2202 51.209 85.0786 50.5986 85.0786C50.0957 85.0786 49.6782 85.23 49.3462 85.5327C49.0142 85.8306 48.8213 86.2334 48.7676 86.7412V92H47.4053V86.8071C47.4053 85.6548 46.8413 85.0786 45.7134 85.0786C44.8247 85.0786 44.2168 85.457 43.8896 86.2139V92H42.5347V84.0752H43.8164ZM78.0537 92H76.6475V81.3359H78.0537V92ZM87.1138 88.1255C87.1138 89.3315 86.8379 90.3032 86.2861 91.0405C85.7344 91.7778 84.9873 92.1465 84.0449 92.1465C83.083 92.1465 82.3262 91.8413 81.7744 91.231V95.0469H80.4194V84.0752H81.6572L81.7231 84.9541C82.2749 84.2705 83.0415 83.9287 84.0229 83.9287C84.9751 83.9287 85.7271 84.2876 86.2788 85.0054C86.8354 85.7231 87.1138 86.7217 87.1138 88.001V88.1255ZM85.7588 87.9717C85.7588 87.0781 85.5684 86.3726 85.1875 85.855C84.8066 85.3374 84.2842 85.0786 83.6201 85.0786C82.7998 85.0786 82.1846 85.4424 81.7744 86.1699V89.9565C82.1797 90.6792 82.7998 91.0405 83.6348 91.0405C84.2842 91.0405 84.7993 90.7842 85.1802 90.2715C85.5659 89.7539 85.7588 88.9873 85.7588 87.9717ZM93.4565 89.8979C93.4565 89.5317 93.3174 89.2485 93.0391 89.0483C92.7656 88.8433 92.2847 88.6675 91.5962 88.521C90.9126 88.3745 90.3682 88.1987 89.9629 87.9937C89.5625 87.7886 89.2646 87.5444 89.0693 87.2612C88.8789 86.978 88.7837 86.6411 88.7837 86.2505C88.7837 85.6011 89.0571 85.0518 89.604 84.6025C90.1558 84.1533 90.8589 83.9287 91.7134 83.9287C92.6118 83.9287 93.3394 84.1606 93.896 84.6245C94.4575 85.0884 94.7383 85.6816 94.7383 86.4043H93.376C93.376 86.0332 93.2173 85.7134 92.8999 85.4448C92.5874 85.1763 92.1919 85.042 91.7134 85.042C91.2202 85.042 90.8345 85.1494 90.5562 85.3643C90.2778 85.5791 90.1387 85.8599 90.1387 86.2065C90.1387 86.5337 90.2681 86.7803 90.5269 86.9463C90.7856 87.1123 91.252 87.271 91.9258 87.4224C92.6045 87.5737 93.1538 87.7544 93.5737 87.9644C93.9937 88.1743 94.3037 88.4282 94.5039 88.7261C94.709 89.019 94.8115 89.3779 94.8115 89.8027C94.8115 90.5107 94.5283 91.0796 93.9619 91.5093C93.3955 91.9341 92.6606 92.1465 91.7573 92.1465C91.1226 92.1465 90.561 92.0342 90.0728 91.8096C89.5845 91.585 89.2012 91.2725 88.9229 90.8721C88.6494 90.4668 88.5127 90.0298 88.5127 89.561H89.8677C89.8921 90.0151 90.0728 90.3765 90.4097 90.645C90.7515 90.9087 91.2007 91.0405 91.7573 91.0405C92.27 91.0405 92.6802 90.938 92.9878 90.7329C93.3003 90.5229 93.4565 90.2446 93.4565 89.8979ZM101.469 91.2163C100.942 91.8364 100.168 92.1465 99.1475 92.1465C98.3027 92.1465 97.6582 91.9023 97.2139 91.4141C96.7744 90.9209 96.5522 90.1934 96.5474 89.2314V84.0752H97.9023V89.1948C97.9023 90.396 98.3906 90.9966 99.3672 90.9966C100.402 90.9966 101.091 90.6108 101.433 89.8394V84.0752H102.788V92H101.499L101.469 91.2163ZM106.127 84.0752L106.164 84.9541C106.745 84.2705 107.529 83.9287 108.515 83.9287C109.624 83.9287 110.378 84.3535 110.778 85.2031C111.042 84.8223 111.384 84.5146 111.804 84.2803C112.229 84.0459 112.729 83.9287 113.305 83.9287C115.043 83.9287 115.927 84.8491 115.957 86.6899V92H114.602V86.7705C114.602 86.2041 114.472 85.7817 114.213 85.5034C113.955 85.2202 113.52 85.0786 112.91 85.0786C112.407 85.0786 111.989 85.23 111.657 85.5327C111.325 85.8306 111.132 86.2334 111.079 86.7412V92H109.716V86.8071C109.716 85.6548 109.152 85.0786 108.024 85.0786C107.136 85.0786 106.528 85.457 106.201 86.2139V92H104.846V84.0752H106.127ZM140.116 92H138.761V84.0752H140.116V92ZM138.651 81.9731C138.651 81.7534 138.717 81.5679 138.849 81.4165C138.985 81.2651 139.186 81.1895 139.449 81.1895C139.713 81.1895 139.913 81.2651 140.05 81.4165C140.187 81.5679 140.255 81.7534 140.255 81.9731C140.255 82.1929 140.187 82.376 140.05 82.5225C139.913 82.6689 139.713 82.7422 139.449 82.7422C139.186 82.7422 138.985 82.6689 138.849 82.5225C138.717 82.376 138.651 82.1929 138.651 81.9731ZM146.905 89.8979C146.905 89.5317 146.766 89.2485 146.488 89.0483C146.214 88.8433 145.733 88.6675 145.045 88.521C144.361 88.3745 143.817 88.1987 143.412 87.9937C143.011 87.7886 142.713 87.5444 142.518 87.2612C142.328 86.978 142.232 86.6411 142.232 86.2505C142.232 85.6011 142.506 85.0518 143.053 84.6025C143.604 84.1533 144.308 83.9287 145.162 83.9287C146.061 83.9287 146.788 84.1606 147.345 84.6245C147.906 85.0884 148.187 85.6816 148.187 86.4043H146.825C146.825 86.0332 146.666 85.7134 146.349 85.4448C146.036 85.1763 145.641 85.042 145.162 85.042C144.669 85.042 144.283 85.1494 144.005 85.3643C143.727 85.5791 143.587 85.8599 143.587 86.2065C143.587 86.5337 143.717 86.7803 143.976 86.9463C144.234 87.1123 144.701 87.271 145.375 87.4224C146.053 87.5737 146.603 87.7544 147.022 87.9644C147.442 88.1743 147.752 88.4282 147.953 88.7261C148.158 89.019 148.26 89.3779 148.26 89.8027C148.26 90.5107 147.977 91.0796 147.411 91.5093C146.844 91.9341 146.109 92.1465 145.206 92.1465C144.571 92.1465 144.01 92.0342 143.521 91.8096C143.033 91.585 142.65 91.2725 142.372 90.8721C142.098 90.4668 141.961 90.0298 141.961 89.561H143.316C143.341 90.0151 143.521 90.3765 143.858 90.645C144.2 90.9087 144.649 91.0405 145.206 91.0405C145.719 91.0405 146.129 90.938 146.437 90.7329C146.749 90.5229 146.905 90.2446 146.905 89.8979ZM17.6396 107.898C17.6396 107.532 17.5005 107.249 17.2222 107.048C16.9487 106.843 16.4678 106.667 15.7793 106.521C15.0957 106.375 14.5513 106.199 14.146 105.994C13.7456 105.789 13.4478 105.544 13.2524 105.261C13.062 104.978 12.9668 104.641 12.9668 104.25C12.9668 103.601 13.2402 103.052 13.7871 102.603C14.3389 102.153 15.042 101.929 15.8965 101.929C16.7949 101.929 17.5225 102.161 18.0791 102.625C18.6406 103.088 18.9214 103.682 18.9214 104.404H17.5591C17.5591 104.033 17.4004 103.713 17.083 103.445C16.7705 103.176 16.375 103.042 15.8965 103.042C15.4033 103.042 15.0176 103.149 14.7393 103.364C14.4609 103.579 14.3218 103.86 14.3218 104.207C14.3218 104.534 14.4512 104.78 14.71 104.946C14.9688 105.112 15.4351 105.271 16.1089 105.422C16.7876 105.574 17.3369 105.754 17.7568 105.964C18.1768 106.174 18.4868 106.428 18.687 106.726C18.8921 107.019 18.9946 107.378 18.9946 107.803C18.9946 108.511 18.7114 109.08 18.145 109.509C17.5786 109.934 16.8438 110.146 15.9404 110.146C15.3057 110.146 14.7441 110.034 14.2559 109.81C13.7676 109.585 13.3843 109.272 13.106 108.872C12.8325 108.467 12.6958 108.03 12.6958 107.561H14.0508C14.0752 108.015 14.2559 108.376 14.5928 108.645C14.9346 108.909 15.3838 109.041 15.9404 109.041C16.4531 109.041 16.8633 108.938 17.1709 108.733C17.4834 108.523 17.6396 108.245 17.6396 107.898ZM22.2319 110H20.877V102.075H22.2319V110ZM20.7671 99.9731C20.7671 99.7534 20.833 99.5679 20.9648 99.4165C21.1016 99.2651 21.3018 99.1895 21.5654 99.1895C21.8291 99.1895 22.0293 99.2651 22.166 99.4165C22.3027 99.5679 22.3711 99.7534 22.3711 99.9731C22.3711 100.193 22.3027 100.376 22.166 100.522C22.0293 100.669 21.8291 100.742 21.5654 100.742C21.3018 100.742 21.1016 100.669 20.9648 100.522C20.833 100.376 20.7671 100.193 20.7671 99.9731ZM25.6816 102.075L25.7183 102.954C26.2993 102.271 27.083 101.929 28.0693 101.929C29.1777 101.929 29.9321 102.354 30.3325 103.203C30.5962 102.822 30.938 102.515 31.3579 102.28C31.7827 102.046 32.2832 101.929 32.8594 101.929C34.5977 101.929 35.4814 102.849 35.5107 104.69V110H34.1558V104.771C34.1558 104.204 34.0264 103.782 33.7676 103.503C33.5088 103.22 33.0742 103.079 32.4639 103.079C31.9609 103.079 31.5435 103.23 31.2114 103.533C30.8794 103.831 30.6865 104.233 30.6328 104.741V110H29.2705V104.807C29.2705 103.655 28.7065 103.079 27.5786 103.079C26.6899 103.079 26.082 103.457 25.7549 104.214V110H24.3999V102.075H25.6816ZM44.2559 106.125C44.2559 107.332 43.98 108.303 43.4282 109.041C42.8765 109.778 42.1294 110.146 41.187 110.146C40.2251 110.146 39.4683 109.841 38.9165 109.231V113.047H37.5615V102.075H38.7993L38.8652 102.954C39.417 102.271 40.1836 101.929 41.165 101.929C42.1172 101.929 42.8691 102.288 43.4209 103.005C43.9775 103.723 44.2559 104.722 44.2559 106.001V106.125ZM42.9009 105.972C42.9009 105.078 42.7104 104.373 42.3296 103.855C41.9487 103.337 41.4263 103.079 40.7622 103.079C39.9419 103.079 39.3267 103.442 38.9165 104.17V107.957C39.3218 108.679 39.9419 109.041 40.7769 109.041C41.4263 109.041 41.9414 108.784 42.3223 108.271C42.708 107.754 42.9009 106.987 42.9009 105.972ZM47.4565 110H46.1016V98.75H47.4565V110ZM52.2246 108.015L54.0703 102.075H55.5205L52.3345 111.223C51.8413 112.542 51.0576 113.201 49.9834 113.201L49.7271 113.179L49.2217 113.083V111.985L49.5879 112.014C50.0469 112.014 50.4033 111.921 50.6572 111.736C50.916 111.55 51.1284 111.211 51.2944 110.718L51.5947 109.912L48.7676 102.075H50.2471L52.2246 108.015ZM65.3682 105.972C65.3682 104.756 65.6562 103.779 66.2324 103.042C66.8086 102.3 67.563 101.929 68.4956 101.929C69.4233 101.929 70.1582 102.246 70.7002 102.881V98.75H72.0552V110H70.8101L70.7441 109.15C70.2021 109.814 69.4478 110.146 68.481 110.146C67.563 110.146 66.8135 109.771 66.2324 109.019C65.6562 108.267 65.3682 107.285 65.3682 106.074V105.972ZM66.7231 106.125C66.7231 107.024 66.9087 107.727 67.2798 108.235C67.6509 108.743 68.1636 108.997 68.8179 108.997C69.6772 108.997 70.3047 108.611 70.7002 107.839V104.199C70.2949 103.452 69.6724 103.079 68.8325 103.079C68.1685 103.079 67.6509 103.335 67.2798 103.848C66.9087 104.36 66.7231 105.12 66.7231 106.125ZM79.0571 109.216C78.5298 109.836 77.7559 110.146 76.7354 110.146C75.8906 110.146 75.2461 109.902 74.8018 109.414C74.3623 108.921 74.1401 108.193 74.1353 107.231V102.075H75.4902V107.195C75.4902 108.396 75.9785 108.997 76.9551 108.997C77.9902 108.997 78.6787 108.611 79.0205 107.839V102.075H80.3755V110H79.0864L79.0571 109.216ZM83.7153 102.075L83.752 102.954C84.333 102.271 85.1167 101.929 86.103 101.929C87.2114 101.929 87.9658 102.354 88.3662 103.203C88.6299 102.822 88.9717 102.515 89.3916 102.28C89.8164 102.046 90.3169 101.929 90.8931 101.929C92.6313 101.929 93.5151 102.849 93.5444 104.69V110H92.1895V104.771C92.1895 104.204 92.0601 103.782 91.8013 103.503C91.5425 103.22 91.1079 103.079 90.4976 103.079C89.9946 103.079 89.5771 103.23 89.2451 103.533C88.9131 103.831 88.7202 104.233 88.6665 104.741V110H87.3042V104.807C87.3042 103.655 86.7402 103.079 85.6123 103.079C84.7236 103.079 84.1157 103.457 83.7886 104.214V110H82.4336V102.075H83.7153ZM96.8696 102.075L96.9062 102.954C97.4873 102.271 98.271 101.929 99.2573 101.929C100.366 101.929 101.12 102.354 101.521 103.203C101.784 102.822 102.126 102.515 102.546 102.28C102.971 102.046 103.471 101.929 104.047 101.929C105.786 101.929 106.669 102.849 106.699 104.69V110H105.344V104.771C105.344 104.204 105.214 103.782 104.956 103.503C104.697 103.22 104.262 103.079 103.652 103.079C103.149 103.079 102.731 103.23 102.399 103.533C102.067 103.831 101.875 104.233 101.821 104.741V110H100.458V104.807C100.458 103.655 99.8945 103.079 98.7666 103.079C97.8779 103.079 97.27 103.457 96.9429 104.214V110H95.5879V102.075H96.8696ZM111.342 108.015L113.188 102.075H114.638L111.452 111.223C110.959 112.542 110.175 113.201 109.101 113.201L108.845 113.179L108.339 113.083V111.985L108.706 112.014C109.165 112.014 109.521 111.921 109.775 111.736C110.034 111.55 110.246 111.211 110.412 110.718L110.712 109.912L107.885 102.075H109.365L111.342 108.015ZM126.654 100.156V102.075H128.133V103.123H126.654V108.037C126.654 108.354 126.72 108.594 126.852 108.755C126.983 108.911 127.208 108.989 127.525 108.989C127.682 108.989 127.896 108.96 128.17 108.901V110C127.813 110.098 127.467 110.146 127.13 110.146C126.524 110.146 126.068 109.963 125.76 109.597C125.453 109.231 125.299 108.711 125.299 108.037V103.123H123.856V102.075H125.299V100.156H126.654ZM133.011 110.146C131.937 110.146 131.063 109.795 130.389 109.092C129.715 108.384 129.378 107.439 129.378 106.257V106.008C129.378 105.222 129.527 104.521 129.825 103.906C130.128 103.286 130.548 102.803 131.085 102.456C131.627 102.104 132.213 101.929 132.843 101.929C133.873 101.929 134.674 102.268 135.245 102.947C135.816 103.625 136.102 104.597 136.102 105.862V106.426H130.733C130.753 107.207 130.98 107.839 131.415 108.323C131.854 108.801 132.411 109.041 133.084 109.041C133.563 109.041 133.968 108.943 134.3 108.748C134.632 108.552 134.923 108.293 135.172 107.971L136 108.616C135.335 109.636 134.339 110.146 133.011 110.146ZM132.843 103.042C132.296 103.042 131.837 103.242 131.466 103.643C131.095 104.038 130.865 104.595 130.777 105.312H134.747V105.21C134.708 104.521 134.522 103.989 134.19 103.613C133.858 103.232 133.409 103.042 132.843 103.042ZM140.335 104.968L142.093 102.075H143.675L141.083 105.994L143.756 110H142.188L140.357 107.034L138.526 110H136.952L139.625 105.994L137.032 102.075H138.6L140.335 104.968ZM146.957 100.156V102.075H148.436V103.123H146.957V108.037C146.957 108.354 147.022 108.594 147.154 108.755C147.286 108.911 147.511 108.989 147.828 108.989C147.984 108.989 148.199 108.96 148.473 108.901V110C148.116 110.098 147.77 110.146 147.433 110.146C146.827 110.146 146.371 109.963 146.063 109.597C145.755 109.231 145.602 108.711 145.602 108.037V103.123H144.159V102.075H145.602V100.156H146.957ZM12.6665 123.964C12.6665 123.188 12.8179 122.49 13.1206 121.87C13.4282 121.25 13.853 120.771 14.395 120.434C14.9419 120.097 15.5645 119.929 16.2627 119.929C17.3418 119.929 18.2134 120.302 18.8774 121.049C19.5464 121.796 19.8809 122.79 19.8809 124.03V124.125C19.8809 124.897 19.7319 125.59 19.4341 126.206C19.1411 126.816 18.7188 127.292 18.167 127.634C17.6201 127.976 16.9902 128.146 16.2773 128.146C15.2031 128.146 14.3315 127.773 13.6626 127.026C12.9985 126.279 12.6665 125.29 12.6665 124.06V123.964ZM14.0288 124.125C14.0288 125.004 14.2314 125.71 14.6367 126.242C15.0469 126.774 15.5938 127.041 16.2773 127.041C16.9658 127.041 17.5127 126.772 17.918 126.235C18.3232 125.693 18.5259 124.936 18.5259 123.964C18.5259 123.095 18.3184 122.392 17.9033 121.855C17.4932 121.313 16.9463 121.042 16.2627 121.042C15.5938 121.042 15.0542 121.308 14.644 121.84C14.2339 122.373 14.0288 123.134 14.0288 124.125ZM22.2466 128V121.123H20.9941V120.075H22.2466V119.262C22.2466 118.413 22.4736 117.756 22.9277 117.292C23.3818 116.828 24.0239 116.596 24.854 116.596C25.1665 116.596 25.4766 116.638 25.7842 116.721L25.7109 117.819C25.4814 117.775 25.2373 117.753 24.9785 117.753C24.5391 117.753 24.1997 117.883 23.9604 118.142C23.7212 118.396 23.6016 118.762 23.6016 119.24V120.075H25.2935V121.123H23.6016V128H22.2466ZM32.354 118.156V120.075H33.8335V121.123H32.354V126.037C32.354 126.354 32.4199 126.594 32.5518 126.755C32.6836 126.911 32.9082 126.989 33.2256 126.989C33.3818 126.989 33.5967 126.96 33.8701 126.901V128C33.5137 128.098 33.167 128.146 32.8301 128.146C32.2246 128.146 31.7681 127.963 31.4604 127.597C31.1528 127.231 30.999 126.711 30.999 126.037V121.123H29.5562V120.075H30.999V118.156H32.354ZM36.7778 121.035C37.3784 120.297 38.1597 119.929 39.1216 119.929C40.7964 119.929 41.6411 120.874 41.6558 122.763V128H40.3008V122.756C40.2959 122.185 40.1641 121.762 39.9053 121.489C39.6514 121.215 39.2534 121.079 38.7114 121.079C38.272 121.079 37.8862 121.196 37.5542 121.43C37.2222 121.665 36.9634 121.972 36.7778 122.353V128H35.4229V116.75H36.7778V121.035ZM46.9731 128.146C45.8989 128.146 45.0249 127.795 44.3511 127.092C43.6772 126.384 43.3403 125.439 43.3403 124.257V124.008C43.3403 123.222 43.4893 122.521 43.7871 121.906C44.0898 121.286 44.5098 120.803 45.0469 120.456C45.5889 120.104 46.1748 119.929 46.8047 119.929C47.835 119.929 48.6357 120.268 49.207 120.947C49.7783 121.625 50.064 122.597 50.064 123.862V124.426H44.6953C44.7148 125.207 44.9419 125.839 45.3765 126.323C45.8159 126.801 46.3726 127.041 47.0464 127.041C47.5249 127.041 47.9302 126.943 48.2622 126.748C48.5942 126.552 48.8848 126.293 49.1338 125.971L49.9614 126.616C49.2974 127.636 48.3013 128.146 46.9731 128.146ZM46.8047 121.042C46.2578 121.042 45.7988 121.242 45.4277 121.643C45.0566 122.038 44.8271 122.595 44.7393 123.312H48.709V123.21C48.6699 122.521 48.4844 121.989 48.1523 121.613C47.8203 121.232 47.3711 121.042 46.8047 121.042ZM62.0537 124.125C62.0537 125.332 61.7778 126.303 61.2261 127.041C60.6743 127.778 59.9272 128.146 58.9849 128.146C58.0229 128.146 57.2661 127.841 56.7144 127.231V131.047H55.3594V120.075H56.5972L56.6631 120.954C57.2148 120.271 57.9814 119.929 58.9629 119.929C59.915 119.929 60.667 120.288 61.2188 121.005C61.7754 121.723 62.0537 122.722 62.0537 124.001V124.125ZM60.6987 123.972C60.6987 123.078 60.5083 122.373 60.1274 121.855C59.7466 121.337 59.2241 121.079 58.5601 121.079C57.7397 121.079 57.1245 121.442 56.7144 122.17V125.957C57.1196 126.679 57.7397 127.041 58.5747 127.041C59.2241 127.041 59.7393 126.784 60.1201 126.271C60.5059 125.754 60.6987 124.987 60.6987 123.972ZM67.6128 121.291C67.4077 121.257 67.1855 121.24 66.9463 121.24C66.0576 121.24 65.4546 121.618 65.1372 122.375V128H63.7822V120.075H65.1006L65.1226 120.991C65.5669 120.283 66.1968 119.929 67.0122 119.929C67.2759 119.929 67.4761 119.963 67.6128 120.031V121.291ZM70.3374 128H68.9824V120.075H70.3374V128ZM68.8726 117.973C68.8726 117.753 68.9385 117.568 69.0703 117.417C69.207 117.265 69.4072 117.189 69.6709 117.189C69.9346 117.189 70.1348 117.265 70.2715 117.417C70.4082 117.568 70.4766 117.753 70.4766 117.973C70.4766 118.193 70.4082 118.376 70.2715 118.522C70.1348 118.669 69.9346 118.742 69.6709 118.742C69.4072 118.742 69.207 118.669 69.0703 118.522C68.9385 118.376 68.8726 118.193 68.8726 117.973ZM73.7944 120.075L73.8384 121.071C74.4438 120.31 75.2349 119.929 76.2114 119.929C77.8862 119.929 78.731 120.874 78.7456 122.763V128H77.3906V122.756C77.3857 122.185 77.2539 121.762 76.9951 121.489C76.7412 121.215 76.3433 121.079 75.8013 121.079C75.3618 121.079 74.9761 121.196 74.644 121.43C74.312 121.665 74.0532 121.972 73.8677 122.353V128H72.5127V120.075H73.7944ZM82.6274 118.156V120.075H84.1069V121.123H82.6274V126.037C82.6274 126.354 82.6934 126.594 82.8252 126.755C82.957 126.911 83.1816 126.989 83.499 126.989C83.6553 126.989 83.8701 126.96 84.1436 126.901V128C83.7871 128.098 83.4404 128.146 83.1035 128.146C82.498 128.146 82.0415 127.963 81.7339 127.597C81.4263 127.231 81.2725 126.711 81.2725 126.037V121.123H79.8296V120.075H81.2725V118.156H82.6274ZM87.1685 128H85.8135V120.075H87.1685V128ZM85.7036 117.973C85.7036 117.753 85.7695 117.568 85.9014 117.417C86.0381 117.265 86.2383 117.189 86.502 117.189C86.7656 117.189 86.9658 117.265 87.1025 117.417C87.2393 117.568 87.3076 117.753 87.3076 117.973C87.3076 118.193 87.2393 118.376 87.1025 118.522C86.9658 118.669 86.7656 118.742 86.502 118.742C86.2383 118.742 86.0381 118.669 85.9014 118.522C85.7695 118.376 85.7036 118.193 85.7036 117.973ZM90.6255 120.075L90.6694 121.071C91.2749 120.31 92.0659 119.929 93.0425 119.929C94.7173 119.929 95.562 120.874 95.5767 122.763V128H94.2217V122.756C94.2168 122.185 94.085 121.762 93.8262 121.489C93.5723 121.215 93.1743 121.079 92.6323 121.079C92.1929 121.079 91.8071 121.196 91.4751 121.43C91.1431 121.665 90.8843 121.972 90.6987 122.353V128H89.3438V120.075H90.6255ZM97.2979 123.972C97.2979 122.736 97.5835 121.755 98.1548 121.027C98.7261 120.295 99.4829 119.929 100.425 119.929C101.392 119.929 102.146 120.271 102.688 120.954L102.754 120.075H103.992V127.81C103.992 128.835 103.687 129.643 103.077 130.234C102.471 130.825 101.656 131.12 100.63 131.12C100.059 131.12 99.5 130.998 98.9531 130.754C98.4062 130.51 97.9888 130.175 97.7007 129.75L98.4038 128.938C98.9849 129.655 99.6953 130.014 100.535 130.014C101.194 130.014 101.707 129.829 102.073 129.458C102.444 129.086 102.63 128.564 102.63 127.89V127.209C102.088 127.834 101.348 128.146 100.411 128.146C99.4829 128.146 98.731 127.773 98.1548 127.026C97.5835 126.279 97.2979 125.261 97.2979 123.972ZM98.6602 124.125C98.6602 125.019 98.8433 125.722 99.2095 126.235C99.5757 126.743 100.088 126.997 100.748 126.997C101.602 126.997 102.229 126.608 102.63 125.832V122.214C102.215 121.457 101.592 121.079 100.762 121.079C100.103 121.079 99.5879 121.335 99.2168 121.848C98.8457 122.36 98.6602 123.12 98.6602 124.125Z" fill="#696969"/>
<defs>
<filter id="filter0_dddd" x="154" y="28" width="137" height="137" filterUnits="userSpaceOnUse" color-interpolation-filters="sRGB">
<feFlood flood-opacity="0" result="BackgroundImageFix"/>
<feColorMatrix in="SourceAlpha" type="matrix" values="0 0 0 0 0 0 0 0 0 0 0 0 0 0 0 0 0 0 127 0"/>
<feOffset dy="-4"/>
<feGaussianBlur stdDeviation="2"/>
<feColorMatrix type="matrix" values="0 0 0 0 0.475781 0 0 0 0 0.641168 0 0 0 0 0.845833 0 0 0 0.25 0"/>
<feBlend mode="normal" in2="BackgroundImageFix" result="effect1_dropShadow"/>
<feColorMatrix in="SourceAlpha" type="matrix" values="0 0 0 0 0 0 0 0 0 0 0 0 0 0 0 0 0 0 127 0"/>
<feOffset dy="4"/>
<feGaussianBlur stdDeviation="2"/>
<feColorMatrix type="matrix" values="0 0 0 0 0.47451 0 0 0 0 0.639216 0 0 0 0 0.847059 0 0 0 0.25 0"/>
<feBlend mode="normal" in2="effect1_dropShadow" result="effect2_dropShadow"/>
<feColorMatrix in="SourceAlpha" type="matrix" values="0 0 0 0 0 0 0 0 0 0 0 0 0 0 0 0 0 0 127 0"/>
<feOffset dx="4"/>
<feGaussianBlur stdDeviation="2"/>
<feColorMatrix type="matrix" values="0 0 0 0 0.47451 0 0 0 0 0.639216 0 0 0 0 0.847059 0 0 0 0.25 0"/>
<feBlend mode="normal" in2="effect2_dropShadow" result="effect3_dropShadow"/>
<feColorMatrix in="SourceAlpha" type="matrix" values="0 0 0 0 0 0 0 0 0 0 0 0 0 0 0 0 0 0 127 0"/>
<feOffset dx="-4"/>
<feGaussianBlur stdDeviation="2"/>
<feColorMatrix type="matrix" values="0 0 0 0 0.47451 0 0 0 0 0.639216 0 0 0 0 0.847059 0 0 0 0.25 0"/>
<feBlend mode="normal" in2="effect3_dropShadow" result="effect4_dropShadow"/>
<feBlend mode="normal" in="SourceGraphic" in2="effect4_dropShadow" result="shape"/>
</filter>
<linearGradient id="paint0_linear" x1="183.25" y1="0" x2="183.25" y2="127" gradientUnits="userSpaceOnUse">
<stop stop-color="#0C5CBF"/>
<stop offset="1" stop-color="#1DA0E0"/>
</linearGradient>
<linearGradient id="paint1_linear" x1="82.25" y1="17.0001" x2="82.25" y2="70.0001" gradientUnits="userSpaceOnUse">
<stop stop-color="#0C5CBF"/>
<stop offset="1" stop-color="#029BF6"/>
</linearGradient>
</defs>
</svg>
