<svg width="340" height="170" viewBox="0 0 340 170" fill="none" xmlns="http://www.w3.org/2000/svg">
<g filter="url(#filter0_d)">
<rect x="4" width="331.796" height="161.569" fill="white"/>
</g>
<path d="M175.313 139.687C161.404 137.975 128.826 139.28 112.837 162L337.5 161.803V65.5491C305.315 65.5491 292.035 74.1865 274.212 108.741C250.397 154.913 189.222 141.399 175.313 139.687Z" fill="url(#paint0_linear)"/>
<path d="M337.001 162H296.062C294.59 140.943 310.349 112.218 337.001 114.711L337.001 162Z" fill="#0ACCFA"/>
<path d="M57.1438 160.558C57.456 159.437 57.5485 158.745 57.1438 157.073C55.5516 153.418 53.4125 153.622 49.6336 153.983L49.5677 153.989L37.7032 160.558H57.1438Z" fill="#2E4886"/>
<path d="M78.2998 145.218L62.5757 100.041L58.4303 144.146H47.7094C48.5671 119.703 50.2252 70.8164 49.9965 70.8164H71.5813C74.8085 96.1384 80.1087 112.746 88.163 142.671L78.2998 145.218Z" fill="#AFC3FE"/>
<path d="M84.1605 160.635C83.8483 159.514 83.7558 158.822 84.1605 157.149C85.7527 153.495 87.8918 153.699 91.6708 154.06L91.7366 154.066L103.601 160.635H84.1605Z" fill="#2E4886"/>
<path d="M88.7348 146.156L80.5869 148.033L84.3035 156.747C86.7195 157.126 87.9493 157.204 89.5925 156.747C90.8021 155.731 91.2442 155.082 91.5937 153.932L88.7348 146.156Z" fill="#F2B491"/>
<path d="M49.1388 154.334V147.229H57.0009V156.479C55.2583 156.936 54.0802 156.981 51.426 156.479C51.4231 155.572 51.1631 155.099 50.1395 154.334H49.1388Z" fill="#F2B491"/>
<path d="M58.5733 143.878H47.2806C46.5652 145.291 46.6778 146.084 47.2806 147.497H58.5733C59.0854 146.269 59.0994 145.481 58.5733 143.878Z" fill="#7D91CC"/>
<path d="M88.8157 142.442L77.9221 145.233C77.6291 146.773 77.9605 147.51 78.939 148.724L89.8327 145.934C89.9817 144.622 89.7739 143.859 88.8157 142.442Z" fill="#7D91CC"/>
<path d="M71.8672 74.034V60.2261L79.3004 54.1935C76.9536 46.9841 74.5308 45.1299 69.5801 43.0668C65.0051 48.1113 59.6172 48.1877 56.572 42.3965C50.3012 43.5062 47.4595 45.4558 44.1357 51.7805L50.1395 56.8747C49.4218 62.6924 49.487 66.9889 50.1395 73.3637C58.9001 74.5393 63.6329 74.6046 71.8672 74.034Z" fill="#F99748"/>
<path d="M75.5293 68.2696C73.9482 65.1358 73.6145 63.0314 72.6704 59.5559L79.1574 54.1936C83.1924 67.6923 82.6766 67.8674 82.6766 72.1573C82.6766 76.4471 78.2452 75.5087 78.2452 75.5087C73.8012 74.6237 71.1484 73.8687 65.5231 71.0848C62.2137 72.4963 60.119 72.6544 56.0887 72.1573C55.3138 72.0565 54.9648 71.9643 55.088 71.487C54.473 71.4546 54.4512 71.3336 54.5163 71.0848C53.892 71.0478 53.9106 70.9182 53.9431 70.6921L53.9445 70.6827C53.3168 70.5263 53.3824 69.9883 53.5156 69.7443C56.9911 69.9992 58.7204 70.2373 61.5206 69.6102C62.7512 69.1575 62.7692 68.8536 62.2353 68.2696C61.1699 68.0005 60.3988 67.7407 59.5194 67.8674C56.7534 67.6551 55.1131 65.1447 62.9501 66.5269C64.2493 66.688 64.994 66.8396 66.3807 67.3312L75.5293 68.2696Z" fill="#F2B491"/>
<path d="M60.0027 42.2623V41.592L56.572 42.3964C59.1408 47.5418 64.3483 48.782 69.5801 43.0667C68.3853 42.5282 67.726 42.2828 66.5782 41.9942L67.2929 42.7986C65.008 45.4899 62.5287 46.5953 58.5732 42.7986L60.0027 42.2623Z" fill="white"/>
<path d="M39.7044 65.4285C41.2128 59.7403 42.2353 56.8124 44.2787 51.9143L49.9965 56.3005C48.2005 63.0108 46.7844 66.1411 42.5633 71.4743C41.2687 72.92 39.0162 71.5519 33.4148 66.851V61.0423L39.7044 65.4285Z" fill="#F2B491"/>
<path d="M54.4278 33.8169C52.1277 39.3611 47.9305 43.9318 51.283 44.0052C61.3885 40.2921 66.8484 40.7279 75.4408 47.0885C78.6075 45.7211 77.6544 43.0932 74.4402 38.777C74.4476 33.352 74.5227 30.1384 73.1537 28.0524C70.8021 17.1627 64.865 18.9267 59.5739 22.0198C54.4565 21.9197 53.9534 25.4472 54.4278 33.8169Z" fill="#0B0D38"/>
<path d="M58.5733 42.7986C59.004 42.5533 59.2532 42.4181 60.0027 42.2624V39.1791C63.2401 39.9392 64.2916 38.2628 66.7212 35.6936L66.5782 41.9943C67.0189 42.328 67.1908 42.506 67.2929 42.7986C64.8015 46.1708 61.1746 46.5495 58.5733 42.7986Z" fill="#F2B491"/>
<path d="M68.2936 33.8167C64.6565 39.7139 60.6785 39.8742 57.4297 35.4254C57.2937 35.6529 56.6181 30.6509 57.0009 28.4544C58.4176 24.9225 58.6878 24.9531 59.145 25.103C61.7455 29.8975 67.5028 28.7868 68.5794 32.074C71.7514 27.8813 73.2742 35.3617 68.2936 33.8167Z" fill="#F2B491"/>
<path d="M60.0027 39.4472V37.8385C63.8559 39.2997 65.0048 37.4959 66.8641 35.8276C64.4103 38.9319 63.0176 40.2856 60.0027 39.4472Z" fill="#CA8F6E"/>
<path d="M34.4154 61.8349C34.1187 59.5714 34.1095 58.0016 33.9866 58.0813C35.0515 57.3554 36.0366 59.8592 35.559 62.6392L34.4154 61.8349Z" fill="#F2B491"/>
<path d="M30.9596 51.5029H33.4265L44.9386 161.064H42.8829L30.9596 51.5029Z" fill="#572903"/>
<path d="M31.6995 59.5558C32.5609 59.8427 32.7001 60.7623 32.1283 61.0305C32.7001 61.4326 32.5571 62.371 31.9854 62.6391C32.5571 62.9073 32.6454 64.068 31.8424 64.2478C32.5571 64.2478 32.986 65.0522 31.9854 65.3203C30.6369 65.2565 29.9504 65.1011 28.9835 64.3819C27.8399 62.5051 28.1258 60.092 28.9835 59.8239C29.8412 59.5558 30.838 59.2689 31.6995 59.5558Z" fill="#F2B491"/>
<rect x="0.583456" y="0.412903" width="38.774" height="24.3604" rx="0.5" transform="matrix(0.987446 -0.157959 0.179466 0.983764 8.92574 34.7261)" fill="white" stroke="#572903"/>
<path d="M37.8802 148.242C40.4926 152.156 41.7026 154.576 43.0389 159.625L42.4375 159.63C41.2724 154.71 40.1062 152.405 37.524 148.735L37.8802 148.242Z" fill="#A9D3A5"/>
<path d="M28.3261 148.469C30.9385 152.383 32.1485 154.804 33.4848 159.852L32.8834 159.857C31.7183 154.937 30.552 152.632 27.9699 148.962L28.3261 148.469Z" fill="#A9D3A5"/>
<path d="M62.2444 161.441H25.1995C26.1009 158.07 34.4148 159.695 36.6077 160.124L36.6257 160.127C38.7906 160.551 40.2339 160.127 40.2339 160.127C51.0277 156.369 56.223 155.927 62.2444 161.441Z" fill="#A8CEA1"/>
<path d="M58.7188 159.411C59.3182 153.852 60.0289 150.906 62.1235 146.033H61.6795C59.8222 150.262 58.9768 152.951 58.2747 159.052L58.7188 159.411Z" fill="#A9D3A5"/>
<path d="M58.9598 156.398C58.3041 157.229 55.6822 157.033 54.8458 156.382C54.0094 155.731 53.3359 154.423 53.9916 153.592C54.6473 152.762 56.1409 152.837 56.9774 153.489C57.8138 154.14 59.3309 155.928 58.9598 156.398Z" fill="#A9D3A5"/>
<path d="M45.8108 152.8C45.1847 151.947 46.088 149.495 46.9468 148.874C47.8056 148.252 49.2564 147.964 49.8826 148.817C50.5087 149.67 50.0286 151.077 49.1698 151.699C48.311 152.32 46.1651 153.283 45.8108 152.8Z" fill="#A9D3A5"/>
<path d="M39.2425 150.475C38.5214 149.945 38.6242 147.745 39.157 147.029C39.6898 146.313 40.7842 145.718 41.5053 146.247C42.2263 146.776 42.1979 148.029 41.6651 148.745C41.1323 149.461 39.6504 150.774 39.2425 150.475Z" fill="#A9D3A5"/>
<path d="M40.9922 153.676C40.5717 153.104 41.1784 151.457 41.7552 151.039C42.3319 150.622 43.3063 150.429 43.7268 151.001C44.1474 151.574 43.8249 152.519 43.2481 152.937C42.6714 153.354 41.2302 154.001 40.9922 153.676Z" fill="#A9D3A5"/>
<path d="M31.3702 154.871C30.9497 154.298 31.5564 152.651 32.1331 152.234C32.7099 151.816 33.6843 151.623 34.1048 152.196C34.5253 152.769 34.2029 153.713 33.6261 154.131C33.0493 154.548 31.6081 155.195 31.3702 154.871Z" fill="#A9D3A5"/>
<path d="M30.4435 152.564C30.2776 153.254 28.6222 153.864 27.9279 153.699C27.2337 153.535 26.4536 152.924 26.6195 152.234C26.7854 151.545 27.7184 151.175 28.4127 151.34C29.1069 151.505 30.5374 152.174 30.4435 152.564Z" fill="#A9D3A5"/>
<path d="M39.2846 151.388C39.1903 150.844 37.9334 150.287 37.3851 150.38C36.8367 150.474 36.1991 150.91 36.2934 151.455C36.3877 151.999 37.0948 152.333 37.6432 152.24C38.1915 152.146 39.3379 151.696 39.2846 151.388Z" fill="#A9D3A5"/>
<path d="M37.8412 148.522C37.7469 147.977 36.49 147.42 35.9417 147.514C35.3934 147.607 34.7558 148.044 34.8501 148.588C34.9444 149.133 35.6515 149.467 36.1998 149.373C36.7481 149.279 37.8946 148.83 37.8412 148.522Z" fill="#A9D3A5"/>
<path d="M64.7108 142.736C64.2818 143.247 62.9465 144 62.4342 143.576C61.9218 143.152 62.4266 141.712 62.8556 141.2C63.2846 140.689 64.0476 140.618 64.5599 141.042C65.0722 141.466 65.1398 142.224 64.7108 142.736Z" fill="#029BF6"/>
<path d="M62.1718 141.008C62.586 141.531 63.0496 142.984 62.5255 143.394C62.0013 143.803 60.6879 143.013 60.2736 142.49C59.8594 141.967 59.9485 141.211 60.4726 140.802C60.9968 140.392 61.7575 140.485 62.1718 141.008Z" fill="#029BF6"/>
<path d="M63.6668 145.415C63.0507 145.153 61.9418 144.098 62.2039 143.489C62.4661 142.88 64.0001 142.948 64.6163 143.21C65.2324 143.471 65.5193 144.177 65.2571 144.786C64.9949 145.395 64.2829 145.676 63.6668 145.415Z" fill="#029BF6"/>
<path d="M60.9235 145.312C61.0399 144.657 61.8221 143.344 62.4788 143.459C63.1355 143.575 63.4181 145.073 63.3017 145.729C63.1852 146.384 62.5584 146.822 61.9017 146.707C61.245 146.592 60.807 145.967 60.9235 145.312Z" fill="#029BF6"/>
<path d="M60.3086 142.758C60.974 142.68 62.4651 143.044 62.5439 143.702C62.6228 144.359 61.2596 145.061 60.5942 145.14C59.9288 145.218 59.3255 144.749 59.2466 144.092C59.1678 143.434 59.6433 142.837 60.3086 142.758Z" fill="#029BF6"/>
<ellipse cx="62.2896" cy="143.658" rx="0.603739" ry="0.599566" fill="white"/>
<path d="M29.5185 147.311C29.1604 147.737 28.0457 148.366 27.618 148.012C27.1904 147.658 27.6117 146.456 27.9698 146.029C28.3279 145.602 28.9649 145.543 29.3925 145.897C29.8202 146.251 29.8766 146.884 29.5185 147.311Z" fill="#029BF6"/>
<path d="M27.4011 145.869C27.7473 146.305 28.1348 147.518 27.6969 147.859C27.2591 148.201 26.1618 147.541 25.8157 147.105C25.4695 146.669 25.5439 146.038 25.9817 145.697C26.4195 145.355 27.055 145.432 27.4011 145.869Z" fill="#029BF6"/>
<path d="M28.647 149.547C28.1327 149.328 27.207 148.448 27.4259 147.94C27.6447 147.431 28.9253 147.488 29.4396 147.706C29.9539 147.925 30.1934 148.514 29.9745 149.022C29.7556 149.53 29.1613 149.765 28.647 149.547Z" fill="#029BF6"/>
<path d="M26.357 149.461C26.4543 148.914 27.1072 147.818 27.6554 147.915C28.2036 148.011 28.4395 149.262 28.3422 149.809C28.245 150.356 27.7218 150.721 27.1736 150.625C26.6254 150.529 26.2598 150.008 26.357 149.461Z" fill="#029BF6"/>
<path d="M25.8438 147.329C26.3992 147.264 27.644 147.568 27.7099 148.117C27.7758 148.666 26.6379 149.252 26.0825 149.317C25.5271 149.383 25.0234 148.991 24.9574 148.442C24.8915 147.893 25.2884 147.395 25.8438 147.329Z" fill="#029BF6"/>
<ellipse cx="27.4974" cy="148.081" rx="0.50397" ry="0.500487" fill="white"/>
<path d="M46.2472 158.455C45.4698 152.653 44.9246 149.429 42.7592 144.002L43.12 143.763C44.9592 147.933 47.2901 157.629 47.0891 158.455C46.9675 158.955 46.608 158.654 46.2472 158.455Z" fill="#A9D3A5"/>
<path d="M46.2472 158.455C45.4698 152.653 44.9246 149.429 42.7592 144.002L43.12 143.763C44.9592 147.933 47.2901 157.629 47.0891 158.455C46.9675 158.955 46.608 158.654 46.2472 158.455Z" fill="#A9D3A5"/>
<path d="M45.4683 139.539C44.939 140.17 43.2911 141.099 42.659 140.576C42.0268 140.053 42.6497 138.276 43.179 137.645C43.7083 137.014 44.6499 136.927 45.2821 137.45C45.9143 137.973 45.9976 138.909 45.4683 139.539Z" fill="#029BF6"/>
<path d="M42.3352 137.407C42.8464 138.053 43.4185 139.847 42.7716 140.352C42.1248 140.857 40.5041 139.882 39.9929 139.237C39.4817 138.591 39.5917 137.659 40.2385 137.153C40.8853 136.648 41.824 136.762 42.3352 137.407Z" fill="#029BF6"/>
<path d="M44.18 142.846C43.4198 142.523 42.0514 141.221 42.3749 140.47C42.6984 139.718 44.5914 139.802 45.3516 140.124C46.1119 140.447 46.466 141.318 46.1424 142.07C45.8189 142.821 44.9403 143.168 44.18 142.846Z" fill="#029BF6"/>
<path d="M40.7949 142.719C40.9386 141.91 41.9037 140.291 42.7141 140.433C43.5245 140.575 43.8732 142.424 43.7295 143.233C43.5858 144.041 42.8124 144.582 42.002 144.44C41.1916 144.298 40.6512 143.527 40.7949 142.719Z" fill="#029BF6"/>
<path d="M40.0362 139.567C40.8572 139.47 42.6971 139.92 42.7944 140.731C42.8917 141.543 41.2096 142.409 40.3885 142.506C39.5674 142.603 38.823 142.024 38.7257 141.213C38.6284 140.401 39.2151 139.665 40.0362 139.567Z" fill="#029BF6"/>
<ellipse cx="42.4806" cy="140.678" rx="0.744999" ry="0.73985" fill="white"/>
<path d="M15.4079 45.4512L15.6807 46.9292L14.8131 47.07L14.0388 42.8752L15.6814 42.6086C15.9976 42.5572 16.2858 42.5698 16.5461 42.6462C16.8084 42.7223 17.0238 42.8565 17.1923 43.0487C17.3605 43.239 17.4696 43.4696 17.5195 43.7404C17.5954 44.1514 17.5136 44.499 17.2742 44.7832C17.0363 45.0652 16.6677 45.2467 16.1684 45.3277L15.4079 45.4512ZM15.2786 44.7511L16.0536 44.6253C16.2831 44.588 16.4476 44.5059 16.5473 44.379C16.6489 44.2517 16.6813 44.0882 16.6444 43.8884C16.6064 43.6829 16.515 43.5266 16.3702 43.4196C16.2253 43.3126 16.0456 43.2745 15.8309 43.3054L15.0356 43.4345L15.2786 44.7511ZM20.8338 44.2202L19.1681 44.4906L19.3755 45.6142L21.3304 45.2968L21.4585 45.9911L18.6361 46.4494L17.8618 42.2546L20.6785 41.7973L20.8077 42.4974L18.8586 42.8138L19.0431 43.8135L20.7088 43.5431L20.8338 44.2202ZM21.9675 45.9085L21.1932 41.7138L22.4887 41.5034C22.8589 41.4433 23.2049 41.4732 23.5269 41.593C23.8504 41.7106 24.1225 41.9098 24.3431 42.1905C24.5633 42.4693 24.7094 42.8036 24.7814 43.1935L24.817 43.3866C24.889 43.7765 24.872 44.1363 24.7661 44.466C24.6621 44.7955 24.479 45.0675 24.2168 45.2822C23.9546 45.4969 23.6396 45.6351 23.2717 45.6968L21.9675 45.9085ZM22.19 42.273L22.7069 45.0733L23.1262 45.0053C23.4655 44.9502 23.7044 44.7976 23.8429 44.5477C23.9815 44.2977 24.0147 43.9669 23.9427 43.5552L23.9018 43.3334C23.8231 42.907 23.6748 42.5987 23.457 42.4085C23.2389 42.2165 22.9592 42.1481 22.618 42.2035L22.19 42.273ZM28.2319 40.571L28.7419 43.3339C28.8266 43.793 28.7491 44.1795 28.5092 44.4934C28.2712 44.807 27.9025 45.0043 27.4032 45.0854C26.9116 45.1652 26.4973 45.0989 26.1602 44.8866C25.8232 44.6742 25.6099 44.3419 25.5205 43.8896L25.0046 41.095L25.8722 40.9541L26.3832 43.7228C26.4339 43.9974 26.5365 44.1875 26.691 44.293C26.8471 44.3962 27.0418 44.4289 27.275 44.3911C27.7628 44.3119 27.9634 44.0162 27.8768 43.5041L27.3615 40.7124L28.2319 40.571ZM30.457 43.8151L32.2991 43.5161L32.4272 44.2104L29.7176 44.6503L28.9433 40.4555L29.8108 40.3147L30.457 43.8151ZM33.85 43.9794L32.9825 44.1203L32.2082 39.9255L33.0757 39.7847L33.85 43.9794ZM16.6785 52.3349L16.9513 53.8129L16.0838 53.9537L15.3095 49.759L16.952 49.4923C17.2682 49.441 17.5565 49.4535 17.8168 49.5299C18.079 49.6061 18.2944 49.7402 18.463 49.9325C18.6311 50.1228 18.7402 50.3533 18.7902 50.6241C18.8661 51.0352 18.7843 51.3828 18.5448 51.6669C18.307 51.9489 17.9384 52.1304 17.4391 52.2114L16.6785 52.3349ZM16.5493 51.6348L17.3243 51.509C17.5537 51.4718 17.7183 51.3896 17.8179 51.2627C17.9195 51.1354 17.9519 50.9719 17.915 50.7721C17.8771 50.5666 17.7857 50.4104 17.6408 50.3033C17.496 50.1963 17.3162 50.1582 17.1015 50.1891L16.3063 50.3182L16.5493 51.6348ZM21.6096 52.1664L20.0885 52.4134L19.9588 53.3246L19.0363 53.4744L19.8294 49.0252L20.6333 48.8946L22.9837 52.8335L22.0612 52.9833L21.6096 52.1664ZM20.1935 51.6752L21.2461 51.5044L20.4271 50.0201L20.1935 51.6752ZM26.8009 52.2138L25.9333 52.3547L23.7351 49.8688L24.2445 52.6288L23.377 52.7697L22.6027 48.5749L23.4702 48.4341L25.6725 50.9252L25.1619 48.1594L26.0266 48.0191L26.8009 52.2138ZM27.5585 52.0908L26.7842 47.8961L28.0798 47.6857C28.4499 47.6256 28.796 47.6555 29.1179 47.7753C29.4415 47.893 29.7135 48.0921 29.9341 48.3728C30.1544 48.6516 30.3005 48.9859 30.3725 49.3758L30.4081 49.5689C30.4801 49.9588 30.4631 50.3186 30.3571 50.6483C30.2532 50.9778 30.0701 51.2498 29.8079 51.4645C29.5457 51.6792 29.2306 51.8174 28.8628 51.8791L27.5585 52.0908ZM27.781 48.4553L28.2979 51.2556L28.7172 51.1876C29.0566 51.1325 29.2955 50.98 29.434 50.73C29.5725 50.48 29.6058 50.1492 29.5338 49.7375L29.4928 49.5157C29.4141 49.0893 29.2659 48.781 29.0481 48.5908C28.8299 48.3988 28.5502 48.3304 28.209 48.3858L27.781 48.4553ZM33.6081 49.2363L31.9424 49.5067L32.1498 50.6303L34.1047 50.3129L34.2329 51.0073L31.4105 51.4655L30.6362 47.2707L33.4528 46.8134L33.582 47.5135L31.6329 47.83L31.8175 48.8297L33.4832 48.5592L33.6081 49.2363ZM35.1011 46.5458L36.7443 49.4126L37.2584 46.1956L38.3978 46.0106L39.1721 50.2054L38.3017 50.3467L38.09 49.2001L37.8114 47.2067L37.252 50.5171L36.6562 50.6138L34.9462 47.6749L35.3977 49.6371L35.6094 50.7838L34.7418 50.9246L33.9675 46.7299L35.1011 46.5458ZM40.8523 49.9326L39.9847 50.0735L39.2104 45.8787L40.078 45.7379L40.8523 49.9326Z" fill="#BB0C0C"/>
<rect width="0.720431" height="0.540508" transform="matrix(-1 0 0 1 104.866 134.259)" fill="#51565A"/>
<rect width="1.62097" height="0.675635" rx="0.337818" transform="matrix(-1 0 0 1 105.298 134.732)" fill="#6F788A"/>
<path d="M103.497 134.276H105.532C105.639 134.388 105.735 134.511 106.091 134.58C107.276 134.57 106.989 133.296 106.091 133.431C105.867 133.5 105.757 133.551 105.532 133.735H103.497C103.156 133.542 103.051 133.519 102.885 133.482C101.813 133.268 101.661 134.763 102.885 134.58C103.155 134.497 103.293 134.441 103.497 134.276Z" fill="#677186"/>
<path d="M98.8502 138.803C98.7336 136.094 100.141 135.476 102.921 135.762V137.874H101.3C101.18 137.861 101.143 137.882 101.156 137.992V138.803H98.8502Z" fill="#B5ACAC"/>
<rect width="1.62097" height="2.16203" transform="matrix(-1 0 0 1 107.892 135.678)" fill="#B5ACAC"/>
<rect width="1.15269" height="3.44574" transform="matrix(-1 0 0 1 109.044 135.07)" fill="#8F9DB8"/>
<rect width="5.25915" height="3.44574" rx="1.72287" transform="matrix(-1 0 0 1 107.063 135.07)" fill="#8F9DB8"/>
<rect width="2.80968" height="0.675635" rx="0.337818" transform="matrix(-1 0 0 1 101.408 138.786)" fill="#8F9DB8"/>
<path d="M112.664 138.805C112.664 135.652 110.389 135.749 109.044 135.652V138.029C109.102 138.001 109.872 137.883 109.872 138.756C109.872 139.629 111.579 139.199 112.664 138.805Z" fill="#B5ACAC"/>
<path d="M109.872 161.841V138.756C111.372 139.118 111.919 139.061 112.664 138.756V161.841H109.872Z" fill="#C4C4C4"/>
<path d="M121.326 161.846H107.032C108.334 159.463 109.131 159.021 114.061 160.35C118.452 159.255 120.056 159.719 121.326 161.846Z" fill="#A9D3A5"/>
<path d="M117.771 145.477C116.004 150.998 115.264 154.263 114.764 160.646L115.245 160.885C115.835 155.137 116.51 151.948 118.252 146.313L117.771 145.477Z" fill="#A9D3A5"/>
<path d="M106.984 149.06C108.446 153.34 109.059 155.871 109.472 160.819L109.074 161.004C108.586 156.549 108.027 154.077 106.585 149.708L106.984 149.06Z" fill="#A9D3A5"/>
<path d="M116.124 153.473C115.856 152.817 116.845 151.364 117.506 151.097C118.168 150.83 119.16 150.877 119.429 151.534C119.698 152.19 119.155 153.03 118.494 153.297C117.832 153.563 116.277 153.845 116.124 153.473Z" fill="#A9D3A5"/>
<path d="M108.667 156.101C108.399 155.444 109.388 153.992 110.049 153.725C110.71 153.458 111.703 153.505 111.972 154.161C112.24 154.818 111.698 155.657 111.036 155.924C110.375 156.191 108.819 156.473 108.667 156.101Z" fill="#A9D3A5"/>
<path d="M108.071 153.035C107.707 153.645 105.944 153.742 105.33 153.381C104.715 153.02 104.152 152.208 104.515 151.598C104.879 150.988 105.88 150.908 106.494 151.269C107.109 151.63 108.276 152.689 108.071 153.035Z" fill="#A9D3A5"/>
<path d="M117.116 148.983C116.373 149.615 114.042 148.97 113.405 148.232C112.769 147.495 112.398 146.193 113.141 145.561C113.883 144.929 115.218 145.264 115.855 146.002C116.491 146.739 117.536 148.625 117.116 148.983Z" fill="#A9D3A5"/>
<path d="M121.923 142.089C121.394 142.719 119.746 143.648 119.114 143.125C118.482 142.602 119.105 140.825 119.634 140.194C120.164 139.563 121.105 139.476 121.737 139.999C122.369 140.522 122.453 141.458 121.923 142.089Z" fill="#BB0C0C"/>
<path d="M118.79 139.956C119.302 140.602 119.874 142.396 119.227 142.901C118.58 143.406 116.959 142.431 116.448 141.786C115.937 141.14 116.047 140.208 116.694 139.702C117.34 139.197 118.279 139.311 118.79 139.956Z" fill="#BB0C0C"/>
<path d="M120.635 145.395C119.875 145.072 118.507 143.77 118.83 143.019C119.154 142.268 121.047 142.351 121.807 142.674C122.567 142.997 122.921 143.867 122.598 144.619C122.274 145.37 121.395 145.718 120.635 145.395Z" fill="#BB0C0C"/>
<path d="M117.25 145.268C117.394 144.459 118.359 142.84 119.169 142.982C119.98 143.124 120.328 144.973 120.185 145.782C120.041 146.591 119.268 147.131 118.457 146.989C117.647 146.847 117.106 146.076 117.25 145.268Z" fill="#BB0C0C"/>
<path d="M116.491 142.117C117.312 142.019 119.152 142.469 119.25 143.281C119.347 144.092 117.665 144.958 116.844 145.055C116.023 145.152 115.278 144.573 115.181 143.762C115.084 142.95 115.67 142.214 116.491 142.117Z" fill="#BB0C0C"/>
<ellipse cx="118.936" cy="143.227" rx="0.744999" ry="0.73985" fill="white"/>
<path d="M107.935 147.373C107.593 147.782 106.526 148.383 106.117 148.044C105.708 147.706 106.111 146.556 106.454 146.148C106.796 145.739 107.406 145.683 107.815 146.021C108.224 146.36 108.278 146.965 107.935 147.373Z" fill="#BB0C0C"/>
<path d="M105.91 145.995C106.241 146.412 106.612 147.572 106.193 147.899C105.774 148.225 104.724 147.595 104.393 147.177C104.062 146.76 104.133 146.157 104.552 145.83C104.971 145.504 105.579 145.577 105.91 145.995Z" fill="#BB0C0C"/>
<path d="M107.101 149.513C106.61 149.304 105.724 148.462 105.933 147.976C106.143 147.489 107.368 147.543 107.86 147.752C108.352 147.961 108.581 148.525 108.371 149.011C108.162 149.497 107.593 149.722 107.101 149.513Z" fill="#BB0C0C"/>
<path d="M104.911 149.431C105.004 148.907 105.629 147.86 106.153 147.952C106.677 148.044 106.903 149.24 106.81 149.764C106.717 150.287 106.217 150.636 105.692 150.545C105.168 150.453 104.818 149.954 104.911 149.431Z" fill="#BB0C0C"/>
<path d="M104.42 147.392C104.951 147.329 106.142 147.62 106.205 148.145C106.268 148.67 105.18 149.23 104.648 149.293C104.117 149.356 103.635 148.981 103.572 148.456C103.509 147.931 103.889 147.454 104.42 147.392Z" fill="#BB0C0C"/>
<ellipse cx="106.002" cy="148.11" rx="0.482058" ry="0.478727" fill="white"/>
<ellipse cx="40.912" cy="37.7942" rx="5.84441" ry="5.48101" fill="#72C9F0"/>
<ellipse cx="40.912" cy="37.7942" rx="4.90931" ry="4.60405" fill="white"/>
<ellipse cx="40.912" cy="37.7942" rx="3.9742" ry="3.72709" fill="#EBF0F4"/>
<path d="M42.9114 41.0395L40.7198 38.6596L43.5651 35.3782C45.2816 37.2468 45.5674 38.9339 42.9114 41.0395Z" fill="#CDD7E6"/>
<path d="M39.374 35.7028L38.7588 34.6571C40.7967 33.4311 44.6417 34.0802 44.9108 37.8664C44.9108 37.8664 43.988 38.1548 43.7958 37.5779C43.6035 37.001 42.0888 34.2906 39.374 35.7028Z" fill="#89BE36"/>
<path d="M39.2971 35.7389L38.6819 34.7292C37.6214 35.3097 36.8822 36.6393 36.9517 37.65C36.9517 37.65 38.0667 37.9385 38.0667 37.4698C38.0667 37.001 38.5281 36.0995 39.2971 35.7389Z" fill="#F54F33"/>
<ellipse cx="40.912" cy="37.7942" rx="5.84441" ry="5.48101" fill="#72C9F0"/>
<ellipse cx="40.912" cy="37.7942" rx="4.90931" ry="4.60405" fill="white"/>
<ellipse cx="40.912" cy="37.7942" rx="3.9742" ry="3.72709" fill="#EBF0F4"/>
<path d="M42.9114 41.0395L40.7198 38.6596L43.5651 35.3782C45.2816 37.2468 45.5674 38.9339 42.9114 41.0395Z" fill="#CDD7E6"/>
<path d="M39.374 35.7028L38.7588 34.6571C40.7967 33.4311 44.6417 34.0802 44.9108 37.8664C44.9108 37.8664 43.988 38.1548 43.7958 37.5779C43.6035 37.001 42.0888 34.2906 39.374 35.7028Z" fill="#89BE36"/>
<path d="M39.2971 35.7389L38.6819 34.7292C37.6214 35.3097 36.8822 36.6393 36.9517 37.65C36.9517 37.65 38.0667 37.9385 38.0667 37.4698C38.0667 37.001 38.5281 36.0995 39.2971 35.7389Z" fill="#F54F33"/>
<path d="M41.1458 38.4519C40.487 39.0058 39.5984 38.2691 40.2107 37.575C40.823 36.8808 43.4836 35.3826 43.4836 35.3826C43.4836 35.3826 41.8047 37.8981 41.1458 38.4519Z" fill="#423C45"/>
<ellipse cx="40.9123" cy="37.7942" rx="0.234127" ry="0.21924" fill="#CDD7E6"/>
<rect x="39.9892" y="39.8135" width="2.15321" height="0.721185" fill="#98B8BB"/>
<ellipse cx="37.9134" cy="38.9481" rx="0.308062" ry="0.288474" fill="#98B8BB"/>
<ellipse cx="43.1426" cy="40.2462" rx="0.308062" ry="0.288474" fill="#98B8BB"/>
<ellipse cx="38.7593" cy="40.2462" rx="0.308062" ry="0.288474" fill="#98B8BB"/>
<ellipse cx="41.0663" cy="41.0395" rx="0.308062" ry="0.288474" fill="#98B8BB"/>
<ellipse cx="43.7578" cy="38.9481" rx="0.308062" ry="0.288474" fill="#98B8BB"/>
<path d="M41.6041 43.2391L38.5281 41.8328C43.9393 44.1438 47.987 38.4334 44.5263 34.657L46.4104 35.9191C47.5254 39.0202 45.7952 42.6621 41.6041 43.2391Z" fill="#4AB6E6"/>
<path d="M118.484 56.8616H123.537V58.0115H117.07V47.3474H118.484V56.8616ZM124.57 53.9758C124.57 53.1995 124.721 52.5012 125.024 51.8811C125.332 51.261 125.757 50.7825 126.299 50.4456C126.846 50.1086 127.468 49.9402 128.166 49.9402C129.245 49.9402 130.117 50.3137 130.781 51.0608C131.45 51.8079 131.784 52.8015 131.784 54.0417V54.137C131.784 54.9084 131.636 55.6018 131.338 56.217C131.045 56.8274 130.622 57.3035 130.071 57.6453C129.524 57.9871 128.894 58.158 128.181 58.158C127.107 58.158 126.235 57.7844 125.566 57.0374C124.902 56.2903 124.57 55.3015 124.57 54.071V53.9758ZM125.932 54.137C125.932 55.0159 126.135 55.7214 126.54 56.2537C126.951 56.7859 127.497 57.052 128.181 57.052C128.869 57.052 129.416 56.7834 129.822 56.2463C130.227 55.7043 130.43 54.9475 130.43 53.9758C130.43 53.1067 130.222 52.4036 129.807 51.8665C129.397 51.3245 128.85 51.0535 128.166 51.0535C127.497 51.0535 126.958 51.3196 126.548 51.8518C126.138 52.384 125.932 53.1458 125.932 54.137ZM137.314 51.3025C137.109 51.2683 136.887 51.2512 136.648 51.2512C135.759 51.2512 135.156 51.6296 134.839 52.3865V58.0115H133.484V50.0867H134.802L134.824 51.0022C135.268 50.2942 135.898 49.9402 136.714 49.9402C136.977 49.9402 137.178 49.9744 137.314 50.0427V51.3025ZM141.709 58.158C140.635 58.158 139.761 57.8064 139.087 57.1033C138.413 56.3953 138.076 55.4504 138.076 54.2688V54.0198C138.076 53.2336 138.225 52.533 138.523 51.9177C138.826 51.2976 139.245 50.8142 139.783 50.4675C140.325 50.116 140.91 49.9402 141.54 49.9402C142.571 49.9402 143.371 50.2795 143.943 50.9583C144.514 51.637 144.8 52.6086 144.8 53.8733V54.4373H139.431C139.451 55.2185 139.678 55.8508 140.112 56.3342C140.552 56.8127 141.108 57.052 141.782 57.052C142.261 57.052 142.666 56.9543 142.998 56.759C143.33 56.5637 143.62 56.3049 143.869 55.9827L144.697 56.6272C144.033 57.6477 143.037 58.158 141.709 58.158ZM141.54 51.0535C140.993 51.0535 140.534 51.2537 140.163 51.6541C139.792 52.0496 139.563 52.6062 139.475 53.324H143.445V53.2214C143.406 52.533 143.22 52.0007 142.888 51.6248C142.556 51.2439 142.107 51.0535 141.54 51.0535ZM147.649 50.0867L147.685 50.9656C148.266 50.282 149.05 49.9402 150.036 49.9402C151.145 49.9402 151.899 50.365 152.3 51.2146C152.563 50.8337 152.905 50.5261 153.325 50.2917C153.75 50.0574 154.25 49.9402 154.826 49.9402C156.565 49.9402 157.449 50.8606 157.478 52.7014V58.0115H156.123V52.782C156.123 52.2156 155.993 51.7932 155.735 51.5149C155.476 51.2317 155.041 51.0901 154.431 51.0901C153.928 51.0901 153.511 51.2415 153.179 51.5442C152.846 51.842 152.654 52.2449 152.6 52.7527V58.0115H151.238V52.8186C151.238 51.6663 150.674 51.0901 149.546 51.0901C148.657 51.0901 148.049 51.4685 147.722 52.2253V58.0115H146.367V50.0867H147.649ZM171.685 58.0115H170.279V47.3474H171.685V58.0115ZM180.745 54.137C180.745 55.343 180.469 56.3147 179.917 57.052C179.366 57.7893 178.619 58.158 177.676 58.158C176.714 58.158 175.957 57.8528 175.406 57.2424V61.0583H174.051V50.0867H175.289L175.354 50.9656C175.906 50.282 176.673 49.9402 177.654 49.9402C178.606 49.9402 179.358 50.2991 179.91 51.0168C180.467 51.7346 180.745 52.7332 180.745 54.0125V54.137ZM179.39 53.9832C179.39 53.0896 179.2 52.384 178.819 51.8665C178.438 51.3489 177.915 51.0901 177.251 51.0901C176.431 51.0901 175.816 51.4539 175.406 52.1814V55.968C175.811 56.6907 176.431 57.052 177.266 57.052C177.915 57.052 178.431 56.7957 178.811 56.283C179.197 55.7654 179.39 54.9988 179.39 53.9832ZM187.088 55.9094C187.088 55.5432 186.949 55.26 186.67 55.0598C186.397 54.8547 185.916 54.679 185.227 54.5325C184.544 54.386 183.999 54.2102 183.594 54.0051C183.194 53.8 182.896 53.5559 182.701 53.2727C182.51 52.9895 182.415 52.6526 182.415 52.262C182.415 51.6125 182.688 51.0632 183.235 50.614C183.787 50.1648 184.49 49.9402 185.345 49.9402C186.243 49.9402 186.971 50.1721 187.527 50.636C188.089 51.0999 188.37 51.6931 188.37 52.4158H187.007C187.007 52.0447 186.849 51.7249 186.531 51.4563C186.219 51.1877 185.823 51.0535 185.345 51.0535C184.852 51.0535 184.466 51.1609 184.187 51.3757C183.909 51.5906 183.77 51.8713 183.77 52.218C183.77 52.5452 183.899 52.7917 184.158 52.9578C184.417 53.1238 184.883 53.2825 185.557 53.4338C186.236 53.5852 186.785 53.7659 187.205 53.9758C187.625 54.1858 187.935 54.4397 188.135 54.7375C188.34 55.0305 188.443 55.3894 188.443 55.8142C188.443 56.5222 188.16 57.0911 187.593 57.5208C187.027 57.9456 186.292 58.158 185.389 58.158C184.754 58.158 184.192 58.0457 183.704 57.821C183.216 57.5964 182.832 57.2839 182.554 56.8835C182.281 56.4783 182.144 56.0413 182.144 55.5725H183.499C183.523 56.0266 183.704 56.3879 184.041 56.6565C184.383 56.9202 184.832 57.052 185.389 57.052C185.901 57.052 186.311 56.9495 186.619 56.7444C186.932 56.5344 187.088 56.2561 187.088 55.9094ZM195.101 57.2278C194.573 57.8479 193.799 58.158 192.779 58.158C191.934 58.158 191.289 57.9138 190.845 57.4255C190.406 56.9324 190.184 56.2048 190.179 55.2429V50.0867H191.534V55.2063C191.534 56.4075 192.022 57.0081 192.998 57.0081C194.034 57.0081 194.722 56.6223 195.064 55.8508V50.0867H196.419V58.0115H195.13L195.101 57.2278ZM199.759 50.0867L199.795 50.9656C200.376 50.282 201.16 49.9402 202.146 49.9402C203.255 49.9402 204.009 50.365 204.41 51.2146C204.673 50.8337 205.015 50.5261 205.435 50.2917C205.86 50.0574 206.36 49.9402 206.936 49.9402C208.675 49.9402 209.559 50.8606 209.588 52.7014V58.0115H208.233V52.782C208.233 52.2156 208.103 51.7932 207.845 51.5149C207.586 51.2317 207.151 51.0901 206.541 51.0901C206.038 51.0901 205.621 51.2415 205.289 51.5442C204.956 51.842 204.764 52.2449 204.71 52.7527V58.0115H203.348V52.8186C203.348 51.6663 202.784 51.0901 201.656 51.0901C200.767 51.0901 200.159 51.4685 199.832 52.2253V58.0115H198.477V50.0867H199.759ZM223.546 58.0115H222.191V50.0867H223.546V58.0115ZM222.081 47.9846C222.081 47.7649 222.147 47.5793 222.279 47.428C222.416 47.2766 222.616 47.2009 222.879 47.2009C223.143 47.2009 223.343 47.2766 223.48 47.428C223.617 47.5793 223.685 47.7649 223.685 47.9846C223.685 48.2043 223.617 48.3875 223.48 48.5339C223.343 48.6804 223.143 48.7537 222.879 48.7537C222.616 48.7537 222.416 48.6804 222.279 48.5339C222.147 48.3875 222.081 48.2043 222.081 47.9846ZM230.336 55.9094C230.336 55.5432 230.196 55.26 229.918 55.0598C229.645 54.8547 229.164 54.679 228.475 54.5325C227.792 54.386 227.247 54.2102 226.842 54.0051C226.441 53.8 226.144 53.5559 225.948 53.2727C225.758 52.9895 225.663 52.6526 225.663 52.262C225.663 51.6125 225.936 51.0632 226.483 50.614C227.035 50.1648 227.738 49.9402 228.592 49.9402C229.491 49.9402 230.218 50.1721 230.775 50.636C231.336 51.0999 231.617 51.6931 231.617 52.4158H230.255C230.255 52.0447 230.096 51.7249 229.779 51.4563C229.466 51.1877 229.071 51.0535 228.592 51.0535C228.099 51.0535 227.713 51.1609 227.435 51.3757C227.157 51.5906 227.018 51.8713 227.018 52.218C227.018 52.5452 227.147 52.7917 227.406 52.9578C227.665 53.1238 228.131 53.2825 228.805 53.4338C229.483 53.5852 230.033 53.7659 230.453 53.9758C230.873 54.1858 231.183 54.4397 231.383 54.7375C231.588 55.0305 231.69 55.3894 231.69 55.8142C231.69 56.5222 231.407 57.0911 230.841 57.5208C230.274 57.9456 229.54 58.158 228.636 58.158C228.002 58.158 227.44 58.0457 226.952 57.821C226.463 57.5964 226.08 57.2839 225.802 56.8835C225.528 56.4783 225.392 56.0413 225.392 55.5725H226.747C226.771 56.0266 226.952 56.3879 227.289 56.6565C227.63 56.9202 228.08 57.052 228.636 57.052C229.149 57.052 229.559 56.9495 229.867 56.7444C230.179 56.5344 230.336 56.2561 230.336 55.9094ZM248.505 55.9094C248.505 55.5432 248.366 55.26 248.088 55.0598C247.814 54.8547 247.333 54.679 246.645 54.5325C245.961 54.386 245.417 54.2102 245.011 54.0051C244.611 53.8 244.313 53.5559 244.118 53.2727C243.927 52.9895 243.832 52.6526 243.832 52.262C243.832 51.6125 244.106 51.0632 244.653 50.614C245.204 50.1648 245.907 49.9402 246.762 49.9402C247.66 49.9402 248.388 50.1721 248.945 50.636C249.506 51.0999 249.787 51.6931 249.787 52.4158H248.424C248.424 52.0447 248.266 51.7249 247.948 51.4563C247.636 51.1877 247.24 51.0535 246.762 51.0535C246.269 51.0535 245.883 51.1609 245.605 51.3757C245.326 51.5906 245.187 51.8713 245.187 52.218C245.187 52.5452 245.317 52.7917 245.575 52.9578C245.834 53.1238 246.3 53.2825 246.974 53.4338C247.653 53.5852 248.202 53.7659 248.622 53.9758C249.042 54.1858 249.352 54.4397 249.552 54.7375C249.758 55.0305 249.86 55.3894 249.86 55.8142C249.86 56.5222 249.577 57.0911 249.01 57.5208C248.444 57.9456 247.709 58.158 246.806 58.158C246.171 58.158 245.61 58.0457 245.121 57.821C244.633 57.5964 244.25 57.2839 243.971 56.8835C243.698 56.4783 243.561 56.0413 243.561 55.5725H244.916C244.941 56.0266 245.121 56.3879 245.458 56.6565C245.8 56.9202 246.249 57.052 246.806 57.052C247.319 57.052 247.729 56.9495 248.036 56.7444C248.349 56.5344 248.505 56.2561 248.505 55.9094ZM253.097 58.0115H251.742V50.0867H253.097V58.0115ZM251.633 47.9846C251.633 47.7649 251.698 47.5793 251.83 47.428C251.967 47.2766 252.167 47.2009 252.431 47.2009C252.695 47.2009 252.895 47.2766 253.031 47.428C253.168 47.5793 253.237 47.7649 253.237 47.9846C253.237 48.2043 253.168 48.3875 253.031 48.5339C252.895 48.6804 252.695 48.7537 252.431 48.7537C252.167 48.7537 251.967 48.6804 251.83 48.5339C251.698 48.3875 251.633 48.2043 251.633 47.9846ZM256.547 50.0867L256.584 50.9656C257.165 50.282 257.948 49.9402 258.935 49.9402C260.043 49.9402 260.798 50.365 261.198 51.2146C261.462 50.8337 261.803 50.5261 262.223 50.2917C262.648 50.0574 263.149 49.9402 263.725 49.9402C265.463 49.9402 266.347 50.8606 266.376 52.7014V58.0115H265.021V52.782C265.021 52.2156 264.892 51.7932 264.633 51.5149C264.374 51.2317 263.94 51.0901 263.329 51.0901C262.826 51.0901 262.409 51.2415 262.077 51.5442C261.745 51.842 261.552 52.2449 261.498 52.7527V58.0115H260.136V52.8186C260.136 51.6663 259.572 51.0901 258.444 51.0901C257.555 51.0901 256.947 51.4685 256.62 52.2253V58.0115H255.265V50.0867H256.547ZM275.121 54.137C275.121 55.343 274.845 56.3147 274.294 57.052C273.742 57.7893 272.995 58.158 272.052 58.158C271.091 58.158 270.334 57.8528 269.782 57.2424V61.0583H268.427V50.0867H269.665L269.731 50.9656C270.282 50.282 271.049 49.9402 272.03 49.9402C272.983 49.9402 273.735 50.2991 274.286 51.0168C274.843 51.7346 275.121 52.7332 275.121 54.0125V54.137ZM273.766 53.9832C273.766 53.0896 273.576 52.384 273.195 51.8665C272.814 51.3489 272.292 51.0901 271.628 51.0901C270.807 51.0901 270.192 51.4539 269.782 52.1814V55.968C270.187 56.6907 270.807 57.052 271.642 57.052C272.292 57.052 272.807 56.7957 273.188 56.283C273.573 55.7654 273.766 54.9988 273.766 53.9832ZM278.322 58.0115H276.967V46.7615H278.322V58.0115ZM283.09 56.0266L284.936 50.0867H286.386L283.2 59.2346C282.707 60.553 281.923 61.2122 280.849 61.2122L280.592 61.1902L280.087 61.095V59.9963L280.453 60.0256C280.912 60.0256 281.269 59.9329 281.523 59.7473C281.781 59.5618 281.994 59.2224 282.16 58.7292L282.46 57.9236L279.633 50.0867H281.112L283.09 56.0266ZM116.528 71.9832C116.528 70.7673 116.816 69.7908 117.392 69.0535C117.969 68.3113 118.723 67.9402 119.656 67.9402C120.583 67.9402 121.318 68.2576 121.86 68.8923V64.7615H123.215V76.0115H121.97L121.904 75.1619C121.362 75.8259 120.608 76.158 119.641 76.158C118.723 76.158 117.973 75.782 117.392 75.03C116.816 74.2781 116.528 73.2966 116.528 72.0857V71.9832ZM117.883 72.137C117.883 73.0354 118.069 73.7385 118.44 74.2463C118.811 74.7542 119.324 75.0081 119.978 75.0081C120.837 75.0081 121.465 74.6223 121.86 73.8508V70.2107C121.455 69.4636 120.832 69.0901 119.992 69.0901C119.328 69.0901 118.811 69.3464 118.44 69.8591C118.069 70.3718 117.883 71.1311 117.883 72.137ZM130.217 75.2278C129.69 75.8479 128.916 76.158 127.895 76.158C127.051 76.158 126.406 75.9138 125.962 75.4255C125.522 74.9324 125.3 74.2048 125.295 73.2429V68.0867H126.65V73.2063C126.65 74.4075 127.138 75.0081 128.115 75.0081C129.15 75.0081 129.839 74.6223 130.18 73.8508V68.0867H131.535V76.0115H130.246L130.217 75.2278ZM134.875 68.0867L134.912 68.9656C135.493 68.282 136.277 67.9402 137.263 67.9402C138.371 67.9402 139.126 68.365 139.526 69.2146C139.79 68.8337 140.132 68.5261 140.552 68.2917C140.976 68.0574 141.477 67.9402 142.053 67.9402C143.791 67.9402 144.675 68.8606 144.704 70.7014V76.0115H143.349V70.782C143.349 70.2156 143.22 69.7932 142.961 69.5149C142.702 69.2317 142.268 69.0901 141.658 69.0901C141.155 69.0901 140.737 69.2415 140.405 69.5442C140.073 69.842 139.88 70.2449 139.826 70.7527V76.0115H138.464V70.8186C138.464 69.6663 137.9 69.0901 136.772 69.0901C135.884 69.0901 135.276 69.4685 134.949 70.2253V76.0115H133.594V68.0867H134.875ZM148.03 68.0867L148.066 68.9656C148.647 68.282 149.431 67.9402 150.417 67.9402C151.526 67.9402 152.28 68.365 152.68 69.2146C152.944 68.8337 153.286 68.5261 153.706 68.2917C154.131 68.0574 154.631 67.9402 155.207 67.9402C156.946 67.9402 157.829 68.8606 157.859 70.7014V76.0115H156.504V70.782C156.504 70.2156 156.374 69.7932 156.116 69.5149C155.857 69.2317 155.422 69.0901 154.812 69.0901C154.309 69.0901 153.891 69.2415 153.559 69.5442C153.227 69.842 153.034 70.2449 152.981 70.7527V76.0115H151.618V70.8186C151.618 69.6663 151.055 69.0901 149.927 69.0901C149.038 69.0901 148.43 69.4685 148.103 70.2253V76.0115H146.748V68.0867H148.03ZM162.502 74.0266L164.348 68.0867H165.798L162.612 77.2346C162.119 78.553 161.335 79.2122 160.261 79.2122L160.005 79.1902L159.499 79.095V77.9963L159.866 78.0256C160.325 78.0256 160.681 77.9329 160.935 77.7473C161.194 77.5618 161.406 77.2224 161.572 76.7292L161.872 75.9236L159.045 68.0867H160.525L162.502 74.0266ZM189.014 66.1677V68.0867H190.494V69.134H189.014V74.0486C189.014 74.366 189.08 74.6052 189.212 74.7664C189.344 74.9226 189.568 75.0007 189.886 75.0007C190.042 75.0007 190.257 74.9714 190.53 74.9128V76.0115C190.174 76.1091 189.827 76.158 189.49 76.158C188.885 76.158 188.428 75.9749 188.121 75.6086C187.813 75.2424 187.659 74.7224 187.659 74.0486V69.134H186.216V68.0867H187.659V66.1677H189.014ZM195.372 76.158C194.297 76.158 193.423 75.8064 192.749 75.1033C192.076 74.3953 191.739 73.4504 191.739 72.2688V72.0198C191.739 71.2336 191.888 70.533 192.185 69.9177C192.488 69.2976 192.908 68.8142 193.445 68.4675C193.987 68.116 194.573 67.9402 195.203 67.9402C196.233 67.9402 197.034 68.2795 197.605 68.9583C198.177 69.637 198.462 70.6086 198.462 71.8733V72.4373H193.094C193.113 73.2185 193.34 73.8508 193.775 74.3342C194.214 74.8127 194.771 75.052 195.445 75.052C195.923 75.052 196.329 74.9543 196.661 74.759C196.993 74.5637 197.283 74.3049 197.532 73.9827L198.36 74.6272C197.696 75.6477 196.7 76.158 195.372 76.158ZM195.203 69.0535C194.656 69.0535 194.197 69.2537 193.826 69.6541C193.455 70.0496 193.226 70.6062 193.138 71.324H197.107V71.2214C197.068 70.533 196.883 70.0007 196.551 69.6248C196.219 69.2439 195.769 69.0535 195.203 69.0535ZM202.696 70.9797L204.454 68.0867H206.036L203.443 72.0051L206.116 76.0115H204.549L202.718 73.0452L200.887 76.0115H199.312L201.985 72.0051L199.393 68.0867H200.96L202.696 70.9797ZM209.317 66.1677V68.0867H210.796V69.134H209.317V74.0486C209.317 74.366 209.383 74.6052 209.515 74.7664C209.646 74.9226 209.871 75.0007 210.188 75.0007C210.345 75.0007 210.56 74.9714 210.833 74.9128V76.0115C210.477 76.1091 210.13 76.158 209.793 76.158C209.187 76.158 208.731 75.9749 208.423 75.6086C208.116 75.2424 207.962 74.7224 207.962 74.0486V69.134H206.519V68.0867H207.962V66.1677H209.317ZM232.189 71.9758C232.189 71.1995 232.34 70.5012 232.643 69.8811C232.95 69.261 233.375 68.7825 233.917 68.4456C234.464 68.1086 235.086 67.9402 235.785 67.9402C236.864 67.9402 237.735 68.3137 238.399 69.0608C239.068 69.8079 239.403 70.8015 239.403 72.0417V72.137C239.403 72.9084 239.254 73.6018 238.956 74.217C238.663 74.8274 238.241 75.3035 237.689 75.6453C237.142 75.9871 236.512 76.158 235.799 76.158C234.725 76.158 233.854 75.7844 233.185 75.0374C232.521 74.2903 232.189 73.3015 232.189 72.071V71.9758ZM233.551 72.137C233.551 73.0159 233.753 73.7214 234.159 74.2537C234.569 74.7859 235.116 75.052 235.799 75.052C236.488 75.052 237.035 74.7834 237.44 74.2463C237.845 73.7043 238.048 72.9475 238.048 71.9758C238.048 71.1067 237.84 70.4036 237.425 69.8665C237.015 69.3245 236.468 69.0535 235.785 69.0535C235.116 69.0535 234.576 69.3196 234.166 69.8518C233.756 70.384 233.551 71.1458 233.551 72.137ZM241.769 76.0115V69.134H240.516V68.0867H241.769V67.2737C241.769 66.4241 241.996 65.7673 242.45 65.3035C242.904 64.8396 243.546 64.6077 244.376 64.6077C244.689 64.6077 244.999 64.6492 245.306 64.7322L245.233 65.8308C245.003 65.7869 244.759 65.7649 244.501 65.7649C244.061 65.7649 243.722 65.8943 243.482 66.1531C243.243 66.407 243.124 66.7732 243.124 67.2517V68.0867H244.815V69.134H243.124V76.0115H241.769ZM268.317 66.1677V68.0867H269.797V69.134H268.317V74.0486C268.317 74.366 268.383 74.6052 268.515 74.7664C268.647 74.9226 268.871 75.0007 269.189 75.0007C269.345 75.0007 269.56 74.9714 269.833 74.9128V76.0115C269.477 76.1091 269.13 76.158 268.793 76.158C268.188 76.158 267.731 75.9749 267.424 75.6086C267.116 75.2424 266.962 74.7224 266.962 74.0486V69.134H265.519V68.0867H266.962V66.1677H268.317ZM272.741 69.0461C273.341 68.3088 274.123 67.9402 275.085 67.9402C276.759 67.9402 277.604 68.885 277.619 70.7747V76.0115H276.264V70.7673C276.259 70.196 276.127 69.7737 275.868 69.5002C275.614 69.2268 275.216 69.0901 274.674 69.0901C274.235 69.0901 273.849 69.2073 273.517 69.4417C273.185 69.676 272.926 69.9836 272.741 70.3645V76.0115H271.386V64.7615H272.741V69.0461ZM282.936 76.158C281.862 76.158 280.988 75.8064 280.314 75.1033C279.64 74.3953 279.303 73.4504 279.303 72.2688V72.0198C279.303 71.2336 279.452 70.533 279.75 69.9177C280.053 69.2976 280.473 68.8142 281.01 68.4675C281.552 68.116 282.138 67.9402 282.768 67.9402C283.798 67.9402 284.599 68.2795 285.17 68.9583C285.741 69.637 286.027 70.6086 286.027 71.8733V72.4373H280.658C280.678 73.2185 280.905 73.8508 281.34 74.3342C281.779 74.8127 282.336 75.052 283.009 75.052C283.488 75.052 283.893 74.9543 284.225 74.759C284.557 74.5637 284.848 74.3049 285.097 73.9827L285.924 74.6272C285.26 75.6477 284.264 76.158 282.936 76.158ZM282.768 69.0535C282.221 69.0535 281.762 69.2537 281.391 69.6541C281.02 70.0496 280.79 70.6062 280.702 71.324H284.672V71.2214C284.633 70.533 284.447 70.0007 284.115 69.6248C283.783 69.2439 283.334 69.0535 282.768 69.0535ZM123.552 90.137C123.552 91.343 123.276 92.3147 122.724 93.052C122.173 93.7893 121.426 94.158 120.483 94.158C119.521 94.158 118.764 93.8528 118.213 93.2424V97.0583H116.858V86.0867H118.096L118.161 86.9656C118.713 86.282 119.48 85.9402 120.461 85.9402C121.413 85.9402 122.165 86.2991 122.717 87.0168C123.274 87.7346 123.552 88.7332 123.552 90.0125V90.137ZM122.197 89.9832C122.197 89.0896 122.007 88.384 121.626 87.8665C121.245 87.3489 120.722 87.0901 120.058 87.0901C119.238 87.0901 118.623 87.4539 118.213 88.1814V91.968C118.618 92.6907 119.238 93.052 120.073 93.052C120.722 93.052 121.238 92.7957 121.618 92.283C122.004 91.7654 122.197 90.9988 122.197 89.9832ZM129.111 87.3025C128.906 87.2683 128.684 87.2512 128.445 87.2512C127.556 87.2512 126.953 87.6296 126.636 88.3865V94.0115H125.281V86.0867H126.599L126.621 87.0022C127.065 86.2942 127.695 85.9402 128.511 85.9402C128.774 85.9402 128.974 85.9744 129.111 86.0427V87.3025ZM131.836 94.0115H130.481V86.0867H131.836V94.0115ZM130.371 83.9846C130.371 83.7649 130.437 83.5793 130.569 83.428C130.705 83.2766 130.906 83.2009 131.169 83.2009C131.433 83.2009 131.633 83.2766 131.77 83.428C131.907 83.5793 131.975 83.7649 131.975 83.9846C131.975 84.2043 131.907 84.3875 131.77 84.5339C131.633 84.6804 131.433 84.7537 131.169 84.7537C130.906 84.7537 130.705 84.6804 130.569 84.5339C130.437 84.3875 130.371 84.2043 130.371 83.9846ZM135.293 86.0867L135.337 87.0828C135.942 86.321 136.733 85.9402 137.71 85.9402C139.385 85.9402 140.229 86.885 140.244 88.7747V94.0115H138.889V88.7673C138.884 88.196 138.752 87.7737 138.493 87.5002C138.24 87.2268 137.842 87.0901 137.3 87.0901C136.86 87.0901 136.474 87.2073 136.142 87.4417C135.81 87.676 135.552 87.9836 135.366 88.3645V94.0115H134.011V86.0867H135.293ZM144.126 84.1677V86.0867H145.605V87.134H144.126V92.0486C144.126 92.366 144.192 92.6052 144.324 92.7664C144.455 92.9226 144.68 93.0007 144.997 93.0007C145.154 93.0007 145.368 92.9714 145.642 92.9128V94.0115C145.285 94.1091 144.939 94.158 144.602 94.158C143.996 94.158 143.54 93.9749 143.232 93.6086C142.925 93.2424 142.771 92.7224 142.771 92.0486V87.134H141.328V86.0867H142.771V84.1677H144.126ZM148.667 94.0115H147.312V86.0867H148.667V94.0115ZM147.202 83.9846C147.202 83.7649 147.268 83.5793 147.4 83.428C147.536 83.2766 147.737 83.2009 148 83.2009C148.264 83.2009 148.464 83.2766 148.601 83.428C148.738 83.5793 148.806 83.7649 148.806 83.9846C148.806 84.2043 148.738 84.3875 148.601 84.5339C148.464 84.6804 148.264 84.7537 148 84.7537C147.737 84.7537 147.536 84.6804 147.4 84.5339C147.268 84.3875 147.202 84.2043 147.202 83.9846ZM152.124 86.0867L152.168 87.0828C152.773 86.321 153.564 85.9402 154.541 85.9402C156.216 85.9402 157.06 86.885 157.075 88.7747V94.0115H155.72V88.7673C155.715 88.196 155.583 87.7737 155.325 87.5002C155.071 87.2268 154.673 87.0901 154.131 87.0901C153.691 87.0901 153.305 87.2073 152.973 87.4417C152.641 87.676 152.383 87.9836 152.197 88.3645V94.0115H150.842V86.0867H152.124ZM158.796 89.9832C158.796 88.7478 159.082 87.7664 159.653 87.0388C160.224 86.3064 160.981 85.9402 161.924 85.9402C162.89 85.9402 163.645 86.282 164.187 86.9656L164.253 86.0867H165.491V93.821C165.491 94.8464 165.185 95.6545 164.575 96.2454C163.97 96.8362 163.154 97.1316 162.129 97.1316C161.557 97.1316 160.998 97.0095 160.451 96.7654C159.905 96.5212 159.487 96.1868 159.199 95.762L159.902 94.949C160.483 95.6667 161.194 96.0256 162.034 96.0256C162.693 96.0256 163.205 95.8401 163.572 95.469C163.943 95.0979 164.128 94.5754 164.128 93.9016V93.2205C163.586 93.8455 162.846 94.158 161.909 94.158C160.981 94.158 160.229 93.7844 159.653 93.0374C159.082 92.2903 158.796 91.2722 158.796 89.9832ZM160.159 90.137C160.159 91.0305 160.342 91.7336 160.708 92.2463C161.074 92.7542 161.587 93.0081 162.246 93.0081C163.1 93.0081 163.728 92.6199 164.128 91.8435V88.2253C163.713 87.4685 163.091 87.0901 162.261 87.0901C161.601 87.0901 161.086 87.3464 160.715 87.8591C160.344 88.3718 160.159 89.1311 160.159 90.137Z" fill="#696969"/>
<path d="M121.316 30.8669C121.316 30.4519 121.169 30.1345 120.876 29.9148C120.583 29.6902 120.056 29.4558 119.294 29.2117C118.533 28.9626 117.93 28.7185 117.485 28.4792C116.274 27.825 115.669 26.9436 115.669 25.8352C115.669 25.259 115.83 24.7463 116.152 24.2971C116.479 23.843 116.946 23.489 117.551 23.2351C118.161 22.9812 118.845 22.8542 119.602 22.8542C120.364 22.8542 121.042 22.9934 121.638 23.2717C122.234 23.5452 122.695 23.9333 123.022 24.4363C123.354 24.9392 123.52 25.5105 123.52 26.1501H121.323C121.323 25.6619 121.169 25.2834 120.862 25.0149C120.554 24.7415 120.122 24.6047 119.565 24.6047C119.028 24.6047 118.611 24.7195 118.313 24.949C118.015 25.1736 117.866 25.4714 117.866 25.8425C117.866 26.1892 118.039 26.4797 118.386 26.7141C118.738 26.9485 119.253 27.1682 119.931 27.3733C121.181 27.7493 122.092 28.2156 122.663 28.7722C123.235 29.3289 123.52 30.0222 123.52 30.8523C123.52 31.7751 123.171 32.5002 122.473 33.0276C121.775 33.55 120.835 33.8113 119.653 33.8113C118.833 33.8113 118.086 33.6624 117.412 33.3645C116.738 33.0618 116.223 32.6492 115.867 32.1267C115.515 31.6042 115.339 30.9988 115.339 30.3103H117.544C117.544 31.4871 118.247 32.0754 119.653 32.0754C120.176 32.0754 120.583 31.9705 120.876 31.7605C121.169 31.5457 121.316 31.2478 121.316 30.8669ZM127.351 33.6648H125.154V23.0007H127.351V33.6648ZM132.265 23.0007L135.005 30.7351L137.729 23.0007H140.615V33.6648H138.41V30.7498L138.63 25.718L135.752 33.6648H134.243L131.372 25.7253L131.592 30.7498V33.6648H129.394V23.0007H132.265ZM144.731 29.9075V33.6648H142.534V23.0007H146.694C147.495 23.0007 148.198 23.1472 148.804 23.4402C149.414 23.7332 149.883 24.1506 150.21 24.6926C150.537 25.2297 150.701 25.8425 150.701 26.531C150.701 27.5759 150.342 28.4011 149.624 29.0066C148.911 29.6072 147.922 29.9075 146.658 29.9075H144.731ZM144.731 28.1277H146.694C147.275 28.1277 147.717 27.991 148.02 27.7175C148.327 27.4441 148.481 27.0535 148.481 26.5457C148.481 26.0232 148.327 25.6008 148.02 25.2786C147.712 24.9563 147.287 24.7903 146.745 24.7805H144.731V28.1277ZM158.633 29.0432H154.414V31.8997H159.365V33.6648H152.217V23.0007H159.35V24.7805H154.414V27.322H158.633V29.0432ZM162.851 31.8997H167.517V33.6648H160.654V23.0007H162.851V31.8997ZM175.303 24.7805H172.036V33.6648H169.839V24.7805H166.616V23.0007H175.303V24.7805ZM181.704 31.4675H177.851L177.119 33.6648H174.783L178.752 23.0007H180.788L184.78 33.6648H182.444L181.704 31.4675ZM178.445 29.6877H181.111L179.77 25.696L178.445 29.6877ZM185.776 33.6648V23.0007H189.512C190.806 23.0007 191.787 23.2498 192.456 23.7478C193.125 24.241 193.459 24.9661 193.459 25.9231C193.459 26.4456 193.325 26.907 193.056 27.3074C192.788 27.7029 192.414 27.9934 191.936 28.179C192.483 28.3157 192.912 28.5916 193.225 29.0066C193.542 29.4216 193.701 29.9294 193.701 30.53C193.701 31.5554 193.374 32.3318 192.72 32.8591C192.065 33.3865 191.133 33.655 189.922 33.6648H185.776ZM187.973 29.0212V31.8997H189.856C190.373 31.8997 190.776 31.7776 191.064 31.5334C191.357 31.2844 191.504 30.9426 191.504 30.5081C191.504 29.5315 190.998 29.0359 189.988 29.0212H187.973ZM187.973 27.4685H189.599C190.708 27.449 191.262 27.0071 191.262 26.1428C191.262 25.6594 191.12 25.3127 190.837 25.1028C190.559 24.8879 190.117 24.7805 189.512 24.7805H187.973V27.4685Z" fill="#0C5CBF"/>
<defs>
<filter id="filter0_d" x="0" y="0" width="339.796" height="169.569" filterUnits="userSpaceOnUse" color-interpolation-filters="sRGB">
<feFlood flood-opacity="0" result="BackgroundImageFix"/>
<feColorMatrix in="SourceAlpha" type="matrix" values="0 0 0 0 0 0 0 0 0 0 0 0 0 0 0 0 0 0 127 0"/>
<feOffset dy="4"/>
<feGaussianBlur stdDeviation="2"/>
<feColorMatrix type="matrix" values="0 0 0 0 0 0 0 0 0 0 0 0 0 0 0 0 0 0 0.25 0"/>
<feBlend mode="normal" in2="BackgroundImageFix" result="effect1_dropShadow"/>
<feBlend mode="normal" in="SourceGraphic" in2="effect1_dropShadow" result="shape"/>
</filter>
<linearGradient id="paint0_linear" x1="225.168" y1="162" x2="225.168" y2="65.5491" gradientUnits="userSpaceOnUse">
<stop stop-color="#00A4DC"/>
<stop offset="1" stop-color="#026BED"/>
</linearGradient>
</defs>
</svg>
