<svg width="350" height="569" viewBox="0 0 350 569" fill="none" xmlns="http://www.w3.org/2000/svg">
<g clip-path="url(#clip0)">
<rect width="350" height="569" fill="white"/>
<path d="M0 508.508V0H356V566.059C340.813 576.953 307.186 554.647 295.352 546.794C283.518 538.94 237.169 511.453 158.277 546.794C85.795 573.299 31.5568 560.537 0 508.508Z" fill="url(#paint0_linear)"/>
<path d="M22.9341 405.036C20.7272 445.318 -27.5871 488.317 8.09218 538.213C51.2189 608.512 174.579 534.823 231.212 538.213C287.844 541.602 361.418 601.169 351.738 544.992C384.626 510.211 327.496 468.816 332.589 445.95C356.313 339.432 351.738 319.803 270.903 328.271C190.068 336.739 33.0259 220.84 22.9341 405.036Z" fill="white" fill-opacity="0.9"/>
<circle cx="22.6119" cy="306.141" r="13.6119" fill="#C2D0EA"/>
<circle cx="36.2238" cy="283.778" r="7.77822" fill="#C2D0EA"/>
<path d="M18.1992 86.9902V92H15.2695V77.7812H20.8164C21.8841 77.7812 22.8216 77.9766 23.6289 78.3672C24.4427 78.7578 25.0677 79.3145 25.5039 80.0371C25.9401 80.7533 26.1582 81.5703 26.1582 82.4883C26.1582 83.8815 25.6797 84.9818 24.7227 85.7891C23.7721 86.5898 22.4538 86.9902 20.7676 86.9902H18.1992ZM18.1992 84.6172H20.8164C21.5911 84.6172 22.1803 84.4349 22.584 84.0703C22.9941 83.7057 23.1992 83.1849 23.1992 82.5078C23.1992 81.8112 22.9941 81.248 22.584 80.8184C22.1738 80.3887 21.6074 80.1673 20.8848 80.1543H18.1992V84.6172ZM36.7344 85.8379H31.1094V89.6465H37.7109V92H28.1797V77.7812H37.6914V80.1543H31.1094V83.543H36.7344V85.8379ZM44.6934 86.7949H42.3594V92H39.4297V77.7812H44.7129C46.3926 77.7812 47.6882 78.1556 48.5996 78.9043C49.5111 79.653 49.9668 80.7109 49.9668 82.0781C49.9668 83.0482 49.7552 83.8587 49.332 84.5098C48.9154 85.1543 48.2806 85.6686 47.4277 86.0527L50.5039 91.8633V92H47.3594L44.6934 86.7949ZM42.3594 84.4219H44.7227C45.4583 84.4219 46.028 84.2363 46.4316 83.8652C46.8353 83.4876 47.0371 82.9701 47.0371 82.3125C47.0371 81.6419 46.8451 81.1146 46.4609 80.7305C46.0833 80.3464 45.5007 80.1543 44.7129 80.1543H42.3594V84.4219ZM62.9648 77.7812V87.1465C62.9648 88.7025 62.4766 89.9329 61.5 90.8379C60.5299 91.7428 59.2018 92.1953 57.5156 92.1953C55.8555 92.1953 54.5371 91.7559 53.5605 90.877C52.584 89.998 52.0859 88.7904 52.0664 87.2539V77.7812H54.9961V87.166C54.9961 88.097 55.2174 88.7773 55.6602 89.207C56.1094 89.6302 56.7279 89.8418 57.5156 89.8418C59.1628 89.8418 59.9993 88.9759 60.0254 87.2441V77.7812H62.9648ZM69.1953 77.7812L72.8477 88.0938L76.4805 77.7812H80.3281V92H77.3887V88.1133L77.6816 81.4043L73.8438 92H71.832L68.0039 81.4141L68.2969 88.1133V92H65.3672V77.7812H69.1953ZM82.8867 92V77.7812H87.2617C88.5117 77.7812 89.6283 78.0645 90.6113 78.6309C91.6009 79.1908 92.3724 79.9915 92.9258 81.0332C93.4792 82.0684 93.7559 83.2467 93.7559 84.5684V85.2227C93.7559 86.5443 93.4824 87.7194 92.9355 88.748C92.3952 89.7767 91.6302 90.5742 90.6406 91.1406C89.651 91.707 88.5345 91.9935 87.291 92H82.8867ZM85.8164 80.1543V89.6465H87.2324C88.3783 89.6465 89.2539 89.2721 89.8594 88.5234C90.4648 87.7747 90.7741 86.7038 90.7871 85.3105V84.5586C90.7871 83.1133 90.4876 82.0195 89.8887 81.2773C89.2897 80.5286 88.4141 80.1543 87.2617 80.1543H85.8164ZM103.707 89.0703H98.5703L97.5938 92H94.4785L99.7715 77.7812H102.486L107.809 92H104.693L103.707 89.0703ZM99.3613 86.6973H102.916L101.129 81.375L99.3613 86.6973ZM123.551 86.2969L122.027 87.9375V92H119.098V77.7812H122.027V84.2266L123.316 82.459L126.939 77.7812H130.543L125.494 84.0996L130.689 92H127.203L123.551 86.2969ZM137.73 92C137.6 91.7461 137.506 91.4303 137.447 91.0527C136.764 91.8145 135.875 92.1953 134.781 92.1953C133.746 92.1953 132.887 91.8958 132.203 91.2969C131.526 90.6979 131.188 89.9427 131.188 89.0312C131.188 87.9115 131.601 87.0521 132.428 86.4531C133.261 85.8542 134.462 85.5514 136.031 85.5449H137.33V84.9395C137.33 84.4512 137.203 84.0605 136.949 83.7676C136.702 83.4746 136.308 83.3281 135.768 83.3281C135.292 83.3281 134.918 83.4421 134.645 83.6699C134.378 83.8978 134.244 84.2103 134.244 84.6074H131.422C131.422 83.9954 131.611 83.429 131.988 82.9082C132.366 82.3874 132.9 81.9805 133.59 81.6875C134.28 81.388 135.055 81.2383 135.914 81.2383C137.216 81.2383 138.248 81.5671 139.01 82.2246C139.778 82.8757 140.162 83.7936 140.162 84.9785V89.5586C140.169 90.5612 140.309 91.3197 140.582 91.834V92H137.73ZM135.396 90.0371C135.813 90.0371 136.197 89.946 136.549 89.7637C136.9 89.5749 137.161 89.3242 137.33 89.0117V87.1953H136.275C134.863 87.1953 134.111 87.6836 134.02 88.6602L134.01 88.8262C134.01 89.1777 134.133 89.4674 134.381 89.6953C134.628 89.9232 134.967 90.0371 135.396 90.0371ZM151.852 86.8145C151.852 88.5072 151.49 89.8288 150.768 90.7793C150.045 91.7233 149.036 92.1953 147.74 92.1953C146.594 92.1953 145.68 91.7559 144.996 90.877L144.869 92H142.33V77H145.152V82.3809C145.803 81.6191 146.66 81.2383 147.721 81.2383C149.01 81.2383 150.019 81.7135 150.748 82.6641C151.484 83.6081 151.852 84.9395 151.852 86.6582V86.8145ZM149.029 86.6094C149.029 85.5417 148.86 84.7637 148.521 84.2754C148.183 83.7806 147.678 83.5332 147.008 83.5332C146.109 83.5332 145.491 83.901 145.152 84.6367V88.8066C145.497 89.5488 146.122 89.9199 147.027 89.9199C147.939 89.9199 148.538 89.4707 148.824 88.5723C148.961 88.1426 149.029 87.4883 149.029 86.6094ZM153.746 90.6133C153.746 90.1641 153.896 89.7995 154.195 89.5195C154.501 89.2396 154.882 89.0996 155.338 89.0996C155.8 89.0996 156.181 89.2396 156.48 89.5195C156.786 89.7995 156.939 90.1641 156.939 90.6133C156.939 91.056 156.79 91.4173 156.49 91.6973C156.191 91.9707 155.807 92.1074 155.338 92.1074C154.876 92.1074 154.495 91.9707 154.195 91.6973C153.896 91.4173 153.746 91.056 153.746 90.6133ZM174.703 80.1543H170.348V92H167.418V80.1543H163.121V77.7812H174.703V80.1543ZM180.68 92C180.549 91.7461 180.455 91.4303 180.396 91.0527C179.713 91.8145 178.824 92.1953 177.73 92.1953C176.695 92.1953 175.836 91.8958 175.152 91.2969C174.475 90.6979 174.137 89.9427 174.137 89.0312C174.137 87.9115 174.55 87.0521 175.377 86.4531C176.21 85.8542 177.411 85.5514 178.98 85.5449H180.279V84.9395C180.279 84.4512 180.152 84.0605 179.898 83.7676C179.651 83.4746 179.257 83.3281 178.717 83.3281C178.242 83.3281 177.867 83.4421 177.594 83.6699C177.327 83.8978 177.193 84.2103 177.193 84.6074H174.371C174.371 83.9954 174.56 83.429 174.938 82.9082C175.315 82.3874 175.849 81.9805 176.539 81.6875C177.229 81.388 178.004 81.2383 178.863 81.2383C180.165 81.2383 181.197 81.5671 181.959 82.2246C182.727 82.8757 183.111 83.7936 183.111 84.9785V89.5586C183.118 90.5612 183.258 91.3197 183.531 91.834V92H180.68ZM178.346 90.0371C178.762 90.0371 179.146 89.946 179.498 89.7637C179.85 89.5749 180.11 89.3242 180.279 89.0117V87.1953H179.225C177.812 87.1953 177.06 87.6836 176.969 88.6602L176.959 88.8262C176.959 89.1777 177.083 89.4674 177.33 89.6953C177.577 89.9232 177.916 90.0371 178.346 90.0371ZM194.801 86.8145C194.801 88.5072 194.439 89.8288 193.717 90.7793C192.994 91.7233 191.985 92.1953 190.689 92.1953C189.544 92.1953 188.629 91.7559 187.945 90.877L187.818 92H185.279V77H188.102V82.3809C188.753 81.6191 189.609 81.2383 190.67 81.2383C191.959 81.2383 192.968 81.7135 193.697 82.6641C194.433 83.6081 194.801 84.9395 194.801 86.6582V86.8145ZM191.979 86.6094C191.979 85.5417 191.809 84.7637 191.471 84.2754C191.132 83.7806 190.628 83.5332 189.957 83.5332C189.059 83.5332 188.44 83.901 188.102 84.6367V88.8066C188.447 89.5488 189.072 89.9199 189.977 89.9199C190.888 89.9199 191.487 89.4707 191.773 88.5723C191.91 88.1426 191.979 87.4883 191.979 86.6094ZM202.672 92C202.542 91.7461 202.447 91.4303 202.389 91.0527C201.705 91.8145 200.816 92.1953 199.723 92.1953C198.688 92.1953 197.828 91.8958 197.145 91.2969C196.467 90.6979 196.129 89.9427 196.129 89.0312C196.129 87.9115 196.542 87.0521 197.369 86.4531C198.202 85.8542 199.404 85.5514 200.973 85.5449H202.271V84.9395C202.271 84.4512 202.145 84.0605 201.891 83.7676C201.643 83.4746 201.249 83.3281 200.709 83.3281C200.234 83.3281 199.859 83.4421 199.586 83.6699C199.319 83.8978 199.186 84.2103 199.186 84.6074H196.363C196.363 83.9954 196.552 83.429 196.93 82.9082C197.307 82.3874 197.841 81.9805 198.531 81.6875C199.221 81.388 199.996 81.2383 200.855 81.2383C202.158 81.2383 203.189 81.5671 203.951 82.2246C204.719 82.8757 205.104 83.7936 205.104 84.9785V89.5586C205.11 90.5612 205.25 91.3197 205.523 91.834V92H202.672ZM200.338 90.0371C200.755 90.0371 201.139 89.946 201.49 89.7637C201.842 89.5749 202.102 89.3242 202.271 89.0117V87.1953H201.217C199.804 87.1953 199.052 87.6836 198.961 88.6602L198.951 88.8262C198.951 89.1777 199.075 89.4674 199.322 89.6953C199.57 89.9232 199.908 90.0371 200.338 90.0371ZM209.869 81.4336L209.957 82.6543C210.712 81.7103 211.725 81.2383 212.994 81.2383C214.114 81.2383 214.947 81.5671 215.494 82.2246C216.041 82.8822 216.321 83.8652 216.334 85.1738V92H213.512V85.2422C213.512 84.6432 213.382 84.2103 213.121 83.9434C212.861 83.6699 212.428 83.5332 211.822 83.5332C211.028 83.5332 210.432 83.8717 210.035 84.5488V92H207.213V81.4336H209.869ZM224.605 92C224.475 91.7461 224.381 91.4303 224.322 91.0527C223.639 91.8145 222.75 92.1953 221.656 92.1953C220.621 92.1953 219.762 91.8958 219.078 91.2969C218.401 90.6979 218.062 89.9427 218.062 89.0312C218.062 87.9115 218.476 87.0521 219.303 86.4531C220.136 85.8542 221.337 85.5514 222.906 85.5449H224.205V84.9395C224.205 84.4512 224.078 84.0605 223.824 83.7676C223.577 83.4746 223.183 83.3281 222.643 83.3281C222.167 83.3281 221.793 83.4421 221.52 83.6699C221.253 83.8978 221.119 84.2103 221.119 84.6074H218.297C218.297 83.9954 218.486 83.429 218.863 82.9082C219.241 82.3874 219.775 81.9805 220.465 81.6875C221.155 81.388 221.93 81.2383 222.789 81.2383C224.091 81.2383 225.123 81.5671 225.885 82.2246C226.653 82.8757 227.037 83.7936 227.037 84.9785V89.5586C227.044 90.5612 227.184 91.3197 227.457 91.834V92H224.605ZM222.271 90.0371C222.688 90.0371 223.072 89.946 223.424 89.7637C223.775 89.5749 224.036 89.3242 224.205 89.0117V87.1953H223.15C221.738 87.1953 220.986 87.6836 220.895 88.6602L220.885 88.8262C220.885 89.1777 221.008 89.4674 221.256 89.6953C221.503 89.9232 221.842 90.0371 222.271 90.0371ZM231.803 81.4336L231.891 82.6543C232.646 81.7103 233.658 81.2383 234.928 81.2383C236.048 81.2383 236.881 81.5671 237.428 82.2246C237.975 82.8822 238.255 83.8652 238.268 85.1738V92H235.445V85.2422C235.445 84.6432 235.315 84.2103 235.055 83.9434C234.794 83.6699 234.361 83.5332 233.756 83.5332C232.962 83.5332 232.366 83.8717 231.969 84.5488V92H229.146V81.4336H231.803Z" fill="white"/>
<path d="M208.419 42.7453C214.92 32.525 238.848 14.6092 268.589 0H360V150.186C360 150.186 353.402 159.704 335.701 175.602C318 191.5 294.35 188.137 297.516 157.118C300.683 126.098 286 72.5 225 67C205.23 63.7533 201.919 52.9655 208.419 42.7453Z" fill="#4E93F2" fill-opacity="0.6"/>
<path d="M359.5 0H226.26C214.777 17.8663 203.719 52.796 263.5 54C285.896 54.451 294.802 64.0082 285.896 120.993C283.111 180.356 308.701 179.608 359.5 151V0Z" fill="url(#paint1_linear)"/>
<path d="M26.1816 190.62H32.2461V192H24.4854V179.203H26.1816V190.62ZM33.4854 187.157C33.4854 186.226 33.667 185.388 34.0303 184.644C34.3994 183.899 34.9092 183.325 35.5596 182.921C36.2158 182.517 36.9629 182.314 37.8008 182.314C39.0957 182.314 40.1416 182.763 40.9385 183.659C41.7412 184.556 42.1426 185.748 42.1426 187.236V187.351C42.1426 188.276 41.9639 189.108 41.6064 189.847C41.2549 190.579 40.748 191.15 40.0859 191.561C39.4297 191.971 38.6738 192.176 37.8184 192.176C36.5293 192.176 35.4834 191.728 34.6807 190.831C33.8838 189.935 33.4854 188.748 33.4854 187.271V187.157ZM35.1201 187.351C35.1201 188.405 35.3633 189.252 35.8496 189.891C36.3418 190.529 36.998 190.849 37.8184 190.849C38.6445 190.849 39.3008 190.526 39.7871 189.882C40.2734 189.231 40.5166 188.323 40.5166 187.157C40.5166 186.114 40.2676 185.271 39.7695 184.626C39.2773 183.976 38.6211 183.65 37.8008 183.65C36.998 183.65 36.3506 183.97 35.8584 184.608C35.3662 185.247 35.1201 186.161 35.1201 187.351ZM48.7783 183.949C48.5322 183.908 48.2656 183.888 47.9785 183.888C46.9121 183.888 46.1885 184.342 45.8076 185.25V192H44.1816V182.49H45.7637L45.79 183.589C46.3232 182.739 47.0791 182.314 48.0576 182.314C48.374 182.314 48.6143 182.355 48.7783 182.438V183.949ZM54.0518 192.176C52.7627 192.176 51.7139 191.754 50.9053 190.91C50.0967 190.061 49.6924 188.927 49.6924 187.509V187.21C49.6924 186.267 49.8711 185.426 50.2285 184.688C50.5918 183.943 51.0957 183.363 51.7402 182.947C52.3906 182.525 53.0938 182.314 53.8496 182.314C55.0859 182.314 56.0469 182.722 56.7324 183.536C57.418 184.351 57.7607 185.517 57.7607 187.034V187.711H51.3184C51.3418 188.648 51.6143 189.407 52.1357 189.987C52.6631 190.562 53.3311 190.849 54.1396 190.849C54.7139 190.849 55.2002 190.731 55.5986 190.497C55.9971 190.263 56.3457 189.952 56.6445 189.565L57.6377 190.339C56.8408 191.563 55.6455 192.176 54.0518 192.176ZM53.8496 183.65C53.1934 183.65 52.6426 183.891 52.1973 184.371C51.752 184.846 51.4766 185.514 51.3711 186.375H56.1348V186.252C56.0879 185.426 55.8652 184.787 55.4668 184.336C55.0684 183.879 54.5293 183.65 53.8496 183.65ZM61.1797 182.49L61.2236 183.545C61.9209 182.725 62.8613 182.314 64.0449 182.314C65.375 182.314 66.2803 182.824 66.7607 183.844C67.0771 183.387 67.4873 183.018 67.9912 182.736C68.501 182.455 69.1016 182.314 69.793 182.314C71.8789 182.314 72.9395 183.419 72.9746 185.628V192H71.3486V185.725C71.3486 185.045 71.1934 184.538 70.8828 184.204C70.5723 183.864 70.0508 183.694 69.3184 183.694C68.7148 183.694 68.2139 183.876 67.8154 184.239C67.417 184.597 67.1855 185.08 67.1211 185.689V192H65.4863V185.769C65.4863 184.386 64.8096 183.694 63.4561 183.694C62.3896 183.694 61.6602 184.148 61.2676 185.057V192H59.6416V182.49H61.1797ZM84.7479 192H83.0604V179.203H84.7479V192ZM95.6199 187.351C95.6199 188.798 95.2889 189.964 94.6268 190.849C93.9646 191.733 93.0682 192.176 91.9373 192.176C90.783 192.176 89.8748 191.81 89.2127 191.077V195.656H87.5867V182.49H89.0721L89.1512 183.545C89.8133 182.725 90.7332 182.314 91.9109 182.314C93.0535 182.314 93.9559 182.745 94.618 183.606C95.2859 184.468 95.6199 185.666 95.6199 187.201V187.351ZM93.9939 187.166C93.9939 186.094 93.7654 185.247 93.3084 184.626C92.8514 184.005 92.2244 183.694 91.4275 183.694C90.4432 183.694 89.7049 184.131 89.2127 185.004V189.548C89.699 190.415 90.4432 190.849 91.4451 190.849C92.2244 190.849 92.8426 190.541 93.2996 189.926C93.7625 189.305 93.9939 188.385 93.9939 187.166ZM103.231 189.478C103.231 189.038 103.064 188.698 102.73 188.458C102.402 188.212 101.825 188.001 100.999 187.825C100.179 187.649 99.5252 187.438 99.0389 187.192C98.5584 186.946 98.201 186.653 97.9666 186.313C97.7381 185.974 97.6238 185.569 97.6238 185.101C97.6238 184.321 97.952 183.662 98.6082 183.123C99.2703 182.584 100.114 182.314 101.139 182.314C102.218 182.314 103.091 182.593 103.759 183.149C104.432 183.706 104.769 184.418 104.769 185.285H103.135C103.135 184.84 102.944 184.456 102.563 184.134C102.188 183.812 101.714 183.65 101.139 183.65C100.548 183.65 100.085 183.779 99.7508 184.037C99.4168 184.295 99.2498 184.632 99.2498 185.048C99.2498 185.44 99.4051 185.736 99.7156 185.936C100.026 186.135 100.586 186.325 101.394 186.507C102.209 186.688 102.868 186.905 103.372 187.157C103.876 187.409 104.248 187.714 104.488 188.071C104.734 188.423 104.857 188.854 104.857 189.363C104.857 190.213 104.517 190.896 103.838 191.411C103.158 191.921 102.276 192.176 101.192 192.176C100.43 192.176 99.7566 192.041 99.1707 191.771C98.5848 191.502 98.1248 191.127 97.7908 190.646C97.4627 190.16 97.2986 189.636 97.2986 189.073H98.9246C98.9539 189.618 99.1707 190.052 99.575 190.374C99.9852 190.69 100.524 190.849 101.192 190.849C101.807 190.849 102.3 190.726 102.669 190.479C103.044 190.228 103.231 189.894 103.231 189.478ZM112.846 191.06C112.214 191.804 111.285 192.176 110.06 192.176C109.047 192.176 108.273 191.883 107.74 191.297C107.213 190.705 106.946 189.832 106.94 188.678V182.49H108.566V188.634C108.566 190.075 109.152 190.796 110.324 190.796C111.566 190.796 112.392 190.333 112.803 189.407V182.49H114.429V192H112.882L112.846 191.06ZM118.436 182.49L118.48 183.545C119.178 182.725 120.118 182.314 121.302 182.314C122.632 182.314 123.537 182.824 124.017 183.844C124.334 183.387 124.744 183.018 125.248 182.736C125.758 182.455 126.358 182.314 127.05 182.314C129.136 182.314 130.196 183.419 130.231 185.628V192H128.605V185.725C128.605 185.045 128.45 184.538 128.139 184.204C127.829 183.864 127.307 183.694 126.575 183.694C125.971 183.694 125.471 183.876 125.072 184.239C124.674 184.597 124.442 185.08 124.378 185.689V192H122.743V185.769C122.743 184.386 122.066 183.694 120.713 183.694C119.646 183.694 118.917 184.148 118.524 185.057V192H116.898V182.49H118.436ZM141.706 192H140.08V182.49H141.706V192ZM139.948 179.968C139.948 179.704 140.027 179.481 140.185 179.3C140.349 179.118 140.589 179.027 140.906 179.027C141.222 179.027 141.463 179.118 141.627 179.3C141.791 179.481 141.873 179.704 141.873 179.968C141.873 180.231 141.791 180.451 141.627 180.627C141.463 180.803 141.222 180.891 140.906 180.891C140.589 180.891 140.349 180.803 140.185 180.627C140.027 180.451 139.948 180.231 139.948 179.968ZM149.853 189.478C149.853 189.038 149.686 188.698 149.352 188.458C149.024 188.212 148.447 188.001 147.621 187.825C146.8 187.649 146.147 187.438 145.661 187.192C145.18 186.946 144.823 186.653 144.588 186.313C144.36 185.974 144.246 185.569 144.246 185.101C144.246 184.321 144.574 183.662 145.23 183.123C145.892 182.584 146.736 182.314 147.761 182.314C148.839 182.314 149.713 182.593 150.38 183.149C151.054 183.706 151.391 184.418 151.391 185.285H149.756C149.756 184.84 149.566 184.456 149.185 184.134C148.81 183.812 148.336 183.65 147.761 183.65C147.17 183.65 146.707 183.779 146.373 184.037C146.039 184.295 145.872 184.632 145.872 185.048C145.872 185.44 146.027 185.736 146.338 185.936C146.648 186.135 147.208 186.325 148.016 186.507C148.831 186.688 149.49 186.905 149.994 187.157C150.498 187.409 150.87 187.714 151.11 188.071C151.356 188.423 151.479 188.854 151.479 189.363C151.479 190.213 151.139 190.896 150.46 191.411C149.78 191.921 148.898 192.176 147.814 192.176C147.052 192.176 146.379 192.041 145.793 191.771C145.207 191.502 144.747 191.127 144.413 190.646C144.085 190.16 143.921 189.636 143.921 189.073H145.546C145.576 189.618 145.793 190.052 146.197 190.374C146.607 190.69 147.146 190.849 147.814 190.849C148.429 190.849 148.921 190.726 149.291 190.479C149.666 190.228 149.853 189.894 149.853 189.478ZM166.381 189.478C166.381 189.038 166.214 188.698 165.88 188.458C165.552 188.212 164.975 188.001 164.149 187.825C163.329 187.649 162.675 187.438 162.189 187.192C161.708 186.946 161.351 186.653 161.117 186.313C160.888 185.974 160.774 185.569 160.774 185.101C160.774 184.321 161.102 183.662 161.758 183.123C162.42 182.584 163.264 182.314 164.289 182.314C165.368 182.314 166.241 182.593 166.909 183.149C167.582 183.706 167.919 184.418 167.919 185.285H166.285C166.285 184.84 166.094 184.456 165.713 184.134C165.338 183.812 164.864 183.65 164.289 183.65C163.698 183.65 163.235 183.779 162.901 184.037C162.567 184.295 162.4 184.632 162.4 185.048C162.4 185.44 162.555 185.736 162.866 185.936C163.176 186.135 163.736 186.325 164.544 186.507C165.359 186.688 166.018 186.905 166.522 187.157C167.026 187.409 167.398 187.714 167.638 188.071C167.884 188.423 168.007 188.854 168.007 189.363C168.007 190.213 167.667 190.896 166.988 191.411C166.308 191.921 165.426 192.176 164.342 192.176C163.58 192.176 162.907 192.041 162.321 191.771C161.735 191.502 161.275 191.127 160.941 190.646C160.613 190.16 160.449 189.636 160.449 189.073H162.075C162.104 189.618 162.321 190.052 162.725 190.374C163.135 190.69 163.674 190.849 164.342 190.849C164.957 190.849 165.45 190.726 165.819 190.479C166.194 190.228 166.381 189.894 166.381 189.478ZM171.892 192H170.266V182.49H171.892V192ZM170.134 179.968C170.134 179.704 170.213 179.481 170.371 179.3C170.536 179.118 170.776 179.027 171.092 179.027C171.409 179.027 171.649 179.118 171.813 179.3C171.977 179.481 172.059 179.704 172.059 179.968C172.059 180.231 171.977 180.451 171.813 180.627C171.649 180.803 171.409 180.891 171.092 180.891C170.776 180.891 170.536 180.803 170.371 180.627C170.213 180.451 170.134 180.231 170.134 179.968ZM176.032 182.49L176.076 183.545C176.773 182.725 177.713 182.314 178.897 182.314C180.227 182.314 181.132 182.824 181.613 183.844C181.929 183.387 182.339 183.018 182.843 182.736C183.353 182.455 183.954 182.314 184.645 182.314C186.731 182.314 187.791 183.419 187.827 185.628V192H186.201V185.725C186.201 185.045 186.045 184.538 185.735 184.204C185.424 183.864 184.903 183.694 184.17 183.694C183.567 183.694 183.066 183.876 182.667 184.239C182.269 184.597 182.038 185.08 181.973 185.689V192H180.338V185.769C180.338 184.386 179.662 183.694 178.308 183.694C177.242 183.694 176.512 184.148 176.12 185.057V192H174.494V182.49H176.032ZM198.321 187.351C198.321 188.798 197.99 189.964 197.328 190.849C196.665 191.733 195.769 192.176 194.638 192.176C193.484 192.176 192.576 191.81 191.913 191.077V195.656H190.288V182.49H191.773L191.852 183.545C192.514 182.725 193.434 182.314 194.612 182.314C195.754 182.314 196.657 182.745 197.319 183.606C197.987 184.468 198.321 185.666 198.321 187.201V187.351ZM196.695 187.166C196.695 186.094 196.466 185.247 196.009 184.626C195.552 184.005 194.925 183.694 194.128 183.694C193.144 183.694 192.406 184.131 191.913 185.004V189.548C192.4 190.415 193.144 190.849 194.146 190.849C194.925 190.849 195.543 190.541 196 189.926C196.463 189.305 196.695 188.385 196.695 187.166ZM202.162 192H200.536V178.5H202.162V192ZM207.883 189.618L210.098 182.49H211.838L208.015 193.468C207.423 195.05 206.483 195.841 205.194 195.841L204.886 195.814L204.28 195.7V194.382L204.719 194.417C205.27 194.417 205.698 194.306 206.002 194.083C206.313 193.86 206.568 193.453 206.767 192.861L207.127 191.895L203.735 182.49H205.51L207.883 189.618ZM220.149 187.166C220.149 185.707 220.494 184.535 221.186 183.65C221.877 182.76 222.782 182.314 223.902 182.314C225.015 182.314 225.897 182.695 226.547 183.457V178.5H228.173V192H226.679L226.6 190.98C225.949 191.777 225.044 192.176 223.884 192.176C222.782 192.176 221.883 191.725 221.186 190.822C220.494 189.92 220.149 188.742 220.149 187.289V187.166ZM221.775 187.351C221.775 188.429 221.997 189.272 222.443 189.882C222.888 190.491 223.503 190.796 224.288 190.796C225.32 190.796 226.072 190.333 226.547 189.407V185.039C226.061 184.143 225.314 183.694 224.306 183.694C223.509 183.694 222.888 184.002 222.443 184.617C221.997 185.232 221.775 186.144 221.775 187.351ZM236.575 191.06C235.943 191.804 235.014 192.176 233.789 192.176C232.776 192.176 232.002 191.883 231.469 191.297C230.942 190.705 230.675 189.832 230.669 188.678V182.49H232.295V188.634C232.295 190.075 232.881 190.796 234.053 190.796C235.295 190.796 236.121 190.333 236.531 189.407V182.49H238.157V192H236.611L236.575 191.06ZM242.165 182.49L242.209 183.545C242.906 182.725 243.847 182.314 245.03 182.314C246.361 182.314 247.266 182.824 247.746 183.844C248.063 183.387 248.473 183.018 248.977 182.736C249.487 182.455 250.087 182.314 250.779 182.314C252.864 182.314 253.925 183.419 253.96 185.628V192H252.334V185.725C252.334 185.045 252.179 184.538 251.868 184.204C251.558 183.864 251.036 183.694 250.304 183.694C249.7 183.694 249.199 183.876 248.801 184.239C248.403 184.597 248.171 185.08 248.107 185.689V192H246.472V185.769C246.472 184.386 245.795 183.694 244.442 183.694C243.375 183.694 242.646 184.148 242.253 185.057V192H240.627V182.49H242.165ZM257.95 182.49L257.994 183.545C258.692 182.725 259.632 182.314 260.816 182.314C262.146 182.314 263.051 182.824 263.531 183.844C263.848 183.387 264.258 183.018 264.762 182.736C265.272 182.455 265.872 182.314 266.564 182.314C268.65 182.314 269.71 183.419 269.745 185.628V192H268.119V185.725C268.119 185.045 267.964 184.538 267.654 184.204C267.343 183.864 266.821 183.694 266.089 183.694C265.486 183.694 264.985 183.876 264.586 184.239C264.188 184.597 263.956 185.08 263.892 185.689V192H262.257V185.769C262.257 184.386 261.58 183.694 260.227 183.694C259.16 183.694 258.431 184.148 258.038 185.057V192H256.412V182.49H257.95ZM275.318 189.618L277.532 182.49H279.273L275.449 193.468C274.858 195.05 273.917 195.841 272.628 195.841L272.321 195.814L271.714 195.7V194.382L272.154 194.417C272.704 194.417 273.132 194.306 273.437 194.083C273.747 193.86 274.002 193.453 274.201 192.861L274.562 191.895L271.169 182.49H272.945L275.318 189.618ZM290.185 180.188V182.49H291.96V183.747H290.185V189.645C290.185 190.025 290.264 190.312 290.422 190.506C290.58 190.693 290.85 190.787 291.23 190.787C291.418 190.787 291.676 190.752 292.004 190.682V192C291.576 192.117 291.16 192.176 290.756 192.176C290.029 192.176 289.481 191.956 289.112 191.517C288.743 191.077 288.559 190.453 288.559 189.645V183.747H286.827V182.49H288.559V180.188H290.185ZM297.813 192.176C296.524 192.176 295.476 191.754 294.667 190.91C293.858 190.061 293.454 188.927 293.454 187.509V187.21C293.454 186.267 293.633 185.426 293.99 184.688C294.354 183.943 294.857 183.363 295.502 182.947C296.152 182.525 296.855 182.314 297.611 182.314C298.848 182.314 299.809 182.722 300.494 183.536C301.18 184.351 301.522 185.517 301.522 187.034V187.711H295.08C295.104 188.648 295.376 189.407 295.897 189.987C296.425 190.562 297.093 190.849 297.901 190.849C298.476 190.849 298.962 190.731 299.36 190.497C299.759 190.263 300.107 189.952 300.406 189.565L301.399 190.339C300.603 191.563 299.407 192.176 297.813 192.176ZM297.611 183.65C296.955 183.65 296.404 183.891 295.959 184.371C295.514 184.846 295.238 185.514 295.133 186.375H299.896V186.252C299.85 185.426 299.627 184.787 299.229 184.336C298.83 183.879 298.291 183.65 297.611 183.65ZM306.603 185.962L308.712 182.49H310.61L307.499 187.192L310.707 192H308.826L306.629 188.44L304.432 192H302.542L305.75 187.192L302.639 182.49H304.52L306.603 185.962ZM314.548 180.188V182.49H316.323V183.747H314.548V189.645C314.548 190.025 314.627 190.312 314.785 190.506C314.943 190.693 315.213 190.787 315.594 190.787C315.781 190.787 316.039 190.752 316.367 190.682V192C315.939 192.117 315.523 192.176 315.119 192.176C314.393 192.176 313.845 191.956 313.476 191.517C313.106 191.077 312.922 190.453 312.922 189.645V183.747H311.19V182.49H312.922V180.188H314.548ZM23.7998 208.157C23.7998 207.226 23.9814 206.388 24.3447 205.644C24.7139 204.899 25.2236 204.325 25.874 203.921C26.5303 203.517 27.2773 203.314 28.1152 203.314C29.4102 203.314 30.4561 203.763 31.2529 204.659C32.0557 205.556 32.457 206.748 32.457 208.236V208.351C32.457 209.276 32.2783 210.108 31.9209 210.847C31.5693 211.579 31.0625 212.15 30.4004 212.561C29.7441 212.971 28.9883 213.176 28.1328 213.176C26.8438 213.176 25.7979 212.728 24.9951 211.831C24.1982 210.935 23.7998 209.748 23.7998 208.271V208.157ZM25.4346 208.351C25.4346 209.405 25.6777 210.252 26.1641 210.891C26.6562 211.529 27.3125 211.849 28.1328 211.849C28.959 211.849 29.6152 211.526 30.1016 210.882C30.5879 210.231 30.8311 209.323 30.8311 208.157C30.8311 207.114 30.582 206.271 30.084 205.626C29.5918 204.976 28.9355 204.65 28.1152 204.65C27.3125 204.65 26.665 204.97 26.1729 205.608C25.6807 206.247 25.4346 207.161 25.4346 208.351ZM35.2959 213V204.747H33.793V203.49H35.2959V202.515C35.2959 201.495 35.5684 200.707 36.1133 200.15C36.6582 199.594 37.4287 199.315 38.4248 199.315C38.7998 199.315 39.1719 199.365 39.541 199.465L39.4531 200.783C39.1777 200.73 38.8848 200.704 38.5742 200.704C38.0469 200.704 37.6396 200.859 37.3525 201.17C37.0654 201.475 36.9219 201.914 36.9219 202.488V203.49H38.9521V204.747H36.9219V213H35.2959ZM61.0449 201.188V203.49H62.8203V204.747H61.0449V210.645C61.0449 211.025 61.124 211.312 61.2822 211.506C61.4404 211.693 61.71 211.787 62.0908 211.787C62.2783 211.787 62.5361 211.752 62.8643 211.682V213C62.4365 213.117 62.0205 213.176 61.6162 213.176C60.8896 213.176 60.3418 212.956 59.9727 212.517C59.6035 212.077 59.4189 211.453 59.4189 210.645V204.747H57.6875V203.49H59.4189V201.188H61.0449ZM66.3535 204.642C67.0742 203.757 68.0117 203.314 69.166 203.314C71.1758 203.314 72.1895 204.448 72.207 206.716V213H70.5811V206.707C70.5752 206.021 70.417 205.515 70.1064 205.187C69.8018 204.858 69.3242 204.694 68.6738 204.694C68.1465 204.694 67.6836 204.835 67.2852 205.116C66.8867 205.397 66.5762 205.767 66.3535 206.224V213H64.7275V199.5H66.3535V204.642ZM78.5879 213.176C77.2988 213.176 76.25 212.754 75.4414 211.91C74.6328 211.061 74.2285 209.927 74.2285 208.509V208.21C74.2285 207.267 74.4072 206.426 74.7646 205.688C75.1279 204.943 75.6318 204.363 76.2764 203.947C76.9268 203.525 77.6299 203.314 78.3857 203.314C79.6221 203.314 80.583 203.722 81.2686 204.536C81.9541 205.351 82.2969 206.517 82.2969 208.034V208.711H75.8545C75.8779 209.648 76.1504 210.407 76.6719 210.987C77.1992 211.562 77.8672 211.849 78.6758 211.849C79.25 211.849 79.7363 211.731 80.1348 211.497C80.5332 211.263 80.8818 210.952 81.1807 210.565L82.1738 211.339C81.377 212.563 80.1816 213.176 78.5879 213.176ZM78.3857 204.65C77.7295 204.65 77.1787 204.891 76.7334 205.371C76.2881 205.846 76.0127 206.514 75.9072 207.375H80.6709V207.252C80.624 206.426 80.4014 205.787 80.0029 205.336C79.6045 204.879 79.0654 204.65 78.3857 204.65ZM110.305 208.351C110.305 209.798 109.974 210.964 109.312 211.849C108.649 212.733 107.753 213.176 106.622 213.176C105.468 213.176 104.56 212.81 103.897 212.077V216.656H102.271V203.49H103.757L103.836 204.545C104.498 203.725 105.418 203.314 106.596 203.314C107.738 203.314 108.641 203.745 109.303 204.606C109.971 205.468 110.305 206.666 110.305 208.201V208.351ZM108.679 208.166C108.679 207.094 108.45 206.247 107.993 205.626C107.536 205.005 106.909 204.694 106.112 204.694C105.128 204.694 104.39 205.131 103.897 206.004V210.548C104.384 211.415 105.128 211.849 106.13 211.849C106.909 211.849 107.527 211.541 107.984 210.926C108.447 210.305 108.679 209.385 108.679 208.166ZM116.976 204.949C116.729 204.908 116.463 204.888 116.176 204.888C115.109 204.888 114.386 205.342 114.005 206.25V213H112.379V203.49H113.961L113.987 204.589C114.521 203.739 115.276 203.314 116.255 203.314C116.571 203.314 116.812 203.355 116.976 203.438V204.949ZM120.245 213H118.619V203.49H120.245V213ZM118.487 200.968C118.487 200.704 118.566 200.481 118.725 200.3C118.889 200.118 119.129 200.027 119.445 200.027C119.762 200.027 120.002 200.118 120.166 200.3C120.33 200.481 120.412 200.704 120.412 200.968C120.412 201.231 120.33 201.451 120.166 201.627C120.002 201.803 119.762 201.891 119.445 201.891C119.129 201.891 118.889 201.803 118.725 201.627C118.566 201.451 118.487 201.231 118.487 200.968ZM124.394 203.49L124.446 204.686C125.173 203.771 126.122 203.314 127.294 203.314C129.304 203.314 130.317 204.448 130.335 206.716V213H128.709V206.707C128.703 206.021 128.545 205.515 128.234 205.187C127.93 204.858 127.452 204.694 126.802 204.694C126.274 204.694 125.812 204.835 125.413 205.116C125.015 205.397 124.704 205.767 124.481 206.224V213H122.855V203.49H124.394ZM134.993 201.188V203.49H136.769V204.747H134.993V210.645C134.993 211.025 135.072 211.312 135.23 211.506C135.389 211.693 135.658 211.787 136.039 211.787C136.227 211.787 136.484 211.752 136.812 211.682V213C136.385 213.117 135.969 213.176 135.564 213.176C134.838 213.176 134.29 212.956 133.921 212.517C133.552 212.077 133.367 211.453 133.367 210.645V204.747H131.636V203.49H133.367V201.188H134.993ZM140.442 213H138.816V203.49H140.442V213ZM138.685 200.968C138.685 200.704 138.764 200.481 138.922 200.3C139.086 200.118 139.326 200.027 139.643 200.027C139.959 200.027 140.199 200.118 140.363 200.3C140.527 200.481 140.609 200.704 140.609 200.968C140.609 201.231 140.527 201.451 140.363 201.627C140.199 201.803 139.959 201.891 139.643 201.891C139.326 201.891 139.086 201.803 138.922 201.627C138.764 201.451 138.685 201.231 138.685 200.968ZM144.591 203.49L144.644 204.686C145.37 203.771 146.319 203.314 147.491 203.314C149.501 203.314 150.515 204.448 150.532 206.716V213H148.906V206.707C148.9 206.021 148.742 205.515 148.432 205.187C148.127 204.858 147.649 204.694 146.999 204.694C146.472 204.694 146.009 204.835 145.61 205.116C145.212 205.397 144.901 205.767 144.679 206.224V213H143.053V203.49H144.591ZM152.598 208.166C152.598 206.684 152.94 205.506 153.626 204.633C154.312 203.754 155.22 203.314 156.351 203.314C157.511 203.314 158.416 203.725 159.066 204.545L159.146 203.49H160.631V212.771C160.631 214.002 160.265 214.972 159.532 215.681C158.806 216.39 157.827 216.744 156.597 216.744C155.911 216.744 155.24 216.598 154.584 216.305C153.928 216.012 153.427 215.61 153.081 215.101L153.925 214.125C154.622 214.986 155.475 215.417 156.482 215.417C157.273 215.417 157.889 215.194 158.328 214.749C158.773 214.304 158.996 213.677 158.996 212.868V212.051C158.346 212.801 157.458 213.176 156.333 213.176C155.22 213.176 154.317 212.728 153.626 211.831C152.94 210.935 152.598 209.713 152.598 208.166ZM154.232 208.351C154.232 209.423 154.452 210.267 154.892 210.882C155.331 211.491 155.946 211.796 156.737 211.796C157.763 211.796 158.516 211.33 158.996 210.398V206.057C158.498 205.148 157.751 204.694 156.755 204.694C155.964 204.694 155.346 205.002 154.9 205.617C154.455 206.232 154.232 207.144 154.232 208.351ZM187.048 213C186.954 212.812 186.878 212.479 186.819 211.998C186.063 212.783 185.161 213.176 184.112 213.176C183.175 213.176 182.404 212.912 181.801 212.385C181.203 211.852 180.904 211.178 180.904 210.363C180.904 209.373 181.279 208.605 182.029 208.061C182.785 207.51 183.846 207.234 185.211 207.234H186.793V206.487C186.793 205.919 186.623 205.468 186.283 205.134C185.943 204.794 185.442 204.624 184.78 204.624C184.2 204.624 183.714 204.771 183.321 205.063C182.929 205.356 182.732 205.711 182.732 206.127H181.098C181.098 205.652 181.265 205.195 181.599 204.756C181.938 204.311 182.396 203.959 182.97 203.701C183.55 203.443 184.186 203.314 184.877 203.314C185.973 203.314 186.831 203.59 187.452 204.141C188.073 204.686 188.396 205.438 188.419 206.399V210.776C188.419 211.649 188.53 212.344 188.753 212.859V213H187.048ZM184.35 211.761C184.859 211.761 185.343 211.629 185.8 211.365C186.257 211.102 186.588 210.759 186.793 210.337V208.386H185.519C183.526 208.386 182.53 208.969 182.53 210.135C182.53 210.645 182.7 211.043 183.04 211.33C183.38 211.617 183.816 211.761 184.35 211.761ZM192.506 203.49L192.559 204.686C193.285 203.771 194.234 203.314 195.406 203.314C197.416 203.314 198.43 204.448 198.447 206.716V213H196.821V206.707C196.815 206.021 196.657 205.515 196.347 205.187C196.042 204.858 195.564 204.694 194.914 204.694C194.387 204.694 193.924 204.835 193.525 205.116C193.127 205.397 192.816 205.767 192.594 206.224V213H190.968V203.49H192.506ZM200.504 208.166C200.504 206.707 200.85 205.535 201.541 204.65C202.232 203.76 203.138 203.314 204.257 203.314C205.37 203.314 206.252 203.695 206.902 204.457V199.5H208.528V213H207.034L206.955 211.98C206.305 212.777 205.399 213.176 204.239 213.176C203.138 213.176 202.238 212.725 201.541 211.822C200.85 210.92 200.504 209.742 200.504 208.289V208.166ZM202.13 208.351C202.13 209.429 202.353 210.272 202.798 210.882C203.243 211.491 203.858 211.796 204.644 211.796C205.675 211.796 206.428 211.333 206.902 210.407V206.039C206.416 205.143 205.669 204.694 204.661 204.694C203.864 204.694 203.243 205.002 202.798 205.617C202.353 206.232 202.13 207.144 202.13 208.351ZM231.351 201.188V203.49H233.126V204.747H231.351V210.645C231.351 211.025 231.43 211.312 231.588 211.506C231.746 211.693 232.016 211.787 232.396 211.787C232.584 211.787 232.842 211.752 233.17 211.682V213C232.742 213.117 232.326 213.176 231.922 213.176C231.195 213.176 230.647 212.956 230.278 212.517C229.909 212.077 229.725 211.453 229.725 210.645V204.747H227.993V203.49H229.725V201.188H231.351ZM238.145 210.618L240.359 203.49H242.1L238.276 214.468C237.685 216.05 236.744 216.841 235.455 216.841L235.147 216.814L234.541 216.7V215.382L234.98 215.417C235.531 215.417 235.959 215.306 236.264 215.083C236.574 214.86 236.829 214.453 237.028 213.861L237.389 212.895L233.996 203.49H235.771L238.145 210.618ZM251.592 208.351C251.592 209.798 251.261 210.964 250.599 211.849C249.937 212.733 249.04 213.176 247.909 213.176C246.755 213.176 245.847 212.81 245.185 212.077V216.656H243.559V203.49H245.044L245.123 204.545C245.785 203.725 246.705 203.314 247.883 203.314C249.025 203.314 249.928 203.745 250.59 204.606C251.258 205.468 251.592 206.666 251.592 208.201V208.351ZM249.966 208.166C249.966 207.094 249.737 206.247 249.28 205.626C248.823 205.005 248.196 204.694 247.399 204.694C246.415 204.694 245.677 205.131 245.185 206.004V210.548C245.671 211.415 246.415 211.849 247.417 211.849C248.196 211.849 248.814 211.541 249.271 210.926C249.734 210.305 249.966 209.385 249.966 208.166ZM257.612 213.176C256.323 213.176 255.274 212.754 254.466 211.91C253.657 211.061 253.253 209.927 253.253 208.509V208.21C253.253 207.267 253.432 206.426 253.789 205.688C254.152 204.943 254.656 204.363 255.301 203.947C255.951 203.525 256.654 203.314 257.41 203.314C258.646 203.314 259.607 203.722 260.293 204.536C260.979 205.351 261.321 206.517 261.321 208.034V208.711H254.879C254.902 209.648 255.175 210.407 255.696 210.987C256.224 211.562 256.892 211.849 257.7 211.849C258.274 211.849 258.761 211.731 259.159 211.497C259.558 211.263 259.906 210.952 260.205 210.565L261.198 211.339C260.401 212.563 259.206 213.176 257.612 213.176ZM257.41 204.65C256.754 204.65 256.203 204.891 255.758 205.371C255.312 205.846 255.037 206.514 254.932 207.375H259.695V207.252C259.648 206.426 259.426 205.787 259.027 205.336C258.629 204.879 258.09 204.65 257.41 204.65ZM268.748 210.478C268.748 210.038 268.581 209.698 268.247 209.458C267.919 209.212 267.342 209.001 266.516 208.825C265.695 208.649 265.042 208.438 264.556 208.192C264.075 207.946 263.718 207.653 263.483 207.313C263.255 206.974 263.141 206.569 263.141 206.101C263.141 205.321 263.469 204.662 264.125 204.123C264.787 203.584 265.631 203.314 266.656 203.314C267.734 203.314 268.607 203.593 269.275 204.149C269.949 204.706 270.286 205.418 270.286 206.285H268.651C268.651 205.84 268.461 205.456 268.08 205.134C267.705 204.812 267.23 204.65 266.656 204.65C266.064 204.65 265.602 204.779 265.268 205.037C264.934 205.295 264.767 205.632 264.767 206.048C264.767 206.44 264.922 206.736 265.232 206.936C265.543 207.135 266.103 207.325 266.911 207.507C267.726 207.688 268.385 207.905 268.889 208.157C269.393 208.409 269.765 208.714 270.005 209.071C270.251 209.423 270.374 209.854 270.374 210.363C270.374 211.213 270.034 211.896 269.354 212.411C268.675 212.921 267.793 213.176 266.709 213.176C265.947 213.176 265.273 213.041 264.688 212.771C264.102 212.502 263.642 212.127 263.308 211.646C262.979 211.16 262.815 210.636 262.815 210.073H264.441C264.471 210.618 264.688 211.052 265.092 211.374C265.502 211.69 266.041 211.849 266.709 211.849C267.324 211.849 267.816 211.726 268.186 211.479C268.561 211.228 268.748 210.894 268.748 210.478ZM276.438 213.176C275.149 213.176 274.101 212.754 273.292 211.91C272.483 211.061 272.079 209.927 272.079 208.509V208.21C272.079 207.267 272.258 206.426 272.615 205.688C272.979 204.943 273.482 204.363 274.127 203.947C274.777 203.525 275.48 203.314 276.236 203.314C277.473 203.314 278.434 203.722 279.119 204.536C279.805 205.351 280.147 206.517 280.147 208.034V208.711H273.705C273.729 209.648 274.001 210.407 274.522 210.987C275.05 211.562 275.718 211.849 276.526 211.849C277.101 211.849 277.587 211.731 277.985 211.497C278.384 211.263 278.732 210.952 279.031 210.565L280.024 211.339C279.228 212.563 278.032 213.176 276.438 213.176ZM276.236 204.65C275.58 204.65 275.029 204.891 274.584 205.371C274.139 205.846 273.863 206.514 273.758 207.375H278.521V207.252C278.475 206.426 278.252 205.787 277.854 205.336C277.455 204.879 276.916 204.65 276.236 204.65ZM284.243 201.188V203.49H286.019V204.747H284.243V210.645C284.243 211.025 284.322 211.312 284.48 211.506C284.639 211.693 284.908 211.787 285.289 211.787C285.477 211.787 285.734 211.752 286.062 211.682V213C285.635 213.117 285.219 213.176 284.814 213.176C284.088 213.176 283.54 212.956 283.171 212.517C282.802 212.077 282.617 211.453 282.617 210.645V204.747H280.886V203.49H282.617V201.188H284.243ZM290.132 201.188V203.49H291.907V204.747H290.132V210.645C290.132 211.025 290.211 211.312 290.369 211.506C290.527 211.693 290.797 211.787 291.178 211.787C291.365 211.787 291.623 211.752 291.951 211.682V213C291.523 213.117 291.107 213.176 290.703 213.176C289.977 213.176 289.429 212.956 289.06 212.517C288.69 212.077 288.506 211.453 288.506 210.645V204.747H286.774V203.49H288.506V201.188H290.132ZM295.581 213H293.955V203.49H295.581V213ZM293.823 200.968C293.823 200.704 293.902 200.481 294.061 200.3C294.225 200.118 294.465 200.027 294.781 200.027C295.098 200.027 295.338 200.118 295.502 200.3C295.666 200.481 295.748 200.704 295.748 200.968C295.748 201.231 295.666 201.451 295.502 201.627C295.338 201.803 295.098 201.891 294.781 201.891C294.465 201.891 294.225 201.803 294.061 201.627C293.902 201.451 293.823 201.231 293.823 200.968ZM299.729 203.49L299.782 204.686C300.509 203.771 301.458 203.314 302.63 203.314C304.64 203.314 305.653 204.448 305.671 206.716V213H304.045V206.707C304.039 206.021 303.881 205.515 303.57 205.187C303.266 204.858 302.788 204.694 302.138 204.694C301.61 204.694 301.147 204.835 300.749 205.116C300.351 205.397 300.04 205.767 299.817 206.224V213H298.191V203.49H299.729ZM307.736 208.166C307.736 206.684 308.079 205.506 308.765 204.633C309.45 203.754 310.358 203.314 311.489 203.314C312.649 203.314 313.555 203.725 314.205 204.545L314.284 203.49H315.77V212.771C315.77 214.002 315.403 214.972 314.671 215.681C313.944 216.39 312.966 216.744 311.735 216.744C311.05 216.744 310.379 216.598 309.723 216.305C309.066 216.012 308.565 215.61 308.22 215.101L309.063 214.125C309.761 214.986 310.613 215.417 311.621 215.417C312.412 215.417 313.027 215.194 313.467 214.749C313.912 214.304 314.135 213.677 314.135 212.868V212.051C313.484 212.801 312.597 213.176 311.472 213.176C310.358 213.176 309.456 212.728 308.765 211.831C308.079 210.935 307.736 209.713 307.736 208.166ZM309.371 208.351C309.371 209.423 309.591 210.267 310.03 210.882C310.47 211.491 311.085 211.796 311.876 211.796C312.901 211.796 313.654 211.33 314.135 210.398V206.057C313.637 205.148 312.89 204.694 311.894 204.694C311.103 204.694 310.484 205.002 310.039 205.617C309.594 206.232 309.371 207.144 309.371 208.351ZM25.9971 234H24.3711V224.49H25.9971V234ZM24.2393 221.968C24.2393 221.704 24.3184 221.481 24.4766 221.3C24.6406 221.118 24.8809 221.027 25.1973 221.027C25.5137 221.027 25.7539 221.118 25.918 221.3C26.082 221.481 26.1641 221.704 26.1641 221.968C26.1641 222.231 26.082 222.451 25.918 222.627C25.7539 222.803 25.5137 222.891 25.1973 222.891C24.8809 222.891 24.6406 222.803 24.4766 222.627C24.3184 222.451 24.2393 222.231 24.2393 221.968ZM30.1455 224.49L30.1982 225.686C30.9248 224.771 31.874 224.314 33.0459 224.314C35.0557 224.314 36.0693 225.448 36.0869 227.716V234H34.4609V227.707C34.4551 227.021 34.2969 226.515 33.9863 226.187C33.6816 225.858 33.2041 225.694 32.5537 225.694C32.0264 225.694 31.5635 225.835 31.165 226.116C30.7666 226.397 30.4561 226.767 30.2334 227.224V234H28.6074V224.49H30.1455ZM38.1436 229.166C38.1436 227.707 38.4893 226.535 39.1807 225.65C39.8721 224.76 40.7773 224.314 41.8965 224.314C43.0098 224.314 43.8916 224.695 44.542 225.457V220.5H46.168V234H44.6738L44.5947 232.98C43.9443 233.777 43.0391 234.176 41.8789 234.176C40.7773 234.176 39.8779 233.725 39.1807 232.822C38.4893 231.92 38.1436 230.742 38.1436 229.289V229.166ZM39.7695 229.351C39.7695 230.429 39.9922 231.272 40.4375 231.882C40.8828 232.491 41.498 232.796 42.2832 232.796C43.3145 232.796 44.0674 232.333 44.542 231.407V227.039C44.0557 226.143 43.3086 225.694 42.3008 225.694C41.5039 225.694 40.8828 226.002 40.4375 226.617C39.9922 227.232 39.7695 228.144 39.7695 229.351ZM54.5703 233.06C53.9375 233.804 53.0088 234.176 51.7842 234.176C50.7705 234.176 49.9971 233.883 49.4639 233.297C48.9365 232.705 48.6699 231.832 48.6641 230.678V224.49H50.29V230.634C50.29 232.075 50.876 232.796 52.0479 232.796C53.29 232.796 54.1162 232.333 54.5264 231.407V224.49H56.1523V234H54.6055L54.5703 233.06ZM64.168 231.478C64.168 231.038 64.001 230.698 63.667 230.458C63.3389 230.212 62.7617 230.001 61.9355 229.825C61.1152 229.649 60.4619 229.438 59.9756 229.192C59.4951 228.946 59.1377 228.653 58.9033 228.313C58.6748 227.974 58.5605 227.569 58.5605 227.101C58.5605 226.321 58.8887 225.662 59.5449 225.123C60.207 224.584 61.0508 224.314 62.0762 224.314C63.1543 224.314 64.0273 224.593 64.6953 225.149C65.3691 225.706 65.7061 226.418 65.7061 227.285H64.0713C64.0713 226.84 63.8809 226.456 63.5 226.134C63.125 225.812 62.6504 225.65 62.0762 225.65C61.4844 225.65 61.0215 225.779 60.6875 226.037C60.3535 226.295 60.1865 226.632 60.1865 227.048C60.1865 227.44 60.3418 227.736 60.6523 227.936C60.9629 228.135 61.5225 228.325 62.3311 228.507C63.1455 228.688 63.8047 228.905 64.3086 229.157C64.8125 229.409 65.1846 229.714 65.4248 230.071C65.6709 230.423 65.7939 230.854 65.7939 231.363C65.7939 232.213 65.4541 232.896 64.7744 233.411C64.0947 233.921 63.2129 234.176 62.1289 234.176C61.3672 234.176 60.6934 234.041 60.1074 233.771C59.5215 233.502 59.0615 233.127 58.7275 232.646C58.3994 232.16 58.2354 231.636 58.2354 231.073H59.8613C59.8906 231.618 60.1074 232.052 60.5117 232.374C60.9219 232.69 61.4609 232.849 62.1289 232.849C62.7441 232.849 63.2363 232.726 63.6055 232.479C63.9805 232.228 64.168 231.894 64.168 231.478ZM70.1182 222.188V224.49H71.8936V225.747H70.1182V231.645C70.1182 232.025 70.1973 232.312 70.3555 232.506C70.5137 232.693 70.7832 232.787 71.1641 232.787C71.3516 232.787 71.6094 232.752 71.9375 232.682V234C71.5098 234.117 71.0938 234.176 70.6895 234.176C69.9629 234.176 69.415 233.956 69.0459 233.517C68.6768 233.077 68.4922 232.453 68.4922 231.645V225.747H66.7607V224.49H68.4922V222.188H70.1182ZM78.3975 225.949C78.1514 225.908 77.8848 225.888 77.5977 225.888C76.5312 225.888 75.8076 226.342 75.4268 227.25V234H73.8008V224.49H75.3828L75.4092 225.589C75.9424 224.739 76.6982 224.314 77.6768 224.314C77.9932 224.314 78.2334 224.355 78.3975 224.438V225.949ZM83.1699 231.618L85.3848 224.49H87.125L83.3018 235.468C82.71 237.05 81.7695 237.841 80.4805 237.841L80.1729 237.814L79.5664 237.7V236.382L80.0059 236.417C80.5566 236.417 80.9844 236.306 81.2891 236.083C81.5996 235.86 81.8545 235.453 82.0537 234.861L82.4141 233.895L79.0215 224.49H80.7969L83.1699 231.618ZM87.6699 233.147C87.6699 232.866 87.752 232.632 87.916 232.444C88.0859 232.257 88.3379 232.163 88.6719 232.163C89.0059 232.163 89.2578 232.257 89.4277 232.444C89.6035 232.632 89.6914 232.866 89.6914 233.147C89.6914 233.417 89.6035 233.643 89.4277 233.824C89.2578 234.006 89.0059 234.097 88.6719 234.097C88.3379 234.097 88.0859 234.006 87.916 233.824C87.752 233.643 87.6699 233.417 87.6699 233.147ZM98.7969 232.62H104.861V234H97.1006V221.203H98.7969V232.62ZM106.101 229.157C106.101 228.226 106.282 227.388 106.646 226.644C107.015 225.899 107.524 225.325 108.175 224.921C108.831 224.517 109.578 224.314 110.416 224.314C111.711 224.314 112.757 224.763 113.554 225.659C114.356 226.556 114.758 227.748 114.758 229.236V229.351C114.758 230.276 114.579 231.108 114.222 231.847C113.87 232.579 113.363 233.15 112.701 233.561C112.045 233.971 111.289 234.176 110.434 234.176C109.145 234.176 108.099 233.728 107.296 232.831C106.499 231.935 106.101 230.748 106.101 229.271V229.157ZM107.735 229.351C107.735 230.405 107.979 231.252 108.465 231.891C108.957 232.529 109.613 232.849 110.434 232.849C111.26 232.849 111.916 232.526 112.402 231.882C112.889 231.231 113.132 230.323 113.132 229.157C113.132 228.114 112.883 227.271 112.385 226.626C111.893 225.976 111.236 225.65 110.416 225.65C109.613 225.65 108.966 225.97 108.474 226.608C107.981 227.247 107.735 228.161 107.735 229.351ZM121.394 225.949C121.147 225.908 120.881 225.888 120.594 225.888C119.527 225.888 118.804 226.342 118.423 227.25V234H116.797V224.49H118.379L118.405 225.589C118.938 224.739 119.694 224.314 120.673 224.314C120.989 224.314 121.229 224.355 121.394 224.438V225.949ZM126.667 234.176C125.378 234.176 124.329 233.754 123.521 232.91C122.712 232.061 122.308 230.927 122.308 229.509V229.21C122.308 228.267 122.486 227.426 122.844 226.688C123.207 225.943 123.711 225.363 124.355 224.947C125.006 224.525 125.709 224.314 126.465 224.314C127.701 224.314 128.662 224.722 129.348 225.536C130.033 226.351 130.376 227.517 130.376 229.034V229.711H123.934C123.957 230.648 124.229 231.407 124.751 231.987C125.278 232.562 125.946 232.849 126.755 232.849C127.329 232.849 127.815 232.731 128.214 232.497C128.612 232.263 128.961 231.952 129.26 231.565L130.253 232.339C129.456 233.563 128.261 234.176 126.667 234.176ZM126.465 225.65C125.809 225.65 125.258 225.891 124.812 226.371C124.367 226.846 124.092 227.514 123.986 228.375H128.75V228.252C128.703 227.426 128.48 226.787 128.082 226.336C127.684 225.879 127.145 225.65 126.465 225.65ZM133.795 224.49L133.839 225.545C134.536 224.725 135.477 224.314 136.66 224.314C137.99 224.314 138.896 224.824 139.376 225.844C139.692 225.387 140.103 225.018 140.606 224.736C141.116 224.455 141.717 224.314 142.408 224.314C144.494 224.314 145.555 225.419 145.59 227.628V234H143.964V227.725C143.964 227.045 143.809 226.538 143.498 226.204C143.188 225.864 142.666 225.694 141.934 225.694C141.33 225.694 140.829 225.876 140.431 226.239C140.032 226.597 139.801 227.08 139.736 227.689V234H138.102V227.769C138.102 226.386 137.425 225.694 136.071 225.694C135.005 225.694 134.275 226.148 133.883 227.057V234H132.257V224.49H133.795ZM154.581 234H152.894V221.203H154.581V234ZM165.453 229.351C165.453 230.798 165.122 231.964 164.46 232.849C163.798 233.733 162.901 234.176 161.771 234.176C160.616 234.176 159.708 233.81 159.046 233.077V237.656H157.42V224.49H158.905L158.984 225.545C159.646 224.725 160.566 224.314 161.744 224.314C162.887 224.314 163.789 224.745 164.451 225.606C165.119 226.468 165.453 227.666 165.453 229.201V229.351ZM163.827 229.166C163.827 228.094 163.599 227.247 163.142 226.626C162.685 226.005 162.058 225.694 161.261 225.694C160.276 225.694 159.538 226.131 159.046 227.004V231.548C159.532 232.415 160.276 232.849 161.278 232.849C162.058 232.849 162.676 232.541 163.133 231.926C163.596 231.305 163.827 230.385 163.827 229.166ZM173.064 231.478C173.064 231.038 172.897 230.698 172.563 230.458C172.235 230.212 171.658 230.001 170.832 229.825C170.012 229.649 169.358 229.438 168.872 229.192C168.392 228.946 168.034 228.653 167.8 228.313C167.571 227.974 167.457 227.569 167.457 227.101C167.457 226.321 167.785 225.662 168.441 225.123C169.104 224.584 169.947 224.314 170.973 224.314C172.051 224.314 172.924 224.593 173.592 225.149C174.266 225.706 174.603 226.418 174.603 227.285H172.968C172.968 226.84 172.777 226.456 172.396 226.134C172.021 225.812 171.547 225.65 170.973 225.65C170.381 225.65 169.918 225.779 169.584 226.037C169.25 226.295 169.083 226.632 169.083 227.048C169.083 227.44 169.238 227.736 169.549 227.936C169.859 228.135 170.419 228.325 171.228 228.507C172.042 228.688 172.701 228.905 173.205 229.157C173.709 229.409 174.081 229.714 174.321 230.071C174.567 230.423 174.69 230.854 174.69 231.363C174.69 232.213 174.351 232.896 173.671 233.411C172.991 233.921 172.109 234.176 171.025 234.176C170.264 234.176 169.59 234.041 169.004 233.771C168.418 233.502 167.958 233.127 167.624 232.646C167.296 232.16 167.132 231.636 167.132 231.073H168.758C168.787 231.618 169.004 232.052 169.408 232.374C169.818 232.69 170.357 232.849 171.025 232.849C171.641 232.849 172.133 232.726 172.502 232.479C172.877 232.228 173.064 231.894 173.064 231.478ZM182.68 233.06C182.047 233.804 181.118 234.176 179.894 234.176C178.88 234.176 178.106 233.883 177.573 233.297C177.046 232.705 176.779 231.832 176.773 230.678V224.49H178.399V230.634C178.399 232.075 178.985 232.796 180.157 232.796C181.399 232.796 182.226 232.333 182.636 231.407V224.49H184.262V234H182.715L182.68 233.06ZM188.27 224.49L188.313 225.545C189.011 224.725 189.951 224.314 191.135 224.314C192.465 224.314 193.37 224.824 193.851 225.844C194.167 225.387 194.577 225.018 195.081 224.736C195.591 224.455 196.191 224.314 196.883 224.314C198.969 224.314 200.029 225.419 200.064 227.628V234H198.438V227.725C198.438 227.045 198.283 226.538 197.973 226.204C197.662 225.864 197.141 225.694 196.408 225.694C195.805 225.694 195.304 225.876 194.905 226.239C194.507 226.597 194.275 227.08 194.211 227.689V234H192.576V227.769C192.576 226.386 191.899 225.694 190.546 225.694C189.479 225.694 188.75 226.148 188.357 227.057V234H186.731V224.49H188.27ZM208.616 225.642C209.337 224.757 210.274 224.314 211.429 224.314C213.438 224.314 214.452 225.448 214.47 227.716V234H212.844V227.707C212.838 227.021 212.68 226.515 212.369 226.187C212.064 225.858 211.587 225.694 210.937 225.694C210.409 225.694 209.946 225.835 209.548 226.116C209.149 226.397 208.839 226.767 208.616 227.224V234H206.99V220.5H208.616V225.642ZM222.775 234C222.682 233.812 222.605 233.479 222.547 232.998C221.791 233.783 220.889 234.176 219.84 234.176C218.902 234.176 218.132 233.912 217.528 233.385C216.931 232.852 216.632 232.178 216.632 231.363C216.632 230.373 217.007 229.605 217.757 229.061C218.513 228.51 219.573 228.234 220.938 228.234H222.521V227.487C222.521 226.919 222.351 226.468 222.011 226.134C221.671 225.794 221.17 225.624 220.508 225.624C219.928 225.624 219.441 225.771 219.049 226.063C218.656 226.356 218.46 226.711 218.46 227.127H216.825C216.825 226.652 216.992 226.195 217.326 225.756C217.666 225.311 218.123 224.959 218.697 224.701C219.277 224.443 219.913 224.314 220.604 224.314C221.7 224.314 222.559 224.59 223.18 225.141C223.801 225.686 224.123 226.438 224.146 227.399V231.776C224.146 232.649 224.258 233.344 224.48 233.859V234H222.775ZM220.077 232.761C220.587 232.761 221.07 232.629 221.527 232.365C221.984 232.102 222.315 231.759 222.521 231.337V229.386H221.246C219.254 229.386 218.258 229.969 218.258 231.135C218.258 231.645 218.428 232.043 218.768 232.33C219.107 232.617 219.544 232.761 220.077 232.761ZM232.232 231.478C232.232 231.038 232.065 230.698 231.731 230.458C231.403 230.212 230.826 230.001 230 229.825C229.18 229.649 228.526 229.438 228.04 229.192C227.56 228.946 227.202 228.653 226.968 228.313C226.739 227.974 226.625 227.569 226.625 227.101C226.625 226.321 226.953 225.662 227.609 225.123C228.271 224.584 229.115 224.314 230.141 224.314C231.219 224.314 232.092 224.593 232.76 225.149C233.434 225.706 233.771 226.418 233.771 227.285H232.136C232.136 226.84 231.945 226.456 231.564 226.134C231.189 225.812 230.715 225.65 230.141 225.65C229.549 225.65 229.086 225.779 228.752 226.037C228.418 226.295 228.251 226.632 228.251 227.048C228.251 227.44 228.406 227.736 228.717 227.936C229.027 228.135 229.587 228.325 230.396 228.507C231.21 228.688 231.869 228.905 232.373 229.157C232.877 229.409 233.249 229.714 233.489 230.071C233.735 230.423 233.858 230.854 233.858 231.363C233.858 232.213 233.519 232.896 232.839 233.411C232.159 233.921 231.277 234.176 230.193 234.176C229.432 234.176 228.758 234.041 228.172 233.771C227.586 233.502 227.126 233.127 226.792 232.646C226.464 232.16 226.3 231.636 226.3 231.073H227.926C227.955 231.618 228.172 232.052 228.576 232.374C228.986 232.69 229.525 232.849 230.193 232.849C230.809 232.849 231.301 232.726 231.67 232.479C232.045 232.228 232.232 231.894 232.232 231.478ZM248.492 229.351C248.492 230.804 248.158 231.973 247.49 232.857C246.822 233.736 245.926 234.176 244.801 234.176C243.6 234.176 242.671 233.751 242.015 232.901L241.936 234H240.441V220.5H242.067V225.536C242.724 224.722 243.629 224.314 244.783 224.314C245.938 224.314 246.843 224.751 247.499 225.624C248.161 226.497 248.492 227.692 248.492 229.21V229.351ZM246.866 229.166C246.866 228.059 246.652 227.203 246.225 226.6C245.797 225.996 245.182 225.694 244.379 225.694C243.307 225.694 242.536 226.192 242.067 227.188V231.302C242.565 232.298 243.342 232.796 244.396 232.796C245.176 232.796 245.782 232.494 246.216 231.891C246.649 231.287 246.866 230.379 246.866 229.166ZM254.495 234.176C253.206 234.176 252.157 233.754 251.349 232.91C250.54 232.061 250.136 230.927 250.136 229.509V229.21C250.136 228.267 250.314 227.426 250.672 226.688C251.035 225.943 251.539 225.363 252.184 224.947C252.834 224.525 253.537 224.314 254.293 224.314C255.529 224.314 256.49 224.722 257.176 225.536C257.861 226.351 258.204 227.517 258.204 229.034V229.711H251.762C251.785 230.648 252.058 231.407 252.579 231.987C253.106 232.562 253.774 232.849 254.583 232.849C255.157 232.849 255.644 232.731 256.042 232.497C256.44 232.263 256.789 231.952 257.088 231.565L258.081 232.339C257.284 233.563 256.089 234.176 254.495 234.176ZM254.293 225.65C253.637 225.65 253.086 225.891 252.641 226.371C252.195 226.846 251.92 227.514 251.814 228.375H256.578V228.252C256.531 227.426 256.309 226.787 255.91 226.336C255.512 225.879 254.973 225.65 254.293 225.65ZM264.04 234.176C262.751 234.176 261.702 233.754 260.894 232.91C260.085 232.061 259.681 230.927 259.681 229.509V229.21C259.681 228.267 259.859 227.426 260.217 226.688C260.58 225.943 261.084 225.363 261.729 224.947C262.379 224.525 263.082 224.314 263.838 224.314C265.074 224.314 266.035 224.722 266.721 225.536C267.406 226.351 267.749 227.517 267.749 229.034V229.711H261.307C261.33 230.648 261.603 231.407 262.124 231.987C262.651 232.562 263.319 232.849 264.128 232.849C264.702 232.849 265.188 232.731 265.587 232.497C265.985 232.263 266.334 231.952 266.633 231.565L267.626 232.339C266.829 233.563 265.634 234.176 264.04 234.176ZM263.838 225.65C263.182 225.65 262.631 225.891 262.186 226.371C261.74 226.846 261.465 227.514 261.359 228.375H266.123V228.252C266.076 227.426 265.854 226.787 265.455 226.336C265.057 225.879 264.518 225.65 263.838 225.65ZM271.177 224.49L271.229 225.686C271.956 224.771 272.905 224.314 274.077 224.314C276.087 224.314 277.101 225.448 277.118 227.716V234H275.492V227.707C275.486 227.021 275.328 226.515 275.018 226.187C274.713 225.858 274.235 225.694 273.585 225.694C273.058 225.694 272.595 225.835 272.196 226.116C271.798 226.397 271.487 226.767 271.265 227.224V234H269.639V224.49H271.177ZM286.241 222.188V224.49H288.017V225.747H286.241V231.645C286.241 232.025 286.32 232.312 286.479 232.506C286.637 232.693 286.906 232.787 287.287 232.787C287.475 232.787 287.732 232.752 288.061 232.682V234C287.633 234.117 287.217 234.176 286.812 234.176C286.086 234.176 285.538 233.956 285.169 233.517C284.8 233.077 284.615 232.453 284.615 231.645V225.747H282.884V224.49H284.615V222.188H286.241ZM291.55 225.642C292.271 224.757 293.208 224.314 294.362 224.314C296.372 224.314 297.386 225.448 297.403 227.716V234H295.777V227.707C295.771 227.021 295.613 226.515 295.303 226.187C294.998 225.858 294.521 225.694 293.87 225.694C293.343 225.694 292.88 225.835 292.481 226.116C292.083 226.397 291.772 226.767 291.55 227.224V234H289.924V220.5H291.55V225.642ZM303.784 234.176C302.495 234.176 301.446 233.754 300.638 232.91C299.829 232.061 299.425 230.927 299.425 229.509V229.21C299.425 228.267 299.604 227.426 299.961 226.688C300.324 225.943 300.828 225.363 301.473 224.947C302.123 224.525 302.826 224.314 303.582 224.314C304.818 224.314 305.779 224.722 306.465 225.536C307.15 226.351 307.493 227.517 307.493 229.034V229.711H301.051C301.074 230.648 301.347 231.407 301.868 231.987C302.396 232.562 303.063 232.849 303.872 232.849C304.446 232.849 304.933 232.731 305.331 232.497C305.729 232.263 306.078 231.952 306.377 231.565L307.37 232.339C306.573 233.563 305.378 234.176 303.784 234.176ZM303.582 225.65C302.926 225.65 302.375 225.891 301.93 226.371C301.484 226.846 301.209 227.514 301.104 228.375H305.867V228.252C305.82 227.426 305.598 226.787 305.199 226.336C304.801 225.879 304.262 225.65 303.582 225.65Z" fill="white"/>
<path d="M26.1992 149.99V155H23.2695V140.781H28.8164C29.8841 140.781 30.8216 140.977 31.6289 141.367C32.4427 141.758 33.0677 142.314 33.5039 143.037C33.9401 143.753 34.1582 144.57 34.1582 145.488C34.1582 146.882 33.6797 147.982 32.7227 148.789C31.7721 149.59 30.4538 149.99 28.7676 149.99H26.1992ZM26.1992 147.617H28.8164C29.5911 147.617 30.1803 147.435 30.584 147.07C30.9941 146.706 31.1992 146.185 31.1992 145.508C31.1992 144.811 30.9941 144.248 30.584 143.818C30.1738 143.389 29.6074 143.167 28.8848 143.154H26.1992V147.617ZM40.7207 155.195C39.1712 155.195 37.9082 154.72 36.9316 153.77C35.9616 152.819 35.4766 151.553 35.4766 149.971V149.697C35.4766 148.636 35.6816 147.689 36.0918 146.855C36.502 146.016 37.0814 145.371 37.8301 144.922C38.5853 144.466 39.4447 144.238 40.4082 144.238C41.8535 144.238 42.9896 144.694 43.8164 145.605C44.6497 146.517 45.0664 147.809 45.0664 149.482V150.635H38.3379C38.429 151.325 38.7025 151.878 39.1582 152.295C39.6204 152.712 40.2031 152.92 40.9062 152.92C41.9935 152.92 42.8431 152.526 43.4551 151.738L44.8418 153.291C44.4186 153.89 43.8457 154.359 43.123 154.697C42.4004 155.029 41.5996 155.195 40.7207 155.195ZM40.3984 146.523C39.8385 146.523 39.3828 146.712 39.0312 147.09C38.6862 147.467 38.4648 148.008 38.3672 148.711H42.293V148.486C42.2799 147.861 42.1107 147.38 41.7852 147.041C41.4596 146.696 40.9974 146.523 40.3984 146.523ZM49.2754 144.434L49.3633 145.654C50.1185 144.71 51.1309 144.238 52.4004 144.238C53.5202 144.238 54.3535 144.567 54.9004 145.225C55.4473 145.882 55.7272 146.865 55.7402 148.174V155H52.918V148.242C52.918 147.643 52.7878 147.21 52.5273 146.943C52.2669 146.67 51.834 146.533 51.2285 146.533C50.4342 146.533 49.8385 146.872 49.4414 147.549V155H46.6191V144.434H49.2754ZM57.4785 149.639C57.4785 148.018 57.8626 146.712 58.6309 145.723C59.4056 144.733 60.4473 144.238 61.7559 144.238C62.9147 144.238 63.8164 144.635 64.4609 145.43L64.5781 144.434H67.1367V154.648C67.1367 155.573 66.9251 156.377 66.502 157.061C66.0853 157.744 65.4961 158.265 64.7344 158.623C63.9727 158.981 63.0807 159.16 62.0586 159.16C61.2839 159.16 60.5286 159.004 59.793 158.691C59.0573 158.385 58.5007 157.988 58.123 157.5L59.373 155.781C60.0762 156.569 60.929 156.963 61.9316 156.963C62.6803 156.963 63.263 156.761 63.6797 156.357C64.0964 155.96 64.3047 155.394 64.3047 154.658V154.092C63.6536 154.827 62.7975 155.195 61.7363 155.195C60.4668 155.195 59.4382 154.701 58.6504 153.711C57.8691 152.715 57.4785 151.396 57.4785 149.756V149.639ZM60.3008 149.844C60.3008 150.801 60.4928 151.553 60.877 152.1C61.2611 152.64 61.7884 152.91 62.459 152.91C63.3184 152.91 63.9336 152.588 64.3047 151.943V147.5C63.9271 146.855 63.3184 146.533 62.4785 146.533C61.8014 146.533 61.2676 146.81 60.877 147.363C60.4928 147.917 60.3008 148.743 60.3008 149.844ZM75.6426 153.926C74.946 154.772 73.9824 155.195 72.752 155.195C71.6191 155.195 70.7533 154.87 70.1543 154.219C69.5618 153.568 69.2591 152.614 69.2461 151.357V144.434H72.0684V151.26C72.0684 152.36 72.5697 152.91 73.5723 152.91C74.5293 152.91 75.1868 152.578 75.5449 151.914V144.434H78.377V155H75.7207L75.6426 153.926ZM83.1523 144.434L83.2402 145.615C83.9889 144.697 85.0013 144.238 86.2773 144.238C87.638 144.238 88.5723 144.775 89.0801 145.85C89.8223 144.775 90.8802 144.238 92.2539 144.238C93.3997 144.238 94.2526 144.574 94.8125 145.244C95.3724 145.908 95.6523 146.911 95.6523 148.252V155H92.8203V148.262C92.8203 147.663 92.7031 147.227 92.4688 146.953C92.2344 146.673 91.821 146.533 91.2285 146.533C90.3822 146.533 89.7962 146.937 89.4707 147.744L89.4805 155H86.6582V148.271C86.6582 147.66 86.5378 147.217 86.2969 146.943C86.056 146.67 85.6458 146.533 85.0664 146.533C84.2656 146.533 83.6862 146.865 83.3281 147.529V155H80.5059V144.434H83.1523ZM104.158 153.926C103.462 154.772 102.498 155.195 101.268 155.195C100.135 155.195 99.2689 154.87 98.6699 154.219C98.0775 153.568 97.7747 152.614 97.7617 151.357V144.434H100.584V151.26C100.584 152.36 101.085 152.91 102.088 152.91C103.045 152.91 103.702 152.578 104.061 151.914V144.434H106.893V155H104.236L104.158 153.926ZM111.668 144.434L111.756 145.615C112.505 144.697 113.517 144.238 114.793 144.238C116.154 144.238 117.088 144.775 117.596 145.85C118.338 144.775 119.396 144.238 120.77 144.238C121.915 144.238 122.768 144.574 123.328 145.244C123.888 145.908 124.168 146.911 124.168 148.252V155H121.336V148.262C121.336 147.663 121.219 147.227 120.984 146.953C120.75 146.673 120.337 146.533 119.744 146.533C118.898 146.533 118.312 146.937 117.986 147.744L117.996 155H115.174V148.271C115.174 147.66 115.053 147.217 114.812 146.943C114.572 146.67 114.161 146.533 113.582 146.533C112.781 146.533 112.202 146.865 111.844 147.529V155H109.021V144.434H111.668ZM132.469 155C132.339 154.746 132.244 154.43 132.186 154.053C131.502 154.814 130.613 155.195 129.52 155.195C128.484 155.195 127.625 154.896 126.941 154.297C126.264 153.698 125.926 152.943 125.926 152.031C125.926 150.911 126.339 150.052 127.166 149.453C127.999 148.854 129.201 148.551 130.77 148.545H132.068V147.939C132.068 147.451 131.941 147.061 131.688 146.768C131.44 146.475 131.046 146.328 130.506 146.328C130.031 146.328 129.656 146.442 129.383 146.67C129.116 146.898 128.982 147.21 128.982 147.607H126.16C126.16 146.995 126.349 146.429 126.727 145.908C127.104 145.387 127.638 144.98 128.328 144.688C129.018 144.388 129.793 144.238 130.652 144.238C131.954 144.238 132.986 144.567 133.748 145.225C134.516 145.876 134.9 146.794 134.9 147.979V152.559C134.907 153.561 135.047 154.32 135.32 154.834V155H132.469ZM130.135 153.037C130.551 153.037 130.936 152.946 131.287 152.764C131.639 152.575 131.899 152.324 132.068 152.012V150.195H131.014C129.601 150.195 128.849 150.684 128.758 151.66L128.748 151.826C128.748 152.178 128.872 152.467 129.119 152.695C129.367 152.923 129.705 153.037 130.135 153.037ZM139.666 144.434L139.754 145.654C140.509 144.71 141.521 144.238 142.791 144.238C143.911 144.238 144.744 144.567 145.291 145.225C145.838 145.882 146.118 146.865 146.131 148.174V155H143.309V148.242C143.309 147.643 143.178 147.21 142.918 146.943C142.658 146.67 142.225 146.533 141.619 146.533C140.825 146.533 140.229 146.872 139.832 147.549V155H137.01V144.434H139.666ZM156.131 150.635H153.787L153.455 140.781H156.463L156.131 150.635ZM154.959 152.178C155.434 152.178 155.815 152.318 156.102 152.598C156.395 152.878 156.541 153.236 156.541 153.672C156.541 154.102 156.395 154.456 156.102 154.736C155.815 155.016 155.434 155.156 154.959 155.156C154.49 155.156 154.109 155.016 153.816 154.736C153.53 154.456 153.387 154.102 153.387 153.672C153.387 153.242 153.53 152.887 153.816 152.607C154.109 152.321 154.49 152.178 154.959 152.178Z" fill="white"/>
<path d="M78.5791 451.84C79.2334 444.161 78.9662 440.33 78.5791 433.432C76.2298 434.934 75.069 435.069 73.2278 434.288C69.2026 448.058 68.2345 455.88 66.3782 469.82V474.743C71.0214 466.934 73.6728 462.111 78.5791 451.84Z" fill="#3E4851"/>
<path d="M77.2948 511.132C79.0742 512.171 80.0572 512.272 81.7898 511.774C78.6215 496.47 77.2026 485.587 77.2802 474.743C79.0382 464.705 78.8602 458.464 78.5791 450.77L66.3782 473.459C64.6985 486.848 67.2515 494.843 77.2948 511.132Z" fill="#50606D"/>
<path d="M63.8096 477.74C66.8063 474.101 70.9214 443.46 74.084 434.502C63.4278 433.941 59.3698 432.728 53.3211 430.007C49.9115 436.05 50.7057 449.901 53.3211 479.238C47.0852 488.985 47.0084 496.578 49.8963 511.132C50.8945 512.152 52.0368 511.774 54.3914 511.774C56.5901 495.376 60.8129 481.379 63.8096 477.74Z" fill="#50606D"/>
<path d="M49.8938 510.918C51.5 511.705 52.4748 511.86 54.3889 511.56C54.3628 513.158 55.2451 514.507 56.5294 514.557C59.8818 514.685 61.2385 516.483 61.4526 517.553C61.6666 518.624 47.9674 517.125 47.9674 517.125C48.2322 513.24 48.6264 512.972 49.8938 510.918Z" fill="#BB0C0C"/>
<path d="M77.2923 510.918C78.8984 511.705 79.8732 511.86 81.7873 511.56C81.7612 513.158 82.6435 514.507 83.9278 514.557C87.2803 514.685 88.6369 516.483 88.851 517.553C89.065 518.624 77.2923 517.553 77.2923 517.553C76 515.5 76.0249 512.972 77.2923 510.918Z" fill="#BB0C0C"/>
<path d="M85.4286 403.036C86.1421 402.608 87.6976 401.752 88.2113 401.752C85.8188 396.832 83.9297 395.269 78.472 397.043L68.7327 392.334C63.4707 390.71 61.3243 391.155 60.3847 396.829C60.1102 403.307 60.0412 407.133 60.3847 415.023C53.7096 422.506 51.6087 426.368 53.3211 430.221C61.9311 435.17 71.5153 436.642 78.579 433.86C79.7438 426.709 81.2856 421.486 83.1585 413.525C84.8938 410.388 85.5006 406.994 85.4286 403.036Z" fill="#EC2E2E"/>
<path d="M70.4451 425.94C65.4194 418.572 62.9201 412.678 60.3847 405.177C59.8376 407.255 59.7426 410.314 60.3847 414.595C59.5488 415.682 59.7223 415.863 58.8864 416.95C61.9505 421.137 64.2795 423.199 70.4451 425.94Z" fill="#AC0909"/>
<path d="M91.6361 429.793C72.1462 421.942 70.0956 414.102 68.0905 397.899C65.6561 396.535 61.4085 396.146 60.5988 398.969C63.2701 418.742 65.8417 430.021 91.6361 432.91C93.3101 434.467 94.0882 434.661 95.2553 434.661L94.2827 429.604L92.9594 429.698L91.6361 429.793Z" fill="#FCB47F"/>
<path d="M95.8389 428.631C93.9435 428.869 89.7484 422.261 83.3895 413.069C85.0938 408.957 85.273 407.12 85.4286 403.036C86.4054 402.245 86.9719 402.011 87.9972 401.752C90.0702 408.115 94.3341 422.259 97.9786 427.075L95.8389 428.631Z" fill="#F4AB77"/>
<path d="M102.927 428.859C102.743 428.009 99.7706 427.285 97.7841 426.88L95.0608 428.436C96.5058 431.66 97.4358 434.118 100.172 436.306C100.702 436.73 101.286 436.412 100.702 435.245C101.48 436.023 102.134 435.357 101.869 434.856C102.453 435.245 102.89 435.183 102.842 434.272C103.636 434.606 104.203 434.272 103.62 433.299C102.005 431.991 101.85 430.852 100.861 428.771C100.861 428.771 103.11 429.71 102.927 428.859Z" fill="#F4AB77"/>
<path d="M98.9513 428.631C98.1732 428.242 95.6444 428.631 93.8937 429.798L94.2828 434.661C97.7012 435.551 100.313 435.245 103.62 434.272C104.398 433.689 102.289 434.029 101.675 433.689C104.787 433.299 104.592 432.37 101.48 432.716C104.981 432.327 104.592 431.248 101.286 431.549C103.425 431.354 103.814 430.771 103.036 430.576C101.286 430.576 99.8323 430.718 97.5896 430.187C97.5896 430.187 99.7294 429.02 98.9513 428.631Z" fill="#FCB47F"/>
<path d="M79.6493 394.688C79.7382 392.355 80.1139 391.305 80.9336 389.551C84.2638 390.201 85.4262 388.587 86.4989 382.916C86.8385 379.742 86.4747 378.388 85.4286 376.28C82.9641 380.764 80.7195 381.845 77.5087 382.916C78.6665 382.466 79.1144 382.024 79.4352 380.775C77.6287 379.535 76.3474 379.729 75.1542 380.989C74.5927 382.67 74.7422 383.536 75.1542 385.056C74.5487 388.244 73.8997 389.753 72.1575 391.906L69.1608 392.334C69.0444 394.824 69.1904 396.267 70.017 398.969C74.0764 401.685 76.8928 402.215 82.2179 402.608C81.711 398.755 81.2351 396.887 79.6493 394.688Z" fill="#FBB078"/>
<path d="M86.2849 385.484C86.6229 381.57 86.6277 379.15 85.4287 376.922C82.9832 380.714 81.008 381.709 77.2948 383.13C78.2248 382.474 78.7931 381.845 78.7931 380.989C78.5791 379.919 76.8073 379.427 75.7964 380.775C75.1543 381.631 75.6688 382.631 75.1543 385.056C70.2311 382.702 69.2368 379.683 71.5154 373.926C61.9242 368.225 75.7928 358.286 77.2948 369.002C78.6615 368.214 79.8634 368.146 82.0039 369.43C89.7103 376.648 89.0224 379.908 86.2849 385.484Z" fill="#613B25"/>
<path d="M76.4385 386.126C77.499 387.91 78.2072 388.837 80.9336 389.551L79.8633 392.12C76.5309 389.924 76.5309 388.43 76.4385 386.126Z" fill="#E5995E"/>
<path d="M260.58 447.239H166.626C173.91 462.82 186.048 468.622 213.894 468.442C253.844 467.572 255.924 458.89 260.58 447.239Z" fill="#C4C4C4"/>
<path d="M265.443 443.2C265.443 449.513 242.19 454.631 213.505 454.631C184.821 454.631 161.568 449.513 161.568 443.2C161.568 436.887 184.821 438.467 213.505 438.467C242.19 438.467 265.443 436.887 265.443 443.2Z" fill="#ECE9E4"/>
<ellipse cx="213.894" cy="442.57" rx="51.5483" ry="7.39183" fill="#FBFEFA"/>
<ellipse cx="213.505" cy="442.376" rx="46.8798" ry="6.03018" fill="#00F6FD"/>
<path d="M244.045 446.072C244.045 448.65 229.216 448.406 214.284 448.406C199.351 448.406 186.856 448.65 186.856 446.072C186.856 443.493 189.821 440.598 214.284 439.069C232.958 437.902 244.045 443.493 244.045 446.072Z" fill="#13CCD1" fill-opacity="0.8"/>
<path d="M205.53 415.143C208.815 412.286 205.53 407.751 205.53 407.751C211.919 409.624 214.336 409.336 220.314 407.362C219.147 409.307 219.341 413.587 221.481 415.143C223.621 416.699 224.874 418.291 223.889 420.006H203.021C203.021 420.006 202.245 417.999 205.53 415.143Z" fill="#C4C4C4"/>
<path d="M204.071 439.929C207.356 435.69 205.424 430.51 205.424 430.51C211.812 433.29 215.29 433.439 221.268 430.51C221.167 434.687 220.495 436.161 223.007 439.929C225.519 443.696 225.263 445.862 224.278 448.406H203.41C203.41 448.406 200.786 444.167 204.071 439.929Z" fill="#C4C4C4"/>
<path d="M220.314 407.556H205.53C206.155 408.729 206.162 409.45 212.922 409.502C219.238 409.458 219.661 408.783 220.314 407.556Z" fill="#9F9898"/>
<path d="M244.434 393.94H181.798C186.654 404.23 194.747 408.062 213.311 407.943C239.944 407.368 241.331 401.634 244.434 393.94Z" fill="#C4C4C4"/>
<path d="M247.936 391.377C247.936 395.586 232.434 398.997 213.311 398.997C194.188 398.997 178.686 395.586 178.686 391.377C178.686 387.168 194.188 388.221 213.311 388.221C232.434 388.221 247.936 387.168 247.936 391.377Z" fill="#ECE9E4"/>
<ellipse cx="213.505" cy="390.828" rx="34.4304" ry="5.05757" fill="#FBFEFA"/>
<ellipse cx="213.311" cy="390.633" rx="31.1235" ry="4.08496" fill="#00F6FD" fill-opacity="0.8"/>
<path d="M203.196 433.102C195.998 433.039 195.609 419.617 203.196 419.617C210.782 419.617 215.062 419.553 222.648 419.553C230.234 419.553 230.818 433.039 222.648 433.039C214.478 433.039 210.393 433.166 203.196 433.102Z" fill="#ECE9E4"/>
<path d="M224.01 419.551C223.815 420.784 219.22 420.913 213.311 420.913C207.402 420.913 203.001 420.369 203.001 419.617C203.001 418.865 207.402 418.19 213.311 418.19C219.22 418.19 224.01 418.799 224.01 419.551Z" fill="#C4C4C4"/>
<ellipse cx="212.727" cy="388.104" rx="4.474" ry="1.55617" fill="#696969"/>
<path d="M210.063 383.825H215.392L216.423 388.882H209.031L210.063 383.825Z" fill="#696969"/>
<path d="M209.42 388.493H216.034V394.577C213.57 394.765 212.121 394.764 209.42 394.577L209.42 388.493Z" fill="#696969"/>
<ellipse cx="213.116" cy="391.995" rx="27.0385" ry="2.72331" fill="#13CCD1" fill-opacity="0.8"/>
<ellipse cx="212.533" cy="383.436" rx="3.89044" ry="1.55617" fill="#8D8D8D"/>
<path d="M211.073 382.89L210.957 381.545C210.725 369.715 209.884 369.984 209.884 369.984C206.865 367.699 205.109 372.931 206.312 387.057L201.552 387.326C201.552 387.326 200.739 374.689 201.784 369.984C202.829 365.279 204.724 363.877 210.393 364.956C211.526 363.568 213.744 362.688 213.744 362.688C213.744 362.688 212.625 364.606 212.466 366.318C219.898 362.688 222.22 367.295 222.917 372.135C223.613 376.975 221.059 387.326 221.059 387.326L218.156 387.057C220.455 369.385 215.332 366.751 214.905 370.522C214.478 374.293 214.73 377.556 214.478 382.89C213.736 383.32 211.968 383.354 211.073 382.89Z" fill="#00F6FD" fill-opacity="0.9"/>
<path d="M190.163 397.441C190.655 395.454 191.188 394.581 192.497 393.356C188.913 393.292 187.103 392.839 183.744 391.411C182.035 392.171 181.572 393.286 181.409 394.718L178.881 446.655L190.163 447.822V397.441Z" fill="#00F6FD" fill-opacity="0.8"/>
<path d="M244.434 390.438C241.648 393.037 234.887 393.851 223.815 394.329C225.267 395.204 227.316 395.39 227.9 398.308C228.484 401.226 235.681 424.869 228.678 448.406C241.517 448.406 248.519 446.461 248.519 446.072C249.659 422.795 248.842 410.416 244.434 390.438Z" fill="#00F6FD" fill-opacity="0.8"/>
<path d="M202.223 479.919H224.399C238.878 484.691 250.219 490.297 247.158 509.486C220.873 514.627 206.138 514.12 179.853 509.486C176.631 493.398 183.696 484.257 202.223 479.919Z" fill="#8C8989"/>
<path d="M240.257 447.239C239.766 431.69 238.357 399.744 238.21 396.663C239.64 396.44 240.278 396.254 241.322 395.885L240.257 447.239Z" fill="white" fill-opacity="0.3"/>
<path d="M186.18 397.83C185.689 413.379 184.28 445.325 184.133 448.406C185.563 448.629 186.201 448.816 187.245 449.184L186.18 397.83Z" fill="white" fill-opacity="0.3"/>
<path d="M244.332 399.776C243.786 414.39 242.653 444.343 242.489 447.239L246.38 446.655L244.332 399.776Z" fill="#99FBFE" fill-opacity="0.3"/>
<path d="M246.574 496.453C222.329 502.358 207.75 501.65 179.853 495.675C185.566 482.701 194.946 478.872 215.451 478.818C231.37 479.833 243.267 484.393 246.574 496.453Z" fill="#C1BFBB"/>
<path d="M203.33 475.457C206.742 472.388 204.735 468.636 204.735 468.636C211.371 470.649 214.984 470.757 221.194 468.636C221.088 471.661 220.391 472.729 223 475.457C225.609 478.186 224.594 479.964 224.204 480.914C223.815 481.864 204.557 483.225 202.728 480.914C202.728 480.914 199.918 478.527 203.33 475.457Z" fill="#ECE9E4"/>
<path d="M224.204 467.469H202.029C202.967 469.346 202.977 470.499 213.116 470.581C222.59 470.512 223.225 469.431 224.204 467.469Z" fill="#9F9898"/>
<path d="M246.963 509.291C221.585 514.546 206.785 514.237 179.659 509.357V518.306C208.642 518.306 220.508 517.916 246.963 516.36V509.291Z" fill="#5B5A5A"/>
<path d="M95.2554 517.333L89.6142 491.267C97.835 499.146 116.154 498.989 122.294 491.267L116.847 517.333C109.077 519.899 104.4 520.099 95.2554 517.333Z" fill="#147AD0"/>
<path d="M104.009 497.297C95.7728 496.768 93.2498 495.606 90.0032 493.018L95.2553 517.138C98.3158 518.669 100.163 519.04 103.62 519.084L104.009 497.297Z" fill="#1DA0E0"/>
<ellipse cx="105.954" cy="491.267" rx="16.5344" ry="6.03018" fill="#0A64B0"/>
<path d="M122.488 491.656C122.488 494.449 114.871 497.686 105.954 497.686C97.0373 497.686 89.6142 494.644 89.6142 491.851C89.6142 490.294 96.2592 487.96 105.176 487.96C114.093 487.96 122.488 490.489 122.488 491.656Z" fill="#6CEFF7"/>
<path d="M122.488 491.656C111.401 486.404 95.5837 487.327 89.6142 491.656C91.099 487.815 99.1458 486.404 106.343 486.404C113.54 486.404 122.683 489.516 122.488 491.656Z" fill="#1DA0E0"/>
<path d="M165.283 466.174C165.283 415.209 170.924 384.474 144.469 383.891L144 392.5C155.282 394.251 157.891 401.398 156.724 467.341L165.283 466.174Z" fill="#193256"/>
<path d="M142.727 518.305C141.753 516.34 140.931 516.005 139.217 516.089L141.249 514.427H180.036C182.075 515.311 182.461 516.189 182.067 518.305H142.727Z" fill="#2B468A"/>
<path d="M170.082 469.361V514.612H151.796V469.361C151.744 465.021 169.966 464.182 170.082 469.361Z" fill="#147AD0"/>
<path d="M213.772 493.908C218.421 500.923 220.574 505.26 222.952 514.307L221.882 514.317C219.809 505.5 217.733 501.369 213.138 494.792L213.772 493.908Z" fill="#6FCD5D"/>
<path d="M196.768 494.315C201.418 501.33 203.571 505.668 205.949 514.714L204.879 514.724C202.805 505.907 200.73 501.776 196.134 495.199L196.768 494.315Z" fill="#6FCD5D"/>
<path d="M258.171 518.378L190.672 518.378C192.281 512.32 207.685 514.45 211.538 515.208C215.391 515.967 217.959 515.208 217.959 515.208C237.169 508.473 247.455 508.496 258.171 518.378Z" fill="#6FCD5D"/>
<path d="M250.857 513.924C251.924 503.962 253.189 498.683 256.916 489.95H256.126C252.821 497.53 251.316 502.348 250.067 513.282L250.857 513.924Z" fill="#6FCD5D"/>
<path d="M251.286 508.525C250.119 510.014 245.453 509.664 243.964 508.497C242.476 507.33 241.277 504.986 242.444 503.497C243.611 502.009 246.269 502.144 247.758 503.311C249.246 504.478 251.946 507.683 251.286 508.525Z" fill="#6FCD5D"/>
<path d="M227.885 502.078C226.771 500.55 228.379 496.155 229.907 495.041C231.435 493.927 234.017 493.412 235.132 494.94C236.246 496.469 235.391 498.989 233.863 500.104C232.335 501.218 228.516 502.943 227.885 502.078Z" fill="#6FCD5D"/>
<path d="M216.196 497.91C214.913 496.962 215.096 493.019 216.044 491.736C216.992 490.453 218.94 489.386 220.223 490.334C221.506 491.282 221.456 493.527 220.507 494.81C219.559 496.093 216.922 498.447 216.196 497.91Z" fill="#6FCD5D"/>
<path d="M219.31 503.648C218.561 502.622 219.641 499.67 220.668 498.922C221.694 498.174 223.428 497.828 224.177 498.854C224.925 499.881 224.351 501.574 223.325 502.322C222.298 503.071 219.733 504.229 219.31 503.648Z" fill="#6FCD5D"/>
<path d="M202.186 505.789C201.437 504.762 202.517 501.811 203.544 501.063C204.57 500.314 206.304 499.968 207.053 500.995C207.801 502.021 207.227 503.714 206.201 504.463C205.174 505.211 202.609 506.369 202.186 505.789Z" fill="#6FCD5D"/>
<path d="M200.537 501.655C200.241 502.891 197.295 503.985 196.06 503.689C194.824 503.394 193.436 502.299 193.731 501.064C194.026 499.828 195.687 499.166 196.922 499.461C198.158 499.757 200.704 500.956 200.537 501.655Z" fill="#6FCD5D"/>
<path d="M216.271 499.547C216.103 498.571 213.866 497.573 212.89 497.741C211.915 497.909 210.78 498.691 210.948 499.667C211.115 500.643 212.374 501.241 213.35 501.073C214.326 500.905 216.366 500.099 216.271 499.547Z" fill="#6FCD5D"/>
<path d="M213.702 494.41C213.534 493.434 211.297 492.436 210.322 492.604C209.346 492.771 208.211 493.554 208.379 494.53C208.547 495.505 209.805 496.103 210.781 495.936C211.757 495.768 213.797 494.962 213.702 494.41Z" fill="#6FCD5D"/>
<path d="M261.521 484.042C260.758 484.958 258.381 486.307 257.469 485.547C256.558 484.787 257.456 482.207 258.219 481.29C258.983 480.374 260.341 480.248 261.252 481.007C262.164 481.767 262.284 483.126 261.521 484.042Z" fill="white"/>
<path d="M257.002 480.945C257.74 481.882 258.565 484.487 257.632 485.221C256.699 485.955 254.362 484.539 253.624 483.602C252.887 482.665 253.046 481.31 253.979 480.576C254.911 479.842 256.265 480.008 257.002 480.945Z" fill="white"/>
<path d="M259.663 488.843C258.567 488.374 256.593 486.484 257.06 485.392C257.526 484.301 260.256 484.422 261.353 484.891C262.449 485.36 262.96 486.625 262.493 487.716C262.027 488.807 260.759 489.312 259.663 488.843Z" fill="white"/>
<path d="M254.781 488.658C254.988 487.484 256.38 485.132 257.549 485.339C258.718 485.545 259.22 488.231 259.013 489.405C258.806 490.58 257.691 491.365 256.522 491.158C255.353 490.952 254.574 489.833 254.781 488.658Z" fill="white"/>
<path d="M253.687 484.082C254.871 483.941 257.524 484.594 257.665 485.773C257.805 486.951 255.379 488.209 254.195 488.35C253.011 488.491 251.937 487.65 251.797 486.471C251.656 485.293 252.503 484.223 253.687 484.082Z" fill="white"/>
<circle cx="257.212" cy="485.695" r="1.07445" fill="#FF0F0F"/>
<path d="M198.89 492.24C198.253 493.005 196.269 494.131 195.508 493.496C194.747 492.862 195.497 490.708 196.134 489.943C196.772 489.178 197.905 489.073 198.666 489.707C199.427 490.341 199.528 491.475 198.89 492.24Z" fill="white"/>
<path d="M195.119 489.655C195.734 490.437 196.423 492.612 195.644 493.224C194.865 493.837 192.914 492.655 192.299 491.873C191.683 491.09 191.816 489.959 192.594 489.347C193.373 488.735 194.503 488.872 195.119 489.655Z" fill="white"/>
<path d="M197.339 496.248C196.424 495.856 194.777 494.278 195.166 493.367C195.556 492.457 197.835 492.558 198.75 492.949C199.665 493.34 200.091 494.396 199.702 495.307C199.312 496.218 198.255 496.639 197.339 496.248Z" fill="white"/>
<path d="M193.264 496.094C193.437 495.113 194.599 493.15 195.575 493.322C196.55 493.495 196.97 495.737 196.797 496.717C196.624 497.697 195.693 498.353 194.717 498.18C193.742 498.008 193.091 497.074 193.264 496.094Z" fill="white"/>
<path d="M192.351 492.274C193.339 492.156 195.554 492.701 195.671 493.685C195.788 494.668 193.763 495.718 192.775 495.836C191.786 495.954 190.89 495.252 190.773 494.268C190.656 493.284 191.362 492.391 192.351 492.274Z" fill="white"/>
<circle cx="195.294" cy="493.62" r="0.896897" fill="#FF0F0F"/>
<path d="M228.662 512.212C227.278 501.813 226.308 496.037 222.454 486.312L223.097 485.883C226.37 493.355 230.518 510.73 230.16 512.212C229.944 513.108 229.304 512.568 228.662 512.212Z" fill="#6FCD5D"/>
<path d="M227.276 478.314C226.334 479.445 223.401 481.109 222.276 480.172C221.151 479.234 222.26 476.05 223.202 474.919C224.144 473.789 225.819 473.632 226.944 474.57C228.069 475.507 228.218 477.184 227.276 478.314Z" fill="white"/>
<path d="M221.7 474.493C222.61 475.649 223.628 478.864 222.477 479.769C221.326 480.675 218.441 478.928 217.532 477.771C216.622 476.615 216.817 474.943 217.969 474.038C219.12 473.132 220.79 473.336 221.7 474.493Z" fill="white"/>
<path d="M224.983 484.239C223.63 483.66 221.195 481.328 221.771 479.981C222.346 478.635 225.715 478.784 227.068 479.362C228.421 479.941 229.051 481.502 228.476 482.848C227.9 484.195 226.336 484.817 224.983 484.239Z" fill="white"/>
<path d="M218.959 484.011C219.214 482.562 220.932 479.66 222.374 479.915C223.817 480.169 224.437 483.484 224.181 484.933C223.926 486.382 222.549 487.35 221.107 487.096C219.665 486.841 218.703 485.46 218.959 484.011Z" fill="white"/>
<path d="M217.609 478.364C219.07 478.19 222.344 478.996 222.517 480.45C222.691 481.904 219.697 483.456 218.236 483.63C216.774 483.804 215.45 482.766 215.276 481.312C215.103 479.858 216.147 478.538 217.609 478.364Z" fill="white"/>
<circle cx="221.959" cy="480.354" r="1.32585" fill="#FF0F0F"/>
<path d="M143.598 518.494H116.754C119.059 512.889 122.115 512.143 130.847 515.269C138.626 512.692 141.347 513.491 143.598 518.494Z" fill="#6FCD5D"/>
<path d="M137.456 488.276C134.312 498.17 132.994 504.022 132.105 515.46L132.961 515.888C134.01 505.588 135.212 499.873 138.312 489.774L137.456 488.276Z" fill="#6FCD5D"/>
<path d="M118.647 494.697C121.249 502.367 122.34 506.904 123.076 515.77L122.367 516.102C121.499 508.117 120.505 503.687 117.939 495.859L118.647 494.697Z" fill="#6FCD5D"/>
<path d="M134.526 502.606C134.048 501.43 135.808 498.827 136.985 498.348C138.162 497.87 139.928 497.953 140.407 499.13C140.885 500.307 139.919 501.811 138.742 502.29C137.565 502.768 134.797 503.272 134.526 502.606Z" fill="#6FCD5D"/>
<path d="M121.255 507.316C120.776 506.139 122.537 503.536 123.714 503.057C124.891 502.579 126.657 502.663 127.135 503.839C127.613 505.016 126.648 506.52 125.471 506.999C124.294 507.477 121.525 507.982 121.255 507.316Z" fill="#6FCD5D"/>
<path d="M120.193 501.82C119.546 502.913 116.408 503.089 115.315 502.442C114.221 501.795 113.218 500.339 113.865 499.245C114.512 498.152 116.294 498.01 117.387 498.657C118.481 499.304 120.559 501.202 120.193 501.82Z" fill="#6FCD5D"/>
<path d="M136.29 494.559C134.969 495.692 130.82 494.536 129.687 493.214C128.554 491.893 127.894 489.561 129.216 488.427C130.537 487.294 132.912 487.896 134.046 489.217C135.179 490.539 137.038 493.918 136.29 494.559Z" fill="#6FCD5D"/>
<path d="M144.846 482.204C143.904 483.335 140.972 485 139.847 484.062C138.721 483.125 139.83 479.94 140.772 478.809C141.714 477.679 143.39 477.522 144.515 478.46C145.64 479.398 145.788 481.074 144.846 482.204Z" fill="white"/>
<path d="M139.27 478.383C140.18 479.54 141.198 482.754 140.047 483.66C138.896 484.565 136.012 482.818 135.102 481.662C134.192 480.505 134.388 478.833 135.539 477.928C136.69 477.023 138.361 477.226 139.27 478.383Z" fill="white"/>
<path d="M142.553 488.129C141.2 487.55 138.765 485.218 139.341 483.871C139.917 482.525 143.285 482.674 144.639 483.253C145.992 483.831 146.622 485.392 146.046 486.738C145.47 488.085 143.906 488.708 142.553 488.129Z" fill="white"/>
<path d="M136.529 487.901C136.785 486.452 138.502 483.55 139.945 483.805C141.387 484.059 142.007 487.374 141.752 488.823C141.496 490.272 140.119 491.241 138.677 490.986C137.235 490.732 136.273 489.351 136.529 487.901Z" fill="white"/>
<path d="M135.179 482.254C136.64 482.08 139.914 482.886 140.088 484.34C140.261 485.795 137.267 487.347 135.806 487.521C134.345 487.695 133.02 486.657 132.847 485.203C132.673 483.748 133.718 482.428 135.179 482.254Z" fill="white"/>
<circle cx="139.529" cy="484.244" r="1.32585" fill="#F8FD11"/>
<path d="M119.952 491.675C119.342 492.407 117.444 493.484 116.717 492.877C115.989 492.271 116.706 490.21 117.315 489.479C117.925 488.747 119.009 488.646 119.737 489.253C120.465 489.859 120.561 490.944 119.952 491.675Z" fill="white"/>
<path d="M116.344 489.203C116.932 489.951 117.591 492.031 116.846 492.617C116.101 493.203 114.235 492.073 113.646 491.324C113.058 490.576 113.184 489.494 113.929 488.908C114.674 488.323 115.755 488.454 116.344 489.203Z" fill="white"/>
<path d="M118.468 495.509C117.592 495.135 116.017 493.625 116.389 492.754C116.762 491.883 118.942 491.979 119.817 492.354C120.693 492.728 121.1 493.738 120.728 494.609C120.355 495.48 119.343 495.883 118.468 495.509Z" fill="white"/>
<path d="M114.57 495.362C114.735 494.424 115.847 492.546 116.78 492.711C117.713 492.876 118.115 495.02 117.949 495.958C117.784 496.896 116.893 497.522 115.96 497.358C115.027 497.193 114.404 496.299 114.57 495.362Z" fill="white"/>
<path d="M113.696 491.708C114.642 491.595 116.76 492.117 116.872 493.058C116.984 493.998 115.047 495.003 114.102 495.115C113.156 495.228 112.299 494.556 112.187 493.615C112.075 492.674 112.751 491.82 113.696 491.708Z" fill="white"/>
<circle cx="116.511" cy="492.995" r="0.857902" fill="#F8FD11"/>
<circle cx="101" cy="339" r="19" fill="url(#paint2_linear)"/>
<path d="M298.115 524.722C299.185 521.94 298.374 518.777 297.5 516C295.41 516.548 293.947 517.297 291.863 516.894C290.878 520.444 289.315 521.972 283.564 523.492C281.38 523.764 280.812 524.296 280.702 525.767C283.139 526.844 297.208 526.221 298.115 524.722Z" fill="black"/>
<path d="M274.386 523.858C275.457 521.076 274.354 518.559 273.48 515.783C271.39 516.331 270.219 516.433 268.135 516.03C267.008 519.975 265.421 521.57 259.835 522.628C257.652 522.9 257.084 523.432 256.974 524.903C259.411 525.98 273.48 525.357 274.386 523.858Z" fill="black"/>
<path d="M293.405 475.063C292.527 460.773 291.338 453.061 288.696 439.53C277.328 444.215 270.953 445.111 259.585 439.53C262.181 469.645 263.378 486.496 267.505 516.802C269.39 517.102 270.872 517.065 273.926 516.802C279.479 496.768 279.793 485.656 277.961 476.493C282.209 489.979 285.701 501.299 290.408 516.802C294.033 516.914 296.418 518.349 298.542 515.946C299.007 498.751 297.625 488.57 293.405 475.063Z" fill="#033056"/>
<path d="M278.85 488.762C273.499 482.768 272.769 470.98 269.86 452.801C273.292 460.689 274.447 464.861 279.064 481.056L278.85 488.762Z" fill="#001937"/>
<path d="M288.697 434.821C288.426 426.533 287.851 421.037 289.339 412.132C287.054 409.448 285.977 409.536 282.703 408.707V434.821H288.697Z" fill="#009AC1"/>
<path d="M228.334 411.49C229.703 412.557 230.575 413.162 232.615 414.272C231.779 415.359 232.039 415.968 232.615 417.055C230.234 417.603 228.816 417.695 225.98 417.055C225.362 416.875 225.23 416.635 225.337 415.985C224.557 415.782 224.486 415.577 224.695 415.129C224.149 414.706 224.081 414.524 224.267 414.272C223.172 413.914 223.099 413.671 223.411 413.202H228.334C227.294 411.773 227.152 411.295 228.334 411.49Z" fill="#F2B491"/>
<path d="M259.586 439.744V412.132C248.745 419.729 242.882 420.15 232.615 417.483C231.803 415.978 231.855 415.135 232.615 413.63C243.086 413.853 248.395 411.945 256.589 404.854C259.346 397.368 262.123 394.548 270.074 392.867C272.143 397.505 274.48 397.169 280.134 392.867C296.556 397.731 305.645 415.538 304.964 419.838C304.283 424.137 298.449 434.049 292.763 438.246C290.89 436.676 289.964 435.733 289.339 433.537C290.554 433.247 291.72 431.497 296.402 419.838C290.281 410.668 288.932 412.134 285.7 412.132C286.235 417.038 286.434 419.888 285.7 426.045C284.422 432.058 285.801 434.915 289.339 439.744C276.973 444.567 270.462 444.541 259.586 439.744Z" fill="#4CD9FD"/>
<path d="M289.125 434.179C288.458 432.324 287.195 432.612 286.984 432.681C286.776 432.748 287.356 433.864 287.619 434.465C287.369 434.022 282.993 433.929 282.703 434.483C282.41 435.044 282.703 435.339 282.703 435.339C282.666 435.876 282.847 436.109 283.559 436.409C283.28 436.791 283.43 436.977 284.201 437.265C283.615 437.541 283.641 437.723 284.63 438.121C286.907 438.781 290.195 438.46 292.121 437.604C291.32 436.298 289.457 433.365 289.125 434.179Z" fill="#F2B491"/>
<path d="M259.586 416.627V410.848C254.534 415.718 250.521 417.336 241.819 418.767C248.502 420.366 252.318 420.603 259.586 416.627Z" fill="#009AC1"/>
<path d="M270.074 392.867C271.938 397.753 274.686 397.316 280.134 392.867C278.972 390.592 277.622 389.055 279.064 386.446L278.422 383.877C279.664 380.889 278.936 380.452 276.496 380.666C276.239 376.424 274.5 375.393 270.074 374.673C267.074 377.467 266.239 385.78 267.934 387.516C269.628 389.253 270.074 388.586 270.074 388.586C270.206 390.085 270.191 391.043 270.074 392.867Z" fill="#FCB184"/>
<path d="M275.425 381.309C276.797 380.848 277.566 380.666 278.422 381.095C279.278 381.523 278.636 382.593 278.422 383.021C278.208 383.449 277.04 386.41 278.636 387.73C281.794 386.072 282.484 383.581 284.186 379.665C285.879 372.884 282.575 371.034 274.655 369.964C270.57 369.412 266.662 367.903 265.318 369.964C264.675 371.462 266.863 376.599 269.646 376.599C274.528 376.122 275.495 377.259 275.425 381.309Z" fill="black"/>
<path d="M271.939 386.141C269.264 387.126 267.594 385.719 268.086 384C269.21 385.158 270.044 385.633 271.939 386.141Z" fill="white"/>
<path d="M132.149 392.608L139 392.5V384C130.834 384.618 128.583 382.281 128.236 376.368H117.866V379.89C117.866 385.956 102.325 380.529 101.675 389.921C101.024 399.313 101.675 398.869 101.675 398.869H108.677V392.608H114.931C118.508 399.838 128.11 401.735 132.149 392.608Z" fill="#147AD0"/>
<path d="M125.888 374.412V370.303C124.077 371.794 123.131 371.868 120.801 370.303V374.412H125.888Z" fill="#147AD0"/>
<ellipse rx="4.89148" ry="1.36962" transform="matrix(-1 0 0 1 127.844 369.129)" fill="#147AD0"/>
<ellipse rx="4.89148" ry="1.36962" transform="matrix(-1 0 0 1 118.453 369.129)" fill="#147AD0"/>
<rect width="16.8267" height="4.30451" transform="matrix(-1 0 0 1 131.562 372.064)" fill="#193256"/>
<circle r="3.13055" transform="matrix(-1 0 0 1 123.344 368.542)" fill="#147AD0"/>
<rect width="6.2611" height="12.1309" rx="3.13055" transform="matrix(-1 0 0 1 144.867 382.238)" fill="#193256"/>
<path d="M108.233 421.923C113.511 416.737 113.175 412.682 105.562 403C97.2239 412.236 95.511 416.919 101.777 422.368C103.113 423.53 106.452 423.673 108.233 421.923Z" fill="#00BDFF"/>
<path d="M104.671 417.248C104.671 418.477 103.675 419.474 102.445 419.474C101.216 419.474 100.219 418.477 100.219 417.248C100.219 416.018 101.216 413.686 102.445 413.686C103.675 413.686 104.671 416.018 104.671 417.248Z" fill="#E4EEFF"/>
<path d="M63.1034 347.082C46.8838 350.709 47.8441 335.18 60.7619 337.087C61.4278 333.409 62.7832 333.081 66.1743 333.566C73.6687 321.587 86.1151 325.054 88.3999 335.459C91.4919 335.95 92.5808 336.671 94.1962 338.185C104.34 340.573 99.0972 347.607 94.1962 347.082C89.6711 352.629 86.5042 351.615 80.6075 348.179C78.0025 350.027 76.1925 349.951 72.7 348.975C68.6374 352.283 63.1034 351.459 63.1034 347.082Z" fill="white" fill-opacity="0.95"/>
<path d="M112.13 333.629C100.759 334.85 104.789 338.636 111.763 338.636C111.763 341.161 113.201 341.24 115.475 340.904C121 344.199 119.4 338.812 123.514 340.904C127.629 342.996 130.973 340.768 130.68 339.847C132.754 339.506 133.307 338.005 132.98 336.901C139.782 335.243 136.594 333.539 133.307 333.903C130.273 330.054 127.807 329.469 123.853 331.853C122.106 330.57 120.565 330.348 118.223 331.026C115.499 328.729 112.13 330.591 112.13 333.629Z" fill="white" fill-opacity="0.95"/>
<path d="M101 476C101 476 103.5 476.5 106 476.5C108.5 476.5 111 476 111 476V479C107.073 477.599 104.885 477.661 101 479V476Z" fill="#096897"/>
<path d="M100 476.103C100.422 475.942 100.632 475.991 101 476.103V478.853C100.61 479.04 100.39 479.058 100 478.853V476.103Z" fill="#C4C4C4"/>
<path d="M111 476.103C111.422 475.942 111.632 475.991 112 476.103V478.853C111.61 479.04 111.39 479.058 111 478.853V476.103Z" fill="#C4C4C4"/>
<path d="M91 489L90.5 491L89.5 491.5V490C91.3221 480.155 98.1754 476.527 105.5 476.5C113.107 476.472 121.184 480.423 122.5 490.5V491.5H121.5L121 489C118.547 475.153 95.8903 472.885 91 489Z" fill="#147AD0"/>
</g>
<defs>
<linearGradient id="paint0_linear" x1="112.914" y1="216.896" x2="196.786" y2="564.467" gradientUnits="userSpaceOnUse">
<stop stop-color="#0682E0"/>
<stop offset="1" stop-color="#0C5CBF"/>
</linearGradient>
<linearGradient id="paint1_linear" x1="207.5" y1="119.5" x2="347.5" y2="17.5" gradientUnits="userSpaceOnUse">
<stop offset="0.119792" stop-color="#65A6E2" stop-opacity="0.6"/>
<stop offset="1" stop-color="#65A6E2"/>
</linearGradient>
<linearGradient id="paint2_linear" x1="101" y1="320" x2="101" y2="358" gradientUnits="userSpaceOnUse">
<stop stop-color="#FEB27C"/>
<stop offset="1" stop-color="#F8FD11"/>
</linearGradient>
<clipPath id="clip0">
<rect width="350" height="569" fill="white"/>
</clipPath>
</defs>
</svg>
