<svg width="360" height="133" viewBox="0 0 360 133" fill="none" xmlns="http://www.w3.org/2000/svg">
<path d="M339.998 -13L18.9978 -13C7.95211 -13 -1.0022 -4.04569 -1.0022 7L-1.0022 113C-1.0022 124.046 7.95212 133 18.9978 133L339.998 133C351.043 133 359.998 124.046 359.998 113L359.998 7C359.998 -4.04569 351.043 -13 339.998 -13Z" fill="#087CDB"/>
<g opacity="0.5">
<path d="M322.687 65.6678C334.894 71.9941 342.866 73.6387 359.658 72.2308L358.367 77.1288C336.392 92.0275 318.498 88.9117 305.672 73.9393C292.847 58.9669 286.59 55.0876 268.493 55.9255C289.46 51.9841 301.335 53.9469 322.687 65.6678Z" fill="#029BF6"/>
<path d="M-10.3473 27.3015L-16.2466 49.6925C30.258 32.5004 63.7845 34.6493 131.683 51.2933C82.0806 27.3634 51.5727 20.6537 -10.3473 27.3015Z" fill="#029BF6"/>
<path d="M302.85 45.4832C328.355 62.5667 341.694 69.6643 360.672 68.3822L359.381 73.2802C347.959 73.9861 341.947 75.8008 326.107 67.3736C310.268 58.9464 293.219 52.4726 269.125 55.9765C211.887 69.3603 173.863 62.5653 124.422 42.1306C111.043 36.6012 99.8352 31.7708 83.7024 27.761C100.433 31.4531 114.032 36.0663 128.672 40.6877C142.368 45.0112 185.924 53.2879 215.116 45.5345C254.534 33.363 278.472 30.2913 302.85 45.4832Z" fill="#A1D8F9"/>
<path d="M136.841 48.8519C184.729 67.8389 213.873 66.1775 267.23 55.8232C216.195 72.7003 187.458 75.8411 135.643 53.4C86.0833 30.7317 58.2196 23.0255 8.25788 25.2329C49.0862 18.5308 77.6251 24.3633 136.841 48.8519Z" fill="white"/>
<path d="M318.652 44.2601C341.227 58.949 344.463 59.5394 362.792 60.3356C338.777 61.7052 330.935 55.2336 315.849 45.1054C287.752 27.8047 266.291 29.6635 226.815 35.404C164.808 46.0353 140.309 39.7957 104.386 25.1461C64.4427 10.9554 40.2829 12.2255 -7.22692 17.9065C38.8471 9.94484 64.0852 9.29356 106.65 23.8998C147.751 39.0319 172.641 43.5276 225.381 33.5015C267.29 25.5016 296.077 29.5712 318.652 44.2601Z" fill="#C3E2F2"/>
</g>
<path d="M28.438 86.0581H36.2139V89H24.7759V71.2266H28.438V86.0581ZM37.5444 82.2739C37.5444 80.9637 37.7967 79.7959 38.3013 78.7705C38.8058 77.7451 39.5301 76.9517 40.4741 76.3901C41.4263 75.8286 42.529 75.5479 43.7822 75.5479C45.5645 75.5479 47.0171 76.0931 48.1401 77.1836C49.2713 78.2741 49.902 79.7552 50.0322 81.627L50.0566 82.5303C50.0566 84.5566 49.491 86.1842 48.3599 87.4131C47.2287 88.6338 45.7109 89.2441 43.8066 89.2441C41.9023 89.2441 40.3805 88.6338 39.2412 87.4131C38.11 86.1924 37.5444 84.5322 37.5444 82.4326V82.2739ZM41.0723 82.5303C41.0723 83.7835 41.3083 84.7438 41.7803 85.4111C42.2523 86.0703 42.9277 86.3999 43.8066 86.3999C44.6611 86.3999 45.3285 86.0744 45.8086 85.4233C46.2887 84.7642 46.5288 83.7144 46.5288 82.2739C46.5288 81.0451 46.2887 80.0929 45.8086 79.4175C45.3285 78.742 44.653 78.4043 43.7822 78.4043C42.9196 78.4043 42.2523 78.742 41.7803 79.4175C41.3083 80.0848 41.0723 81.1224 41.0723 82.5303ZM51.7168 82.2983C51.7168 80.272 52.1969 78.6403 53.1572 77.4033C54.1257 76.1663 55.4277 75.5479 57.0635 75.5479C58.512 75.5479 59.6392 76.0443 60.4448 77.0371L60.5913 75.792H63.7896V88.5605C63.7896 89.7161 63.5251 90.7212 62.9961 91.5757C62.4753 92.4302 61.7388 93.0812 60.7866 93.5288C59.8345 93.9764 58.7196 94.2002 57.4419 94.2002C56.4735 94.2002 55.5295 94.0049 54.6099 93.6143C53.6903 93.2318 52.9945 92.7354 52.5225 92.125L54.085 89.9766C54.9639 90.9613 56.0299 91.4536 57.2832 91.4536C58.2191 91.4536 58.9474 91.2013 59.4683 90.6968C59.9891 90.2004 60.2495 89.4924 60.2495 88.5728V87.8647C59.4357 88.7843 58.3656 89.2441 57.0391 89.2441C55.4521 89.2441 54.1663 88.6257 53.1816 87.3887C52.2051 86.1436 51.7168 84.4956 51.7168 82.4448V82.2983ZM55.2446 82.5547C55.2446 83.751 55.4847 84.6909 55.9648 85.3745C56.445 86.05 57.1042 86.3877 57.9424 86.3877C59.0166 86.3877 59.7856 85.9849 60.2495 85.1792V79.625C59.7775 78.8193 59.0166 78.4165 57.9668 78.4165C57.1204 78.4165 56.4531 78.7624 55.9648 79.4541C55.4847 80.1458 55.2446 81.1794 55.2446 82.5547ZM70.2349 89H66.6948V75.792H70.2349V89ZM66.4873 72.374C66.4873 71.8451 66.6623 71.4097 67.0122 71.0679C67.3703 70.7261 67.8545 70.5552 68.4648 70.5552C69.0671 70.5552 69.5472 70.7261 69.9053 71.0679C70.2633 71.4097 70.4424 71.8451 70.4424 72.374C70.4424 72.9111 70.2593 73.3506 69.8931 73.6924C69.535 74.0342 69.0589 74.2051 68.4648 74.2051C67.8708 74.2051 67.3906 74.0342 67.0244 73.6924C66.6663 73.3506 66.4873 72.9111 66.4873 72.374ZM76.3994 75.792L76.5093 77.3179C77.4533 76.1379 78.7188 75.5479 80.3057 75.5479C81.7054 75.5479 82.7471 75.9588 83.4307 76.7808C84.1143 77.6027 84.4642 78.8315 84.4805 80.4673V89H80.9526V80.5527C80.9526 79.804 80.7899 79.2629 80.4644 78.9292C80.1388 78.5874 79.5977 78.4165 78.8408 78.4165C77.848 78.4165 77.1034 78.8397 76.6069 79.686V89H73.0791V75.792H76.3994Z" fill="white"/>
</svg>
