<svg width="360" height="131" viewBox="0 0 360 131" fill="none" xmlns="http://www.w3.org/2000/svg">
<path d="M340 -26L19 -26C7.9543 -26 -1 -17.0457 -1 -6L-1 111C-1 122.046 7.95431 131 19 131L340 131C351.046 131 360 122.032 360 110.986L360 -5.98605C360 -17.0317 351.046 -26 340 -26Z" fill="#087CDB"/>
<g opacity="0.5">
<path d="M322.689 63.6678C334.896 69.9941 342.868 71.6387 359.66 70.2308L358.37 75.1288C336.394 90.0275 318.5 86.9117 305.674 71.9393C292.849 56.9669 286.592 53.0876 268.495 53.9255C289.463 49.9841 301.337 51.9469 322.689 63.6678Z" fill="#029BF6"/>
<path d="M-10.3451 25.3015L-16.2444 47.6925C30.2602 30.5004 63.7867 32.6493 131.685 49.2933C82.0828 25.3634 51.5749 18.6537 -10.3451 25.3015Z" fill="#029BF6"/>
<path d="M302.852 43.4833C328.357 60.5668 341.697 67.6644 360.674 66.3823L359.383 71.2804C347.962 71.9862 341.949 73.8009 326.109 65.3737C310.27 56.9465 293.221 50.4727 269.127 53.9766C211.889 67.3604 173.865 60.5654 124.424 40.1307C111.046 34.6013 99.8374 29.7709 83.7046 25.7611C100.435 29.4532 114.034 34.0664 128.674 38.6879C142.37 43.0113 185.926 51.288 215.118 43.5346C254.536 31.3632 278.474 28.2914 302.852 43.4833Z" fill="#A1D8F9"/>
<path d="M136.843 46.852C184.731 65.839 213.875 64.1776 267.232 53.8233C216.197 70.7004 187.46 73.8412 135.645 51.4002C86.0855 28.7318 58.2218 21.0257 8.26009 23.233C49.0884 16.5309 77.6273 22.3635 136.843 46.852Z" fill="white"/>
<path d="M318.654 42.26C341.229 56.9488 344.465 57.5392 362.794 58.3355C338.78 59.7051 330.937 53.2335 315.851 43.1053C287.754 25.8046 266.293 27.6634 226.817 33.4039C164.811 44.0352 140.311 37.7956 104.389 23.1459C64.4449 8.95524 40.2851 10.2254 -7.22473 15.9064C38.8492 7.94472 64.0874 7.29344 106.652 21.8997C147.753 37.0317 172.643 41.5275 225.383 31.5014C267.292 23.5014 296.079 27.5711 318.654 42.26Z" fill="#C3E2F2"/>
</g>
</svg>
