<svg width="360" height="93" viewBox="0 0 360 93" fill="none" xmlns="http://www.w3.org/2000/svg">
<g clip-path="url(#clip0)">
<path d="M362.224 -6.12595L362.058 64.2437C348.401 63.8919 340.773 64.5982 327.632 55.862C317.113 47.5704 308.496 43.0279 292.102 36.8498C273.768 33.726 263.24 33.9626 240.293 35.3517C189.353 47.1167 156.264 49.8402 111.603 29.6314C63.3061 15.2683 42.2271 13.4314 -1.2737 21.4202L-0.411662 -1.1794L362.224 -6.12595Z" fill="#0682E0"/>
<path d="M323.687 69.6678C335.894 75.9941 343.866 77.6387 360.658 76.2308L359.367 81.1288C337.392 96.0275 319.498 92.9117 306.672 77.9393C293.847 62.9669 287.59 59.0876 269.493 59.9255C290.46 55.9841 302.335 57.9469 323.687 69.6678Z" fill="#029BF6"/>
<path d="M-9.34722 31.3016L-15.2466 53.6925C31.2581 36.5005 64.7845 38.6494 132.683 55.2934C83.0807 31.3635 52.5727 24.6538 -9.34722 31.3016Z" fill="#029BF6"/>
<path d="M303.85 49.4833C329.355 66.5668 342.694 73.6644 361.672 72.3823L360.381 77.2803C348.959 77.9862 342.947 79.8008 327.107 71.3736C311.268 62.9464 294.219 56.4726 270.125 59.9766C212.887 73.3604 174.863 66.5653 125.422 46.1307C112.043 40.6013 100.835 35.7709 84.7024 31.761C101.433 35.4532 115.032 40.0664 129.672 44.6878C143.368 49.0112 186.924 57.2879 216.116 49.5346C255.534 37.3631 279.472 34.2913 303.85 49.4833Z" fill="#A1D8F9"/>
<path d="M137.841 52.8519C185.729 71.8389 214.873 70.1776 268.23 59.8233C217.195 76.7003 188.458 79.8411 136.643 57.4001C87.0833 34.7318 59.2197 27.0256 9.25794 29.233C50.0862 22.5309 78.6252 28.3634 137.841 52.8519Z" fill="white"/>
<path d="M319.652 48.2601C342.227 62.949 345.463 63.5394 363.792 64.3356C339.777 65.7052 331.935 59.2336 316.849 49.1054C288.752 31.8047 267.291 33.6635 227.815 39.404C165.808 50.0353 141.309 43.7957 105.387 29.1461C65.4428 14.9554 41.283 16.2255 -6.22686 21.9065C39.8471 13.9448 65.0853 13.2936 107.65 27.8998C148.751 43.0319 173.641 47.5276 226.381 37.5015C268.29 29.5016 297.077 33.5712 319.652 48.2601Z" fill="#C3E2F2"/>
</g>
<defs>
<clipPath id="clip0">
<rect width="360" height="93" fill="white"/>
</clipPath>
</defs>
</svg>
