<svg width="359" height="325" viewBox="0 0 359 325" fill="none" xmlns="http://www.w3.org/2000/svg">
<path d="M0 324.692V34.1924C52.4999 41.1755 148.5 98.6924 148.5 98.6924C148.5 98.6924 218 143.192 224 90.5C230 37.8075 246.083 51.4824 260.5 56.1924C274.917 60.9023 293.85 50.8717 300.5 34.1924C314.93 -2.00005 334.659 -3.3394 359 5.19237V324.692H0Z" fill="url(#paint0_linear)"/>
<path d="M95.4189 225.85C97.2523 226.05 98.7189 226.375 99.8189 226.825C100.936 227.275 101.744 227.867 102.244 228.6C102.744 229.333 102.994 230.25 102.994 231.35C102.994 232.55 102.602 233.6 101.819 234.5C101.052 235.383 99.9856 236.067 98.6189 236.55C97.2523 237.017 95.6939 237.25 93.9439 237.25C91.9939 237.25 90.3439 237.008 88.9939 236.525C87.6439 236.042 86.6356 235.4 85.9689 234.6C85.3023 233.783 84.9689 232.892 84.9689 231.925C84.9689 231.758 85.0189 231.625 85.1189 231.525C85.2356 231.425 85.3773 231.375 85.5439 231.375H90.6689C91.0189 231.375 91.3023 231.483 91.5189 231.7C91.8023 231.967 92.1189 232.15 92.4689 232.25C92.8189 232.333 93.3106 232.375 93.9439 232.375C95.5273 232.375 96.3189 232.133 96.3189 231.65C96.3189 231.45 96.2106 231.283 95.9939 231.15C95.7939 231 95.4273 230.875 94.8939 230.775C94.3773 230.658 93.6106 230.542 92.5939 230.425C90.3106 230.158 88.5606 229.592 87.3439 228.725C86.1273 227.842 85.5189 226.6 85.5189 225C85.5189 223.867 85.8606 222.867 86.5439 222C87.2273 221.133 88.1939 220.458 89.4439 219.975C90.7106 219.492 92.1773 219.25 93.8439 219.25C95.5773 219.25 97.0939 219.525 98.3939 220.075C99.6939 220.608 100.686 221.275 101.369 222.075C102.052 222.875 102.394 223.658 102.394 224.425C102.394 224.592 102.336 224.725 102.219 224.825C102.119 224.925 101.977 224.975 101.794 224.975H96.4189C96.1356 224.975 95.8773 224.875 95.6439 224.675C95.4606 224.508 95.2439 224.375 94.9939 224.275C94.7439 224.175 94.3606 224.125 93.8439 224.125C92.7273 224.125 92.1689 224.358 92.1689 224.825C92.1689 225.075 92.3856 225.275 92.8189 225.425C93.2523 225.558 94.1189 225.7 95.4189 225.85ZM118.684 231.875H123.209C123.393 231.875 123.551 231.942 123.684 232.075C123.818 232.208 123.884 232.367 123.884 232.55V236.325C123.884 236.508 123.818 236.667 123.684 236.8C123.551 236.933 123.393 237 123.209 237H107.359C107.176 237 107.018 236.933 106.884 236.8C106.751 236.667 106.684 236.508 106.684 236.325V232.55C106.684 232.367 106.751 232.208 106.884 232.075C107.018 231.942 107.176 231.875 107.359 231.875H111.934V224.625H107.359C107.176 224.625 107.018 224.558 106.884 224.425C106.751 224.292 106.684 224.133 106.684 223.95V220.175C106.684 219.992 106.751 219.833 106.884 219.7C107.018 219.567 107.176 219.5 107.359 219.5H123.209C123.393 219.5 123.551 219.567 123.684 219.7C123.818 219.833 123.884 219.992 123.884 220.175V223.95C123.884 224.133 123.818 224.292 123.684 224.425C123.551 224.558 123.393 224.625 123.209 224.625H118.684V231.875ZM139.799 220.175C140.049 219.725 140.408 219.5 140.874 219.5H145.449C145.633 219.5 145.791 219.567 145.924 219.7C146.058 219.833 146.124 219.992 146.124 220.175V236.325C146.124 236.508 146.058 236.667 145.924 236.8C145.791 236.933 145.633 237 145.449 237H140.924C140.741 237 140.583 236.933 140.449 236.8C140.316 236.667 140.249 236.508 140.249 236.325V228.575L138.424 232.175C138.374 232.292 138.258 232.425 138.074 232.575C137.891 232.725 137.658 232.8 137.374 232.8H135.674C135.391 232.8 135.158 232.725 134.974 232.575C134.791 232.425 134.674 232.292 134.624 232.175L132.799 228.575V236.325C132.799 236.508 132.733 236.667 132.599 236.8C132.466 236.933 132.308 237 132.124 237H127.599C127.416 237 127.258 236.933 127.124 236.8C126.991 236.667 126.924 236.508 126.924 236.325V220.175C126.924 219.992 126.991 219.833 127.124 219.7C127.258 219.567 127.416 219.5 127.599 219.5H132.174C132.641 219.5 132.999 219.725 133.249 220.175L136.524 226.175L139.799 220.175ZM160.315 219.5C161.881 219.5 163.248 219.767 164.415 220.3C165.581 220.833 166.473 221.558 167.09 222.475C167.706 223.392 168.015 224.417 168.015 225.55C168.015 227.417 167.431 228.883 166.265 229.95C165.098 231 163.115 231.525 160.315 231.525H157.015V236.325C157.015 236.508 156.948 236.667 156.815 236.8C156.681 236.933 156.523 237 156.34 237H150.965C150.781 237 150.623 236.933 150.49 236.8C150.356 236.667 150.29 236.508 150.29 236.325V220.175C150.29 219.992 150.356 219.833 150.49 219.7C150.623 219.567 150.781 219.5 150.965 219.5H160.315ZM160.215 226.9C160.615 226.9 160.931 226.783 161.165 226.55C161.398 226.3 161.515 225.975 161.515 225.575C161.515 225.158 161.398 224.817 161.165 224.55C160.931 224.283 160.615 224.15 160.215 224.15H157.04V226.9H160.215ZM187.105 232.125C187.288 232.125 187.447 232.192 187.58 232.325C187.713 232.458 187.78 232.617 187.78 232.8V236.325C187.78 236.508 187.713 236.667 187.58 236.8C187.447 236.933 187.288 237 187.105 237H171.305C171.122 237 170.963 236.933 170.83 236.8C170.697 236.667 170.63 236.508 170.63 236.325V220.175C170.63 219.992 170.697 219.833 170.83 219.7C170.963 219.567 171.122 219.5 171.305 219.5H186.855C187.038 219.5 187.197 219.567 187.33 219.7C187.463 219.833 187.53 219.992 187.53 220.175V223.7C187.53 223.883 187.463 224.042 187.33 224.175C187.197 224.308 187.038 224.375 186.855 224.375H177.13V225.95H185.48C185.663 225.95 185.822 226.017 185.955 226.15C186.088 226.283 186.155 226.442 186.155 226.625V229.875C186.155 230.058 186.088 230.217 185.955 230.35C185.822 230.483 185.663 230.55 185.48 230.55H177.13V232.125H187.105ZM208.395 231.875C208.578 231.875 208.737 231.942 208.87 232.075C209.003 232.208 209.07 232.367 209.07 232.55V236.325C209.07 236.508 209.003 236.667 208.87 236.8C208.737 236.933 208.578 237 208.395 237H193.795C193.612 237 193.453 236.933 193.32 236.8C193.187 236.667 193.12 236.508 193.12 236.325V220.175C193.12 219.992 193.187 219.833 193.32 219.7C193.453 219.567 193.612 219.5 193.795 219.5H199.195C199.378 219.5 199.537 219.567 199.67 219.7C199.803 219.833 199.87 219.992 199.87 220.175V231.875H208.395ZM230.11 219.5C230.294 219.5 230.452 219.567 230.585 219.7C230.719 219.833 230.785 219.992 230.785 220.175V224.2C230.785 224.383 230.719 224.542 230.585 224.675C230.452 224.808 230.294 224.875 230.11 224.875H224.735V236.325C224.735 236.508 224.669 236.667 224.535 236.8C224.402 236.933 224.244 237 224.06 237H218.91C218.727 237 218.569 236.933 218.435 236.8C218.302 236.667 218.235 236.508 218.235 236.325V224.875H212.86C212.677 224.875 212.519 224.808 212.385 224.675C212.252 224.542 212.185 224.383 212.185 224.2V220.175C212.185 219.992 212.252 219.833 212.385 219.7C212.519 219.567 212.677 219.5 212.86 219.5H230.11ZM239.126 236.15C238.909 236.717 238.534 237 238.001 237H233.276C233.126 237 232.992 236.95 232.876 236.85C232.776 236.733 232.726 236.6 232.726 236.45L232.751 236.3L238.201 220.325C238.267 220.108 238.392 219.917 238.576 219.75C238.759 219.583 239.009 219.5 239.326 219.5H246.276C246.592 219.5 246.842 219.583 247.026 219.75C247.209 219.917 247.334 220.108 247.401 220.325L252.851 236.3L252.876 236.45C252.876 236.6 252.817 236.733 252.701 236.85C252.601 236.95 252.476 237 252.326 237H247.601C247.067 237 246.692 236.717 246.476 236.15L245.851 234.4H239.751L239.126 236.15ZM242.801 224.325L241.026 229.525H244.576L242.801 224.325ZM271.116 227.875C271.766 228.075 272.324 228.517 272.791 229.2C273.257 229.867 273.491 230.633 273.491 231.5C273.491 233.35 272.891 234.733 271.691 235.65C270.491 236.55 268.741 237 266.441 237H256.141C255.957 237 255.799 236.933 255.666 236.8C255.532 236.667 255.466 236.508 255.466 236.325V220.175C255.466 219.992 255.532 219.833 255.666 219.7C255.799 219.567 255.957 219.5 256.141 219.5H266.191C268.557 219.5 270.299 219.933 271.416 220.8C272.549 221.65 273.116 222.942 273.116 224.675V224.75C273.116 225.55 272.899 226.233 272.466 226.8C272.032 227.367 271.582 227.725 271.116 227.875ZM266.341 224.9C266.341 224.6 266.249 224.342 266.066 224.125C265.899 223.908 265.649 223.8 265.316 223.8H261.966V226.075H265.316C265.649 226.075 265.899 225.958 266.066 225.725C266.249 225.475 266.341 225.2 266.341 224.9ZM265.591 232.7C265.974 232.7 266.257 232.575 266.441 232.325C266.641 232.058 266.741 231.767 266.741 231.45V231.425C266.741 231.108 266.632 230.833 266.416 230.6C266.216 230.367 265.941 230.25 265.591 230.25H261.966V232.7H265.591Z" fill="white"/>
<defs>
<linearGradient id="paint0_linear" x1="179.5" y1="0.8479" x2="179.5" y2="324.692" gradientUnits="userSpaceOnUse">
<stop stop-color="#0975D5"/>
<stop offset="1" stop-color="#0AD5FD"/>
</linearGradient>
</defs>
</svg>
