<svg width="126" height="98" viewBox="0 0 126 98" fill="none" xmlns="http://www.w3.org/2000/svg">
<rect x="36" width="55" height="55" rx="5" fill="url(#paint0_linear)"/>
<path d="M1.59961 78V68.0469H4.85352C5.93359 68.0469 6.74479 68.2702 7.28711 68.7168C7.83398 69.1634 8.10742 69.8242 8.10742 70.6992C8.10742 71.1641 7.97526 71.5765 7.71094 71.9365C7.44661 72.292 7.08659 72.5677 6.63086 72.7637C7.16862 72.9141 7.59245 73.2012 7.90234 73.625C8.2168 74.0443 8.37402 74.5456 8.37402 75.1289C8.37402 76.0221 8.08464 76.724 7.50586 77.2344C6.92708 77.7448 6.10905 78 5.05176 78H1.59961ZM2.91211 73.3447V76.9268H5.0791C5.68978 76.9268 6.17057 76.7695 6.52148 76.4551C6.87695 76.1361 7.05469 75.6986 7.05469 75.1426C7.05469 73.944 6.40299 73.3447 5.09961 73.3447H2.91211ZM2.91211 72.292H4.89453C5.46875 72.292 5.92676 72.1484 6.26855 71.8613C6.61491 71.5742 6.78809 71.1846 6.78809 70.6924C6.78809 70.1455 6.62858 69.749 6.30957 69.5029C5.99056 69.2523 5.50521 69.127 4.85352 69.127H2.91211V72.292ZM14.6904 78C14.6175 77.8542 14.5583 77.5944 14.5127 77.2207C13.9248 77.8314 13.223 78.1367 12.4072 78.1367C11.6781 78.1367 11.0788 77.9316 10.6094 77.5215C10.1445 77.1068 9.91211 76.5827 9.91211 75.9492C9.91211 75.179 10.2038 74.582 10.7871 74.1582C11.375 73.7298 12.1999 73.5156 13.2617 73.5156H14.4922V72.9346C14.4922 72.4925 14.36 72.1416 14.0957 71.8818C13.8314 71.6175 13.4417 71.4854 12.9268 71.4854C12.4756 71.4854 12.0973 71.5993 11.792 71.8271C11.4867 72.055 11.334 72.3307 11.334 72.6543H10.0625C10.0625 72.2852 10.1924 71.9297 10.4521 71.5879C10.7165 71.2415 11.0719 70.9681 11.5186 70.7676C11.9697 70.5671 12.4642 70.4668 13.002 70.4668C13.8542 70.4668 14.5218 70.681 15.0049 71.1094C15.488 71.5332 15.7386 72.1188 15.7568 72.8662V76.2705C15.7568 76.9495 15.8434 77.4896 16.0166 77.8906V78H14.6904ZM12.5918 77.0361C12.9883 77.0361 13.3643 76.9336 13.7197 76.7285C14.0752 76.5234 14.3327 76.2568 14.4922 75.9287V74.4111H13.501C11.9515 74.4111 11.1768 74.8646 11.1768 75.7715C11.1768 76.168 11.3089 76.4779 11.5732 76.7012C11.8376 76.9245 12.1771 77.0361 12.5918 77.0361ZM20.7061 77.1045C21.1572 77.1045 21.5514 76.9678 21.8887 76.6943C22.2259 76.4209 22.4128 76.0791 22.4492 75.6689H23.6455C23.6227 76.0928 23.4769 76.4961 23.208 76.8789C22.9391 77.2617 22.5791 77.5671 22.1279 77.7949C21.6813 78.0228 21.2074 78.1367 20.7061 78.1367C19.6989 78.1367 18.8968 77.8018 18.2998 77.1318C17.7074 76.4574 17.4111 75.5368 17.4111 74.3701V74.1582C17.4111 73.4382 17.5433 72.7979 17.8076 72.2373C18.0719 71.6768 18.4502 71.2415 18.9424 70.9316C19.4391 70.6217 20.0247 70.4668 20.6992 70.4668C21.5286 70.4668 22.2168 70.7152 22.7637 71.2119C23.3151 71.7087 23.609 72.3535 23.6455 73.1465H22.4492C22.4128 72.668 22.2305 72.276 21.9023 71.9707C21.5788 71.6608 21.1777 71.5059 20.6992 71.5059C20.0566 71.5059 19.5576 71.7383 19.2021 72.2031C18.8512 72.6634 18.6758 73.3311 18.6758 74.2061V74.4453C18.6758 75.2975 18.8512 75.9538 19.2021 76.4141C19.5531 76.8743 20.0544 77.1045 20.7061 77.1045ZM29.6338 78C29.5609 77.8542 29.5016 77.5944 29.4561 77.2207C28.8682 77.8314 28.1663 78.1367 27.3506 78.1367C26.6214 78.1367 26.0221 77.9316 25.5527 77.5215C25.0879 77.1068 24.8555 76.5827 24.8555 75.9492C24.8555 75.179 25.1471 74.582 25.7305 74.1582C26.3184 73.7298 27.1432 73.5156 28.2051 73.5156H29.4355V72.9346C29.4355 72.4925 29.3034 72.1416 29.0391 71.8818C28.7747 71.6175 28.3851 71.4854 27.8701 71.4854C27.4189 71.4854 27.0407 71.5993 26.7354 71.8271C26.43 72.055 26.2773 72.3307 26.2773 72.6543H25.0059C25.0059 72.2852 25.1357 71.9297 25.3955 71.5879C25.6598 71.2415 26.0153 70.9681 26.4619 70.7676C26.9131 70.5671 27.4076 70.4668 27.9453 70.4668C28.7975 70.4668 29.4652 70.681 29.9482 71.1094C30.4313 71.5332 30.682 72.1188 30.7002 72.8662V76.2705C30.7002 76.9495 30.7868 77.4896 30.96 77.8906V78H29.6338ZM27.5352 77.0361C27.9316 77.0361 28.3076 76.9336 28.6631 76.7285C29.0186 76.5234 29.276 76.2568 29.4355 75.9287V74.4111H28.4443C26.8949 74.4111 26.1201 74.8646 26.1201 75.7715C26.1201 76.168 26.2523 76.4779 26.5166 76.7012C26.7809 76.9245 27.1204 77.0361 27.5352 77.0361ZM38.0488 68.0469L41.3027 76.168L44.5566 68.0469H46.2588V78H44.9463V74.124L45.0693 69.9404L41.8018 78H40.7969L37.5361 69.9609L37.666 74.124V78H36.3535V68.0469H38.0488ZM51.4473 78.1367C50.4447 78.1367 49.6289 77.8086 49 77.1523C48.3711 76.4915 48.0566 75.6097 48.0566 74.5068V74.2744C48.0566 73.5407 48.1956 72.8867 48.4736 72.3125C48.7562 71.7337 49.1481 71.2826 49.6494 70.959C50.1553 70.6309 50.7021 70.4668 51.29 70.4668C52.2516 70.4668 52.999 70.7835 53.5322 71.417C54.0654 72.0505 54.332 72.9574 54.332 74.1377V74.6641H49.3213C49.3395 75.3932 49.5514 75.9834 49.957 76.4346C50.3672 76.8812 50.8867 77.1045 51.5156 77.1045C51.9622 77.1045 52.3405 77.0133 52.6504 76.8311C52.9603 76.6488 53.2314 76.4072 53.4639 76.1064L54.2363 76.708C53.6165 77.6605 52.6868 78.1367 51.4473 78.1367ZM51.29 71.5059C50.7796 71.5059 50.3512 71.6927 50.0049 72.0664C49.6585 72.4355 49.4443 72.9551 49.3623 73.625H53.0674V73.5293C53.0309 72.8867 52.8577 72.39 52.5479 72.0391C52.238 71.6836 51.8187 71.5059 51.29 71.5059ZM57.5176 68.8125V70.6035H58.8984V71.5811H57.5176V76.168C57.5176 76.4642 57.5791 76.6875 57.7021 76.8379C57.8252 76.9837 58.0348 77.0566 58.3311 77.0566C58.4769 77.0566 58.6774 77.0293 58.9326 76.9746V78C58.5999 78.0911 58.2764 78.1367 57.9619 78.1367C57.3968 78.1367 56.9707 77.9658 56.6836 77.624C56.3965 77.2822 56.2529 76.7969 56.2529 76.168V71.5811H54.9062V70.6035H56.2529V68.8125H57.5176ZM63.4512 78.1367C62.4486 78.1367 61.6328 77.8086 61.0039 77.1523C60.375 76.4915 60.0605 75.6097 60.0605 74.5068V74.2744C60.0605 73.5407 60.1995 72.8867 60.4775 72.3125C60.7601 71.7337 61.152 71.2826 61.6533 70.959C62.1592 70.6309 62.7061 70.4668 63.2939 70.4668C64.2555 70.4668 65.0029 70.7835 65.5361 71.417C66.0693 72.0505 66.3359 72.9574 66.3359 74.1377V74.6641H61.3252C61.3434 75.3932 61.5553 75.9834 61.9609 76.4346C62.3711 76.8812 62.8906 77.1045 63.5195 77.1045C63.9661 77.1045 64.3444 77.0133 64.6543 76.8311C64.9642 76.6488 65.2354 76.4072 65.4678 76.1064L66.2402 76.708C65.6204 77.6605 64.6908 78.1367 63.4512 78.1367ZM63.2939 71.5059C62.7835 71.5059 62.3551 71.6927 62.0088 72.0664C61.6624 72.4355 61.4482 72.9551 61.3662 73.625H65.0713V73.5293C65.0348 72.8867 64.8617 72.39 64.5518 72.0391C64.2419 71.6836 63.8226 71.5059 63.2939 71.5059ZM71.3809 71.7383C71.1895 71.7064 70.9821 71.6904 70.7588 71.6904C69.9294 71.6904 69.3665 72.0436 69.0703 72.75V78H67.8057V70.6035H69.0361L69.0566 71.458C69.4714 70.7972 70.0592 70.4668 70.8203 70.4668C71.0664 70.4668 71.2533 70.4987 71.3809 70.5625V71.7383ZM77.916 68.0469L81.1699 76.168L84.4238 68.0469H86.126V78H84.8135V74.124L84.9365 69.9404L81.6689 78H80.6641L77.4033 69.9609L77.5332 74.124V78H76.2207V68.0469H77.916ZM92.8115 78C92.7386 77.8542 92.6794 77.5944 92.6338 77.2207C92.0459 77.8314 91.3441 78.1367 90.5283 78.1367C89.7992 78.1367 89.1999 77.9316 88.7305 77.5215C88.2656 77.1068 88.0332 76.5827 88.0332 75.9492C88.0332 75.179 88.3249 74.582 88.9082 74.1582C89.4961 73.7298 90.321 73.5156 91.3828 73.5156H92.6133V72.9346C92.6133 72.4925 92.4811 72.1416 92.2168 71.8818C91.9525 71.6175 91.5628 71.4854 91.0479 71.4854C90.5967 71.4854 90.2184 71.5993 89.9131 71.8271C89.6077 72.055 89.4551 72.3307 89.4551 72.6543H88.1836C88.1836 72.2852 88.3135 71.9297 88.5732 71.5879C88.8376 71.2415 89.193 70.9681 89.6396 70.7676C90.0908 70.5671 90.5853 70.4668 91.123 70.4668C91.9753 70.4668 92.6429 70.681 93.126 71.1094C93.609 71.5332 93.8597 72.1188 93.8779 72.8662V76.2705C93.8779 76.9495 93.9645 77.4896 94.1377 77.8906V78H92.8115ZM90.7129 77.0361C91.1094 77.0361 91.4854 76.9336 91.8408 76.7285C92.1963 76.5234 92.4538 76.2568 92.6133 75.9287V74.4111H91.6221C90.0726 74.4111 89.2979 74.8646 89.2979 75.7715C89.2979 76.168 89.43 76.4779 89.6943 76.7012C89.9587 76.9245 90.2982 77.0361 90.7129 77.0361ZM97.0566 70.6035L97.0977 71.5332C97.6628 70.8223 98.401 70.4668 99.3125 70.4668C100.876 70.4668 101.664 71.3486 101.678 73.1123V78H100.413V73.1055C100.409 72.5723 100.285 72.1781 100.044 71.9229C99.807 71.6676 99.4355 71.54 98.9297 71.54C98.5195 71.54 98.1595 71.6494 97.8496 71.8682C97.5397 72.0869 97.2982 72.374 97.125 72.7295V78H95.8604V70.6035H97.0566ZM103.277 74.2402C103.277 73.1055 103.546 72.194 104.084 71.5059C104.622 70.8132 105.326 70.4668 106.196 70.4668C107.062 70.4668 107.748 70.763 108.254 71.3555V67.5H109.519V78H108.356L108.295 77.207C107.789 77.8268 107.085 78.1367 106.183 78.1367C105.326 78.1367 104.626 77.7858 104.084 77.084C103.546 76.3822 103.277 75.4661 103.277 74.3359V74.2402ZM104.542 74.3838C104.542 75.2223 104.715 75.8786 105.062 76.3525C105.408 76.8265 105.886 77.0635 106.497 77.0635C107.299 77.0635 107.885 76.7035 108.254 75.9834V72.5859C107.876 71.8887 107.295 71.54 106.511 71.54C105.891 71.54 105.408 71.7793 105.062 72.2578C104.715 72.7363 104.542 73.445 104.542 74.3838ZM112.861 78H111.597V70.6035H112.861V78ZM111.494 68.6416C111.494 68.4365 111.556 68.2633 111.679 68.1221C111.806 67.9808 111.993 67.9102 112.239 67.9102C112.485 67.9102 112.672 67.9808 112.8 68.1221C112.927 68.2633 112.991 68.4365 112.991 68.6416C112.991 68.8467 112.927 69.0176 112.8 69.1543C112.672 69.291 112.485 69.3594 112.239 69.3594C111.993 69.3594 111.806 69.291 111.679 69.1543C111.556 69.0176 111.494 68.8467 111.494 68.6416ZM118.467 71.7383C118.275 71.7064 118.068 71.6904 117.845 71.6904C117.015 71.6904 116.452 72.0436 116.156 72.75V78H114.892V70.6035H116.122L116.143 71.458C116.557 70.7972 117.145 70.4668 117.906 70.4668C118.152 70.4668 118.339 70.4987 118.467 70.5625V71.7383ZM121.01 78H119.745V70.6035H121.01V78ZM119.643 68.6416C119.643 68.4365 119.704 68.2633 119.827 68.1221C119.955 67.9808 120.142 67.9102 120.388 67.9102C120.634 67.9102 120.821 67.9808 120.948 68.1221C121.076 68.2633 121.14 68.4365 121.14 68.6416C121.14 68.8467 121.076 69.0176 120.948 69.1543C120.821 69.291 120.634 69.3594 120.388 69.3594C120.142 69.3594 119.955 69.291 119.827 69.1543C119.704 69.0176 119.643 68.8467 119.643 68.6416ZM1.17578 89.96C1.17578 88.93 1.3125 87.9411 1.58594 86.9932C1.86393 86.0452 2.27637 85.1839 2.82324 84.4092C3.37012 83.6344 3.9375 83.0876 4.52539 82.7686L4.78516 83.6025C4.11979 84.113 3.57292 84.8923 3.14453 85.9404C2.7207 86.9886 2.48828 88.1621 2.44727 89.4609L2.44043 90.042C2.44043 91.8011 2.76172 93.3278 3.4043 94.6221C3.79167 95.3968 4.25195 96.0029 4.78516 96.4404L4.52539 97.2129C3.91927 96.8757 3.34049 96.3105 2.78906 95.5176C1.71354 93.9681 1.17578 92.1156 1.17578 89.96ZM7.51953 90.1035V94H6.20703V84.0469H9.87793C10.9671 84.0469 11.8193 84.3249 12.4346 84.8809C13.0544 85.4368 13.3643 86.1729 13.3643 87.0889C13.3643 88.055 13.0612 88.8001 12.4551 89.3242C11.8535 89.8438 10.9899 90.1035 9.86426 90.1035H7.51953ZM7.51953 89.0303H9.87793C10.5798 89.0303 11.1175 88.8662 11.4912 88.5381C11.8649 88.2054 12.0518 87.7269 12.0518 87.1025C12.0518 86.5101 11.8649 86.0361 11.4912 85.6807C11.1175 85.3252 10.6048 85.1406 9.95312 85.127H7.51953V89.0303ZM17.8145 94.1367C16.8118 94.1367 15.9961 93.8086 15.3672 93.1523C14.7383 92.4915 14.4238 91.6097 14.4238 90.5068V90.2744C14.4238 89.5407 14.5628 88.8867 14.8408 88.3125C15.1234 87.7337 15.5153 87.2826 16.0166 86.959C16.5225 86.6309 17.0693 86.4668 17.6572 86.4668C18.6188 86.4668 19.3662 86.7835 19.8994 87.417C20.4326 88.0505 20.6992 88.9574 20.6992 90.1377V90.6641H15.6885C15.7067 91.3932 15.9186 91.9834 16.3242 92.4346C16.7344 92.8812 17.2539 93.1045 17.8828 93.1045C18.3294 93.1045 18.7077 93.0133 19.0176 92.8311C19.3275 92.6488 19.5986 92.4072 19.8311 92.1064L20.6035 92.708C19.9837 93.6605 19.054 94.1367 17.8145 94.1367ZM17.6572 87.5059C17.1468 87.5059 16.7184 87.6927 16.3721 88.0664C16.0257 88.4355 15.8115 88.9551 15.7295 89.625H19.4346V89.5293C19.3981 88.8867 19.2249 88.39 18.915 88.0391C18.6051 87.6836 18.1859 87.5059 17.6572 87.5059ZM23.543 94H22.2783V83.5H23.543V94ZM30.1396 94C30.0667 93.8542 30.0075 93.5944 29.9619 93.2207C29.374 93.8314 28.6722 94.1367 27.8564 94.1367C27.1273 94.1367 26.528 93.9316 26.0586 93.5215C25.5938 93.1068 25.3613 92.5827 25.3613 91.9492C25.3613 91.179 25.653 90.582 26.2363 90.1582C26.8242 89.7298 27.6491 89.5156 28.7109 89.5156H29.9414V88.9346C29.9414 88.4925 29.8092 88.1416 29.5449 87.8818C29.2806 87.6175 28.891 87.4854 28.376 87.4854C27.9248 87.4854 27.5465 87.5993 27.2412 87.8271C26.9359 88.055 26.7832 88.3307 26.7832 88.6543H25.5117C25.5117 88.2852 25.6416 87.9297 25.9014 87.5879C26.1657 87.2415 26.5212 86.9681 26.9678 86.7676C27.4189 86.5671 27.9134 86.4668 28.4512 86.4668C29.3034 86.4668 29.971 86.681 30.4541 87.1094C30.9372 87.5332 31.1878 88.1188 31.2061 88.8662V92.2705C31.2061 92.9495 31.2926 93.4896 31.4658 93.8906V94H30.1396ZM28.041 93.0361C28.4375 93.0361 28.8135 92.9336 29.1689 92.7285C29.5244 92.5234 29.7819 92.2568 29.9414 91.9287V90.4111H28.9502C27.4007 90.4111 26.626 90.8646 26.626 91.7715C26.626 92.168 26.7581 92.4779 27.0225 92.7012C27.2868 92.9245 27.6263 93.0361 28.041 93.0361ZM34.3848 86.6035L34.4258 87.5332C34.9909 86.8223 35.7292 86.4668 36.6406 86.4668C38.2038 86.4668 38.9922 87.3486 39.0059 89.1123V94H37.7412V89.1055C37.7367 88.5723 37.6136 88.1781 37.3721 87.9229C37.1351 87.6676 36.7637 87.54 36.2578 87.54C35.8477 87.54 35.4876 87.6494 35.1777 87.8682C34.8678 88.0869 34.6263 88.374 34.4531 88.7295V94H33.1885V86.6035H34.3848ZM40.6123 90.2402C40.6123 89.0872 40.8789 88.1712 41.4121 87.4922C41.9453 86.8086 42.6517 86.4668 43.5312 86.4668C44.4336 86.4668 45.1377 86.7858 45.6436 87.4238L45.7051 86.6035H46.8604V93.8223C46.8604 94.7793 46.5755 95.5335 46.0059 96.085C45.4408 96.6364 44.6797 96.9121 43.7227 96.9121C43.1895 96.9121 42.6676 96.7982 42.1572 96.5703C41.6468 96.3424 41.2572 96.0303 40.9883 95.6338L41.6445 94.875C42.1868 95.5449 42.8499 95.8799 43.6338 95.8799C44.249 95.8799 44.7275 95.7067 45.0693 95.3604C45.4157 95.014 45.5889 94.5264 45.5889 93.8975V93.2617C45.083 93.8451 44.3926 94.1367 43.5176 94.1367C42.6517 94.1367 41.9499 93.7881 41.4121 93.0908C40.8789 92.3936 40.6123 91.4434 40.6123 90.2402ZM41.8838 90.3838C41.8838 91.2178 42.0547 91.874 42.3965 92.3525C42.7383 92.8265 43.2168 93.0635 43.832 93.0635C44.6296 93.0635 45.2152 92.7012 45.5889 91.9766V88.5996C45.2015 87.8932 44.6204 87.54 43.8457 87.54C43.2305 87.54 42.7497 87.7793 42.4033 88.2578C42.057 88.7363 41.8838 89.445 41.8838 90.3838ZM48.4736 90.2402C48.4736 89.0872 48.7402 88.1712 49.2734 87.4922C49.8066 86.8086 50.513 86.4668 51.3926 86.4668C52.2949 86.4668 52.999 86.7858 53.5049 87.4238L53.5664 86.6035H54.7217V93.8223C54.7217 94.7793 54.4368 95.5335 53.8672 96.085C53.3021 96.6364 52.541 96.9121 51.584 96.9121C51.0508 96.9121 50.529 96.7982 50.0186 96.5703C49.5081 96.3424 49.1185 96.0303 48.8496 95.6338L49.5059 94.875C50.0482 95.5449 50.7113 95.8799 51.4951 95.8799C52.1104 95.8799 52.5889 95.7067 52.9307 95.3604C53.277 95.014 53.4502 94.5264 53.4502 93.8975V93.2617C52.9443 93.8451 52.2539 94.1367 51.3789 94.1367C50.513 94.1367 49.8112 93.7881 49.2734 93.0908C48.7402 92.3936 48.4736 91.4434 48.4736 90.2402ZM49.7451 90.3838C49.7451 91.2178 49.916 91.874 50.2578 92.3525C50.5996 92.8265 51.0781 93.0635 51.6934 93.0635C52.4909 93.0635 53.0765 92.7012 53.4502 91.9766V88.5996C53.0628 87.8932 52.4818 87.54 51.707 87.54C51.0918 87.54 50.611 87.7793 50.2646 88.2578C49.9183 88.7363 49.7451 89.445 49.7451 90.3838ZM61.2021 94C61.1292 93.8542 61.07 93.5944 61.0244 93.2207C60.4365 93.8314 59.7347 94.1367 58.9189 94.1367C58.1898 94.1367 57.5905 93.9316 57.1211 93.5215C56.6562 93.1068 56.4238 92.5827 56.4238 91.9492C56.4238 91.179 56.7155 90.582 57.2988 90.1582C57.8867 89.7298 58.7116 89.5156 59.7734 89.5156H61.0039V88.9346C61.0039 88.4925 60.8717 88.1416 60.6074 87.8818C60.3431 87.6175 59.9535 87.4854 59.4385 87.4854C58.9873 87.4854 58.609 87.5993 58.3037 87.8271C57.9984 88.055 57.8457 88.3307 57.8457 88.6543H56.5742C56.5742 88.2852 56.7041 87.9297 56.9639 87.5879C57.2282 87.2415 57.5837 86.9681 58.0303 86.7676C58.4814 86.5671 58.9759 86.4668 59.5137 86.4668C60.3659 86.4668 61.0335 86.681 61.5166 87.1094C61.9997 87.5332 62.2503 88.1188 62.2686 88.8662V92.2705C62.2686 92.9495 62.3551 93.4896 62.5283 93.8906V94H61.2021ZM59.1035 93.0361C59.5 93.0361 59.876 92.9336 60.2314 92.7285C60.5869 92.5234 60.8444 92.2568 61.0039 91.9287V90.4111H60.0127C58.4632 90.4111 57.6885 90.8646 57.6885 91.7715C57.6885 92.168 57.8206 92.4779 58.085 92.7012C58.3493 92.9245 58.6888 93.0361 59.1035 93.0361ZM65.4473 86.6035L65.4883 87.5332C66.0534 86.8223 66.7917 86.4668 67.7031 86.4668C69.2663 86.4668 70.0547 87.3486 70.0684 89.1123V94H68.8037V89.1055C68.7992 88.5723 68.6761 88.1781 68.4346 87.9229C68.1976 87.6676 67.8262 87.54 67.3203 87.54C66.9102 87.54 66.5501 87.6494 66.2402 87.8682C65.9303 88.0869 65.6888 88.374 65.5156 88.7295V94H64.251V86.6035H65.4473ZM78.1758 89.3721L76.959 90.6367V94H75.6465V84.0469H76.959V88.9688L81.3818 84.0469H82.9678L79.0508 88.4424L83.2754 94H81.7031L78.1758 89.3721ZM85.4902 87.499C86.0508 86.8109 86.7799 86.4668 87.6777 86.4668C89.2409 86.4668 90.0293 87.3486 90.043 89.1123V94H88.7783V89.1055C88.7738 88.5723 88.6507 88.1781 88.4092 87.9229C88.1722 87.6676 87.8008 87.54 87.2949 87.54C86.8848 87.54 86.5247 87.6494 86.2148 87.8682C85.9049 88.0869 85.6634 88.374 85.4902 88.7295V94H84.2256V83.5H85.4902V87.499ZM96.5029 93.2686C96.0107 93.8473 95.2884 94.1367 94.3359 94.1367C93.5475 94.1367 92.946 93.9089 92.5312 93.4531C92.1211 92.9928 91.9137 92.3138 91.9092 91.416V86.6035H93.1738V91.3818C93.1738 92.5029 93.6296 93.0635 94.541 93.0635C95.5072 93.0635 96.1497 92.7035 96.4688 91.9834V86.6035H97.7334V94H96.5303L96.5029 93.2686ZM103.968 92.0381C103.968 91.6963 103.838 91.432 103.578 91.2451C103.323 91.0537 102.874 90.8896 102.231 90.7529C101.593 90.6162 101.085 90.4521 100.707 90.2607C100.333 90.0693 100.055 89.8415 99.873 89.5771C99.6953 89.3128 99.6064 88.9984 99.6064 88.6338C99.6064 88.0277 99.8617 87.515 100.372 87.0957C100.887 86.6764 101.543 86.4668 102.341 86.4668C103.179 86.4668 103.858 86.6833 104.378 87.1162C104.902 87.5492 105.164 88.1029 105.164 88.7773H103.893C103.893 88.431 103.744 88.1325 103.448 87.8818C103.157 87.6312 102.787 87.5059 102.341 87.5059C101.881 87.5059 101.521 87.6061 101.261 87.8066C101.001 88.0072 100.871 88.2692 100.871 88.5928C100.871 88.8981 100.992 89.1283 101.233 89.2832C101.475 89.4382 101.91 89.5863 102.539 89.7275C103.173 89.8688 103.685 90.0374 104.077 90.2334C104.469 90.4294 104.758 90.6663 104.945 90.9443C105.137 91.2178 105.232 91.5527 105.232 91.9492C105.232 92.61 104.968 93.141 104.439 93.542C103.911 93.9385 103.225 94.1367 102.382 94.1367C101.789 94.1367 101.265 94.0319 100.81 93.8223C100.354 93.6126 99.9961 93.321 99.7363 92.9473C99.4811 92.569 99.3535 92.1611 99.3535 91.7236H100.618C100.641 92.1475 100.81 92.4847 101.124 92.7354C101.443 92.9814 101.862 93.1045 102.382 93.1045C102.86 93.1045 103.243 93.0088 103.53 92.8174C103.822 92.6214 103.968 92.3617 103.968 92.0381ZM111.446 93.2686C110.954 93.8473 110.232 94.1367 109.279 94.1367C108.491 94.1367 107.889 93.9089 107.475 93.4531C107.064 92.9928 106.857 92.3138 106.853 91.416V86.6035H108.117V91.3818C108.117 92.5029 108.573 93.0635 109.484 93.0635C110.451 93.0635 111.093 92.7035 111.412 91.9834V86.6035H112.677V94H111.474L111.446 93.2686ZM118.911 92.0381C118.911 91.6963 118.781 91.432 118.521 91.2451C118.266 91.0537 117.817 90.8896 117.175 90.7529C116.537 90.6162 116.029 90.4521 115.65 90.2607C115.277 90.0693 114.999 89.8415 114.816 89.5771C114.639 89.3128 114.55 88.9984 114.55 88.6338C114.55 88.0277 114.805 87.515 115.315 87.0957C115.83 86.6764 116.487 86.4668 117.284 86.4668C118.123 86.4668 118.802 86.6833 119.321 87.1162C119.845 87.5492 120.107 88.1029 120.107 88.7773H118.836C118.836 88.431 118.688 88.1325 118.392 87.8818C118.1 87.6312 117.731 87.5059 117.284 87.5059C116.824 87.5059 116.464 87.6061 116.204 87.8066C115.944 88.0072 115.814 88.2692 115.814 88.5928C115.814 88.8981 115.935 89.1283 116.177 89.2832C116.418 89.4382 116.854 89.5863 117.482 89.7275C118.116 89.8688 118.629 90.0374 119.021 90.2334C119.412 90.4294 119.702 90.6663 119.889 90.9443C120.08 91.2178 120.176 91.5527 120.176 91.9492C120.176 92.61 119.911 93.141 119.383 93.542C118.854 93.9385 118.168 94.1367 117.325 94.1367C116.733 94.1367 116.209 94.0319 115.753 93.8223C115.297 93.6126 114.939 93.321 114.68 92.9473C114.424 92.569 114.297 92.1611 114.297 91.7236H115.562C115.584 92.1475 115.753 92.4847 116.067 92.7354C116.386 92.9814 116.806 93.1045 117.325 93.1045C117.804 93.1045 118.187 93.0088 118.474 92.8174C118.765 92.6214 118.911 92.3617 118.911 92.0381ZM124.742 90.0283C124.742 91.0446 124.608 92.0199 124.339 92.9541C124.075 93.8838 123.667 94.7428 123.115 95.5312C122.568 96.3197 121.994 96.8802 121.393 97.2129L121.126 96.4404C121.828 95.9027 122.391 95.0687 122.814 93.9385C123.243 92.8037 123.462 91.5459 123.471 90.165V89.9463C123.471 88.9893 123.37 88.1006 123.17 87.2803C122.969 86.4554 122.689 85.7171 122.329 85.0654C121.974 84.4137 121.573 83.9056 121.126 83.541L121.393 82.7686C121.994 83.1012 122.566 83.6572 123.108 84.4365C123.655 85.2158 124.063 86.0749 124.332 87.0137C124.605 87.9525 124.742 88.9574 124.742 90.0283Z" fill="#453F3F"/>
<path d="M43.3239 40.892C41.7567 40.649 40.8063 38.7741 41.0334 36.8826C41.9552 11.1259 81.5213 4.47464 86 36.8826C85.9308 40.3239 85.0585 41.0018 82.6245 40.892C82.6245 40.892 44.8911 41.135 43.3239 40.892Z" fill="#26498C"/>
<path d="M43 39C43.525 11.4128 83.7809 10.5902 84 39H43Z" fill="#0B64C6"/>
<path d="M52.2483 34.4654C50.1301 35.7236 49.2916 35.6408 48.7978 33.2331C54.2472 20.3716 71.6842 17.7726 79.1131 33.2331C78.7535 35.3069 77.8563 35.4741 75.909 34.4654C70.5311 22.7966 56.2696 24.0963 52.2483 34.4654Z" fill="#C2DDEB"/>
<rect x="52.5246" y="24.6219" width="0.85465" height="4.75855" rx="0.427325" transform="rotate(-39.8123 52.5246 24.6219)" fill="#C2DDEB"/>
<rect x="54.6657" y="22.7524" width="0.85465" height="4.75855" rx="0.427325" transform="rotate(-26.2573 54.6657 22.7524)" fill="#C2DDEB"/>
<path d="M56.6847 29.6593L61.614 37.1765L63.4625 35.9442L57.6705 29.0431C53.1005 23.5929 53.0859 24.0013 56.6847 29.6593Z" fill="white"/>
<path d="M60.8746 38.6553C60.8746 34.7119 67.1595 34.7119 67.1595 38.6553H60.8746Z" fill="white"/>
<rect x="48.838" y="25.2544" width="0.85465" height="4.75855" rx="0.427325" transform="rotate(-47.7301 48.838 25.2544)" fill="#C2DDEB"/>
<rect x="48.5513" y="28.7919" width="0.85465" height="4.75855" rx="0.427325" transform="rotate(-59.2565 48.5513 28.7919)" fill="#C2DDEB"/>
<rect x="47.0725" y="31.2869" width="0.85465" height="4.75855" rx="0.427325" transform="rotate(-63.4929 47.0725 31.2869)" fill="#C2DDEB"/>
<rect x="67.2676" y="20.488" width="0.85465" height="4.75855" rx="0.427325" transform="rotate(6.31511 67.2676 20.488)" fill="#C2DDEB"/>
<rect x="70.0991" y="20.7358" width="0.85465" height="4.75855" rx="0.427325" transform="rotate(19.8702 70.0991 20.7358)" fill="#C2DDEB"/>
<rect x="64.2567" y="18.2687" width="0.85465" height="4.75855" rx="0.427325" transform="rotate(-1.60267 64.2567 18.2687)" fill="#C2DDEB"/>
<rect x="61.5078" y="20.5137" width="0.85465" height="4.75855" rx="0.427325" transform="rotate(-13.129 61.5078 20.5137)" fill="#C2DDEB"/>
<rect x="58.6844" y="21.1768" width="0.85465" height="4.75855" rx="0.427325" transform="rotate(-17.3655 58.6844 21.1768)" fill="#C2DDEB"/>
<rect x="79.0004" y="28.5243" width="0.85465" height="4.75855" rx="0.427325" transform="rotate(58.7347 79.0004 28.5243)" fill="#C2DDEB"/>
<rect x="80.5309" y="30.9194" width="0.85465" height="4.75855" rx="0.427325" transform="rotate(72.2897 80.5309 30.9194)" fill="#C2DDEB"/>
<rect x="78.9229" y="24.7845" width="0.85465" height="4.75855" rx="0.427325" transform="rotate(50.8169 78.9229 24.7845)" fill="#C2DDEB"/>
<rect x="75.4673" y="23.9753" width="0.85465" height="4.75855" rx="0.427325" transform="rotate(39.2905 75.4673 23.9753)" fill="#C2DDEB"/>
<rect x="73.2199" y="22.1422" width="0.85465" height="4.75855" rx="0.427325" transform="rotate(35.0541 73.2199 22.1422)" fill="#C2DDEB"/>
<defs>
<linearGradient id="paint0_linear" x1="63" y1="5.66515e-07" x2="36" y2="113" gradientUnits="userSpaceOnUse">
<stop stop-color="white"/>
<stop offset="1" stop-color="#1DA0E0"/>
</linearGradient>
</defs>
</svg>
