<svg width="81" height="97" viewBox="0 0 81 97" fill="none" xmlns="http://www.w3.org/2000/svg">
<rect x="9" width="55" height="55" rx="5" fill="url(#paint0_linear)"/>
<path d="M2.7793 78H1.4668V68.0469H2.7793V78ZM6.18359 70.6035L6.22461 71.5332C6.78971 70.8223 7.52799 70.4668 8.43945 70.4668C10.0026 70.4668 10.791 71.3486 10.8047 73.1123V78H9.54004V73.1055C9.53548 72.5723 9.41243 72.1781 9.1709 71.9229C8.93392 71.6676 8.5625 71.54 8.05664 71.54C7.64648 71.54 7.28646 71.6494 6.97656 71.8682C6.66667 72.0869 6.42513 72.374 6.25195 72.7295V78H4.9873V70.6035H6.18359ZM13.334 78V71.5811H12.165V70.6035H13.334V69.8447C13.334 69.0518 13.5459 68.4388 13.9697 68.0059C14.3936 67.5729 14.9928 67.3564 15.7676 67.3564C16.0592 67.3564 16.3486 67.3952 16.6357 67.4727L16.5674 68.498C16.3532 68.457 16.1253 68.4365 15.8838 68.4365C15.4736 68.4365 15.1569 68.5573 14.9336 68.7988C14.7103 69.0358 14.5986 69.3776 14.5986 69.8242V70.6035H16.1777V71.5811H14.5986V78H13.334ZM17.2441 74.2334C17.2441 73.5088 17.3854 72.8571 17.668 72.2783C17.9551 71.6995 18.3516 71.2529 18.8574 70.9385C19.3678 70.624 19.9489 70.4668 20.6006 70.4668C21.6077 70.4668 22.4212 70.8154 23.041 71.5127C23.6654 72.21 23.9775 73.1374 23.9775 74.2949V74.3838C23.9775 75.1038 23.8385 75.751 23.5605 76.3252C23.2871 76.8949 22.8929 77.3392 22.3779 77.6582C21.8675 77.9772 21.2796 78.1367 20.6143 78.1367C19.6117 78.1367 18.7982 77.7881 18.1738 77.0908C17.554 76.3936 17.2441 75.4707 17.2441 74.3223V74.2334ZM18.5156 74.3838C18.5156 75.2041 18.7048 75.8626 19.083 76.3594C19.4658 76.8561 19.9762 77.1045 20.6143 77.1045C21.2568 77.1045 21.7673 76.8538 22.1455 76.3525C22.5238 75.8467 22.7129 75.1403 22.7129 74.2334C22.7129 73.4222 22.5192 72.766 22.1318 72.2646C21.749 71.7588 21.2386 71.5059 20.6006 71.5059C19.9762 71.5059 19.4727 71.7542 19.0898 72.251C18.707 72.7477 18.5156 73.4587 18.5156 74.3838ZM35.8379 69.127H32.6387V78H31.333V69.127H28.1406V68.0469H35.8379V69.127ZM40.9033 78C40.8304 77.8542 40.7712 77.5944 40.7256 77.2207C40.1377 77.8314 39.4359 78.1367 38.6201 78.1367C37.891 78.1367 37.2917 77.9316 36.8223 77.5215C36.3574 77.1068 36.125 76.5827 36.125 75.9492C36.125 75.179 36.4167 74.582 37 74.1582C37.5879 73.7298 38.4128 73.5156 39.4746 73.5156H40.7051V72.9346C40.7051 72.4925 40.5729 72.1416 40.3086 71.8818C40.0443 71.6175 39.6546 71.4854 39.1396 71.4854C38.6885 71.4854 38.3102 71.5993 38.0049 71.8271C37.6995 72.055 37.5469 72.3307 37.5469 72.6543H36.2754C36.2754 72.2852 36.4053 71.9297 36.665 71.5879C36.9294 71.2415 37.2848 70.9681 37.7314 70.7676C38.1826 70.5671 38.6771 70.4668 39.2148 70.4668C40.0671 70.4668 40.7347 70.681 41.2178 71.1094C41.7008 71.5332 41.9515 72.1188 41.9697 72.8662V76.2705C41.9697 76.9495 42.0563 77.4896 42.2295 77.8906V78H40.9033ZM38.8047 77.0361C39.2012 77.0361 39.5771 76.9336 39.9326 76.7285C40.2881 76.5234 40.5456 76.2568 40.7051 75.9287V74.4111H39.7139C38.1644 74.4111 37.3896 74.8646 37.3896 75.7715C37.3896 76.168 37.5218 76.4779 37.7861 76.7012C38.0505 76.9245 38.39 77.0361 38.8047 77.0361ZM43.6514 74.2402C43.6514 73.0872 43.918 72.1712 44.4512 71.4922C44.9844 70.8086 45.6908 70.4668 46.5703 70.4668C47.4727 70.4668 48.1768 70.7858 48.6826 71.4238L48.7441 70.6035H49.8994V77.8223C49.8994 78.7793 49.6146 79.5335 49.0449 80.085C48.4798 80.6364 47.7188 80.9121 46.7617 80.9121C46.2285 80.9121 45.7067 80.7982 45.1963 80.5703C44.6859 80.3424 44.2962 80.0303 44.0273 79.6338L44.6836 78.875C45.2259 79.5449 45.889 79.8799 46.6729 79.8799C47.2881 79.8799 47.7666 79.7067 48.1084 79.3604C48.4548 79.014 48.6279 78.5264 48.6279 77.8975V77.2617C48.1221 77.8451 47.4316 78.1367 46.5566 78.1367C45.6908 78.1367 44.9889 77.7881 44.4512 77.0908C43.918 76.3936 43.6514 75.4434 43.6514 74.2402ZM44.9229 74.3838C44.9229 75.2178 45.0938 75.874 45.4355 76.3525C45.7773 76.8265 46.2559 77.0635 46.8711 77.0635C47.6686 77.0635 48.2542 76.7012 48.6279 75.9766V72.5996C48.2406 71.8932 47.6595 71.54 46.8848 71.54C46.2695 71.54 45.7887 71.7793 45.4424 72.2578C45.096 72.7363 44.9229 73.445 44.9229 74.3838ZM53.1875 78H51.9229V70.6035H53.1875V78ZM51.8203 68.6416C51.8203 68.4365 51.8818 68.2633 52.0049 68.1221C52.1325 67.9808 52.3193 67.9102 52.5654 67.9102C52.8115 67.9102 52.9984 67.9808 53.126 68.1221C53.2536 68.2633 53.3174 68.4365 53.3174 68.6416C53.3174 68.8467 53.2536 69.0176 53.126 69.1543C52.9984 69.291 52.8115 69.3594 52.5654 69.3594C52.3193 69.3594 52.1325 69.291 52.0049 69.1543C51.8818 69.0176 51.8203 68.8467 51.8203 68.6416ZM56.4824 71.499C57.043 70.8109 57.7721 70.4668 58.6699 70.4668C60.2331 70.4668 61.0215 71.3486 61.0352 73.1123V78H59.7705V73.1055C59.766 72.5723 59.6429 72.1781 59.4014 71.9229C59.1644 71.6676 58.793 71.54 58.2871 71.54C57.877 71.54 57.5169 71.6494 57.207 71.8682C56.8971 72.0869 56.6556 72.374 56.4824 72.7295V78H55.2178V67.5H56.4824V71.499ZM67.4951 78C67.4222 77.8542 67.363 77.5944 67.3174 77.2207C66.7295 77.8314 66.0277 78.1367 65.2119 78.1367C64.4827 78.1367 63.8835 77.9316 63.4141 77.5215C62.9492 77.1068 62.7168 76.5827 62.7168 75.9492C62.7168 75.179 63.0085 74.582 63.5918 74.1582C64.1797 73.7298 65.0046 73.5156 66.0664 73.5156H67.2969V72.9346C67.2969 72.4925 67.1647 72.1416 66.9004 71.8818C66.6361 71.6175 66.2464 71.4854 65.7314 71.4854C65.2803 71.4854 64.902 71.5993 64.5967 71.8271C64.2913 72.055 64.1387 72.3307 64.1387 72.6543H62.8672C62.8672 72.2852 62.9971 71.9297 63.2568 71.5879C63.5212 71.2415 63.8766 70.9681 64.3232 70.7676C64.7744 70.5671 65.2689 70.4668 65.8066 70.4668C66.6589 70.4668 67.3265 70.681 67.8096 71.1094C68.2926 71.5332 68.5433 72.1188 68.5615 72.8662V76.2705C68.5615 76.9495 68.6481 77.4896 68.8213 77.8906V78H67.4951ZM65.3965 77.0361C65.793 77.0361 66.1689 76.9336 66.5244 76.7285C66.8799 76.5234 67.1374 76.2568 67.2969 75.9287V74.4111H66.3057C64.7562 74.4111 63.9814 74.8646 63.9814 75.7715C63.9814 76.168 64.1136 76.4779 64.3779 76.7012C64.6423 76.9245 64.9818 77.0361 65.3965 77.0361ZM71.7402 70.6035L71.7812 71.5332C72.3464 70.8223 73.0846 70.4668 73.9961 70.4668C75.5592 70.4668 76.3477 71.3486 76.3613 73.1123V78H75.0967V73.1055C75.0921 72.5723 74.9691 72.1781 74.7275 71.9229C74.4906 71.6676 74.1191 71.54 73.6133 71.54C73.2031 71.54 72.8431 71.6494 72.5332 71.8682C72.2233 72.0869 71.9818 72.374 71.8086 72.7295V78H70.5439V70.6035H71.7402ZM9.98438 90.1035V94H8.67188V84.0469H12.3428C13.432 84.0469 14.2842 84.3249 14.8994 84.8809C15.5192 85.4368 15.8291 86.1729 15.8291 87.0889C15.8291 88.055 15.526 88.8001 14.9199 89.3242C14.3184 89.8438 13.4548 90.1035 12.3291 90.1035H9.98438ZM9.98438 89.0303H12.3428C13.0446 89.0303 13.5824 88.8662 13.9561 88.5381C14.3298 88.2054 14.5166 87.7269 14.5166 87.1025C14.5166 86.5101 14.3298 86.0361 13.9561 85.6807C13.5824 85.3252 13.0697 85.1406 12.418 85.127H9.98438V89.0303ZM20.2793 94.1367C19.2767 94.1367 18.4609 93.8086 17.832 93.1523C17.2031 92.4915 16.8887 91.6097 16.8887 90.5068V90.2744C16.8887 89.5407 17.0277 88.8867 17.3057 88.3125C17.5882 87.7337 17.9801 87.2826 18.4814 86.959C18.9873 86.6309 19.5342 86.4668 20.1221 86.4668C21.0837 86.4668 21.8311 86.7835 22.3643 87.417C22.8975 88.0505 23.1641 88.9574 23.1641 90.1377V90.6641H18.1533C18.1715 91.3932 18.3835 91.9834 18.7891 92.4346C19.1992 92.8812 19.7188 93.1045 20.3477 93.1045C20.7943 93.1045 21.1725 93.0133 21.4824 92.8311C21.7923 92.6488 22.0635 92.4072 22.2959 92.1064L23.0684 92.708C22.4486 93.6605 21.5189 94.1367 20.2793 94.1367ZM20.1221 87.5059C19.6117 87.5059 19.1833 87.6927 18.8369 88.0664C18.4906 88.4355 18.2764 88.9551 18.1943 89.625H21.8994V89.5293C21.863 88.8867 21.6898 88.39 21.3799 88.0391C21.07 87.6836 20.6507 87.5059 20.1221 87.5059ZM26.0078 94H24.7432V83.5H26.0078V94ZM32.6045 94C32.5316 93.8542 32.4723 93.5944 32.4268 93.2207C31.8389 93.8314 31.137 94.1367 30.3213 94.1367C29.5921 94.1367 28.9928 93.9316 28.5234 93.5215C28.0586 93.1068 27.8262 92.5827 27.8262 91.9492C27.8262 91.179 28.1178 90.582 28.7012 90.1582C29.2891 89.7298 30.1139 89.5156 31.1758 89.5156H32.4062V88.9346C32.4062 88.4925 32.2741 88.1416 32.0098 87.8818C31.7454 87.6175 31.3558 87.4854 30.8408 87.4854C30.3896 87.4854 30.0114 87.5993 29.7061 87.8271C29.4007 88.055 29.248 88.3307 29.248 88.6543H27.9766C27.9766 88.2852 28.1064 87.9297 28.3662 87.5879C28.6305 87.2415 28.986 86.9681 29.4326 86.7676C29.8838 86.5671 30.3783 86.4668 30.916 86.4668C31.7682 86.4668 32.4359 86.681 32.9189 87.1094C33.402 87.5332 33.6527 88.1188 33.6709 88.8662V92.2705C33.6709 92.9495 33.7575 93.4896 33.9307 93.8906V94H32.6045ZM30.5059 93.0361C30.9023 93.0361 31.2783 92.9336 31.6338 92.7285C31.9893 92.5234 32.2467 92.2568 32.4062 91.9287V90.4111H31.415C29.8656 90.4111 29.0908 90.8646 29.0908 91.7715C29.0908 92.168 29.223 92.4779 29.4873 92.7012C29.7516 92.9245 30.0911 93.0361 30.5059 93.0361ZM36.8496 86.6035L36.8906 87.5332C37.4557 86.8223 38.194 86.4668 39.1055 86.4668C40.6686 86.4668 41.457 87.3486 41.4707 89.1123V94H40.2061V89.1055C40.2015 88.5723 40.0785 88.1781 39.8369 87.9229C39.5999 87.6676 39.2285 87.54 38.7227 87.54C38.3125 87.54 37.9525 87.6494 37.6426 87.8682C37.3327 88.0869 37.0911 88.374 36.918 88.7295V94H35.6533V86.6035H36.8496ZM43.0771 90.2402C43.0771 89.0872 43.3438 88.1712 43.877 87.4922C44.4102 86.8086 45.1165 86.4668 45.9961 86.4668C46.8984 86.4668 47.6025 86.7858 48.1084 87.4238L48.1699 86.6035H49.3252V93.8223C49.3252 94.7793 49.0404 95.5335 48.4707 96.085C47.9056 96.6364 47.1445 96.9121 46.1875 96.9121C45.6543 96.9121 45.1325 96.7982 44.6221 96.5703C44.1117 96.3424 43.722 96.0303 43.4531 95.6338L44.1094 94.875C44.6517 95.5449 45.3148 95.8799 46.0986 95.8799C46.7139 95.8799 47.1924 95.7067 47.5342 95.3604C47.8805 95.014 48.0537 94.5264 48.0537 93.8975V93.2617C47.5479 93.8451 46.8574 94.1367 45.9824 94.1367C45.1165 94.1367 44.4147 93.7881 43.877 93.0908C43.3438 92.3936 43.0771 91.4434 43.0771 90.2402ZM44.3486 90.3838C44.3486 91.2178 44.5195 91.874 44.8613 92.3525C45.2031 92.8265 45.6816 93.0635 46.2969 93.0635C47.0944 93.0635 47.68 92.7012 48.0537 91.9766V88.5996C47.6663 87.8932 47.0853 87.54 46.3105 87.54C45.6953 87.54 45.2145 87.7793 44.8682 88.2578C44.5218 88.7363 44.3486 89.445 44.3486 90.3838ZM50.9385 90.2402C50.9385 89.0872 51.2051 88.1712 51.7383 87.4922C52.2715 86.8086 52.9779 86.4668 53.8574 86.4668C54.7598 86.4668 55.4639 86.7858 55.9697 87.4238L56.0312 86.6035H57.1865V93.8223C57.1865 94.7793 56.9017 95.5335 56.332 96.085C55.7669 96.6364 55.0059 96.9121 54.0488 96.9121C53.5156 96.9121 52.9938 96.7982 52.4834 96.5703C51.973 96.3424 51.5833 96.0303 51.3145 95.6338L51.9707 94.875C52.513 95.5449 53.1761 95.8799 53.96 95.8799C54.5752 95.8799 55.0537 95.7067 55.3955 95.3604C55.7419 95.014 55.915 94.5264 55.915 93.8975V93.2617C55.4092 93.8451 54.7188 94.1367 53.8438 94.1367C52.9779 94.1367 52.276 93.7881 51.7383 93.0908C51.2051 92.3936 50.9385 91.4434 50.9385 90.2402ZM52.21 90.3838C52.21 91.2178 52.3809 91.874 52.7227 92.3525C53.0645 92.8265 53.543 93.0635 54.1582 93.0635C54.9557 93.0635 55.5413 92.7012 55.915 91.9766V88.5996C55.5277 87.8932 54.9466 87.54 54.1719 87.54C53.5566 87.54 53.0758 87.7793 52.7295 88.2578C52.3831 88.7363 52.21 89.445 52.21 90.3838ZM63.667 94C63.5941 93.8542 63.5348 93.5944 63.4893 93.2207C62.9014 93.8314 62.1995 94.1367 61.3838 94.1367C60.6546 94.1367 60.0553 93.9316 59.5859 93.5215C59.1211 93.1068 58.8887 92.5827 58.8887 91.9492C58.8887 91.179 59.1803 90.582 59.7637 90.1582C60.3516 89.7298 61.1764 89.5156 62.2383 89.5156H63.4688V88.9346C63.4688 88.4925 63.3366 88.1416 63.0723 87.8818C62.8079 87.6175 62.4183 87.4854 61.9033 87.4854C61.4521 87.4854 61.0739 87.5993 60.7686 87.8271C60.4632 88.055 60.3105 88.3307 60.3105 88.6543H59.0391C59.0391 88.2852 59.1689 87.9297 59.4287 87.5879C59.693 87.2415 60.0485 86.9681 60.4951 86.7676C60.9463 86.5671 61.4408 86.4668 61.9785 86.4668C62.8307 86.4668 63.4984 86.681 63.9814 87.1094C64.4645 87.5332 64.7152 88.1188 64.7334 88.8662V92.2705C64.7334 92.9495 64.82 93.4896 64.9932 93.8906V94H63.667ZM61.5684 93.0361C61.9648 93.0361 62.3408 92.9336 62.6963 92.7285C63.0518 92.5234 63.3092 92.2568 63.4688 91.9287V90.4111H62.4775C60.9281 90.4111 60.1533 90.8646 60.1533 91.7715C60.1533 92.168 60.2855 92.4779 60.5498 92.7012C60.8141 92.9245 61.1536 93.0361 61.5684 93.0361ZM67.9121 86.6035L67.9531 87.5332C68.5182 86.8223 69.2565 86.4668 70.168 86.4668C71.7311 86.4668 72.5195 87.3486 72.5332 89.1123V94H71.2686V89.1055C71.264 88.5723 71.141 88.1781 70.8994 87.9229C70.6624 87.6676 70.291 87.54 69.7852 87.54C69.375 87.54 69.015 87.6494 68.7051 87.8682C68.3952 88.0869 68.1536 88.374 67.9805 88.7295V94H66.7158V86.6035H67.9121Z" fill="#453F3F"/>
<path d="M29.5884 46.864L34.4281 39.4431H61.1721C60.8948 43.902 60.214 46.0703 57.3003 46.864H29.5884Z" fill="#0A4B9B"/>
<path d="M49.4851 39.4432C47.1065 31.3789 46.3779 25.6068 46.6888 11.9822H20.1241C14.4578 39.4432 31.9297 58.1814 34.4281 39.4432H49.4851Z" fill="#0B65C7"/>
<rect x="22.7091" y="27.1458" width="21.818" height="0.654539" fill="white"/>
<rect x="32.8544" y="18.0366" width="10.909" height="0.654539" fill="white"/>
<rect x="32.8544" y="20.7639" width="10.909" height="0.654539" fill="white"/>
<rect x="23.2545" y="30.582" width="21.818" height="0.654539" fill="white"/>
<rect x="24.0727" y="33.7456" width="21.818" height="0.654539" fill="white"/>
<rect x="25.2727" y="37.1819" width="21.818" height="0.654539" fill="white"/>
<defs>
<linearGradient id="paint0_linear" x1="36" y1="5.66515e-07" x2="9" y2="113" gradientUnits="userSpaceOnUse">
<stop stop-color="white"/>
<stop offset="1" stop-color="#1DA0E0"/>
</linearGradient>
</defs>
</svg>
