<svg width="126" height="98" viewBox="0 0 126 98" fill="none" xmlns="http://www.w3.org/2000/svg">
<path d="M86 0H41C38.2386 0 36 2.23858 36 5V50C36 52.7614 38.2386 55 41 55H86C88.7614 55 91 52.7614 91 50V5C91 2.23858 88.7614 0 86 0Z" fill="url(#paint0_linear_2_2)"/>
<path d="M1.59961 78V68.0469H4.85352C5.93359 68.0469 6.74479 68.2702 7.28711 68.7168C7.83398 69.1634 8.10742 69.8242 8.10742 70.6992C8.10742 71.1641 7.97526 71.5765 7.71094 71.9365C7.44661 72.292 7.08659 72.5677 6.63086 72.7637C7.16862 72.9141 7.59245 73.2012 7.90234 73.625C8.2168 74.0443 8.37402 74.5456 8.37402 75.1289C8.37402 76.0221 8.08464 76.724 7.50586 77.2344C6.92708 77.7448 6.10905 78 5.05176 78H1.59961ZM2.91211 73.3447V76.9268H5.0791C5.68978 76.9268 6.17057 76.7695 6.52148 76.4551C6.87695 76.1361 7.05469 75.6986 7.05469 75.1426C7.05469 73.944 6.40299 73.3447 5.09961 73.3447H2.91211ZM2.91211 72.292H4.89453C5.46875 72.292 5.92676 72.1484 6.26855 71.8613C6.61491 71.5742 6.78809 71.1846 6.78809 70.6924C6.78809 70.1455 6.62858 69.749 6.30957 69.5029C5.99056 69.2523 5.50521 69.127 4.85352 69.127H2.91211V72.292ZM14.6904 78C14.6175 77.8542 14.5583 77.5944 14.5127 77.2207C13.9248 77.8314 13.223 78.1367 12.4072 78.1367C11.6781 78.1367 11.0788 77.9316 10.6094 77.5215C10.1445 77.1068 9.91211 76.5827 9.91211 75.9492C9.91211 75.179 10.2038 74.582 10.7871 74.1582C11.375 73.7298 12.1999 73.5156 13.2617 73.5156H14.4922V72.9346C14.4922 72.4925 14.36 72.1416 14.0957 71.8818C13.8314 71.6175 13.4417 71.4854 12.9268 71.4854C12.4756 71.4854 12.0973 71.5993 11.792 71.8271C11.4867 72.055 11.334 72.3307 11.334 72.6543H10.0625C10.0625 72.2852 10.1924 71.9297 10.4521 71.5879C10.7165 71.2415 11.0719 70.9681 11.5186 70.7676C11.9697 70.5671 12.4642 70.4668 13.002 70.4668C13.8542 70.4668 14.5218 70.681 15.0049 71.1094C15.488 71.5332 15.7386 72.1188 15.7568 72.8662V76.2705C15.7568 76.9495 15.8434 77.4896 16.0166 77.8906V78H14.6904ZM12.5918 77.0361C12.9883 77.0361 13.3643 76.9336 13.7197 76.7285C14.0752 76.5234 14.3327 76.2568 14.4922 75.9287V74.4111H13.501C11.9515 74.4111 11.1768 74.8646 11.1768 75.7715C11.1768 76.168 11.3089 76.4779 11.5732 76.7012C11.8376 76.9245 12.1771 77.0361 12.5918 77.0361ZM20.7061 77.1045C21.1572 77.1045 21.5514 76.9678 21.8887 76.6943C22.2259 76.4209 22.4128 76.0791 22.4492 75.6689H23.6455C23.6227 76.0928 23.4769 76.4961 23.208 76.8789C22.9391 77.2617 22.5791 77.5671 22.1279 77.7949C21.6813 78.0228 21.2074 78.1367 20.7061 78.1367C19.6989 78.1367 18.8968 77.8018 18.2998 77.1318C17.7074 76.4574 17.4111 75.5368 17.4111 74.3701V74.1582C17.4111 73.4382 17.5433 72.7979 17.8076 72.2373C18.0719 71.6768 18.4502 71.2415 18.9424 70.9316C19.4391 70.6217 20.0247 70.4668 20.6992 70.4668C21.5286 70.4668 22.2168 70.7152 22.7637 71.2119C23.3151 71.7087 23.609 72.3535 23.6455 73.1465H22.4492C22.4128 72.668 22.2305 72.276 21.9023 71.9707C21.5788 71.6608 21.1777 71.5059 20.6992 71.5059C20.0566 71.5059 19.5576 71.7383 19.2021 72.2031C18.8512 72.6634 18.6758 73.3311 18.6758 74.2061V74.4453C18.6758 75.2975 18.8512 75.9538 19.2021 76.4141C19.5531 76.8743 20.0544 77.1045 20.7061 77.1045ZM29.6338 78C29.5609 77.8542 29.5016 77.5944 29.4561 77.2207C28.8682 77.8314 28.1663 78.1367 27.3506 78.1367C26.6214 78.1367 26.0221 77.9316 25.5527 77.5215C25.0879 77.1068 24.8555 76.5827 24.8555 75.9492C24.8555 75.179 25.1471 74.582 25.7305 74.1582C26.3184 73.7298 27.1432 73.5156 28.2051 73.5156H29.4355V72.9346C29.4355 72.4925 29.3034 72.1416 29.0391 71.8818C28.7747 71.6175 28.3851 71.4854 27.8701 71.4854C27.4189 71.4854 27.0407 71.5993 26.7354 71.8271C26.43 72.055 26.2773 72.3307 26.2773 72.6543H25.0059C25.0059 72.2852 25.1357 71.9297 25.3955 71.5879C25.6598 71.2415 26.0153 70.9681 26.4619 70.7676C26.9131 70.5671 27.4076 70.4668 27.9453 70.4668C28.7975 70.4668 29.4652 70.681 29.9482 71.1094C30.4313 71.5332 30.682 72.1188 30.7002 72.8662V76.2705C30.7002 76.9495 30.7868 77.4896 30.96 77.8906V78H29.6338ZM27.5352 77.0361C27.9316 77.0361 28.3076 76.9336 28.6631 76.7285C29.0186 76.5234 29.276 76.2568 29.4355 75.9287V74.4111H28.4443C26.8949 74.4111 26.1201 74.8646 26.1201 75.7715C26.1201 76.168 26.2523 76.4779 26.5166 76.7012C26.7809 76.9245 27.1204 77.0361 27.5352 77.0361ZM38.0488 68.0469L41.3027 76.168L44.5566 68.0469H46.2588V78H44.9463V74.124L45.0693 69.9404L41.8018 78H40.7969L37.5361 69.9609L37.666 74.124V78H36.3535V68.0469H38.0488ZM51.4473 78.1367C50.4447 78.1367 49.6289 77.8086 49 77.1523C48.3711 76.4915 48.0566 75.6097 48.0566 74.5068V74.2744C48.0566 73.5407 48.1956 72.8867 48.4736 72.3125C48.7562 71.7337 49.1481 71.2826 49.6494 70.959C50.1553 70.6309 50.7021 70.4668 51.29 70.4668C52.2516 70.4668 52.999 70.7835 53.5322 71.417C54.0654 72.0505 54.332 72.9574 54.332 74.1377V74.6641H49.3213C49.3395 75.3932 49.5514 75.9834 49.957 76.4346C50.3672 76.8812 50.8867 77.1045 51.5156 77.1045C51.9622 77.1045 52.3405 77.0133 52.6504 76.8311C52.9603 76.6488 53.2314 76.4072 53.4639 76.1064L54.2363 76.708C53.6165 77.6605 52.6868 78.1367 51.4473 78.1367ZM51.29 71.5059C50.7796 71.5059 50.3512 71.6927 50.0049 72.0664C49.6585 72.4355 49.4443 72.9551 49.3623 73.625H53.0674V73.5293C53.0309 72.8867 52.8577 72.39 52.5479 72.0391C52.238 71.6836 51.8187 71.5059 51.29 71.5059ZM57.5176 68.8125V70.6035H58.8984V71.5811H57.5176V76.168C57.5176 76.4642 57.5791 76.6875 57.7021 76.8379C57.8252 76.9837 58.0348 77.0566 58.3311 77.0566C58.4769 77.0566 58.6774 77.0293 58.9326 76.9746V78C58.5999 78.0911 58.2764 78.1367 57.9619 78.1367C57.3968 78.1367 56.9707 77.9658 56.6836 77.624C56.3965 77.2822 56.2529 76.7969 56.2529 76.168V71.5811H54.9062V70.6035H56.2529V68.8125H57.5176ZM63.4512 78.1367C62.4486 78.1367 61.6328 77.8086 61.0039 77.1523C60.375 76.4915 60.0605 75.6097 60.0605 74.5068V74.2744C60.0605 73.5407 60.1995 72.8867 60.4775 72.3125C60.7601 71.7337 61.152 71.2826 61.6533 70.959C62.1592 70.6309 62.7061 70.4668 63.2939 70.4668C64.2555 70.4668 65.0029 70.7835 65.5361 71.417C66.0693 72.0505 66.3359 72.9574 66.3359 74.1377V74.6641H61.3252C61.3434 75.3932 61.5553 75.9834 61.9609 76.4346C62.3711 76.8812 62.8906 77.1045 63.5195 77.1045C63.9661 77.1045 64.3444 77.0133 64.6543 76.8311C64.9642 76.6488 65.2354 76.4072 65.4678 76.1064L66.2402 76.708C65.6204 77.6605 64.6908 78.1367 63.4512 78.1367ZM63.2939 71.5059C62.7835 71.5059 62.3551 71.6927 62.0088 72.0664C61.6624 72.4355 61.4482 72.9551 61.3662 73.625H65.0713V73.5293C65.0348 72.8867 64.8617 72.39 64.5518 72.0391C64.2419 71.6836 63.8226 71.5059 63.2939 71.5059ZM71.3809 71.7383C71.1895 71.7064 70.9821 71.6904 70.7588 71.6904C69.9294 71.6904 69.3665 72.0436 69.0703 72.75V78H67.8057V70.6035H69.0361L69.0566 71.458C69.4714 70.7972 70.0592 70.4668 70.8203 70.4668C71.0664 70.4668 71.2533 70.4987 71.3809 70.5625V71.7383ZM77.916 68.0469L81.1699 76.168L84.4238 68.0469H86.126V78H84.8135V74.124L84.9365 69.9404L81.6689 78H80.6641L77.4033 69.9609L77.5332 74.124V78H76.2207V68.0469H77.916ZM92.8115 78C92.7386 77.8542 92.6794 77.5944 92.6338 77.2207C92.0459 77.8314 91.3441 78.1367 90.5283 78.1367C89.7992 78.1367 89.1999 77.9316 88.7305 77.5215C88.2656 77.1068 88.0332 76.5827 88.0332 75.9492C88.0332 75.179 88.3249 74.582 88.9082 74.1582C89.4961 73.7298 90.321 73.5156 91.3828 73.5156H92.6133V72.9346C92.6133 72.4925 92.4811 72.1416 92.2168 71.8818C91.9525 71.6175 91.5628 71.4854 91.0479 71.4854C90.5967 71.4854 90.2184 71.5993 89.9131 71.8271C89.6077 72.055 89.4551 72.3307 89.4551 72.6543H88.1836C88.1836 72.2852 88.3135 71.9297 88.5732 71.5879C88.8376 71.2415 89.193 70.9681 89.6396 70.7676C90.0908 70.5671 90.5853 70.4668 91.123 70.4668C91.9753 70.4668 92.6429 70.681 93.126 71.1094C93.609 71.5332 93.8597 72.1188 93.8779 72.8662V76.2705C93.8779 76.9495 93.9645 77.4896 94.1377 77.8906V78H92.8115ZM90.7129 77.0361C91.1094 77.0361 91.4854 76.9336 91.8408 76.7285C92.1963 76.5234 92.4538 76.2568 92.6133 75.9287V74.4111H91.6221C90.0726 74.4111 89.2979 74.8646 89.2979 75.7715C89.2979 76.168 89.43 76.4779 89.6943 76.7012C89.9587 76.9245 90.2982 77.0361 90.7129 77.0361ZM97.0566 70.6035L97.0977 71.5332C97.6628 70.8223 98.401 70.4668 99.3125 70.4668C100.876 70.4668 101.664 71.3486 101.678 73.1123V78H100.413V73.1055C100.409 72.5723 100.285 72.1781 100.044 71.9229C99.807 71.6676 99.4355 71.54 98.9297 71.54C98.5195 71.54 98.1595 71.6494 97.8496 71.8682C97.5397 72.0869 97.2982 72.374 97.125 72.7295V78H95.8604V70.6035H97.0566ZM103.277 74.2402C103.277 73.1055 103.546 72.194 104.084 71.5059C104.622 70.8132 105.326 70.4668 106.196 70.4668C107.062 70.4668 107.748 70.763 108.254 71.3555V67.5H109.519V78H108.356L108.295 77.207C107.789 77.8268 107.085 78.1367 106.183 78.1367C105.326 78.1367 104.626 77.7858 104.084 77.084C103.546 76.3822 103.277 75.4661 103.277 74.3359V74.2402ZM104.542 74.3838C104.542 75.2223 104.715 75.8786 105.062 76.3525C105.408 76.8265 105.886 77.0635 106.497 77.0635C107.299 77.0635 107.885 76.7035 108.254 75.9834V72.5859C107.876 71.8887 107.295 71.54 106.511 71.54C105.891 71.54 105.408 71.7793 105.062 72.2578C104.715 72.7363 104.542 73.445 104.542 74.3838ZM112.861 78H111.597V70.6035H112.861V78ZM111.494 68.6416C111.494 68.4365 111.556 68.2633 111.679 68.1221C111.806 67.9808 111.993 67.9102 112.239 67.9102C112.485 67.9102 112.672 67.9808 112.8 68.1221C112.927 68.2633 112.991 68.4365 112.991 68.6416C112.991 68.8467 112.927 69.0176 112.8 69.1543C112.672 69.291 112.485 69.3594 112.239 69.3594C111.993 69.3594 111.806 69.291 111.679 69.1543C111.556 69.0176 111.494 68.8467 111.494 68.6416ZM118.467 71.7383C118.275 71.7064 118.068 71.6904 117.845 71.6904C117.015 71.6904 116.452 72.0436 116.156 72.75V78H114.892V70.6035H116.122L116.143 71.458C116.557 70.7972 117.145 70.4668 117.906 70.4668C118.152 70.4668 118.339 70.4987 118.467 70.5625V71.7383ZM121.01 78H119.745V70.6035H121.01V78ZM119.643 68.6416C119.643 68.4365 119.704 68.2633 119.827 68.1221C119.955 67.9808 120.142 67.9102 120.388 67.9102C120.634 67.9102 120.821 67.9808 120.948 68.1221C121.076 68.2633 121.14 68.4365 121.14 68.6416C121.14 68.8467 121.076 69.0176 120.948 69.1543C120.821 69.291 120.634 69.3594 120.388 69.3594C120.142 69.3594 119.955 69.291 119.827 69.1543C119.704 69.0176 119.643 68.8467 119.643 68.6416Z" fill="#453F3F"/>
<path d="M43.3239 40.892C41.7567 40.649 40.8063 38.7741 41.0334 36.8826C41.9552 11.1259 81.5213 4.47464 86 36.8826C85.9308 40.3239 85.0585 41.0018 82.6245 40.892C82.6245 40.892 44.8911 41.135 43.3239 40.892Z" fill="#26498C"/>
<path d="M43 39C43.525 11.4128 83.7809 10.5902 84 39H43Z" fill="#0B64C6"/>
<path d="M52.2483 34.4654C50.1301 35.7236 49.2916 35.6408 48.7978 33.2331C54.2472 20.3716 71.6842 17.7726 79.1131 33.2331C78.7535 35.3069 77.8563 35.4741 75.909 34.4654C70.5311 22.7966 56.2696 24.0963 52.2483 34.4654Z" fill="#C2DDEB"/>
<path d="M53.4547 24.4029C53.3036 24.2217 53.0341 24.1972 52.8528 24.3483C52.6716 24.4994 52.6471 24.7689 52.7982 24.9501L55.2978 27.9489C55.4489 28.1302 55.7183 28.1547 55.8996 28.0036C56.0809 27.8525 56.1054 27.583 55.9543 27.4017L53.4547 24.4029Z" fill="#C2DDEB"/>
<path d="M55.6212 22.7575C55.5168 22.5459 55.2606 22.4589 55.0489 22.5633C54.8373 22.6678 54.7503 22.924 54.8547 23.1356L56.5818 26.6367C56.6863 26.8484 56.9425 26.9353 57.1541 26.8309C57.3658 26.7265 57.4527 26.4703 57.3483 26.2586L55.6212 22.7575Z" fill="#C2DDEB"/>
<path d="M56.6847 29.6593L61.614 37.1765L63.4625 35.9442L57.6705 29.0431C53.1005 23.5929 53.0859 24.0013 56.6847 29.6593Z" fill="white"/>
<path d="M60.8746 38.6553C60.8746 34.7119 67.1595 34.7119 67.1595 38.6553H60.8746Z" fill="white"/>
<path d="M49.7291 24.9094C49.5544 24.7507 49.2842 24.7635 49.1254 24.9382C48.9667 25.1128 48.9796 25.3831 49.1542 25.5418L52.043 28.1677C52.2177 28.3264 52.4879 28.3135 52.6467 28.1389C52.8054 27.9643 52.7925 27.694 52.6179 27.5353L49.7291 24.9094Z" fill="#C2DDEB"/>
<path d="M49.3555 28.2758C49.1526 28.1552 48.8904 28.2218 48.7697 28.4246C48.6491 28.6275 48.7157 28.8897 48.9186 29.0103L52.2738 31.006C52.4767 31.1266 52.7389 31.06 52.8596 30.8572C52.9802 30.6543 52.9136 30.3921 52.7107 30.2715L49.3555 28.2758Z" fill="#C2DDEB"/>
<path d="M47.8363 30.7128C47.6251 30.6075 47.3685 30.6933 47.2632 30.9045C47.1579 31.1157 47.2437 31.3723 47.4549 31.4776L50.9484 33.22C51.1596 33.3253 51.4162 33.2395 51.5215 33.0283C51.6269 32.8171 51.5411 32.5605 51.3299 32.4552L47.8363 30.7128Z" fill="#C2DDEB"/>
<path d="M68.0701 21.0067C68.096 20.7722 67.9269 20.561 67.6923 20.535C67.4578 20.509 67.2466 20.6782 67.2206 20.9127L66.7912 24.7929C66.7652 25.0275 66.9343 25.2387 67.1689 25.2647C67.4035 25.2906 67.6147 25.1215 67.6406 24.887L68.0701 21.0067Z" fill="#C2DDEB"/>
<path d="M70.7576 21.4282C70.8378 21.2062 70.7229 20.9613 70.501 20.881C70.279 20.8008 70.0341 20.9157 69.9539 21.1377L68.627 24.8092C68.5467 25.0311 68.6616 25.2761 68.8836 25.3563C69.1056 25.4365 69.3505 25.3216 69.4307 25.0997L70.7576 21.4282Z" fill="#C2DDEB"/>
<path d="M65.123 18.672C65.1164 18.436 64.9198 18.2501 64.6839 18.2567C64.4479 18.2633 64.262 18.4599 64.2687 18.6959L64.3778 22.5982C64.3844 22.8341 64.581 23.02 64.8169 23.0134C65.0529 23.0068 65.2388 22.8102 65.2322 22.5743L65.123 18.672Z" fill="#C2DDEB"/>
<path d="M62.4372 20.7357C62.3836 20.5059 62.1538 20.363 61.924 20.4166C61.6941 20.4702 61.5513 20.7 61.6049 20.9299L62.4916 24.7317C62.5452 24.9615 62.775 25.1044 63.0048 25.0508C63.2347 24.9972 63.3775 24.7674 63.3239 24.5376L62.4372 20.7357Z" fill="#C2DDEB"/>
<path d="M59.6276 21.3296C59.5572 21.1043 59.3175 20.9788 59.0922 21.0493C58.867 21.1197 58.7415 21.3594 58.8119 21.5846L59.9771 25.3106C60.0476 25.5359 60.2873 25.6614 60.5125 25.5909C60.7378 25.5205 60.8633 25.2808 60.7928 25.0555L59.6276 21.3296Z" fill="#C2DDEB"/>
<path d="M79.0787 29.4766C79.2804 29.3541 79.3447 29.0913 79.2222 28.8896C79.0997 28.6878 78.8369 28.6236 78.6351 28.7461L75.2982 30.7722C75.0964 30.8947 75.0322 31.1575 75.1547 31.3593C75.2772 31.561 75.54 31.6252 75.7417 31.5027L79.0787 29.4766Z" fill="#C2DDEB"/>
<path d="M80.3838 31.8635C80.6086 31.7917 80.7327 31.5513 80.6609 31.3265C80.5891 31.1016 80.3486 30.9776 80.1238 31.0494L76.4049 32.237C76.1801 32.3088 76.0561 32.5492 76.1279 32.774C76.1997 32.9989 76.4401 33.1229 76.6649 33.0511L80.3838 31.8635Z" fill="#C2DDEB"/>
<path d="M79.1316 25.717C79.3146 25.5678 79.342 25.2987 79.1929 25.1157C79.0438 24.9328 78.7746 24.9054 78.5917 25.0545L75.5656 27.521C75.3827 27.6701 75.3553 27.9393 75.5044 28.1222C75.6535 28.3051 75.9227 28.3325 76.1056 28.1834L79.1316 25.717Z" fill="#C2DDEB"/>
<path d="M75.8582 24.8472C76.0076 24.6646 75.9807 24.3954 75.798 24.2459C75.6154 24.0965 75.3461 24.1234 75.1967 24.306L72.7245 27.3274C72.5751 27.5101 72.602 27.7793 72.7847 27.9288C72.9673 28.0782 73.2365 28.0513 73.386 27.8686L75.8582 24.8472Z" fill="#C2DDEB"/>
<path d="M73.6741 22.9829C73.8096 22.7897 73.7629 22.5232 73.5697 22.3876C73.3765 22.2521 73.11 22.2988 72.9745 22.492L70.7323 25.6878C70.5967 25.881 70.6434 26.1475 70.8366 26.283C71.0298 26.4186 71.2963 26.3718 71.4319 26.1787L73.6741 22.9829Z" fill="#C2DDEB"/>
<defs>
<linearGradient id="paint0_linear_2_2" x1="63" y1="1.40078e-06" x2="36" y2="113" gradientUnits="userSpaceOnUse">
<stop stop-color="white"/>
<stop offset="1" stop-color="#1DA0E0"/>
</linearGradient>
</defs>
</svg>
