<svg width="132" height="97" viewBox="0 0 132 97" fill="none" xmlns="http://www.w3.org/2000/svg">
<rect x="39" width="55" height="55" rx="5" fill="url(#paint0_linear)"/>
<path d="M27.2129 74.1035V78H25.9004V68.0469H29.5713C30.6605 68.0469 31.5127 68.3249 32.1279 68.8809C32.7477 69.4368 33.0576 70.1729 33.0576 71.0889C33.0576 72.055 32.7546 72.8001 32.1484 73.3242C31.5469 73.8438 30.6833 74.1035 29.5576 74.1035H27.2129ZM27.2129 73.0303H29.5713C30.2731 73.0303 30.8109 72.8662 31.1846 72.5381C31.5583 72.2054 31.7451 71.7269 31.7451 71.1025C31.7451 70.5101 31.5583 70.0361 31.1846 69.6807C30.8109 69.3252 30.2982 69.1406 29.6465 69.127H27.2129V73.0303ZM37.5078 78.1367C36.5052 78.1367 35.6895 77.8086 35.0605 77.1523C34.4316 76.4915 34.1172 75.6097 34.1172 74.5068V74.2744C34.1172 73.5407 34.2562 72.8867 34.5342 72.3125C34.8167 71.7337 35.2087 71.2826 35.71 70.959C36.2158 70.6309 36.7627 70.4668 37.3506 70.4668C38.3122 70.4668 39.0596 70.7835 39.5928 71.417C40.126 72.0505 40.3926 72.9574 40.3926 74.1377V74.6641H35.3818C35.4001 75.3932 35.612 75.9834 36.0176 76.4346C36.4277 76.8812 36.9473 77.1045 37.5762 77.1045C38.0228 77.1045 38.401 77.0133 38.7109 76.8311C39.0208 76.6488 39.292 76.4072 39.5244 76.1064L40.2969 76.708C39.6771 77.6605 38.7474 78.1367 37.5078 78.1367ZM37.3506 71.5059C36.8402 71.5059 36.4118 71.6927 36.0654 72.0664C35.7191 72.4355 35.5049 72.9551 35.4229 73.625H39.1279V73.5293C39.0915 72.8867 38.9183 72.39 38.6084 72.0391C38.2985 71.6836 37.8792 71.5059 37.3506 71.5059ZM43.0586 70.6035L43.0996 71.5332C43.6647 70.8223 44.403 70.4668 45.3145 70.4668C46.8776 70.4668 47.666 71.3486 47.6797 73.1123V78H46.415V73.1055C46.4105 72.5723 46.2874 72.1781 46.0459 71.9229C45.8089 71.6676 45.4375 71.54 44.9316 71.54C44.5215 71.54 44.1615 71.6494 43.8516 71.8682C43.5417 72.0869 43.3001 72.374 43.127 72.7295V78H41.8623V70.6035H43.0586ZM49.2861 74.2402C49.2861 73.0872 49.5527 72.1712 50.0859 71.4922C50.6191 70.8086 51.3255 70.4668 52.2051 70.4668C53.1074 70.4668 53.8115 70.7858 54.3174 71.4238L54.3789 70.6035H55.5342V77.8223C55.5342 78.7793 55.2493 79.5335 54.6797 80.085C54.1146 80.6364 53.3535 80.9121 52.3965 80.9121C51.8633 80.9121 51.3415 80.7982 50.8311 80.5703C50.3206 80.3424 49.931 80.0303 49.6621 79.6338L50.3184 78.875C50.8607 79.5449 51.5238 79.8799 52.3076 79.8799C52.9229 79.8799 53.4014 79.7067 53.7432 79.3604C54.0895 79.014 54.2627 78.5264 54.2627 77.8975V77.2617C53.7568 77.8451 53.0664 78.1367 52.1914 78.1367C51.3255 78.1367 50.6237 77.7881 50.0859 77.0908C49.5527 76.3936 49.2861 75.4434 49.2861 74.2402ZM50.5576 74.3838C50.5576 75.2178 50.7285 75.874 51.0703 76.3525C51.4121 76.8265 51.8906 77.0635 52.5059 77.0635C53.3034 77.0635 53.889 76.7012 54.2627 75.9766V72.5996C53.8753 71.8932 53.2943 71.54 52.5195 71.54C51.9043 71.54 51.4235 71.7793 51.0771 72.2578C50.7308 72.7363 50.5576 73.445 50.5576 74.3838ZM62.0146 78C61.9417 77.8542 61.8825 77.5944 61.8369 77.2207C61.249 77.8314 60.5472 78.1367 59.7314 78.1367C59.0023 78.1367 58.403 77.9316 57.9336 77.5215C57.4688 77.1068 57.2363 76.5827 57.2363 75.9492C57.2363 75.179 57.528 74.582 58.1113 74.1582C58.6992 73.7298 59.5241 73.5156 60.5859 73.5156H61.8164V72.9346C61.8164 72.4925 61.6842 72.1416 61.4199 71.8818C61.1556 71.6175 60.766 71.4854 60.251 71.4854C59.7998 71.4854 59.4215 71.5993 59.1162 71.8271C58.8109 72.055 58.6582 72.3307 58.6582 72.6543H57.3867C57.3867 72.2852 57.5166 71.9297 57.7764 71.5879C58.0407 71.2415 58.3962 70.9681 58.8428 70.7676C59.2939 70.5671 59.7884 70.4668 60.3262 70.4668C61.1784 70.4668 61.846 70.681 62.3291 71.1094C62.8122 71.5332 63.0628 72.1188 63.0811 72.8662V76.2705C63.0811 76.9495 63.1676 77.4896 63.3408 77.8906V78H62.0146ZM59.916 77.0361C60.3125 77.0361 60.6885 76.9336 61.0439 76.7285C61.3994 76.5234 61.6569 76.2568 61.8164 75.9287V74.4111H60.8252C59.2757 74.4111 58.501 74.8646 58.501 75.7715C58.501 76.168 58.6331 76.4779 58.8975 76.7012C59.1618 76.9245 59.5013 77.0361 59.916 77.0361ZM64.7559 74.2402C64.7559 73.1055 65.0247 72.194 65.5625 71.5059C66.1003 70.8132 66.8044 70.4668 67.6748 70.4668C68.5407 70.4668 69.2266 70.763 69.7324 71.3555V67.5H70.9971V78H69.835L69.7734 77.207C69.2676 77.8268 68.5635 78.1367 67.6611 78.1367C66.8044 78.1367 66.1048 77.7858 65.5625 77.084C65.0247 76.3822 64.7559 75.4661 64.7559 74.3359V74.2402ZM66.0205 74.3838C66.0205 75.2223 66.1937 75.8786 66.54 76.3525C66.8864 76.8265 67.3649 77.0635 67.9756 77.0635C68.7777 77.0635 69.3633 76.7035 69.7324 75.9834V72.5859C69.3542 71.8887 68.7731 71.54 67.9893 71.54C67.3695 71.54 66.8864 71.7793 66.54 72.2578C66.1937 72.7363 66.0205 73.445 66.0205 74.3838ZM77.5322 77.2686C77.04 77.8473 76.3177 78.1367 75.3652 78.1367C74.5768 78.1367 73.9753 77.9089 73.5605 77.4531C73.1504 76.9928 72.943 76.3138 72.9385 75.416V70.6035H74.2031V75.3818C74.2031 76.5029 74.6589 77.0635 75.5703 77.0635C76.5365 77.0635 77.179 76.7035 77.498 75.9834V70.6035H78.7627V78H77.5596L77.5322 77.2686ZM85.2568 78C85.1839 77.8542 85.1247 77.5944 85.0791 77.2207C84.4912 77.8314 83.7894 78.1367 82.9736 78.1367C82.2445 78.1367 81.6452 77.9316 81.1758 77.5215C80.7109 77.1068 80.4785 76.5827 80.4785 75.9492C80.4785 75.179 80.7702 74.582 81.3535 74.1582C81.9414 73.7298 82.7663 73.5156 83.8281 73.5156H85.0586V72.9346C85.0586 72.4925 84.9264 72.1416 84.6621 71.8818C84.3978 71.6175 84.0081 71.4854 83.4932 71.4854C83.042 71.4854 82.6637 71.5993 82.3584 71.8271C82.0531 72.055 81.9004 72.3307 81.9004 72.6543H80.6289C80.6289 72.2852 80.7588 71.9297 81.0186 71.5879C81.2829 71.2415 81.6383 70.9681 82.085 70.7676C82.5361 70.5671 83.0306 70.4668 83.5684 70.4668C84.4206 70.4668 85.0882 70.681 85.5713 71.1094C86.0544 71.5332 86.305 72.1188 86.3232 72.8662V76.2705C86.3232 76.9495 86.4098 77.4896 86.583 77.8906V78H85.2568ZM83.1582 77.0361C83.5547 77.0361 83.9307 76.9336 84.2861 76.7285C84.6416 76.5234 84.8991 76.2568 85.0586 75.9287V74.4111H84.0674C82.5179 74.4111 81.7432 74.8646 81.7432 75.7715C81.7432 76.168 81.8753 76.4779 82.1396 76.7012C82.404 76.9245 82.7435 77.0361 83.1582 77.0361ZM89.502 70.6035L89.543 71.5332C90.1081 70.8223 90.8464 70.4668 91.7578 70.4668C93.321 70.4668 94.1094 71.3486 94.123 73.1123V78H92.8584V73.1055C92.8538 72.5723 92.7308 72.1781 92.4893 71.9229C92.2523 71.6676 91.8809 71.54 91.375 71.54C90.9648 71.54 90.6048 71.6494 90.2949 71.8682C89.985 72.0869 89.7435 72.374 89.5703 72.7295V78H88.3057V70.6035H89.502ZM99.2363 75.3271C99.2363 74.8486 99.3685 74.4089 99.6328 74.0078C99.9017 73.6068 100.412 73.1396 101.164 72.6064C100.722 72.0687 100.426 71.6357 100.275 71.3076C100.125 70.9795 100.05 70.6536 100.05 70.3301C100.05 69.5736 100.273 68.9811 100.72 68.5527C101.166 68.1243 101.772 67.9102 102.538 67.9102C103.222 67.9102 103.787 68.1107 104.233 68.5117C104.68 68.9082 104.903 69.4095 104.903 70.0156C104.903 70.4167 104.801 70.7881 104.596 71.1299C104.395 71.4671 104.042 71.8226 103.536 72.1963L102.805 72.7363L105.02 75.3818C105.329 74.7894 105.484 74.1309 105.484 73.4062H106.626C106.626 74.5684 106.346 75.5322 105.785 76.2979L107.207 78H105.689L105.026 77.2139C104.689 77.5146 104.293 77.7448 103.837 77.9043C103.386 78.0592 102.925 78.1367 102.456 78.1367C101.485 78.1367 100.706 77.8792 100.118 77.3643C99.5303 76.8493 99.2363 76.1702 99.2363 75.3271ZM102.456 77.1045C103.126 77.1045 103.739 76.8493 104.295 76.3389L101.868 73.4336L101.643 73.5977C100.882 74.1582 100.501 74.7347 100.501 75.3271C100.501 75.8649 100.674 76.2956 101.021 76.6191C101.371 76.9427 101.85 77.1045 102.456 77.1045ZM101.314 70.2891C101.314 70.7266 101.583 71.2734 102.121 71.9297L102.928 71.3623C103.238 71.1436 103.45 70.9362 103.563 70.7402C103.677 70.5397 103.734 70.2982 103.734 70.0156C103.734 69.7103 103.62 69.4574 103.393 69.2568C103.165 69.0518 102.878 68.9492 102.531 68.9492C102.158 68.9492 101.861 69.0768 101.643 69.332C101.424 69.5827 101.314 69.9017 101.314 70.2891ZM2.76074 90.1035V94H1.44824V84.0469H5.11914C6.20833 84.0469 7.06055 84.3249 7.67578 84.8809C8.29557 85.4368 8.60547 86.1729 8.60547 87.0889C8.60547 88.055 8.30241 88.8001 7.69629 89.3242C7.09473 89.8438 6.23112 90.1035 5.10547 90.1035H2.76074ZM2.76074 89.0303H5.11914C5.82096 89.0303 6.35872 88.8662 6.73242 88.5381C7.10612 88.2054 7.29297 87.7269 7.29297 87.1025C7.29297 86.5101 7.10612 86.0361 6.73242 85.6807C6.35872 85.3252 5.84603 85.1406 5.19434 85.127H2.76074V89.0303ZM13.0557 94.1367C12.0531 94.1367 11.2373 93.8086 10.6084 93.1523C9.97949 92.4915 9.66504 91.6097 9.66504 90.5068V90.2744C9.66504 89.5407 9.80404 88.8867 10.082 88.3125C10.3646 87.7337 10.7565 87.2826 11.2578 86.959C11.7637 86.6309 12.3105 86.4668 12.8984 86.4668C13.86 86.4668 14.6074 86.7835 15.1406 87.417C15.6738 88.0505 15.9404 88.9574 15.9404 90.1377V90.6641H10.9297C10.9479 91.3932 11.1598 91.9834 11.5654 92.4346C11.9756 92.8812 12.4951 93.1045 13.124 93.1045C13.5706 93.1045 13.9489 93.0133 14.2588 92.8311C14.5687 92.6488 14.8398 92.4072 15.0723 92.1064L15.8447 92.708C15.2249 93.6605 14.2952 94.1367 13.0557 94.1367ZM12.8984 87.5059C12.388 87.5059 11.9596 87.6927 11.6133 88.0664C11.2669 88.4355 11.0527 88.9551 10.9707 89.625H14.6758V89.5293C14.6393 88.8867 14.4661 88.39 14.1562 88.0391C13.8464 87.6836 13.4271 87.5059 12.8984 87.5059ZM18.7842 94H17.5195V83.5H18.7842V94ZM25.3809 94C25.3079 93.8542 25.2487 93.5944 25.2031 93.2207C24.6152 93.8314 23.9134 94.1367 23.0977 94.1367C22.3685 94.1367 21.7692 93.9316 21.2998 93.5215C20.835 93.1068 20.6025 92.5827 20.6025 91.9492C20.6025 91.179 20.8942 90.582 21.4775 90.1582C22.0654 89.7298 22.8903 89.5156 23.9521 89.5156H25.1826V88.9346C25.1826 88.4925 25.0505 88.1416 24.7861 87.8818C24.5218 87.6175 24.1322 87.4854 23.6172 87.4854C23.166 87.4854 22.7878 87.5993 22.4824 87.8271C22.1771 88.055 22.0244 88.3307 22.0244 88.6543H20.7529C20.7529 88.2852 20.8828 87.9297 21.1426 87.5879C21.4069 87.2415 21.7624 86.9681 22.209 86.7676C22.6602 86.5671 23.1546 86.4668 23.6924 86.4668C24.5446 86.4668 25.2122 86.681 25.6953 87.1094C26.1784 87.5332 26.429 88.1188 26.4473 88.8662V92.2705C26.4473 92.9495 26.5339 93.4896 26.707 93.8906V94H25.3809ZM23.2822 93.0361C23.6787 93.0361 24.0547 92.9336 24.4102 92.7285C24.7656 92.5234 25.0231 92.2568 25.1826 91.9287V90.4111H24.1914C22.6419 90.4111 21.8672 90.8646 21.8672 91.7715C21.8672 92.168 21.9993 92.4779 22.2637 92.7012C22.528 92.9245 22.8675 93.0361 23.2822 93.0361ZM30.7402 92.1475L32.4629 86.6035H33.8164L30.8428 95.1416C30.3825 96.3721 29.651 96.9873 28.6484 96.9873L28.4092 96.9668L27.9375 96.8779V95.8525L28.2793 95.8799C28.7077 95.8799 29.0404 95.7933 29.2773 95.6201C29.5189 95.4469 29.7171 95.1302 29.8721 94.6699L30.1523 93.918L27.5137 86.6035H28.8945L30.7402 92.1475ZM39.4082 94C39.3353 93.8542 39.276 93.5944 39.2305 93.2207C38.6426 93.8314 37.9408 94.1367 37.125 94.1367C36.3958 94.1367 35.7965 93.9316 35.3271 93.5215C34.8623 93.1068 34.6299 92.5827 34.6299 91.9492C34.6299 91.179 34.9215 90.582 35.5049 90.1582C36.0928 89.7298 36.9176 89.5156 37.9795 89.5156H39.21V88.9346C39.21 88.4925 39.0778 88.1416 38.8135 87.8818C38.5492 87.6175 38.1595 87.4854 37.6445 87.4854C37.1934 87.4854 36.8151 87.5993 36.5098 87.8271C36.2044 88.055 36.0518 88.3307 36.0518 88.6543H34.7803C34.7803 88.2852 34.9102 87.9297 35.1699 87.5879C35.4342 87.2415 35.7897 86.9681 36.2363 86.7676C36.6875 86.5671 37.182 86.4668 37.7197 86.4668C38.5719 86.4668 39.2396 86.681 39.7227 87.1094C40.2057 87.5332 40.4564 88.1188 40.4746 88.8662V92.2705C40.4746 92.9495 40.5612 93.4896 40.7344 93.8906V94H39.4082ZM37.3096 93.0361C37.7061 93.0361 38.082 92.9336 38.4375 92.7285C38.793 92.5234 39.0505 92.2568 39.21 91.9287V90.4111H38.2188C36.6693 90.4111 35.8945 90.8646 35.8945 91.7715C35.8945 92.168 36.0267 92.4779 36.291 92.7012C36.5553 92.9245 36.8949 93.0361 37.3096 93.0361ZM43.6533 86.6035L43.6943 87.5332C44.2594 86.8223 44.9977 86.4668 45.9092 86.4668C47.4723 86.4668 48.2607 87.3486 48.2744 89.1123V94H47.0098V89.1055C47.0052 88.5723 46.8822 88.1781 46.6406 87.9229C46.4036 87.6676 46.0322 87.54 45.5264 87.54C45.1162 87.54 44.7562 87.6494 44.4463 87.8682C44.1364 88.0869 43.8949 88.374 43.7217 88.7295V94H42.457V86.6035H43.6533ZM54.748 94C54.6751 93.8542 54.6159 93.5944 54.5703 93.2207C53.9824 93.8314 53.2806 94.1367 52.4648 94.1367C51.7357 94.1367 51.1364 93.9316 50.667 93.5215C50.2021 93.1068 49.9697 92.5827 49.9697 91.9492C49.9697 91.179 50.2614 90.582 50.8447 90.1582C51.4326 89.7298 52.2575 89.5156 53.3193 89.5156H54.5498V88.9346C54.5498 88.4925 54.4176 88.1416 54.1533 87.8818C53.889 87.6175 53.4993 87.4854 52.9844 87.4854C52.5332 87.4854 52.1549 87.5993 51.8496 87.8271C51.5443 88.055 51.3916 88.3307 51.3916 88.6543H50.1201C50.1201 88.2852 50.25 87.9297 50.5098 87.5879C50.7741 87.2415 51.1296 86.9681 51.5762 86.7676C52.0273 86.5671 52.5218 86.4668 53.0596 86.4668C53.9118 86.4668 54.5794 86.681 55.0625 87.1094C55.5456 87.5332 55.7962 88.1188 55.8145 88.8662V92.2705C55.8145 92.9495 55.901 93.4896 56.0742 93.8906V94H54.748ZM52.6494 93.0361C53.0459 93.0361 53.4219 92.9336 53.7773 92.7285C54.1328 92.5234 54.3903 92.2568 54.5498 91.9287V90.4111H53.5586C52.0091 90.4111 51.2344 90.8646 51.2344 91.7715C51.2344 92.168 51.3665 92.4779 51.6309 92.7012C51.8952 92.9245 52.2347 93.0361 52.6494 93.0361ZM58.9932 86.6035L59.0342 87.5332C59.5993 86.8223 60.3376 86.4668 61.249 86.4668C62.8122 86.4668 63.6006 87.3486 63.6143 89.1123V94H62.3496V89.1055C62.3451 88.5723 62.222 88.1781 61.9805 87.9229C61.7435 87.6676 61.3721 87.54 60.8662 87.54C60.4561 87.54 60.096 87.6494 59.7861 87.8682C59.4762 88.0869 59.2347 88.374 59.0615 88.7295V94H57.7969V86.6035H58.9932ZM76.541 92.6943C76.2038 93.1774 75.7321 93.5397 75.126 93.7812C74.5244 94.0182 73.8226 94.1367 73.0205 94.1367C72.2093 94.1367 71.4893 93.9476 70.8604 93.5693C70.2314 93.1865 69.7438 92.6442 69.3975 91.9424C69.0557 91.2406 68.8802 90.4271 68.8711 89.502V88.6338C68.8711 87.1344 69.2197 85.9723 69.917 85.1475C70.6188 84.3226 71.6032 83.9102 72.8701 83.9102C73.9092 83.9102 74.7454 84.1768 75.3789 84.71C76.0124 85.2386 76.3997 85.9906 76.541 86.9658H75.2285C74.9824 85.6488 74.1986 84.9902 72.877 84.9902C71.9974 84.9902 71.3298 85.3001 70.874 85.9199C70.4229 86.5352 70.195 87.4284 70.1904 88.5996V89.4131C70.1904 90.5296 70.4456 91.4183 70.9561 92.0791C71.4665 92.7354 72.1569 93.0635 73.0273 93.0635C73.5195 93.0635 73.9502 93.0088 74.3193 92.8994C74.6885 92.79 74.9938 92.6055 75.2354 92.3457V90.1104H72.9316V89.0439H76.541V92.6943ZM83.1035 94C83.0306 93.8542 82.9714 93.5944 82.9258 93.2207C82.3379 93.8314 81.6361 94.1367 80.8203 94.1367C80.0911 94.1367 79.4919 93.9316 79.0225 93.5215C78.5576 93.1068 78.3252 92.5827 78.3252 91.9492C78.3252 91.179 78.6169 90.582 79.2002 90.1582C79.7881 89.7298 80.613 89.5156 81.6748 89.5156H82.9053V88.9346C82.9053 88.4925 82.7731 88.1416 82.5088 87.8818C82.2445 87.6175 81.8548 87.4854 81.3398 87.4854C80.8887 87.4854 80.5104 87.5993 80.2051 87.8271C79.8997 88.055 79.7471 88.3307 79.7471 88.6543H78.4756C78.4756 88.2852 78.6055 87.9297 78.8652 87.5879C79.1296 87.2415 79.485 86.9681 79.9316 86.7676C80.3828 86.5671 80.8773 86.4668 81.415 86.4668C82.2673 86.4668 82.9349 86.681 83.418 87.1094C83.901 87.5332 84.1517 88.1188 84.1699 88.8662V92.2705C84.1699 92.9495 84.2565 93.4896 84.4297 93.8906V94H83.1035ZM81.0049 93.0361C81.4014 93.0361 81.7773 92.9336 82.1328 92.7285C82.4883 92.5234 82.7458 92.2568 82.9053 91.9287V90.4111H81.9141C80.3646 90.4111 79.5898 90.8646 79.5898 91.7715C79.5898 92.168 79.722 92.4779 79.9863 92.7012C80.2507 92.9245 80.5902 93.0361 81.0049 93.0361ZM87.3486 86.6035L87.3896 87.5332C87.9548 86.8223 88.693 86.4668 89.6045 86.4668C91.1676 86.4668 91.9561 87.3486 91.9697 89.1123V94H90.7051V89.1055C90.7005 88.5723 90.5775 88.1781 90.3359 87.9229C90.099 87.6676 89.7275 87.54 89.2217 87.54C88.8115 87.54 88.4515 87.6494 88.1416 87.8682C87.8317 88.0869 87.5902 88.374 87.417 88.7295V94H86.1523V86.6035H87.3486ZM93.5762 90.2402C93.5762 89.0872 93.8428 88.1712 94.376 87.4922C94.9092 86.8086 95.6156 86.4668 96.4951 86.4668C97.3975 86.4668 98.1016 86.7858 98.6074 87.4238L98.6689 86.6035H99.8242V93.8223C99.8242 94.7793 99.5394 95.5335 98.9697 96.085C98.4046 96.6364 97.6436 96.9121 96.6865 96.9121C96.1533 96.9121 95.6315 96.7982 95.1211 96.5703C94.6107 96.3424 94.221 96.0303 93.9521 95.6338L94.6084 94.875C95.1507 95.5449 95.8138 95.8799 96.5977 95.8799C97.2129 95.8799 97.6914 95.7067 98.0332 95.3604C98.3796 95.014 98.5527 94.5264 98.5527 93.8975V93.2617C98.0469 93.8451 97.3564 94.1367 96.4814 94.1367C95.6156 94.1367 94.9137 93.7881 94.376 93.0908C93.8428 92.3936 93.5762 91.4434 93.5762 90.2402ZM94.8477 90.3838C94.8477 91.2178 95.0186 91.874 95.3604 92.3525C95.7021 92.8265 96.1807 93.0635 96.7959 93.0635C97.5934 93.0635 98.179 92.7012 98.5527 91.9766V88.5996C98.1654 87.8932 97.5843 87.54 96.8096 87.54C96.1943 87.54 95.7135 87.7793 95.3672 88.2578C95.0208 88.7363 94.8477 89.445 94.8477 90.3838ZM101.438 90.2402C101.438 89.0872 101.704 88.1712 102.237 87.4922C102.771 86.8086 103.477 86.4668 104.356 86.4668C105.259 86.4668 105.963 86.7858 106.469 87.4238L106.53 86.6035H107.686V93.8223C107.686 94.7793 107.401 95.5335 106.831 96.085C106.266 96.6364 105.505 96.9121 104.548 96.9121C104.015 96.9121 103.493 96.7982 102.982 96.5703C102.472 96.3424 102.082 96.0303 101.813 95.6338L102.47 94.875C103.012 95.5449 103.675 95.8799 104.459 95.8799C105.074 95.8799 105.553 95.7067 105.895 95.3604C106.241 95.014 106.414 94.5264 106.414 93.8975V93.2617C105.908 93.8451 105.218 94.1367 104.343 94.1367C103.477 94.1367 102.775 93.7881 102.237 93.0908C101.704 92.3936 101.438 91.4434 101.438 90.2402ZM102.709 90.3838C102.709 91.2178 102.88 91.874 103.222 92.3525C103.563 92.8265 104.042 93.0635 104.657 93.0635C105.455 93.0635 106.04 92.7012 106.414 91.9766V88.5996C106.027 87.8932 105.446 87.54 104.671 87.54C104.056 87.54 103.575 87.7793 103.229 88.2578C102.882 88.7363 102.709 89.445 102.709 90.3838ZM114.166 93.2686C113.674 93.8473 112.951 94.1367 111.999 94.1367C111.211 94.1367 110.609 93.9089 110.194 93.4531C109.784 92.9928 109.577 92.3138 109.572 91.416V86.6035H110.837V91.3818C110.837 92.5029 111.293 93.0635 112.204 93.0635C113.17 93.0635 113.813 92.7035 114.132 91.9834V86.6035H115.396V94H114.193L114.166 93.2686ZM121.891 94C121.818 93.8542 121.758 93.5944 121.713 93.2207C121.125 93.8314 120.423 94.1367 119.607 94.1367C118.878 94.1367 118.279 93.9316 117.81 93.5215C117.345 93.1068 117.112 92.5827 117.112 91.9492C117.112 91.179 117.404 90.582 117.987 90.1582C118.575 89.7298 119.4 89.5156 120.462 89.5156H121.692V88.9346C121.692 88.4925 121.56 88.1416 121.296 87.8818C121.032 87.6175 120.642 87.4854 120.127 87.4854C119.676 87.4854 119.298 87.5993 118.992 87.8271C118.687 88.055 118.534 88.3307 118.534 88.6543H117.263C117.263 88.2852 117.393 87.9297 117.652 87.5879C117.917 87.2415 118.272 86.9681 118.719 86.7676C119.17 86.5671 119.664 86.4668 120.202 86.4668C121.054 86.4668 121.722 86.681 122.205 87.1094C122.688 87.5332 122.939 88.1188 122.957 88.8662V92.2705C122.957 92.9495 123.044 93.4896 123.217 93.8906V94H121.891ZM119.792 93.0361C120.188 93.0361 120.564 92.9336 120.92 92.7285C121.275 92.5234 121.533 92.2568 121.692 91.9287V90.4111H120.701C119.152 90.4111 118.377 90.8646 118.377 91.7715C118.377 92.168 118.509 92.4779 118.773 92.7012C119.038 92.9245 119.377 93.0361 119.792 93.0361ZM126.136 86.6035L126.177 87.5332C126.742 86.8223 127.48 86.4668 128.392 86.4668C129.955 86.4668 130.743 87.3486 130.757 89.1123V94H129.492V89.1055C129.488 88.5723 129.365 88.1781 129.123 87.9229C128.886 87.6676 128.515 87.54 128.009 87.54C127.599 87.54 127.239 87.6494 126.929 87.8682C126.619 88.0869 126.377 88.374 126.204 88.7295V94H124.939V86.6035H126.136Z" fill="#453F3F"/>
<path d="M75 22.5C69.9915 15.3971 68.3059 13.2268 66.5 7C65.203 11.3713 63.9019 14.3199 58 22C35.7743 55.1642 95.8182 57.4214 75 22.5Z" fill="url(#paint1_linear)"/>
<path d="M60.6154 26.0915C56.5673 32.8232 57.0933 40.9095 67.4924 46.7279C55.2083 43.0586 52.8152 33.1542 58.5758 25.4294C64.3364 17.7045 64.3248 18.1469 66.9406 12.7385C65.5267 18.3146 64.6636 19.3598 60.6154 26.0915Z" fill="white"/>
<defs>
<linearGradient id="paint0_linear" x1="66" y1="5.66515e-07" x2="39" y2="113" gradientUnits="userSpaceOnUse">
<stop stop-color="white"/>
<stop offset="1" stop-color="#1DA0E0"/>
</linearGradient>
<linearGradient id="paint1_linear" x1="66.2215" y1="7" x2="66.2215" y2="47.7925" gradientUnits="userSpaceOnUse">
<stop stop-color="#166FCD"/>
<stop offset="1" stop-color="#3B92DF"/>
</linearGradient>
</defs>
</svg>
