<svg width="101" height="97" viewBox="0 0 101 97" fill="none" xmlns="http://www.w3.org/2000/svg">
<rect x="23" width="55" height="55" rx="5" fill="url(#paint0_linear)"/>
<path d="M2.6416 78H1.3291V68.0469H2.6416V78ZM6.0459 70.6035L6.08691 71.5332C6.65202 70.8223 7.3903 70.4668 8.30176 70.4668C9.86491 70.4668 10.6533 71.3486 10.667 73.1123V78H9.40234V73.1055C9.39779 72.5723 9.27474 72.1781 9.0332 71.9229C8.79622 71.6676 8.4248 71.54 7.91895 71.54C7.50879 71.54 7.14876 71.6494 6.83887 71.8682C6.52897 72.0869 6.28743 72.374 6.11426 72.7295V78H4.84961V70.6035H6.0459ZM13.1963 78V71.5811H12.0273V70.6035H13.1963V69.8447C13.1963 69.0518 13.4082 68.4388 13.832 68.0059C14.2559 67.5729 14.8551 67.3564 15.6299 67.3564C15.9215 67.3564 16.2109 67.3952 16.498 67.4727L16.4297 68.498C16.2155 68.457 15.9876 68.4365 15.7461 68.4365C15.3359 68.4365 15.0192 68.5573 14.7959 68.7988C14.5726 69.0358 14.4609 69.3776 14.4609 69.8242V70.6035H16.04V71.5811H14.4609V78H13.1963ZM17.1064 74.2334C17.1064 73.5088 17.2477 72.8571 17.5303 72.2783C17.8174 71.6995 18.2139 71.2529 18.7197 70.9385C19.2301 70.624 19.8112 70.4668 20.4629 70.4668C21.4701 70.4668 22.2835 70.8154 22.9033 71.5127C23.5277 72.21 23.8398 73.1374 23.8398 74.2949V74.3838C23.8398 75.1038 23.7008 75.751 23.4229 76.3252C23.1494 76.8949 22.7552 77.3392 22.2402 77.6582C21.7298 77.9772 21.1419 78.1367 20.4766 78.1367C19.474 78.1367 18.6605 77.7881 18.0361 77.0908C17.4163 76.3936 17.1064 75.4707 17.1064 74.3223V74.2334ZM18.3779 74.3838C18.3779 75.2041 18.5671 75.8626 18.9453 76.3594C19.3281 76.8561 19.8385 77.1045 20.4766 77.1045C21.1191 77.1045 21.6296 76.8538 22.0078 76.3525C22.3861 75.8467 22.5752 75.1403 22.5752 74.2334C22.5752 73.4222 22.3815 72.766 21.9941 72.2646C21.6113 71.7588 21.1009 71.5059 20.4629 71.5059C19.8385 71.5059 19.335 71.7542 18.9521 72.251C18.5693 72.7477 18.3779 73.4587 18.3779 74.3838ZM30.4092 74.1035V78H29.0967V68.0469H32.7676C33.8568 68.0469 34.709 68.3249 35.3242 68.8809C35.944 69.4368 36.2539 70.1729 36.2539 71.0889C36.2539 72.055 35.9508 72.8001 35.3447 73.3242C34.7432 73.8438 33.8796 74.1035 32.7539 74.1035H30.4092ZM30.4092 73.0303H32.7676C33.4694 73.0303 34.0072 72.8662 34.3809 72.5381C34.7546 72.2054 34.9414 71.7269 34.9414 71.1025C34.9414 70.5101 34.7546 70.0361 34.3809 69.6807C34.0072 69.3252 33.4945 69.1406 32.8428 69.127H30.4092V73.0303ZM40.7041 78.1367C39.7015 78.1367 38.8857 77.8086 38.2568 77.1523C37.6279 76.4915 37.3135 75.6097 37.3135 74.5068V74.2744C37.3135 73.5407 37.4525 72.8867 37.7305 72.3125C38.013 71.7337 38.4049 71.2826 38.9062 70.959C39.4121 70.6309 39.959 70.4668 40.5469 70.4668C41.5085 70.4668 42.2559 70.7835 42.7891 71.417C43.3223 72.0505 43.5889 72.9574 43.5889 74.1377V74.6641H38.5781C38.5964 75.3932 38.8083 75.9834 39.2139 76.4346C39.624 76.8812 40.1436 77.1045 40.7725 77.1045C41.2191 77.1045 41.5973 77.0133 41.9072 76.8311C42.2171 76.6488 42.4883 76.4072 42.7207 76.1064L43.4932 76.708C42.8734 77.6605 41.9437 78.1367 40.7041 78.1367ZM40.5469 71.5059C40.0365 71.5059 39.6081 71.6927 39.2617 72.0664C38.9154 72.4355 38.7012 72.9551 38.6191 73.625H42.3242V73.5293C42.2878 72.8867 42.1146 72.39 41.8047 72.0391C41.4948 71.6836 41.0755 71.5059 40.5469 71.5059ZM46.248 70.6035L46.2822 71.4238C46.8245 70.7858 47.556 70.4668 48.4766 70.4668C49.5111 70.4668 50.2152 70.8633 50.5889 71.6562C50.835 71.3008 51.154 71.0137 51.5459 70.7949C51.9424 70.5762 52.4095 70.4668 52.9473 70.4668C54.5697 70.4668 55.3945 71.3258 55.4219 73.0439V78H54.1572V73.1191C54.1572 72.5905 54.0365 72.1963 53.7949 71.9365C53.5534 71.6722 53.1478 71.54 52.5781 71.54C52.1087 71.54 51.7191 71.6813 51.4092 71.9639C51.0993 72.2419 50.9193 72.6178 50.8691 73.0918V78H49.5977V73.1533C49.5977 72.0778 49.0713 71.54 48.0186 71.54C47.1891 71.54 46.6217 71.8932 46.3164 72.5996V78H45.0518V70.6035H46.248ZM61.9023 78C61.8294 77.8542 61.7702 77.5944 61.7246 77.2207C61.1367 77.8314 60.4349 78.1367 59.6191 78.1367C58.89 78.1367 58.2907 77.9316 57.8213 77.5215C57.3564 77.1068 57.124 76.5827 57.124 75.9492C57.124 75.179 57.4157 74.582 57.999 74.1582C58.5869 73.7298 59.4118 73.5156 60.4736 73.5156H61.7041V72.9346C61.7041 72.4925 61.5719 72.1416 61.3076 71.8818C61.0433 71.6175 60.6536 71.4854 60.1387 71.4854C59.6875 71.4854 59.3092 71.5993 59.0039 71.8271C58.6986 72.055 58.5459 72.3307 58.5459 72.6543H57.2744C57.2744 72.2852 57.4043 71.9297 57.6641 71.5879C57.9284 71.2415 58.2839 70.9681 58.7305 70.7676C59.1816 70.5671 59.6761 70.4668 60.2139 70.4668C61.0661 70.4668 61.7337 70.681 62.2168 71.1094C62.6999 71.5332 62.9505 72.1188 62.9688 72.8662V76.2705C62.9688 76.9495 63.0553 77.4896 63.2285 77.8906V78H61.9023ZM59.8037 77.0361C60.2002 77.0361 60.5762 76.9336 60.9316 76.7285C61.2871 76.5234 61.5446 76.2568 61.7041 75.9287V74.4111H60.7129C59.1634 74.4111 58.3887 74.8646 58.3887 75.7715C58.3887 76.168 58.5208 76.4779 58.7852 76.7012C59.0495 76.9245 59.389 77.0361 59.8037 77.0361ZM67.0156 74.5752L66.2227 75.4023V78H64.958V67.5H66.2227V73.8506L66.8994 73.0371L69.2031 70.6035H70.7412L67.8633 73.6934L71.0762 78H69.5928L67.0156 74.5752ZM76.6133 78C76.5404 77.8542 76.4811 77.5944 76.4355 77.2207C75.8477 77.8314 75.1458 78.1367 74.3301 78.1367C73.6009 78.1367 73.0016 77.9316 72.5322 77.5215C72.0674 77.1068 71.835 76.5827 71.835 75.9492C71.835 75.179 72.1266 74.582 72.71 74.1582C73.2979 73.7298 74.1227 73.5156 75.1846 73.5156H76.415V72.9346C76.415 72.4925 76.2829 72.1416 76.0186 71.8818C75.7542 71.6175 75.3646 71.4854 74.8496 71.4854C74.3984 71.4854 74.0202 71.5993 73.7148 71.8271C73.4095 72.055 73.2568 72.3307 73.2568 72.6543H71.9854C71.9854 72.2852 72.1152 71.9297 72.375 71.5879C72.6393 71.2415 72.9948 70.9681 73.4414 70.7676C73.8926 70.5671 74.387 70.4668 74.9248 70.4668C75.777 70.4668 76.4447 70.681 76.9277 71.1094C77.4108 71.5332 77.6615 72.1188 77.6797 72.8662V76.2705C77.6797 76.9495 77.7663 77.4896 77.9395 77.8906V78H76.6133ZM74.5146 77.0361C74.9111 77.0361 75.2871 76.9336 75.6426 76.7285C75.998 76.5234 76.2555 76.2568 76.415 75.9287V74.4111H75.4238C73.8743 74.4111 73.0996 74.8646 73.0996 75.7715C73.0996 76.168 73.2318 76.4779 73.4961 76.7012C73.7604 76.9245 74.0999 77.0361 74.5146 77.0361ZM81.0361 78H79.7715V70.6035H81.0361V78ZM79.6689 68.6416C79.6689 68.4365 79.7305 68.2633 79.8535 68.1221C79.9811 67.9808 80.168 67.9102 80.4141 67.9102C80.6602 67.9102 80.847 67.9808 80.9746 68.1221C81.1022 68.2633 81.166 68.4365 81.166 68.6416C81.166 68.8467 81.1022 69.0176 80.9746 69.1543C80.847 69.291 80.6602 69.3594 80.4141 69.3594C80.168 69.3594 79.9811 69.291 79.8535 69.1543C79.7305 69.0176 79.6689 68.8467 79.6689 68.6416ZM87.6328 78C87.5599 77.8542 87.5007 77.5944 87.4551 77.2207C86.8672 77.8314 86.1654 78.1367 85.3496 78.1367C84.6204 78.1367 84.0212 77.9316 83.5518 77.5215C83.0869 77.1068 82.8545 76.5827 82.8545 75.9492C82.8545 75.179 83.1462 74.582 83.7295 74.1582C84.3174 73.7298 85.1423 73.5156 86.2041 73.5156H87.4346V72.9346C87.4346 72.4925 87.3024 72.1416 87.0381 71.8818C86.7738 71.6175 86.3841 71.4854 85.8691 71.4854C85.418 71.4854 85.0397 71.5993 84.7344 71.8271C84.429 72.055 84.2764 72.3307 84.2764 72.6543H83.0049C83.0049 72.2852 83.1348 71.9297 83.3945 71.5879C83.6589 71.2415 84.0143 70.9681 84.4609 70.7676C84.9121 70.5671 85.4066 70.4668 85.9443 70.4668C86.7965 70.4668 87.4642 70.681 87.9473 71.1094C88.4303 71.5332 88.681 72.1188 88.6992 72.8662V76.2705C88.6992 76.9495 88.7858 77.4896 88.959 77.8906V78H87.6328ZM85.5342 77.0361C85.9307 77.0361 86.3066 76.9336 86.6621 76.7285C87.0176 76.5234 87.2751 76.2568 87.4346 75.9287V74.4111H86.4434C84.8939 74.4111 84.1191 74.8646 84.1191 75.7715C84.1191 76.168 84.2513 76.4779 84.5156 76.7012C84.7799 76.9245 85.1195 77.0361 85.5342 77.0361ZM91.8779 70.6035L91.9189 71.5332C92.484 70.8223 93.2223 70.4668 94.1338 70.4668C95.6969 70.4668 96.4854 71.3486 96.499 73.1123V78H95.2344V73.1055C95.2298 72.5723 95.1068 72.1781 94.8652 71.9229C94.6283 71.6676 94.2568 71.54 93.751 71.54C93.3408 71.54 92.9808 71.6494 92.6709 71.8682C92.361 72.0869 92.1195 72.374 91.9463 72.7295V78H90.6816V70.6035H91.8779ZM48.5107 91.4023H44.3408L43.4043 94H42.0508L45.8516 84.0469H47L50.8076 94H49.4609L48.5107 91.4023ZM44.7373 90.3223H48.1211L46.4258 85.667L44.7373 90.3223ZM53.3232 94H52.0586V86.6035H53.3232V94ZM51.9561 84.6416C51.9561 84.4365 52.0176 84.2633 52.1406 84.1221C52.2682 83.9808 52.4551 83.9102 52.7012 83.9102C52.9473 83.9102 53.1341 83.9808 53.2617 84.1221C53.3893 84.2633 53.4531 84.4365 53.4531 84.6416C53.4531 84.8467 53.3893 85.0176 53.2617 85.1543C53.1341 85.291 52.9473 85.3594 52.7012 85.3594C52.4551 85.3594 52.2682 85.291 52.1406 85.1543C52.0176 85.0176 51.9561 84.8467 51.9561 84.6416ZM58.9287 87.7383C58.7373 87.7064 58.5299 87.6904 58.3066 87.6904C57.4772 87.6904 56.9144 88.0436 56.6182 88.75V94H55.3535V86.6035H56.584L56.6045 87.458C57.0192 86.7972 57.6071 86.4668 58.3682 86.4668C58.6143 86.4668 58.8011 86.4987 58.9287 86.5625V87.7383Z" fill="#453F3F"/>
<rect x="47.5881" y="14.3324" width="2.68761" height="2.15009" fill="#3890DE"/>
<rect x="45.9756" y="16.2137" width="6.04712" height="2.68761" rx="1.3438" fill="#0F2C64"/>
<path d="M52.6946 14.3996H45.1021C44.7024 14.8458 44.3455 15.3344 43.0192 15.609C38.5958 15.5713 39.6676 10.5013 43.0192 11.0401C43.8527 11.3122 44.2625 11.5151 45.1021 12.2495H52.6946C53.9659 11.4814 54.3583 11.388 54.979 11.2417C58.976 10.3926 59.5427 16.3368 54.979 15.609C53.9693 15.2782 53.4537 15.0564 52.6946 14.3996Z" fill="#26498C"/>
<path d="M70.0296 32.4066C70.4647 21.6323 65.2145 19.1724 54.8447 20.3123V28.7111H60.8918C61.3381 28.6604 61.4763 28.7432 61.4293 29.1814V32.4066H70.0296Z" fill="#3890DE"/>
<rect x="36.3002" y="19.9764" width="6.04712" height="8.60034" fill="#3890DE"/>
<rect x="32" y="17.5575" width="4.30017" height="13.7068" fill="#26498C"/>
<rect x="39.3909" y="17.5575" width="19.6195" height="13.7068" rx="5" fill="#26498C"/>
<rect x="60.4886" y="32.3394" width="10.4817" height="2.68761" rx="1.3438" fill="#26498C"/>
<path d="M67.2643 43.5444C69.1768 41.7508 69.055 40.3484 66.2962 37C63.2747 40.1943 62.654 41.8138 64.9247 43.6984C65.4088 44.1001 66.6189 44.1496 67.2643 43.5444Z" fill="#00BDFF"/>
<path d="M65.556 42.2308C65.556 42.6556 65.3321 43 65.056 43C64.7798 43 64.556 42.6556 64.556 42.2308C64.556 41.8059 64.7798 41 65.056 41C65.3321 41 65.556 41.8059 65.556 42.2308Z" fill="#E4EEFF"/>
<defs>
<linearGradient id="paint0_linear" x1="50" y1="5.66515e-07" x2="23" y2="113" gradientUnits="userSpaceOnUse">
<stop stop-color="white"/>
<stop offset="1" stop-color="#1DA0E0"/>
</linearGradient>
</defs>
</svg>
