<svg width="135" height="114" viewBox="0 0 135 114" fill="none" xmlns="http://www.w3.org/2000/svg">
<rect x="40" width="55" height="55" rx="5" fill="url(#paint0_linear)"/>
<path d="M21.4121 78H20.0996V68.0469H21.4121V78ZM24.8164 70.6035L24.8574 71.5332C25.4225 70.8223 26.1608 70.4668 27.0723 70.4668C28.6354 70.4668 29.4238 71.3486 29.4375 73.1123V78H28.1729V73.1055C28.1683 72.5723 28.0452 72.1781 27.8037 71.9229C27.5667 71.6676 27.1953 71.54 26.6895 71.54C26.2793 71.54 25.9193 71.6494 25.6094 71.8682C25.2995 72.0869 25.0579 72.374 24.8848 72.7295V78H23.6201V70.6035H24.8164ZM31.9668 78V71.5811H30.7979V70.6035H31.9668V69.8447C31.9668 69.0518 32.1787 68.4388 32.6025 68.0059C33.0264 67.5729 33.6257 67.3564 34.4004 67.3564C34.6921 67.3564 34.9814 67.3952 35.2686 67.4727L35.2002 68.498C34.986 68.457 34.7581 68.4365 34.5166 68.4365C34.1064 68.4365 33.7897 68.5573 33.5664 68.7988C33.3431 69.0358 33.2314 69.3776 33.2314 69.8242V70.6035H34.8105V71.5811H33.2314V78H31.9668ZM35.877 74.2334C35.877 73.5088 36.0182 72.8571 36.3008 72.2783C36.5879 71.6995 36.9844 71.2529 37.4902 70.9385C38.0007 70.624 38.5817 70.4668 39.2334 70.4668C40.2406 70.4668 41.054 70.8154 41.6738 71.5127C42.2982 72.21 42.6104 73.1374 42.6104 74.2949V74.3838C42.6104 75.1038 42.4714 75.751 42.1934 76.3252C41.9199 76.8949 41.5257 77.3392 41.0107 77.6582C40.5003 77.9772 39.9124 78.1367 39.2471 78.1367C38.2445 78.1367 37.431 77.7881 36.8066 77.0908C36.1868 76.3936 35.877 75.4707 35.877 74.3223V74.2334ZM37.1484 74.3838C37.1484 75.2041 37.3376 75.8626 37.7158 76.3594C38.0986 76.8561 38.609 77.1045 39.2471 77.1045C39.8896 77.1045 40.4001 76.8538 40.7783 76.3525C41.1566 75.8467 41.3457 75.1403 41.3457 74.2334C41.3457 73.4222 41.152 72.766 40.7646 72.2646C40.3818 71.7588 39.8714 71.5059 39.2334 71.5059C38.609 71.5059 38.1055 71.7542 37.7227 72.251C37.3398 72.7477 37.1484 73.4587 37.1484 74.3838ZM49.1797 74.1035V78H47.8672V68.0469H51.5381C52.6273 68.0469 53.4795 68.3249 54.0947 68.8809C54.7145 69.4368 55.0244 70.1729 55.0244 71.0889C55.0244 72.055 54.7214 72.8001 54.1152 73.3242C53.5137 73.8438 52.6501 74.1035 51.5244 74.1035H49.1797ZM49.1797 73.0303H51.5381C52.2399 73.0303 52.7777 72.8662 53.1514 72.5381C53.5251 72.2054 53.7119 71.7269 53.7119 71.1025C53.7119 70.5101 53.5251 70.0361 53.1514 69.6807C52.7777 69.3252 52.265 69.1406 51.6133 69.127H49.1797V73.0303ZM59.4746 78.1367C58.472 78.1367 57.6562 77.8086 57.0273 77.1523C56.3984 76.4915 56.084 75.6097 56.084 74.5068V74.2744C56.084 73.5407 56.223 72.8867 56.501 72.3125C56.7835 71.7337 57.1755 71.2826 57.6768 70.959C58.1826 70.6309 58.7295 70.4668 59.3174 70.4668C60.279 70.4668 61.0264 70.7835 61.5596 71.417C62.0928 72.0505 62.3594 72.9574 62.3594 74.1377V74.6641H57.3486C57.3669 75.3932 57.5788 75.9834 57.9844 76.4346C58.3945 76.8812 58.9141 77.1045 59.543 77.1045C59.9896 77.1045 60.3678 77.0133 60.6777 76.8311C60.9876 76.6488 61.2588 76.4072 61.4912 76.1064L62.2637 76.708C61.6439 77.6605 60.7142 78.1367 59.4746 78.1367ZM59.3174 71.5059C58.807 71.5059 58.3786 71.6927 58.0322 72.0664C57.6859 72.4355 57.4717 72.9551 57.3896 73.625H61.0947V73.5293C61.0583 72.8867 60.8851 72.39 60.5752 72.0391C60.2653 71.6836 59.846 71.5059 59.3174 71.5059ZM65.2031 78H63.9385V67.5H65.2031V78ZM71.7998 78C71.7269 77.8542 71.6676 77.5944 71.6221 77.2207C71.0342 77.8314 70.3324 78.1367 69.5166 78.1367C68.7874 78.1367 68.1882 77.9316 67.7188 77.5215C67.2539 77.1068 67.0215 76.5827 67.0215 75.9492C67.0215 75.179 67.3132 74.582 67.8965 74.1582C68.4844 73.7298 69.3092 73.5156 70.3711 73.5156H71.6016V72.9346C71.6016 72.4925 71.4694 72.1416 71.2051 71.8818C70.9408 71.6175 70.5511 71.4854 70.0361 71.4854C69.585 71.4854 69.2067 71.5993 68.9014 71.8271C68.596 72.055 68.4434 72.3307 68.4434 72.6543H67.1719C67.1719 72.2852 67.3018 71.9297 67.5615 71.5879C67.8258 71.2415 68.1813 70.9681 68.6279 70.7676C69.0791 70.5671 69.5736 70.4668 70.1113 70.4668C70.9635 70.4668 71.6312 70.681 72.1143 71.1094C72.5973 71.5332 72.848 72.1188 72.8662 72.8662V76.2705C72.8662 76.9495 72.9528 77.4896 73.126 77.8906V78H71.7998ZM69.7012 77.0361C70.0977 77.0361 70.4736 76.9336 70.8291 76.7285C71.1846 76.5234 71.4421 76.2568 71.6016 75.9287V74.4111H70.6104C69.0609 74.4111 68.2861 74.8646 68.2861 75.7715C68.2861 76.168 68.4183 76.4779 68.6826 76.7012C68.9469 76.9245 69.2865 77.0361 69.7012 77.0361ZM76.0449 70.6035L76.0859 71.5332C76.651 70.8223 77.3893 70.4668 78.3008 70.4668C79.8639 70.4668 80.6523 71.3486 80.666 73.1123V78H79.4014V73.1055C79.3968 72.5723 79.2738 72.1781 79.0322 71.9229C78.7952 71.6676 78.4238 71.54 77.918 71.54C77.5078 71.54 77.1478 71.6494 76.8379 71.8682C76.528 72.0869 76.2865 72.374 76.1133 72.7295V78H74.8486V70.6035H76.0449ZM82.2725 74.2402C82.2725 73.0872 82.5391 72.1712 83.0723 71.4922C83.6055 70.8086 84.3118 70.4668 85.1914 70.4668C86.0938 70.4668 86.7979 70.7858 87.3037 71.4238L87.3652 70.6035H88.5205V77.8223C88.5205 78.7793 88.2357 79.5335 87.666 80.085C87.1009 80.6364 86.3398 80.9121 85.3828 80.9121C84.8496 80.9121 84.3278 80.7982 83.8174 80.5703C83.307 80.3424 82.9173 80.0303 82.6484 79.6338L83.3047 78.875C83.847 79.5449 84.5101 79.8799 85.2939 79.8799C85.9092 79.8799 86.3877 79.7067 86.7295 79.3604C87.0758 79.014 87.249 78.5264 87.249 77.8975V77.2617C86.7432 77.8451 86.0527 78.1367 85.1777 78.1367C84.3118 78.1367 83.61 77.7881 83.0723 77.0908C82.5391 76.3936 82.2725 75.4434 82.2725 74.2402ZM83.5439 74.3838C83.5439 75.2178 83.7148 75.874 84.0566 76.3525C84.3984 76.8265 84.877 77.0635 85.4922 77.0635C86.2897 77.0635 86.8753 76.7012 87.249 75.9766V72.5996C86.8617 71.8932 86.2806 71.54 85.5059 71.54C84.8906 71.54 84.4098 71.7793 84.0635 72.2578C83.7171 72.7363 83.5439 73.445 83.5439 74.3838ZM90.1338 74.2402C90.1338 73.0872 90.4004 72.1712 90.9336 71.4922C91.4668 70.8086 92.1732 70.4668 93.0527 70.4668C93.9551 70.4668 94.6592 70.7858 95.165 71.4238L95.2266 70.6035H96.3818V77.8223C96.3818 78.7793 96.097 79.5335 95.5273 80.085C94.9622 80.6364 94.2012 80.9121 93.2441 80.9121C92.7109 80.9121 92.1891 80.7982 91.6787 80.5703C91.1683 80.3424 90.7786 80.0303 90.5098 79.6338L91.166 78.875C91.7083 79.5449 92.3714 79.8799 93.1553 79.8799C93.7705 79.8799 94.249 79.7067 94.5908 79.3604C94.9372 79.014 95.1104 78.5264 95.1104 77.8975V77.2617C94.6045 77.8451 93.9141 78.1367 93.0391 78.1367C92.1732 78.1367 91.4714 77.7881 90.9336 77.0908C90.4004 76.3936 90.1338 75.4434 90.1338 74.2402ZM91.4053 74.3838C91.4053 75.2178 91.5762 75.874 91.918 76.3525C92.2598 76.8265 92.7383 77.0635 93.3535 77.0635C94.151 77.0635 94.7367 76.7012 95.1104 75.9766V72.5996C94.723 71.8932 94.1419 71.54 93.3672 71.54C92.752 71.54 92.2712 71.7793 91.9248 72.2578C91.5785 72.7363 91.4053 73.445 91.4053 74.3838ZM102.862 78C102.789 77.8542 102.73 77.5944 102.685 77.2207C102.097 77.8314 101.395 78.1367 100.579 78.1367C99.8499 78.1367 99.2507 77.9316 98.7812 77.5215C98.3164 77.1068 98.084 76.5827 98.084 75.9492C98.084 75.179 98.3757 74.582 98.959 74.1582C99.5469 73.7298 100.372 73.5156 101.434 73.5156H102.664V72.9346C102.664 72.4925 102.532 72.1416 102.268 71.8818C102.003 71.6175 101.614 71.4854 101.099 71.4854C100.647 71.4854 100.269 71.5993 99.9639 71.8271C99.6585 72.055 99.5059 72.3307 99.5059 72.6543H98.2344C98.2344 72.2852 98.3643 71.9297 98.624 71.5879C98.8883 71.2415 99.2438 70.9681 99.6904 70.7676C100.142 70.5671 100.636 70.4668 101.174 70.4668C102.026 70.4668 102.694 70.681 103.177 71.1094C103.66 71.5332 103.91 72.1188 103.929 72.8662V76.2705C103.929 76.9495 104.015 77.4896 104.188 77.8906V78H102.862ZM100.764 77.0361C101.16 77.0361 101.536 76.9336 101.892 76.7285C102.247 76.5234 102.505 76.2568 102.664 75.9287V74.4111H101.673C100.123 74.4111 99.3486 74.8646 99.3486 75.7715C99.3486 76.168 99.4808 76.4779 99.7451 76.7012C100.009 76.9245 100.349 77.0361 100.764 77.0361ZM107.107 70.6035L107.148 71.5332C107.714 70.8223 108.452 70.4668 109.363 70.4668C110.926 70.4668 111.715 71.3486 111.729 73.1123V78H110.464V73.1055C110.459 72.5723 110.336 72.1781 110.095 71.9229C109.858 71.6676 109.486 71.54 108.98 71.54C108.57 71.54 108.21 71.6494 107.9 71.8682C107.59 72.0869 107.349 72.374 107.176 72.7295V78H105.911V70.6035H107.107ZM1.14355 89.96C1.14355 88.93 1.28027 87.9411 1.55371 86.9932C1.83171 86.0452 2.24414 85.1839 2.79102 84.4092C3.33789 83.6344 3.90527 83.0876 4.49316 82.7686L4.75293 83.6025C4.08757 84.113 3.54069 84.8923 3.1123 85.9404C2.68848 86.9886 2.45605 88.1621 2.41504 89.4609L2.4082 90.042C2.4082 91.8011 2.72949 93.3278 3.37207 94.6221C3.75944 95.3968 4.21973 96.0029 4.75293 96.4404L4.49316 97.2129C3.88704 96.8757 3.30827 96.3105 2.75684 95.5176C1.68132 93.9681 1.14355 92.1156 1.14355 89.96ZM7.4873 90.1035V94H6.1748V84.0469H9.8457C10.9349 84.0469 11.7871 84.3249 12.4023 84.8809C13.0221 85.4368 13.332 86.1729 13.332 87.0889C13.332 88.055 13.029 88.8001 12.4229 89.3242C11.8213 89.8438 10.9577 90.1035 9.83203 90.1035H7.4873ZM7.4873 89.0303H9.8457C10.5475 89.0303 11.0853 88.8662 11.459 88.5381C11.8327 88.2054 12.0195 87.7269 12.0195 87.1025C12.0195 86.5101 11.8327 86.0361 11.459 85.6807C11.0853 85.3252 10.5726 85.1406 9.9209 85.127H7.4873V89.0303ZM17.7822 94.1367C16.7796 94.1367 15.9639 93.8086 15.335 93.1523C14.7061 92.4915 14.3916 91.6097 14.3916 90.5068V90.2744C14.3916 89.5407 14.5306 88.8867 14.8086 88.3125C15.0911 87.7337 15.4831 87.2826 15.9844 86.959C16.4902 86.6309 17.0371 86.4668 17.625 86.4668C18.5866 86.4668 19.334 86.7835 19.8672 87.417C20.4004 88.0505 20.667 88.9574 20.667 90.1377V90.6641H15.6562C15.6745 91.3932 15.8864 91.9834 16.292 92.4346C16.7021 92.8812 17.2217 93.1045 17.8506 93.1045C18.2972 93.1045 18.6755 93.0133 18.9854 92.8311C19.2952 92.6488 19.5664 92.4072 19.7988 92.1064L20.5713 92.708C19.9515 93.6605 19.0218 94.1367 17.7822 94.1367ZM17.625 87.5059C17.1146 87.5059 16.6862 87.6927 16.3398 88.0664C15.9935 88.4355 15.7793 88.9551 15.6973 89.625H19.4023V89.5293C19.3659 88.8867 19.1927 88.39 18.8828 88.0391C18.5729 87.6836 18.1536 87.5059 17.625 87.5059ZM23.3262 86.6035L23.3604 87.4238C23.9027 86.7858 24.6341 86.4668 25.5547 86.4668C26.5892 86.4668 27.2933 86.8633 27.667 87.6562C27.9131 87.3008 28.2321 87.0137 28.624 86.7949C29.0205 86.5762 29.4876 86.4668 30.0254 86.4668C31.6478 86.4668 32.4727 87.3258 32.5 89.0439V94H31.2354V89.1191C31.2354 88.5905 31.1146 88.1963 30.873 87.9365C30.6315 87.6722 30.2259 87.54 29.6562 87.54C29.1868 87.54 28.7972 87.6813 28.4873 87.9639C28.1774 88.2419 27.9974 88.6178 27.9473 89.0918V94H26.6758V89.1533C26.6758 88.0778 26.1494 87.54 25.0967 87.54C24.2673 87.54 23.6999 87.8932 23.3945 88.5996V94H22.1299V86.6035H23.3262ZM38.9805 94C38.9076 93.8542 38.8483 93.5944 38.8027 93.2207C38.2148 93.8314 37.513 94.1367 36.6973 94.1367C35.9681 94.1367 35.3688 93.9316 34.8994 93.5215C34.4346 93.1068 34.2021 92.5827 34.2021 91.9492C34.2021 91.179 34.4938 90.582 35.0771 90.1582C35.665 89.7298 36.4899 89.5156 37.5518 89.5156H38.7822V88.9346C38.7822 88.4925 38.6501 88.1416 38.3857 87.8818C38.1214 87.6175 37.7318 87.4854 37.2168 87.4854C36.7656 87.4854 36.3874 87.5993 36.082 87.8271C35.7767 88.055 35.624 88.3307 35.624 88.6543H34.3525C34.3525 88.2852 34.4824 87.9297 34.7422 87.5879C35.0065 87.2415 35.362 86.9681 35.8086 86.7676C36.2598 86.5671 36.7542 86.4668 37.292 86.4668C38.1442 86.4668 38.8118 86.681 39.2949 87.1094C39.778 87.5332 40.0286 88.1188 40.0469 88.8662V92.2705C40.0469 92.9495 40.1335 93.4896 40.3066 93.8906V94H38.9805ZM36.8818 93.0361C37.2783 93.0361 37.6543 92.9336 38.0098 92.7285C38.3652 92.5234 38.6227 92.2568 38.7822 91.9287V90.4111H37.791C36.2415 90.4111 35.4668 90.8646 35.4668 91.7715C35.4668 92.168 35.599 92.4779 35.8633 92.7012C36.1276 92.9245 36.4671 93.0361 36.8818 93.0361ZM46.3359 92.0381C46.3359 91.6963 46.2061 91.432 45.9463 91.2451C45.6911 91.0537 45.2422 90.8896 44.5996 90.7529C43.9616 90.6162 43.4535 90.4521 43.0752 90.2607C42.7015 90.0693 42.4235 89.8415 42.2412 89.5771C42.0635 89.3128 41.9746 88.9984 41.9746 88.6338C41.9746 88.0277 42.2298 87.515 42.7402 87.0957C43.2552 86.6764 43.9115 86.4668 44.709 86.4668C45.5475 86.4668 46.2266 86.6833 46.7461 87.1162C47.2702 87.5492 47.5322 88.1029 47.5322 88.7773H46.2607C46.2607 88.431 46.1126 88.1325 45.8164 87.8818C45.5247 87.6312 45.1556 87.5059 44.709 87.5059C44.2487 87.5059 43.8887 87.6061 43.6289 87.8066C43.3691 88.0072 43.2393 88.2692 43.2393 88.5928C43.2393 88.8981 43.36 89.1283 43.6016 89.2832C43.8431 89.4382 44.2783 89.5863 44.9072 89.7275C45.5407 89.8688 46.0534 90.0374 46.4453 90.2334C46.8372 90.4294 47.1266 90.6663 47.3135 90.9443C47.5049 91.2178 47.6006 91.5527 47.6006 91.9492C47.6006 92.61 47.3363 93.141 46.8076 93.542C46.279 93.9385 45.5931 94.1367 44.75 94.1367C44.1576 94.1367 43.6335 94.0319 43.1777 93.8223C42.722 93.6126 42.3643 93.321 42.1045 92.9473C41.8493 92.569 41.7217 92.1611 41.7217 91.7236H42.9863C43.0091 92.1475 43.1777 92.4847 43.4922 92.7354C43.8112 92.9814 44.2305 93.1045 44.75 93.1045C45.2285 93.1045 45.6113 93.0088 45.8984 92.8174C46.1901 92.6214 46.3359 92.3617 46.3359 92.0381ZM53.8145 94C53.7415 93.8542 53.6823 93.5944 53.6367 93.2207C53.0488 93.8314 52.347 94.1367 51.5312 94.1367C50.8021 94.1367 50.2028 93.9316 49.7334 93.5215C49.2686 93.1068 49.0361 92.5827 49.0361 91.9492C49.0361 91.179 49.3278 90.582 49.9111 90.1582C50.499 89.7298 51.3239 89.5156 52.3857 89.5156H53.6162V88.9346C53.6162 88.4925 53.484 88.1416 53.2197 87.8818C52.9554 87.6175 52.5658 87.4854 52.0508 87.4854C51.5996 87.4854 51.2214 87.5993 50.916 87.8271C50.6107 88.055 50.458 88.3307 50.458 88.6543H49.1865C49.1865 88.2852 49.3164 87.9297 49.5762 87.5879C49.8405 87.2415 50.196 86.9681 50.6426 86.7676C51.0938 86.5671 51.5882 86.4668 52.126 86.4668C52.9782 86.4668 53.6458 86.681 54.1289 87.1094C54.612 87.5332 54.8626 88.1188 54.8809 88.8662V92.2705C54.8809 92.9495 54.9674 93.4896 55.1406 93.8906V94H53.8145ZM51.7158 93.0361C52.1123 93.0361 52.4883 92.9336 52.8438 92.7285C53.1992 92.5234 53.4567 92.2568 53.6162 91.9287V90.4111H52.625C51.0755 90.4111 50.3008 90.8646 50.3008 91.7715C50.3008 92.168 50.4329 92.4779 50.6973 92.7012C50.9616 92.9245 51.3011 93.0361 51.7158 93.0361ZM58.0596 86.6035L58.1006 87.5332C58.6657 86.8223 59.404 86.4668 60.3154 86.4668C61.8786 86.4668 62.667 87.3486 62.6807 89.1123V94H61.416V89.1055C61.4115 88.5723 61.2884 88.1781 61.0469 87.9229C60.8099 87.6676 60.4385 87.54 59.9326 87.54C59.5225 87.54 59.1624 87.6494 58.8525 87.8682C58.5426 88.0869 58.3011 88.374 58.1279 88.7295V94H56.8633V86.6035H58.0596ZM64.2871 90.2402C64.2871 89.0872 64.5537 88.1712 65.0869 87.4922C65.6201 86.8086 66.3265 86.4668 67.2061 86.4668C68.1084 86.4668 68.8125 86.7858 69.3184 87.4238L69.3799 86.6035H70.5352V93.8223C70.5352 94.7793 70.2503 95.5335 69.6807 96.085C69.1156 96.6364 68.3545 96.9121 67.3975 96.9121C66.8643 96.9121 66.3424 96.7982 65.832 96.5703C65.3216 96.3424 64.932 96.0303 64.6631 95.6338L65.3193 94.875C65.8617 95.5449 66.5247 95.8799 67.3086 95.8799C67.9238 95.8799 68.4023 95.7067 68.7441 95.3604C69.0905 95.014 69.2637 94.5264 69.2637 93.8975V93.2617C68.7578 93.8451 68.0674 94.1367 67.1924 94.1367C66.3265 94.1367 65.6247 93.7881 65.0869 93.0908C64.5537 92.3936 64.2871 91.4434 64.2871 90.2402ZM65.5586 90.3838C65.5586 91.2178 65.7295 91.874 66.0713 92.3525C66.4131 92.8265 66.8916 93.0635 67.5068 93.0635C68.3044 93.0635 68.89 92.7012 69.2637 91.9766V88.5996C68.8763 87.8932 68.2952 87.54 67.5205 87.54C66.9053 87.54 66.4245 87.7793 66.0781 88.2578C65.7318 88.7363 65.5586 89.445 65.5586 90.3838ZM77.0156 94C76.9427 93.8542 76.8835 93.5944 76.8379 93.2207C76.25 93.8314 75.5482 94.1367 74.7324 94.1367C74.0033 94.1367 73.404 93.9316 72.9346 93.5215C72.4697 93.1068 72.2373 92.5827 72.2373 91.9492C72.2373 91.179 72.529 90.582 73.1123 90.1582C73.7002 89.7298 74.5251 89.5156 75.5869 89.5156H76.8174V88.9346C76.8174 88.4925 76.6852 88.1416 76.4209 87.8818C76.1566 87.6175 75.7669 87.4854 75.252 87.4854C74.8008 87.4854 74.4225 87.5993 74.1172 87.8271C73.8118 88.055 73.6592 88.3307 73.6592 88.6543H72.3877C72.3877 88.2852 72.5176 87.9297 72.7773 87.5879C73.0417 87.2415 73.3971 86.9681 73.8438 86.7676C74.2949 86.5671 74.7894 86.4668 75.3271 86.4668C76.1794 86.4668 76.847 86.681 77.3301 87.1094C77.8132 87.5332 78.0638 88.1188 78.082 88.8662V92.2705C78.082 92.9495 78.1686 93.4896 78.3418 93.8906V94H77.0156ZM74.917 93.0361C75.3135 93.0361 75.6895 92.9336 76.0449 92.7285C76.4004 92.5234 76.6579 92.2568 76.8174 91.9287V90.4111H75.8262C74.2767 90.4111 73.502 90.8646 73.502 91.7715C73.502 92.168 73.6341 92.4779 73.8984 92.7012C74.1628 92.9245 74.5023 93.0361 74.917 93.0361ZM81.2607 86.6035L81.3018 87.5332C81.8669 86.8223 82.6051 86.4668 83.5166 86.4668C85.0798 86.4668 85.8682 87.3486 85.8818 89.1123V94H84.6172V89.1055C84.6126 88.5723 84.4896 88.1781 84.248 87.9229C84.0111 87.6676 83.6396 87.54 83.1338 87.54C82.7236 87.54 82.3636 87.6494 82.0537 87.8682C81.7438 88.0869 81.5023 88.374 81.3291 88.7295V94H80.0645V86.6035H81.2607ZM91.46 94V84.0469H94.7139C95.7939 84.0469 96.6051 84.2702 97.1475 84.7168C97.6943 85.1634 97.9678 85.8242 97.9678 86.6992C97.9678 87.1641 97.8356 87.5765 97.5713 87.9365C97.307 88.292 96.9469 88.5677 96.4912 88.7637C97.029 88.9141 97.4528 89.2012 97.7627 89.625C98.0771 90.0443 98.2344 90.5456 98.2344 91.1289C98.2344 92.0221 97.945 92.724 97.3662 93.2344C96.7874 93.7448 95.9694 94 94.9121 94H91.46ZM92.7725 89.3447V92.9268H94.9395C95.5501 92.9268 96.0309 92.7695 96.3818 92.4551C96.7373 92.1361 96.915 91.6986 96.915 91.1426C96.915 89.944 96.2633 89.3447 94.96 89.3447H92.7725ZM92.7725 88.292H94.7549C95.3291 88.292 95.7871 88.1484 96.1289 87.8613C96.4753 87.5742 96.6484 87.1846 96.6484 86.6924C96.6484 86.1455 96.4889 85.749 96.1699 85.5029C95.8509 85.2523 95.3656 85.127 94.7139 85.127H92.7725V88.292ZM104.551 94C104.478 93.8542 104.419 93.5944 104.373 93.2207C103.785 93.8314 103.083 94.1367 102.268 94.1367C101.538 94.1367 100.939 93.9316 100.47 93.5215C100.005 93.1068 99.7725 92.5827 99.7725 91.9492C99.7725 91.179 100.064 90.582 100.647 90.1582C101.235 89.7298 102.06 89.5156 103.122 89.5156H104.353V88.9346C104.353 88.4925 104.22 88.1416 103.956 87.8818C103.692 87.6175 103.302 87.4854 102.787 87.4854C102.336 87.4854 101.958 87.5993 101.652 87.8271C101.347 88.055 101.194 88.3307 101.194 88.6543H99.9229C99.9229 88.2852 100.053 87.9297 100.312 87.5879C100.577 87.2415 100.932 86.9681 101.379 86.7676C101.83 86.5671 102.325 86.4668 102.862 86.4668C103.715 86.4668 104.382 86.681 104.865 87.1094C105.348 87.5332 105.599 88.1188 105.617 88.8662V92.2705C105.617 92.9495 105.704 93.4896 105.877 93.8906V94H104.551ZM102.452 93.0361C102.849 93.0361 103.225 92.9336 103.58 92.7285C103.936 92.5234 104.193 92.2568 104.353 91.9287V90.4111H103.361C101.812 90.4111 101.037 90.8646 101.037 91.7715C101.037 92.168 101.169 92.4779 101.434 92.7012C101.698 92.9245 102.037 93.0361 102.452 93.0361ZM111.175 87.7383C110.983 87.7064 110.776 87.6904 110.553 87.6904C109.723 87.6904 109.16 88.0436 108.864 88.75V94H107.6V86.6035H108.83L108.851 87.458C109.265 86.7972 109.853 86.4668 110.614 86.4668C110.86 86.4668 111.047 86.4987 111.175 86.5625V87.7383ZM116.91 93.2686C116.418 93.8473 115.696 94.1367 114.743 94.1367C113.955 94.1367 113.353 93.9089 112.938 93.4531C112.528 92.9928 112.321 92.3138 112.316 91.416V86.6035H113.581V91.3818C113.581 92.5029 114.037 93.0635 114.948 93.0635C115.914 93.0635 116.557 92.7035 116.876 91.9834V86.6035H118.141V94H116.938L116.91 93.2686ZM123.274 91.3271C123.274 90.8486 123.407 90.4089 123.671 90.0078C123.94 89.6068 124.45 89.1396 125.202 88.6064C124.76 88.0687 124.464 87.6357 124.313 87.3076C124.163 86.9795 124.088 86.6536 124.088 86.3301C124.088 85.5736 124.311 84.9811 124.758 84.5527C125.204 84.1243 125.811 83.9102 126.576 83.9102C127.26 83.9102 127.825 84.1107 128.271 84.5117C128.718 84.9082 128.941 85.4095 128.941 86.0156C128.941 86.4167 128.839 86.7881 128.634 87.1299C128.433 87.4671 128.08 87.8226 127.574 88.1963L126.843 88.7363L129.058 91.3818C129.368 90.7894 129.522 90.1309 129.522 89.4062H130.664C130.664 90.5684 130.384 91.5322 129.823 92.2979L131.245 94H129.728L129.064 93.2139C128.727 93.5146 128.331 93.7448 127.875 93.9043C127.424 94.0592 126.964 94.1367 126.494 94.1367C125.523 94.1367 124.744 93.8792 124.156 93.3643C123.568 92.8493 123.274 92.1702 123.274 91.3271ZM126.494 93.1045C127.164 93.1045 127.777 92.8493 128.333 92.3389L125.906 89.4336L125.681 89.5977C124.92 90.1582 124.539 90.7347 124.539 91.3271C124.539 91.8649 124.712 92.2956 125.059 92.6191C125.41 92.9427 125.888 93.1045 126.494 93.1045ZM125.353 86.2891C125.353 86.7266 125.621 87.2734 126.159 87.9297L126.966 87.3623C127.276 87.1436 127.488 86.9362 127.602 86.7402C127.715 86.5397 127.772 86.2982 127.772 86.0156C127.772 85.7103 127.659 85.4574 127.431 85.2568C127.203 85.0518 126.916 84.9492 126.569 84.9492C126.196 84.9492 125.899 85.0768 125.681 85.332C125.462 85.5827 125.353 85.9017 125.353 86.2891ZM39.6641 110H38.3516V100.047H39.6641V110ZM43.0684 102.604L43.1094 103.533C43.6745 102.822 44.4128 102.467 45.3242 102.467C46.8874 102.467 47.6758 103.349 47.6895 105.112V110H46.4248V105.105C46.4202 104.572 46.2972 104.178 46.0557 103.923C45.8187 103.668 45.4473 103.54 44.9414 103.54C44.5312 103.54 44.1712 103.649 43.8613 103.868C43.5514 104.087 43.3099 104.374 43.1367 104.729V110H41.8721V102.604H43.0684ZM50.2188 110V103.581H49.0498V102.604H50.2188V101.845C50.2188 101.052 50.4307 100.439 50.8545 100.006C51.2783 99.5729 51.8776 99.3564 52.6523 99.3564C52.944 99.3564 53.2334 99.3952 53.5205 99.4727L53.4521 100.498C53.238 100.457 53.0101 100.437 52.7686 100.437C52.3584 100.437 52.0417 100.557 51.8184 100.799C51.5951 101.036 51.4834 101.378 51.4834 101.824V102.604H53.0625V103.581H51.4834V110H50.2188ZM54.1289 106.233C54.1289 105.509 54.2702 104.857 54.5527 104.278C54.8398 103.7 55.2363 103.253 55.7422 102.938C56.2526 102.624 56.8337 102.467 57.4854 102.467C58.4925 102.467 59.306 102.815 59.9258 103.513C60.5501 104.21 60.8623 105.137 60.8623 106.295V106.384C60.8623 107.104 60.7233 107.751 60.4453 108.325C60.1719 108.895 59.7777 109.339 59.2627 109.658C58.7523 109.977 58.1644 110.137 57.499 110.137C56.4964 110.137 55.6829 109.788 55.0586 109.091C54.4388 108.394 54.1289 107.471 54.1289 106.322V106.233ZM55.4004 106.384C55.4004 107.204 55.5895 107.863 55.9678 108.359C56.3506 108.856 56.861 109.104 57.499 109.104C58.1416 109.104 58.652 108.854 59.0303 108.353C59.4085 107.847 59.5977 107.14 59.5977 106.233C59.5977 105.422 59.404 104.766 59.0166 104.265C58.6338 103.759 58.1234 103.506 57.4854 103.506C56.861 103.506 56.3574 103.754 55.9746 104.251C55.5918 104.748 55.4004 105.459 55.4004 106.384ZM72.7227 101.127H69.5234V110H68.2178V101.127H65.0254V100.047H72.7227V101.127ZM77.7881 110C77.7152 109.854 77.6559 109.594 77.6104 109.221C77.0225 109.831 76.3206 110.137 75.5049 110.137C74.7757 110.137 74.1764 109.932 73.707 109.521C73.2422 109.107 73.0098 108.583 73.0098 107.949C73.0098 107.179 73.3014 106.582 73.8848 106.158C74.4727 105.73 75.2975 105.516 76.3594 105.516H77.5898V104.935C77.5898 104.493 77.4577 104.142 77.1934 103.882C76.929 103.618 76.5394 103.485 76.0244 103.485C75.5732 103.485 75.195 103.599 74.8896 103.827C74.5843 104.055 74.4316 104.331 74.4316 104.654H73.1602C73.1602 104.285 73.29 103.93 73.5498 103.588C73.8141 103.242 74.1696 102.968 74.6162 102.768C75.0674 102.567 75.5618 102.467 76.0996 102.467C76.9518 102.467 77.6195 102.681 78.1025 103.109C78.5856 103.533 78.8363 104.119 78.8545 104.866V108.271C78.8545 108.95 78.9411 109.49 79.1143 109.891V110H77.7881ZM75.6895 109.036C76.0859 109.036 76.4619 108.934 76.8174 108.729C77.1729 108.523 77.4303 108.257 77.5898 107.929V106.411H76.5986C75.0492 106.411 74.2744 106.865 74.2744 107.771C74.2744 108.168 74.4066 108.478 74.6709 108.701C74.9352 108.924 75.2747 109.036 75.6895 109.036ZM84.4121 103.738C84.2207 103.706 84.0133 103.69 83.79 103.69C82.9606 103.69 82.3978 104.044 82.1016 104.75V110H80.8369V102.604H82.0674L82.0879 103.458C82.5026 102.797 83.0905 102.467 83.8516 102.467C84.0977 102.467 84.2845 102.499 84.4121 102.562V103.738ZM86.9551 110H85.6904V102.604H86.9551V110ZM85.5879 100.642C85.5879 100.437 85.6494 100.263 85.7725 100.122C85.9001 99.9808 86.0869 99.9102 86.333 99.9102C86.5791 99.9102 86.766 99.9808 86.8936 100.122C87.0212 100.263 87.085 100.437 87.085 100.642C87.085 100.847 87.0212 101.018 86.8936 101.154C86.766 101.291 86.5791 101.359 86.333 101.359C86.0869 101.359 85.9001 101.291 85.7725 101.154C85.6494 101.018 85.5879 100.847 85.5879 100.642ZM89.6074 110V103.581H88.4385V102.604H89.6074V101.845C89.6074 101.052 89.8193 100.439 90.2432 100.006C90.667 99.5729 91.2663 99.3564 92.041 99.3564C92.3327 99.3564 92.6221 99.3952 92.9092 99.4727L92.8408 100.498C92.6266 100.457 92.3988 100.437 92.1572 100.437C91.7471 100.437 91.4303 100.557 91.207 100.799C90.9837 101.036 90.8721 101.378 90.8721 101.824V102.604H92.4512V103.581H90.8721V110H89.6074ZM96.9082 106.028C96.9082 107.045 96.7738 108.02 96.5049 108.954C96.2406 109.884 95.8327 110.743 95.2812 111.531C94.7344 112.32 94.1602 112.88 93.5586 113.213L93.292 112.44C93.9938 111.903 94.5566 111.069 94.9805 109.938C95.4089 108.804 95.6276 107.546 95.6367 106.165V105.946C95.6367 104.989 95.5365 104.101 95.3359 103.28C95.1354 102.455 94.8551 101.717 94.4951 101.065C94.1396 100.414 93.7386 99.9056 93.292 99.541L93.5586 98.7686C94.1602 99.1012 94.7321 99.6572 95.2744 100.437C95.8213 101.216 96.2292 102.075 96.498 103.014C96.7715 103.952 96.9082 104.957 96.9082 106.028Z" fill="#453F3F"/>
<rect x="64.5881" y="14.3324" width="2.68761" height="2.15009" fill="#3890DE"/>
<rect x="62.9756" y="16.2137" width="6.04712" height="2.68761" rx="1.3438" fill="#0F2C64"/>
<path d="M69.6946 14.3996H62.1021C61.7024 14.8458 61.3455 15.3344 60.0192 15.609C55.5958 15.5713 56.6676 10.5013 60.0192 11.0401C60.8527 11.3122 61.2625 11.5151 62.1021 12.2495H69.6946C70.9659 11.4814 71.3583 11.388 71.979 11.2417C75.976 10.3926 76.5427 16.3368 71.979 15.609C70.9693 15.2782 70.4537 15.0564 69.6946 14.3996Z" fill="#26498C"/>
<path d="M87.0296 32.4065C87.4647 21.6323 82.2145 19.1724 71.8447 20.3123V28.7111H77.8918C78.3381 28.6604 78.4763 28.7431 78.4293 29.1814V32.4065H87.0296Z" fill="#3890DE"/>
<rect x="53.3002" y="19.9764" width="6.04712" height="8.60034" fill="#3890DE"/>
<rect x="49" y="17.5575" width="4.30017" height="13.7068" fill="#26498C"/>
<rect x="56.3909" y="17.5575" width="19.6195" height="13.7068" rx="5" fill="#26498C"/>
<rect x="77.4886" y="32.3394" width="10.4817" height="2.68761" rx="1.3438" fill="#26498C"/>
<path d="M84.2643 43.5444C86.1768 41.7508 86.055 40.3484 83.2962 37C80.2747 40.1943 79.654 41.8138 81.9247 43.6984C82.4088 44.1001 83.6189 44.1496 84.2643 43.5444Z" fill="#00BDFF"/>
<path d="M82.556 42.2308C82.556 42.6556 82.3321 43 82.056 43C81.7798 43 81.556 42.6556 81.556 42.2308C81.556 41.8059 81.7798 41 82.056 41C82.3321 41 82.556 41.8059 82.556 42.2308Z" fill="#E4EEFF"/>
<defs>
<linearGradient id="paint0_linear" x1="67" y1="5.66515e-07" x2="40" y2="113" gradientUnits="userSpaceOnUse">
<stop stop-color="white"/>
<stop offset="1" stop-color="#1DA0E0"/>
</linearGradient>
</defs>
</svg>
